<?xml version="1.0" encoding="UTF-8" standalone="no"?>
<!DOCTYPE svg PUBLIC "-//W3C//DTD SVG 1.1//EN" "http://www.w3.org/Graphics/SVG/1.1/DTD/svg11.dtd">
<svg width="100%" height="100%" viewBox="0 0 16 16" version="1.1" xmlns="http://www.w3.org/2000/svg" xmlns:xlink="http://www.w3.org/1999/xlink" xml:space="preserve" xmlns:serif="http://www.serif.com/" style="fill-rule:evenodd;clip-rule:evenodd;stroke-linejoin:round;stroke-miterlimit:2;">
    <rect id="Artboard1" x="0" y="0" width="16" height="16" style="fill:none;"/>
    <g id="Artboard11" serif:id="Artboard1">
        <g transform="matrix(-0.35073,-0.35073,0.35073,-0.35073,7.99999,16.4175)">
            <path d="M24,19.636C24,20.239 23.787,20.753 23.361,21.179C22.935,21.605 22.421,21.818 21.818,21.818C21.216,21.818 20.702,21.605 20.276,21.179C19.849,20.753 19.636,20.239 19.636,19.636L19.636,7.45L3.725,23.361C3.52,23.566 3.284,23.724 3.017,23.834C2.749,23.945 2.471,24 2.182,24C1.892,24 1.614,23.945 1.347,23.834C1.08,23.724 0.844,23.566 0.639,23.361C0.213,22.935 -0,22.421 0,21.818C-0,21.216 0.213,20.701 0.639,20.275L16.551,4.364L4.363,4.364C3.761,4.364 3.246,4.151 2.82,3.725C2.394,3.299 2.181,2.784 2.182,2.182C2.181,1.58 2.394,1.065 2.82,0.639C3.246,0.214 3.761,0 4.363,0L21.768,0L21.818,0C22.421,-0 22.935,0.213 23.361,0.639C23.787,1.065 24,1.579 24,2.182L24,19.636Z"/>
        </g>
    </g>
</svg>
