<?xml version="1.0" encoding="UTF-8" standalone="no"?>
<!DOCTYPE svg PUBLIC "-//W3C//DTD SVG 1.1//EN" "http://www.w3.org/Graphics/SVG/1.1/DTD/svg11.dtd">
<svg width="100%" height="100%" viewBox="0 0 32 24" version="1.1" xmlns="http://www.w3.org/2000/svg" xmlns:xlink="http://www.w3.org/1999/xlink" xml:space="preserve" xmlns:serif="http://www.serif.com/" style="fill-rule:evenodd;clip-rule:evenodd;stroke-linejoin:round;stroke-miterlimit:2;">
    <g transform="matrix(0.0166719,0,0,0.05,10.665,0)">
        <rect x="0" y="0" width="640" height="480" style="fill:white;fill-rule:nonzero;"/>
    </g>
    <g transform="matrix(0.05,0,0,0.05,0,0)">
        <path d="M120,0L213.3,0L213.3,480L120,480C53.77,480 0,426.23 0,360L0,120C0,53.77 53.77,0 120,0Z" style="fill:rgb(0,33,83);"/>
    </g>
    <g transform="matrix(0.05,0,0,0.05,0,0)">
        <path d="M426.7,0L520,0C586.23,0 640,53.77 640,120L640,360C640,426.23 586.23,480 520,480L426.7,480L426.7,0Z" style="fill:rgb(207,9,33);"/>
    </g>
</svg>
