<?xml version="1.0" encoding="UTF-8" standalone="no"?>
<!DOCTYPE svg PUBLIC "-//W3C//DTD SVG 1.1//EN" "http://www.w3.org/Graphics/SVG/1.1/DTD/svg11.dtd">
<svg width="100%" height="100%" viewBox="0 0 16 16" version="1.1" xmlns="http://www.w3.org/2000/svg" xmlns:xlink="http://www.w3.org/1999/xlink" xml:space="preserve" xmlns:serif="http://www.serif.com/" style="fill-rule:evenodd;clip-rule:evenodd;stroke-linejoin:round;stroke-miterlimit:2;">
    <g id="Shape" transform="matrix(1.6732,0,0,1.6732,0.470588,0.470588)">
        <path d="M8.182,0L8.182,-0.281C8.486,-0.281 8.745,-0.174 8.959,0.041C9.174,0.255 9.281,0.515 9.281,0.818L9.281,7.364C9.281,7.667 9.174,7.926 8.959,8.141C8.745,8.356 8.486,8.463 8.182,8.463C7.878,8.463 7.619,8.356 7.405,8.141C7.19,7.926 7.082,7.667 7.082,7.364L7.082,3.473L1.596,8.959C1.492,9.062 1.374,9.142 1.239,9.198C1.104,9.253 0.964,9.281 0.818,9.281C0.672,9.281 0.532,9.253 0.398,9.198C0.263,9.142 0.144,9.062 0.041,8.959C-0.174,8.744 -0.281,8.485 -0.281,8.182C-0.281,7.878 -0.174,7.619 0.041,7.404L5.527,1.918L1.636,1.918C1.333,1.918 1.073,1.81 0.859,1.596C0.644,1.381 0.537,1.122 0.537,0.818C0.537,0.515 0.644,0.255 0.859,0.041C1.074,-0.174 1.333,-0.281 1.636,-0.281L8.165,-0.281L8.179,-0.281L8.18,0L8.182,0Z"/>
    </g>
</svg>
