<?xml version="1.0" encoding="UTF-8" standalone="no"?>
<!DOCTYPE svg PUBLIC "-//W3C//DTD SVG 1.1//EN" "http://www.w3.org/Graphics/SVG/1.1/DTD/svg11.dtd">
<svg width="100%" height="100%" viewBox="0 0 32 32" version="1.1" xmlns="http://www.w3.org/2000/svg" xmlns:xlink="http://www.w3.org/1999/xlink" xml:space="preserve" xmlns:serif="http://www.serif.com/" style="fill-rule:evenodd;clip-rule:evenodd;stroke-linejoin:round;stroke-miterlimit:2;">
    <rect x="0" y="0" width="32" height="32" style="fill:white;"/>
    <g transform="matrix(9.17311e-17,1.49808,-1.49808,9.17311e-17,45.86,-7.96933)">
        <path d="M15.495,14.832C15.619,14.681 15.804,14.594 16,14.594C16.196,14.594 16.381,14.681 16.505,14.832C16.929,15.349 17.546,16.099 18.051,16.714C18.211,16.909 18.245,17.18 18.137,17.408C18.029,17.637 17.799,17.782 17.546,17.782C16.613,17.782 15.387,17.782 14.454,17.782C14.201,17.782 13.971,17.637 13.863,17.408C13.755,17.18 13.789,16.909 13.949,16.714C14.454,16.099 15.071,15.349 15.495,14.832Z"/>
    </g>
    <g transform="matrix(9.17311e-17,1.49808,1.49808,-9.17311e-17,-13.86,-7.96933)">
        <path d="M15.495,14.832C15.619,14.681 15.804,14.594 16,14.594C16.196,14.594 16.381,14.681 16.505,14.832C16.929,15.349 17.546,16.099 18.051,16.714C18.211,16.909 18.245,17.18 18.137,17.408C18.029,17.637 17.799,17.782 17.546,17.782C16.613,17.782 15.387,17.782 14.454,17.782C14.201,17.782 13.971,17.637 13.863,17.408C13.755,17.18 13.789,16.909 13.949,16.714C14.454,16.099 15.071,15.349 15.495,14.832Z"/>
    </g>
</svg>
