<?xml version="1.0" encoding="UTF-8" standalone="no"?>
<!DOCTYPE svg PUBLIC "-//W3C//DTD SVG 1.1//EN" "http://www.w3.org/Graphics/SVG/1.1/DTD/svg11.dtd">
<svg width="100%" height="100%" viewBox="0 0 370 224" version="1.1" xmlns="http://www.w3.org/2000/svg" xmlns:xlink="http://www.w3.org/1999/xlink" xml:space="preserve" xmlns:serif="http://www.serif.com/" style="fill-rule:evenodd;clip-rule:evenodd;stroke-linecap:round;stroke-miterlimit:10;">
    <g id="Islands-Chose" serif:id="Islands Chose" transform="matrix(1.62895,0,0,0.856985,-2.31487e-14,0)">
        <rect x="0" y="0" width="227.141" height="261.381" style="fill:none;"/>
        <clipPath id="_clip1">
            <rect x="0" y="0" width="227.141" height="261.381"/>
        </clipPath>
        <g clip-path="url(#_clip1)">
            <g transform="matrix(0.613893,0,0,1.16688,1.42109e-14,0)">
                <rect x="0" y="0" width="370" height="224" style="fill:rgb(250,250,250);"/>
            </g>
            <g transform="matrix(1.34712,0,0,2.56058,35.3342,91.3515)">
                <path d="M29.046,1.68L29.046,29.046L1.68,29.046L1.68,1.68L29.046,1.68Z" style="fill:white;"/>
                <path d="M29.046,1.68L29.046,29.046L1.68,29.046L1.68,1.68L29.046,1.68ZM28.439,2.288L2.288,2.288L2.288,28.439L28.439,28.439L28.439,2.288Z" style="fill:rgb(163,163,163);"/>
            </g>
            <g transform="matrix(0.402912,0,0,0.76585,30.9935,83.1008)">
                <path d="M15.367,1.68C22.922,1.68 29.046,7.805 29.046,15.36C29.046,15.361 29.046,15.363 29.046,15.364C29.046,22.921 22.921,29.046 15.364,29.046C15.364,29.046 15.363,29.046 15.363,29.046C7.806,29.046 1.68,22.921 1.68,15.364C1.68,15.364 1.68,15.363 1.68,15.363C1.68,7.806 7.806,1.68 15.363,1.68C15.364,1.68 15.366,1.68 15.367,1.68Z" style="fill:white;"/>
                <path d="M15.367,1.68C22.922,1.68 29.046,7.805 29.046,15.36L29.046,15.364C29.046,22.921 22.92,29.046 15.363,29.046C7.807,29.046 1.68,22.92 1.68,15.363C1.68,7.807 7.806,1.68 15.363,1.68L15.367,1.68ZM15.367,3.712L15.363,3.712C8.928,3.712 3.712,8.929 3.712,15.363C3.712,21.798 8.929,27.015 15.363,27.015C21.798,27.015 27.015,21.799 27.015,15.364L27.015,15.36C27.015,8.927 21.8,3.712 15.367,3.712Z" style="fill:rgb(163,163,163);"/>
            </g>
            <g transform="matrix(0.402912,0,0,0.76585,30.9935,154.748)">
                <path d="M15.367,1.68C22.922,1.68 29.046,7.805 29.046,15.36C29.046,15.361 29.046,15.363 29.046,15.364C29.046,22.921 22.921,29.046 15.364,29.046C15.364,29.046 15.363,29.046 15.363,29.046C7.806,29.046 1.68,22.921 1.68,15.364C1.68,15.364 1.68,15.363 1.68,15.363C1.68,7.806 7.806,1.68 15.363,1.68C15.364,1.68 15.366,1.68 15.367,1.68Z" style="fill:white;"/>
                <path d="M15.367,1.68C22.922,1.68 29.046,7.805 29.046,15.36L29.046,15.364C29.046,22.921 22.92,29.046 15.363,29.046C7.807,29.046 1.68,22.92 1.68,15.363C1.68,7.807 7.806,1.68 15.363,1.68L15.367,1.68ZM15.367,3.712L15.363,3.712C8.928,3.712 3.712,8.929 3.712,15.363C3.712,21.798 8.929,27.015 15.363,27.015C21.798,27.015 27.015,21.799 27.015,15.364L27.015,15.36C27.015,8.927 21.8,3.712 15.367,3.712Z" style="fill:rgb(163,163,163);"/>
            </g>
            <g transform="matrix(0.402912,0,0,0.76585,30.9935,118.925)">
                <path d="M15.367,1.68C22.922,1.68 29.046,7.805 29.046,15.36C29.046,15.361 29.046,15.363 29.046,15.364C29.046,22.921 22.921,29.046 15.364,29.046C15.364,29.046 15.363,29.046 15.363,29.046C7.806,29.046 1.68,22.921 1.68,15.364C1.68,15.364 1.68,15.363 1.68,15.363C1.68,7.806 7.806,1.68 15.363,1.68C15.364,1.68 15.366,1.68 15.367,1.68Z" style="fill:white;"/>
                <path d="M15.367,1.68C22.922,1.68 29.046,7.805 29.046,15.36L29.046,15.364C29.046,22.921 22.92,29.046 15.363,29.046C7.807,29.046 1.68,22.92 1.68,15.363C1.68,7.807 7.806,1.68 15.363,1.68L15.367,1.68ZM15.367,3.712L15.363,3.712C8.928,3.712 3.712,8.929 3.712,15.363C3.712,21.798 8.929,27.015 15.363,27.015C21.798,27.015 27.015,21.799 27.015,15.364L27.015,15.36C27.015,8.927 21.8,3.712 15.367,3.712Z" style="fill:rgb(163,163,163);"/>
            </g>
            <g transform="matrix(0.402912,0,0,0.76585,68.6872,83.1008)">
                <path d="M15.367,1.68C22.922,1.68 29.046,7.805 29.046,15.36C29.046,15.361 29.046,15.363 29.046,15.364C29.046,22.921 22.921,29.046 15.364,29.046C15.364,29.046 15.363,29.046 15.363,29.046C7.806,29.046 1.68,22.921 1.68,15.364C1.68,15.364 1.68,15.363 1.68,15.363C1.68,7.806 7.806,1.68 15.363,1.68C15.364,1.68 15.366,1.68 15.367,1.68Z" style="fill:white;"/>
                <path d="M15.367,1.68C22.922,1.68 29.046,7.805 29.046,15.36L29.046,15.364C29.046,22.921 22.92,29.046 15.363,29.046C7.807,29.046 1.68,22.92 1.68,15.363C1.68,7.807 7.806,1.68 15.363,1.68L15.367,1.68ZM15.367,3.712L15.363,3.712C8.928,3.712 3.712,8.929 3.712,15.363C3.712,21.798 8.929,27.015 15.363,27.015C21.798,27.015 27.015,21.799 27.015,15.364L27.015,15.36C27.015,8.927 21.8,3.712 15.367,3.712Z" style="fill:rgb(163,163,163);"/>
            </g>
            <g transform="matrix(0.402912,0,0,0.76585,68.6872,154.748)">
                <path d="M15.367,1.68C22.922,1.68 29.046,7.805 29.046,15.36C29.046,15.361 29.046,15.363 29.046,15.364C29.046,22.921 22.921,29.046 15.364,29.046C15.364,29.046 15.363,29.046 15.363,29.046C7.806,29.046 1.68,22.921 1.68,15.364C1.68,15.364 1.68,15.363 1.68,15.363C1.68,7.806 7.806,1.68 15.363,1.68C15.364,1.68 15.366,1.68 15.367,1.68Z" style="fill:white;"/>
                <path d="M15.367,1.68C22.922,1.68 29.046,7.805 29.046,15.36L29.046,15.364C29.046,22.921 22.92,29.046 15.363,29.046C7.807,29.046 1.68,22.92 1.68,15.363C1.68,7.807 7.806,1.68 15.363,1.68L15.367,1.68ZM15.367,3.712L15.363,3.712C8.928,3.712 3.712,8.929 3.712,15.363C3.712,21.798 8.929,27.015 15.363,27.015C21.798,27.015 27.015,21.799 27.015,15.364L27.015,15.36C27.015,8.927 21.8,3.712 15.367,3.712Z" style="fill:rgb(163,163,163);"/>
            </g>
            <g transform="matrix(0.402912,0,0,0.76585,68.6872,118.925)">
                <path d="M15.367,1.68C22.922,1.68 29.046,7.805 29.046,15.36C29.046,15.361 29.046,15.363 29.046,15.364C29.046,22.921 22.921,29.046 15.364,29.046C15.364,29.046 15.363,29.046 15.363,29.046C7.806,29.046 1.68,22.921 1.68,15.364C1.68,15.364 1.68,15.363 1.68,15.363C1.68,7.806 7.806,1.68 15.363,1.68C15.364,1.68 15.366,1.68 15.367,1.68Z" style="fill:white;"/>
                <path d="M15.367,1.68C22.922,1.68 29.046,7.805 29.046,15.36L29.046,15.364C29.046,22.921 22.92,29.046 15.363,29.046C7.807,29.046 1.68,22.92 1.68,15.363C1.68,7.807 7.806,1.68 15.363,1.68L15.367,1.68ZM15.367,3.712L15.363,3.712C8.928,3.712 3.712,8.929 3.712,15.363C3.712,21.798 8.929,27.015 15.363,27.015C21.798,27.015 27.015,21.799 27.015,15.364L27.015,15.36C27.015,8.927 21.8,3.712 15.367,3.712Z" style="fill:rgb(163,163,163);"/>
            </g>
            <g transform="matrix(0.402912,0,0,0.76585,49.8403,83.1008)">
                <path d="M15.367,1.68C22.922,1.68 29.046,7.805 29.046,15.36C29.046,15.361 29.046,15.363 29.046,15.364C29.046,22.921 22.921,29.046 15.364,29.046C15.364,29.046 15.363,29.046 15.363,29.046C7.806,29.046 1.68,22.921 1.68,15.364C1.68,15.364 1.68,15.363 1.68,15.363C1.68,7.806 7.806,1.68 15.363,1.68C15.364,1.68 15.366,1.68 15.367,1.68Z" style="fill:white;"/>
                <path d="M15.367,1.68C22.922,1.68 29.046,7.805 29.046,15.36L29.046,15.364C29.046,22.921 22.92,29.046 15.363,29.046C7.807,29.046 1.68,22.92 1.68,15.363C1.68,7.807 7.806,1.68 15.363,1.68L15.367,1.68ZM15.367,3.712L15.363,3.712C8.928,3.712 3.712,8.929 3.712,15.363C3.712,21.798 8.929,27.015 15.363,27.015C21.798,27.015 27.015,21.799 27.015,15.364L27.015,15.36C27.015,8.927 21.8,3.712 15.367,3.712Z" style="fill:rgb(163,163,163);"/>
            </g>
            <g transform="matrix(0.402912,0,0,0.76585,49.8403,154.748)">
                <path d="M15.367,1.68C22.922,1.68 29.046,7.805 29.046,15.36C29.046,15.361 29.046,15.363 29.046,15.364C29.046,22.921 22.921,29.046 15.364,29.046C15.364,29.046 15.363,29.046 15.363,29.046C7.806,29.046 1.68,22.921 1.68,15.364C1.68,15.364 1.68,15.363 1.68,15.363C1.68,7.806 7.806,1.68 15.363,1.68C15.364,1.68 15.366,1.68 15.367,1.68Z" style="fill:white;"/>
                <path d="M15.367,1.68C22.922,1.68 29.046,7.805 29.046,15.36L29.046,15.364C29.046,22.921 22.92,29.046 15.363,29.046C7.807,29.046 1.68,22.92 1.68,15.363C1.68,7.807 7.806,1.68 15.363,1.68L15.367,1.68ZM15.367,3.712L15.363,3.712C8.928,3.712 3.712,8.929 3.712,15.363C3.712,21.798 8.929,27.015 15.363,27.015C21.798,27.015 27.015,21.799 27.015,15.364L27.015,15.36C27.015,8.927 21.8,3.712 15.367,3.712Z" style="fill:rgb(163,163,163);"/>
            </g>
            <g transform="matrix(0.519372,0,0,0.987217,-40.0534,11.6086)">
                <g transform="matrix(1.18199,-0,-0,1.18199,77.1189,-11.7589)">
                    <path d="M87.271,44.264L91.271,40.264L95.271,44.264" style="fill:none;stroke:rgb(112,112,112);stroke-width:2.67px;"/>
                    <path d="M91.271,69.319L91.271,40.264" style="fill:none;stroke:rgb(112,112,112);stroke-width:2.67px;stroke-linejoin:round;stroke-miterlimit:1.5;"/>
                </g>
            </g>
            <g transform="matrix(0.519372,0,0,-0.987217,-40.0534,249.773)">
                <g transform="matrix(1.18199,0,0,-1.18199,77.1189,253.007)">
                    <path d="M95.271,179.736L91.271,183.736L87.271,179.736" style="fill:none;stroke:rgb(112,112,112);stroke-width:2.67px;"/>
                    <path d="M91.271,154.681L91.271,183.736" style="fill:none;stroke:rgb(112,112,112);stroke-width:2.67px;stroke-linejoin:round;stroke-miterlimit:1.5;"/>
                </g>
            </g>
            <g transform="matrix(3.18024e-17,0.987217,-0.519372,6.04496e-17,118.679,-51.9443)">
                <g transform="matrix(7.23761e-17,-1.18199,1.18199,7.23761e-17,52.617,228.505)">
                    <path d="M159.006,108L163.006,112L159.006,116" style="fill:none;stroke:rgb(112,112,112);stroke-width:2.67px;"/>
                    <path d="M133.952,112L163.006,112" style="fill:none;stroke:rgb(112,112,112);stroke-width:2.67px;stroke-linejoin:round;stroke-miterlimit:1.5;"/>
                </g>
            </g>
            <g transform="matrix(3.18024e-17,0.987217,0.519372,-6.04496e-17,-6.61839,-51.9443)">
                <g transform="matrix(7.23761e-17,1.18199,1.18199,-7.23761e-17,52.617,12.7431)">
                    <path d="M23.535,116L19.535,112L23.535,108" style="fill:none;stroke:rgb(112,112,112);stroke-width:2.67px;"/>
                    <path d="M48.59,112L19.535,112" style="fill:none;stroke:rgb(112,112,112);stroke-width:2.67px;stroke-linejoin:round;stroke-miterlimit:1.5;"/>
                </g>
            </g>
            <g transform="matrix(1.34712,0,0,2.56058,150.414,91.3515)">
                <path d="M29.046,1.68L29.046,29.046L1.68,29.046L1.68,1.68L29.046,1.68Z" style="fill:white;"/>
                <path d="M29.046,1.68L29.046,29.046L1.68,29.046L1.68,1.68L29.046,1.68ZM28.439,2.288L2.288,2.288L2.288,28.439L28.439,28.439L28.439,2.288Z" style="fill:rgb(163,163,163);"/>
            </g>
            <g transform="matrix(0.402912,0,0,0.76585,146.073,83.1008)">
                <path d="M15.367,1.68C22.922,1.68 29.046,7.805 29.046,15.36C29.046,15.361 29.046,15.363 29.046,15.364C29.046,22.921 22.921,29.046 15.364,29.046C15.364,29.046 15.363,29.046 15.363,29.046C7.806,29.046 1.68,22.921 1.68,15.364C1.68,15.364 1.68,15.363 1.68,15.363C1.68,7.806 7.806,1.68 15.363,1.68C15.364,1.68 15.366,1.68 15.367,1.68Z" style="fill:white;"/>
                <path d="M15.367,1.68C22.922,1.68 29.046,7.805 29.046,15.36L29.046,15.364C29.046,22.921 22.92,29.046 15.363,29.046C7.807,29.046 1.68,22.92 1.68,15.363C1.68,7.807 7.806,1.68 15.363,1.68L15.367,1.68ZM15.367,3.712L15.363,3.712C8.928,3.712 3.712,8.929 3.712,15.363C3.712,21.798 8.929,27.015 15.363,27.015C21.798,27.015 27.015,21.799 27.015,15.364L27.015,15.36C27.015,8.927 21.8,3.712 15.367,3.712Z" style="fill:rgb(163,163,163);"/>
            </g>
            <g transform="matrix(0.402912,0,0,0.76585,146.073,154.748)">
                <path d="M15.367,1.68C22.922,1.68 29.046,7.805 29.046,15.36C29.046,15.361 29.046,15.363 29.046,15.364C29.046,22.921 22.921,29.046 15.364,29.046C15.364,29.046 15.363,29.046 15.363,29.046C7.806,29.046 1.68,22.921 1.68,15.364C1.68,15.364 1.68,15.363 1.68,15.363C1.68,7.806 7.806,1.68 15.363,1.68C15.364,1.68 15.366,1.68 15.367,1.68Z" style="fill:white;"/>
                <path d="M15.367,1.68C22.922,1.68 29.046,7.805 29.046,15.36L29.046,15.364C29.046,22.921 22.92,29.046 15.363,29.046C7.807,29.046 1.68,22.92 1.68,15.363C1.68,7.807 7.806,1.68 15.363,1.68L15.367,1.68ZM15.367,3.712L15.363,3.712C8.928,3.712 3.712,8.929 3.712,15.363C3.712,21.798 8.929,27.015 15.363,27.015C21.798,27.015 27.015,21.799 27.015,15.364L27.015,15.36C27.015,8.927 21.8,3.712 15.367,3.712Z" style="fill:rgb(163,163,163);"/>
            </g>
            <g transform="matrix(0.402912,0,0,0.76585,146.073,118.925)">
                <path d="M15.367,1.68C22.922,1.68 29.046,7.805 29.046,15.36C29.046,15.361 29.046,15.363 29.046,15.364C29.046,22.921 22.921,29.046 15.364,29.046C15.364,29.046 15.363,29.046 15.363,29.046C7.806,29.046 1.68,22.921 1.68,15.364C1.68,15.364 1.68,15.363 1.68,15.363C1.68,7.806 7.806,1.68 15.363,1.68C15.364,1.68 15.366,1.68 15.367,1.68Z" style="fill:white;"/>
                <path d="M15.367,1.68C22.922,1.68 29.046,7.805 29.046,15.36L29.046,15.364C29.046,22.921 22.92,29.046 15.363,29.046C7.807,29.046 1.68,22.92 1.68,15.363C1.68,7.807 7.806,1.68 15.363,1.68L15.367,1.68ZM15.367,3.712L15.363,3.712C8.928,3.712 3.712,8.929 3.712,15.363C3.712,21.798 8.929,27.015 15.363,27.015C21.798,27.015 27.015,21.799 27.015,15.364L27.015,15.36C27.015,8.927 21.8,3.712 15.367,3.712Z" style="fill:rgb(163,163,163);"/>
            </g>
            <g transform="matrix(0.402912,0,0,0.76585,183.767,83.1008)">
                <path d="M15.367,1.68C22.922,1.68 29.046,7.805 29.046,15.36C29.046,15.361 29.046,15.363 29.046,15.364C29.046,22.921 22.921,29.046 15.364,29.046C15.364,29.046 15.363,29.046 15.363,29.046C7.806,29.046 1.68,22.921 1.68,15.364C1.68,15.364 1.68,15.363 1.68,15.363C1.68,7.806 7.806,1.68 15.363,1.68C15.364,1.68 15.366,1.68 15.367,1.68Z" style="fill:white;"/>
                <path d="M15.367,1.68C22.922,1.68 29.046,7.805 29.046,15.36L29.046,15.364C29.046,22.921 22.92,29.046 15.363,29.046C7.807,29.046 1.68,22.92 1.68,15.363C1.68,7.807 7.806,1.68 15.363,1.68L15.367,1.68ZM15.367,3.712L15.363,3.712C8.928,3.712 3.712,8.929 3.712,15.363C3.712,21.798 8.929,27.015 15.363,27.015C21.798,27.015 27.015,21.799 27.015,15.364L27.015,15.36C27.015,8.927 21.8,3.712 15.367,3.712Z" style="fill:rgb(163,163,163);"/>
            </g>
            <g transform="matrix(0.402912,0,0,0.76585,183.767,154.748)">
                <path d="M15.367,1.68C22.922,1.68 29.046,7.805 29.046,15.36C29.046,15.361 29.046,15.363 29.046,15.364C29.046,22.921 22.921,29.046 15.364,29.046C15.364,29.046 15.363,29.046 15.363,29.046C7.806,29.046 1.68,22.921 1.68,15.364C1.68,15.364 1.68,15.363 1.68,15.363C1.68,7.806 7.806,1.68 15.363,1.68C15.364,1.68 15.366,1.68 15.367,1.68Z" style="fill:white;"/>
                <path d="M15.367,1.68C22.922,1.68 29.046,7.805 29.046,15.36L29.046,15.364C29.046,22.921 22.92,29.046 15.363,29.046C7.807,29.046 1.68,22.92 1.68,15.363C1.68,7.807 7.806,1.68 15.363,1.68L15.367,1.68ZM15.367,3.712L15.363,3.712C8.928,3.712 3.712,8.929 3.712,15.363C3.712,21.798 8.929,27.015 15.363,27.015C21.798,27.015 27.015,21.799 27.015,15.364L27.015,15.36C27.015,8.927 21.8,3.712 15.367,3.712Z" style="fill:rgb(163,163,163);"/>
            </g>
            <g transform="matrix(0.402912,0,0,0.76585,183.767,118.925)">
                <path d="M15.367,1.68C22.922,1.68 29.046,7.805 29.046,15.36C29.046,15.361 29.046,15.363 29.046,15.364C29.046,22.921 22.921,29.046 15.364,29.046C15.364,29.046 15.363,29.046 15.363,29.046C7.806,29.046 1.68,22.921 1.68,15.364C1.68,15.364 1.68,15.363 1.68,15.363C1.68,7.806 7.806,1.68 15.363,1.68C15.364,1.68 15.366,1.68 15.367,1.68Z" style="fill:white;"/>
                <path d="M15.367,1.68C22.922,1.68 29.046,7.805 29.046,15.36L29.046,15.364C29.046,22.921 22.92,29.046 15.363,29.046C7.807,29.046 1.68,22.92 1.68,15.363C1.68,7.807 7.806,1.68 15.363,1.68L15.367,1.68ZM15.367,3.712L15.363,3.712C8.928,3.712 3.712,8.929 3.712,15.363C3.712,21.798 8.929,27.015 15.363,27.015C21.798,27.015 27.015,21.799 27.015,15.364L27.015,15.36C27.015,8.927 21.8,3.712 15.367,3.712Z" style="fill:rgb(163,163,163);"/>
            </g>
            <g transform="matrix(0.402912,0,0,0.76585,164.92,83.1008)">
                <path d="M15.367,1.68C22.922,1.68 29.046,7.805 29.046,15.36C29.046,15.361 29.046,15.363 29.046,15.364C29.046,22.921 22.921,29.046 15.364,29.046C15.364,29.046 15.363,29.046 15.363,29.046C7.806,29.046 1.68,22.921 1.68,15.364C1.68,15.364 1.68,15.363 1.68,15.363C1.68,7.806 7.806,1.68 15.363,1.68C15.364,1.68 15.366,1.68 15.367,1.68Z" style="fill:white;"/>
                <path d="M15.367,1.68C22.922,1.68 29.046,7.805 29.046,15.36L29.046,15.364C29.046,22.921 22.92,29.046 15.363,29.046C7.807,29.046 1.68,22.92 1.68,15.363C1.68,7.807 7.806,1.68 15.363,1.68L15.367,1.68ZM15.367,3.712L15.363,3.712C8.928,3.712 3.712,8.929 3.712,15.363C3.712,21.798 8.929,27.015 15.363,27.015C21.798,27.015 27.015,21.799 27.015,15.364L27.015,15.36C27.015,8.927 21.8,3.712 15.367,3.712Z" style="fill:rgb(163,163,163);"/>
            </g>
            <g transform="matrix(0.402912,0,0,0.76585,164.92,154.748)">
                <path d="M15.367,1.68C22.922,1.68 29.046,7.805 29.046,15.36C29.046,15.361 29.046,15.363 29.046,15.364C29.046,22.921 22.921,29.046 15.364,29.046C15.364,29.046 15.363,29.046 15.363,29.046C7.806,29.046 1.68,22.921 1.68,15.364C1.68,15.364 1.68,15.363 1.68,15.363C1.68,7.806 7.806,1.68 15.363,1.68C15.364,1.68 15.366,1.68 15.367,1.68Z" style="fill:white;"/>
                <path d="M15.367,1.68C22.922,1.68 29.046,7.805 29.046,15.36L29.046,15.364C29.046,22.921 22.92,29.046 15.363,29.046C7.807,29.046 1.68,22.92 1.68,15.363C1.68,7.807 7.806,1.68 15.363,1.68L15.367,1.68ZM15.367,3.712L15.363,3.712C8.928,3.712 3.712,8.929 3.712,15.363C3.712,21.798 8.929,27.015 15.363,27.015C21.798,27.015 27.015,21.799 27.015,15.364L27.015,15.36C27.015,8.927 21.8,3.712 15.367,3.712Z" style="fill:rgb(163,163,163);"/>
            </g>
            <g transform="matrix(0.367252,0.698068,-0.367252,0.698068,153.301,-93.7421)">
                <g transform="matrix(0.835794,-0.835794,0.835794,0.835794,-141.569,275.857)">
                    <path d="M333.298,51.774L338.955,51.774L338.955,57.431" style="fill:none;stroke:rgb(112,112,112);stroke-width:2.67px;"/>
                    <path d="M318.41,72.319C318.41,72.319 334.208,56.521 338.955,51.774" style="fill:none;stroke:rgb(112,112,112);stroke-width:2.67px;stroke-linejoin:round;stroke-miterlimit:1.5;"/>
                </g>
            </g>
            <g transform="matrix(-0.367252,-0.698068,0.367252,-0.698068,188.92,355.124)">
                <g transform="matrix(-0.835794,0.835794,-0.835794,-0.835794,511.569,-2.84559)">
                    <path d="M224.16,172.226L218.504,172.226L218.504,166.569" style="fill:none;stroke:rgb(112,112,112);stroke-width:2.67px;"/>
                    <path d="M239.048,151.681C239.048,151.681 223.251,167.479 218.504,172.226" style="fill:none;stroke:rgb(112,112,112);stroke-width:2.67px;stroke-linejoin:round;stroke-miterlimit:1.5;"/>
                </g>
            </g>
            <g transform="matrix(-0.367252,0.698068,-0.367252,-0.698068,289.184,96.8385)">
                <g transform="matrix(-0.835794,-0.835794,0.835794,-0.835794,324.351,463.075)">
                    <path d="M338.955,166.569L338.955,172.226L333.298,172.226" style="fill:none;stroke:rgb(112,112,112);stroke-width:2.67px;"/>
                    <path d="M318.41,151.681C318.41,151.681 334.208,167.479 338.955,172.226" style="fill:none;stroke:rgb(112,112,112);stroke-width:2.67px;stroke-linejoin:round;stroke-miterlimit:1.5;"/>
                </g>
            </g>
            <g transform="matrix(0.367252,-0.698068,0.367252,0.698068,53.0366,164.543)">
                <g transform="matrix(0.835794,0.835794,-0.835794,0.835794,45.6486,-190.063)">
                    <path d="M218.504,57.431L218.504,51.774L224.16,51.774" style="fill:none;stroke:rgb(112,112,112);stroke-width:2.67px;"/>
                    <path d="M239.048,72.319C239.048,72.319 223.251,56.521 218.504,51.774" style="fill:none;stroke:rgb(112,112,112);stroke-width:2.67px;stroke-linejoin:round;stroke-miterlimit:1.5;"/>
                </g>
            </g>
        </g>
    </g>
</svg>
