<?xml version="1.0" encoding="UTF-8" standalone="no"?>
<!DOCTYPE svg PUBLIC "-//W3C//DTD SVG 1.1//EN" "http://www.w3.org/Graphics/SVG/1.1/DTD/svg11.dtd">
<svg width="100%" height="100%" viewBox="0 0 1959 292" version="1.1" xmlns="http://www.w3.org/2000/svg" xmlns:xlink="http://www.w3.org/1999/xlink" xml:space="preserve" xmlns:serif="http://www.serif.com/" style="fill-rule:evenodd;clip-rule:evenodd;stroke-linecap:round;stroke-linejoin:round;stroke-miterlimit:1.5;">
    <g id="Artboard1" transform="matrix(1.01994,0,0,1.07955,0,0)">
        <rect x="0" y="0" width="1920" height="270" style="fill:none;"/>
        <clipPath id="_clip1">
            <rect x="0" y="0" width="1920" height="270"/>
        </clipPath>
        <g clip-path="url(#_clip1)">
            <g transform="matrix(1,0,0,0.5,6.39488e-14,-1.24345e-14)">
                <rect x="0" y="0" width="1920" height="540" style="fill:rgb(250,250,250);"/>
            </g>
            <g transform="matrix(0.980454,0,0,0.926309,-1082.24,-72.5396)">
                <path d="M1617.56,252.527C1617.83,251.774 1618.54,251.269 1619.34,251.269C1620.13,251.269 1620.85,251.774 1621.11,252.527C1622.22,255.69 1623.67,259.838 1624.94,263.48C1626.79,268.769 1630.95,272.928 1636.24,274.778C1639.88,276.052 1644.03,277.503 1647.19,278.61C1647.95,278.874 1648.45,279.585 1648.45,280.383C1648.45,281.182 1647.95,281.893 1647.19,282.156C1644.03,283.263 1639.88,284.714 1636.24,285.988C1630.95,287.838 1626.79,291.997 1624.94,297.286C1623.67,300.928 1622.22,305.076 1621.11,308.239C1620.85,308.993 1620.13,309.497 1619.34,309.497C1618.54,309.497 1617.83,308.993 1617.56,308.239C1616.46,305.076 1615.01,300.928 1613.73,297.286C1611.88,291.997 1607.72,287.838 1602.43,285.988C1598.79,284.714 1594.64,283.263 1591.48,282.156C1590.73,281.893 1590.22,281.182 1590.22,280.383C1590.22,279.585 1590.73,278.874 1591.48,278.61C1594.64,277.503 1598.79,276.052 1602.43,274.778C1607.72,272.928 1611.88,268.769 1613.73,263.48C1615.01,259.838 1616.46,255.69 1617.56,252.527Z" style="fill:rgb(112,112,112);stroke:rgb(51,51,51);stroke-width:2px;"/>
            </g>
            <g transform="matrix(0.980454,0,0,0.926309,154.138,-72.5396)">
                <path d="M1617.56,252.527C1617.83,251.774 1618.54,251.269 1619.34,251.269C1620.13,251.269 1620.85,251.774 1621.11,252.527C1622.22,255.69 1623.67,259.838 1624.94,263.48C1626.79,268.769 1630.95,272.928 1636.24,274.778C1639.88,276.052 1644.03,277.503 1647.19,278.61C1647.95,278.874 1648.45,279.585 1648.45,280.383C1648.45,281.182 1647.95,281.893 1647.19,282.156C1644.03,283.263 1639.88,284.714 1636.24,285.988C1630.95,287.838 1626.79,291.997 1624.94,297.286C1623.67,300.928 1622.22,305.076 1621.11,308.239C1620.85,308.993 1620.13,309.497 1619.34,309.497C1618.54,309.497 1617.83,308.993 1617.56,308.239C1616.46,305.076 1615.01,300.928 1613.73,297.286C1611.88,291.997 1607.72,287.838 1602.43,285.988C1598.79,284.714 1594.64,283.263 1591.48,282.156C1590.73,281.893 1590.22,281.182 1590.22,280.383C1590.22,279.585 1590.73,278.874 1591.48,278.61C1594.64,277.503 1598.79,276.052 1602.43,274.778C1607.72,272.928 1611.88,268.769 1613.73,263.48C1615.01,259.838 1616.46,255.69 1617.56,252.527Z" style="fill:rgb(112,112,112);stroke:rgb(51,51,51);stroke-width:2px;"/>
            </g>
            <g transform="matrix(0.980454,0,0,0.926309,18.7646,19.8966)">
                <path d="M590.408,8C613.379,8 632,26.621 632,49.592C632,49.593 632,49.594 632,49.595C632,72.565 613.379,91.187 590.408,91.187C476.955,91.187 163.045,91.187 49.592,91.187C26.621,91.187 8,72.565 8,49.595C8,49.594 8,49.593 8,49.592C8,26.621 26.621,8 49.592,8C163.045,8 476.955,8 590.408,8Z" style="fill:white;stroke:rgb(230,230,230);stroke-width:2px;"/>
            </g>
            <g transform="matrix(0.980454,0,0,0.926309,646.255,19.8966)">
                <path d="M590.408,8C613.379,8 632,26.621 632,49.592C632,49.593 632,49.594 632,49.595C632,72.565 613.379,91.187 590.408,91.187C476.955,91.187 163.045,91.187 49.592,91.187C26.621,91.187 8,72.565 8,49.595C8,49.594 8,49.593 8,49.592C8,26.621 26.621,8 49.592,8C163.045,8 476.955,8 590.408,8Z" style="fill:white;stroke:rgb(230,230,230);stroke-width:2px;"/>
            </g>
            <g transform="matrix(0.980454,0,0,0.926309,1273.75,19.8966)">
                <path d="M590.408,8C613.379,8 632,26.621 632,49.592C632,49.593 632,49.594 632,49.595C632,72.565 613.379,91.187 590.408,91.187C476.955,91.187 163.045,91.187 49.592,91.187C26.621,91.187 8,72.565 8,49.595C8,49.594 8,49.593 8,49.592C8,26.621 26.621,8 49.592,8C163.045,8 476.955,8 590.408,8Z" style="fill:white;stroke:rgb(230,230,230);stroke-width:2px;"/>
            </g>
            <g transform="matrix(0.980454,0,0,0.926309,820.133,23.1285)">
                <g transform="matrix(51.4883,0,0,51.4883,187.424,63.3014)">
                </g>
                <text x="95.878px" y="63.301px" style="font-family:'SNPro-Bold', 'SN Pro';font-weight:700;font-size:51.488px;">Mar</text>
            </g>
            <g transform="matrix(0.980454,0,0,0.926309,1461.94,18.8837)">
                <g transform="matrix(51.4883,0,0,51.4883,171.18,63.3014)">
                </g>
                <text x="83.598px" y="63.301px" style="font-family:'SNPro-Bold', 'SN Pro';font-weight:700;font-size:51.488px;">Apr</text>
            </g>
            <g transform="matrix(0.980454,0,0,0.926309,206.854,23.1285)">
                <g transform="matrix(51.4883,0,0,51.4883,170.819,63.3014)">
                </g>
                <text x="83.598px" y="63.301px" style="font-family:'SNPro-Bold', 'SN Pro';font-weight:700;font-size:51.488px;">F<tspan x="111.917px " y="63.301px ">e</tspan>b</text>
            </g>
            <g transform="matrix(0.980454,0,0,0.926309,139.855,101.339)">
                <g transform="matrix(32,0,0,32,173.849,63.3014)">
                </g>
                <text x="104.665px" y="63.301px" style="font-family:'SNPro-Bold', 'SN Pro';font-weight:700;font-size:32px;">MVP</text>
            </g>
            <g transform="matrix(0.980454,0,0,0.926309,368.332,191.38)">
                <g transform="matrix(32,0,0,32,276.985,63.3014)">
                </g>
                <text x="10.329px" y="63.301px" style="font-family:'SNPro-Bold', 'SN Pro';font-weight:700;font-size:32px;">Pr<tspan x="42.585px " y="63.301px ">e</tspan>sen<tspan x="111.705px 123.705px 140.601px 153.049px " y="63.301px 63.301px 63.301px 63.301px ">tati</tspan>on T<tspan x="223.417px 240.921px 256.185px " y="63.301px 63.301px 63.301px ">est</tspan></text>
            </g>
            <g transform="matrix(0.980454,0,0,0.926309,1606.24,191.38)">
                <g transform="matrix(32,0,0,32,233.369,63.3014)">
                </g>
                <text x="45.145px" y="63.301px" style="font-family:'SNPro-Bold', 'SN Pro';font-weight:700;font-size:32px;">Pr<tspan x="77.401px " y="63.301px ">e</tspan>sen<tspan x="146.521px 158.521px 175.417px 187.865px " y="63.301px 63.301px 63.301px 63.301px ">tati</tspan>on</text>
            </g>
            <g transform="matrix(0.980454,0,0,0.926309,986.519,101.339)">
                <g transform="matrix(32,0,0,32,156.553,63.3014)">
                </g>
                <text x="121.961px" y="63.301px" style="font-family:'SNPro-Bold', 'SN Pro';font-weight:700;font-size:32px;">V1</text>
            </g>
            <g transform="matrix(0.980454,0,0,0.926309,18.7646,17.2154)">
                <g transform="matrix(0.614408,0,0,0.243649,67.1038,121.738)">
                    <path d="M640,251.694C640,267.528 634.902,280.383 628.623,280.383L11.377,280.383C5.098,280.383 0,267.528 0,251.694C0,235.86 5.098,223.005 11.377,223.005L628.623,223.005C634.902,223.005 640,235.86 640,251.694Z" style="fill:rgb(242,242,242);stroke:rgb(204,204,204);stroke-width:4.28px;"/>
                </g>
                <g transform="matrix(1.85766,0,0,0.243649,532.446,121.738)">
                    <path d="M640,251.694C640,267.528 638.314,280.383 636.237,280.383L3.763,280.383C1.686,280.383 0,267.528 0,251.694C0,235.86 1.686,223.005 3.763,223.005L636.237,223.005C638.314,223.005 640,235.86 640,251.694Z" style="fill:rgb(242,242,242);stroke:rgb(204,204,204);stroke-width:1.51px;"/>
                </g>
            </g>
        </g>
    </g>
</svg>
