<?xml version="1.0" encoding="UTF-8" standalone="no"?>
<!DOCTYPE svg PUBLIC "-//W3C//DTD SVG 1.1//EN" "http://www.w3.org/Graphics/SVG/1.1/DTD/svg11.dtd">
<svg width="100%" height="100%" viewBox="0 0 32 24" version="1.1" xmlns="http://www.w3.org/2000/svg" xmlns:xlink="http://www.w3.org/1999/xlink" xml:space="preserve" xmlns:serif="http://www.serif.com/" style="fill-rule:evenodd;clip-rule:evenodd;stroke-linejoin:round;stroke-miterlimit:2;">
    <g transform="matrix(0.05,0,0,0.05,0,0)">
        <path d="M120,0L520,0C586.23,0 640,53.77 640,120L640,360C640,426.23 586.23,480 520,480L120,480C53.77,480 0,426.23 0,360L0,120C0,53.77 53.77,0 120,0Z" style="fill:rgb(0,27,105);"/>
    </g>
    <g transform="matrix(0.05,0,0,0.05,0,0)">
        <path d="M10.183,71.584C23.888,40.574 50.348,16.443 82.895,5.856L319,181L555.02,5.199C587.994,15.259 614.96,39.148 629.147,70.095L400,241L628.787,410.683C614.3,441.695 586.939,465.506 553.598,475.225L320,301L87.105,475.428C53.702,465.913 26.224,442.277 11.55,411.398L239,242L10.183,71.584Z" style="fill:white;"/>
    </g>
    <g transform="matrix(0.05,0,0,0.05,0,0)">
        <path d="M18.562,55.896C24.685,46.233 32.151,37.502 40.696,29.969L239,176L179,176L18.562,55.896ZM601.569,32.017L391,191L393,147L573.289,12.469C583.653,17.62 593.169,24.225 601.569,32.017ZM599.252,450.078L369,281L424,281L620.462,425.618C614.515,434.7 607.37,442.928 599.252,450.078ZM40.46,449.823L240,301L246,336L69.092,468.681C58.638,463.771 49.006,457.397 40.46,449.823Z" style="fill:rgb(201,7,42);"/>
    </g>
    <g transform="matrix(0.05,0,0,0.05,0,0)">
        <path d="M241,0L401,0L401,160L640,160L640,320L401,320L401,480L241,480L241,320L0,320L0,160L241,160L241,0Z" style="fill:white;"/>
    </g>
    <g transform="matrix(0.05,0,0,0.05,0,0)">
        <path d="M273,0L369,0L369,193L640,193L640,289L369,289L369,480L273,480L273,289L0,289L0,193L273,193L273,0Z" style="fill:rgb(201,7,42);"/>
    </g>
</svg>
