<?xml version="1.0" encoding="UTF-8" standalone="no"?>
<!DOCTYPE svg PUBLIC "-//W3C//DTD SVG 1.1//EN" "http://www.w3.org/Graphics/SVG/1.1/DTD/svg11.dtd">
<svg width="100%" height="100%" viewBox="0 0 16 16" version="1.1" xmlns="http://www.w3.org/2000/svg" xmlns:xlink="http://www.w3.org/1999/xlink" xml:space="preserve" xmlns:serif="http://www.serif.com/" style="fill-rule:evenodd;clip-rule:evenodd;stroke-linejoin:round;stroke-miterlimit:2;">
    <g transform="matrix(0.967293,0,0,0.967293,0,0)">
        <rect x="0" y="0" width="16.541" height="16.541" style="fill:none;"/>
        <g id="Shape" transform="matrix(1,0,0,1,2.239,2.242)">
            <path d="M6.341,1.138C6.157,1 5.905,1 5.721,1.138L1.241,4.497C1.111,4.595 1.034,4.748 1.034,4.911L1.034,10.508C1.034,10.794 1.266,11.025 1.551,11.025L3.963,11.025L3.963,9.474C3.963,8.332 4.889,7.407 6.031,7.407C7.173,7.407 8.098,8.332 8.098,9.474L8.098,11.025L10.511,11.025C10.796,11.025 11.028,10.794 11.028,10.508L11.028,4.911C11.028,4.748 10.951,4.595 10.821,4.497L6.341,1.138ZM5.1,0.31C5.651,-0.103 6.41,-0.103 6.961,0.31L11.441,3.67C11.831,3.963 12.061,4.422 12.061,4.911L12.061,10.508C12.061,11.364 11.367,12.058 10.51,12.058L7.581,12.058C7.296,12.058 7.064,11.827 7.064,11.541L7.064,9.474C7.064,8.903 6.601,8.44 6.03,8.44C5.46,8.44 4.997,8.903 4.997,9.474L4.997,11.541C4.997,11.827 4.765,12.058 4.48,12.058L1.551,12.058C0.694,12.058 0,11.364 0,10.508L0,4.911C0,4.422 0.23,3.963 0.62,3.67L5.1,0.31Z"/>
        </g>
    </g>
</svg>
