<?xml version="1.0" encoding="UTF-8" standalone="no"?>
<!DOCTYPE svg PUBLIC "-//W3C//DTD SVG 1.1//EN" "http://www.w3.org/Graphics/SVG/1.1/DTD/svg11.dtd">
<svg width="100%" height="100%" viewBox="0 0 370 247" version="1.1" xmlns="http://www.w3.org/2000/svg" xmlns:xlink="http://www.w3.org/1999/xlink" xml:space="preserve" xmlns:serif="http://www.serif.com/" style="fill-rule:evenodd;clip-rule:evenodd;stroke-linecap:round;stroke-miterlimit:10;">
    <g transform="matrix(1,0,0,1,0,-501.504)">
        <g id="Data-Flow" serif:id="Data Flow" transform="matrix(1.62895,0,0,0.942985,-2.31487e-14,501.504)">
            <rect x="0" y="0" width="227.141" height="261.381" style="fill:none;"/>
            <clipPath id="_clip1">
                <rect x="0" y="0" width="227.141" height="261.381"/>
            </clipPath>
            <g clip-path="url(#_clip1)">
                <g transform="matrix(0.613893,0,0,1.25079,8.99943e-15,-3.04655e-14)">
                    <rect x="0" y="0" width="370" height="224" style="fill:rgb(250,250,250);"/>
                </g>
                <g transform="matrix(2.18135,0,0,3.07535,7.61262,83.4428)">
                    <path d="M24.544,1.68C25.738,1.68 26.883,2.262 27.728,3.296C28.572,4.331 29.046,5.734 29.046,7.198C29.046,11.951 29.046,18.776 29.046,23.529C29.046,26.576 27.03,29.046 24.544,29.046C19.467,29.046 11.26,29.046 6.183,29.046C4.989,29.046 3.844,28.465 2.999,27.43C2.155,26.396 1.68,24.992 1.68,23.529C1.68,18.776 1.68,11.951 1.68,7.198C1.68,4.15 3.696,1.68 6.183,1.68C11.26,1.68 19.467,1.68 24.544,1.68Z" style="fill:white;"/>
                    <path d="M24.544,1.68C25.738,1.68 26.883,2.262 27.728,3.296C28.572,4.331 29.046,5.734 29.046,7.198L29.046,23.529C29.046,26.576 27.03,29.046 24.544,29.046L6.183,29.046C4.989,29.046 3.844,28.465 2.999,27.43C2.155,26.396 1.68,24.992 1.68,23.529L1.68,7.198C1.68,4.15 3.696,1.68 6.183,1.68L24.544,1.68ZM24.544,2.14L6.183,2.14C3.904,2.14 2.056,4.404 2.056,7.198L2.056,23.529C2.056,24.871 2.49,26.157 3.265,27.105C4.039,28.054 5.088,28.587 6.183,28.587L24.544,28.587C26.823,28.587 28.671,26.322 28.671,23.529L28.671,7.198C28.671,5.856 28.236,4.57 27.462,3.621C26.688,2.673 25.638,2.14 24.544,2.14Z" style="fill:rgb(163,163,163);"/>
                </g>
                <g transform="matrix(2.18135,0,0,3.07535,80.0573,83.4428)">
                    <path d="M24.544,1.68C25.738,1.68 26.883,2.262 27.728,3.296C28.572,4.331 29.046,5.734 29.046,7.198C29.046,11.951 29.046,18.776 29.046,23.529C29.046,26.576 27.03,29.046 24.544,29.046C19.467,29.046 11.26,29.046 6.183,29.046C4.989,29.046 3.844,28.465 2.999,27.43C2.155,26.396 1.68,24.992 1.68,23.529C1.68,18.776 1.68,11.951 1.68,7.198C1.68,4.15 3.696,1.68 6.183,1.68C11.26,1.68 19.467,1.68 24.544,1.68Z" style="fill:white;"/>
                    <path d="M24.544,1.68C25.738,1.68 26.883,2.262 27.728,3.296C28.572,4.331 29.046,5.734 29.046,7.198L29.046,23.529C29.046,26.576 27.03,29.046 24.544,29.046L6.183,29.046C4.989,29.046 3.844,28.465 2.999,27.43C2.155,26.396 1.68,24.992 1.68,23.529L1.68,7.198C1.68,4.15 3.696,1.68 6.183,1.68L24.544,1.68ZM24.544,2.14L6.183,2.14C3.904,2.14 2.056,4.404 2.056,7.198L2.056,23.529C2.056,24.871 2.49,26.157 3.265,27.105C4.039,28.054 5.088,28.587 6.183,28.587L24.544,28.587C26.823,28.587 28.671,26.322 28.671,23.529L28.671,7.198C28.671,5.856 28.236,4.57 27.462,3.621C26.688,2.673 25.638,2.14 24.544,2.14Z" style="fill:rgb(163,163,163);"/>
                </g>
                <g transform="matrix(2.18135,0,0,3.07535,152.792,83.4428)">
                    <path d="M24.544,1.68C25.738,1.68 26.883,2.262 27.728,3.296C28.572,4.331 29.046,5.734 29.046,7.198C29.046,11.951 29.046,18.776 29.046,23.529C29.046,26.576 27.03,29.046 24.544,29.046C19.467,29.046 11.26,29.046 6.183,29.046C4.989,29.046 3.844,28.465 2.999,27.43C2.155,26.396 1.68,24.992 1.68,23.529C1.68,18.776 1.68,11.951 1.68,7.198C1.68,4.15 3.696,1.68 6.183,1.68C11.26,1.68 19.467,1.68 24.544,1.68Z" style="fill:white;"/>
                    <path d="M24.544,1.68C25.738,1.68 26.883,2.262 27.728,3.296C28.572,4.331 29.046,5.734 29.046,7.198L29.046,23.529C29.046,26.576 27.03,29.046 24.544,29.046L6.183,29.046C4.989,29.046 3.844,28.465 2.999,27.43C2.155,26.396 1.68,24.992 1.68,23.529L1.68,7.198C1.68,4.15 3.696,1.68 6.183,1.68L24.544,1.68ZM24.544,2.14L6.183,2.14C3.904,2.14 2.056,4.404 2.056,7.198L2.056,23.529C2.056,24.871 2.49,26.157 3.265,27.105C4.039,28.054 5.088,28.587 6.183,28.587L24.544,28.587C26.823,28.587 28.671,26.322 28.671,23.529L28.671,7.198C28.671,5.856 28.236,4.57 27.462,3.621C26.688,2.673 25.638,2.14 24.544,2.14Z" style="fill:rgb(163,163,163);"/>
                </g>
                <g transform="matrix(0.613893,0,0,1.06046,-79.7091,-14.3019)">
                    <g transform="matrix(13.6864,0,0,13.6864,331.396,112)">
                    </g>
                    <text x="297.891px" y="112px" style="font-family:'SNPro-Bold', 'SN Pro';font-weight:700;font-size:13.686px;fill:rgb(112,112,112);">Sta<tspan x="318.845px " y="112px ">t</tspan>e</text>
                </g>
                <g transform="matrix(0.613893,0,0,1.06046,-154.498,-14.3019)">
                    <g transform="matrix(13.6864,0,0,13.6864,340.867,112)">
                    </g>
                    <text x="296.085px" y="112px" style="font-family:'SNPro-Bold', 'SN Pro';font-weight:700;font-size:13.686px;fill:rgb(112,112,112);">R<tspan x="305.296px 312.508px " y="112px 112px ">ea</tspan>der</text>
                </g>
                <g transform="matrix(0.613893,0,0,1.06046,-8.04098,-14.3019)">
                    <g transform="matrix(13.6864,0,0,13.6864,335.2,112)">
                    </g>
                    <text x="297.891px" y="112px" style="font-family:'SNPro-Bold', 'SN Pro';font-weight:700;font-size:13.686px;fill:rgb(112,112,112);">Audio</text>
                </g>
                <g transform="matrix(1.36624,0,0,1.36624,58.2215,-57.7883)">
                    <g id="State-1" serif:id="State 1" transform="matrix(0.868065,0,0,1.49953,-178.386,15.6765)">
                        <circle cx="245.197" cy="77.68" r="2.684" style="fill:white;"/>
                        <path d="M245.197,74.995C246.679,74.995 247.881,76.198 247.881,77.68C247.881,79.161 246.679,80.364 245.197,80.364C243.715,80.364 242.513,79.161 242.513,77.68C242.513,76.198 243.715,74.995 245.197,74.995ZM245.197,75.685C244.096,75.685 243.203,76.579 243.203,77.68C243.203,78.78 244.096,79.674 245.197,79.674C246.298,79.674 247.191,78.78 247.191,77.68C247.191,76.579 246.298,75.685 245.197,75.685Z" style="fill:rgb(163,163,163);"/>
                    </g>
                    <g id="State-4" serif:id="State 4" transform="matrix(0.868065,0,0,1.49953,-178.386,26.1288)">
                        <circle cx="245.197" cy="77.68" r="2.684" style="fill:white;"/>
                        <path d="M245.197,74.995C246.679,74.995 247.881,76.198 247.881,77.68C247.881,79.161 246.679,80.364 245.197,80.364C243.715,80.364 242.513,79.161 242.513,77.68C242.513,76.198 243.715,74.995 245.197,74.995ZM245.197,75.685C244.096,75.685 243.203,76.579 243.203,77.68C243.203,78.78 244.096,79.674 245.197,79.674C246.298,79.674 247.191,78.78 247.191,77.68C247.191,76.579 246.298,75.685 245.197,75.685Z" style="fill:rgb(163,163,163);"/>
                    </g>
                    <g id="State-6" serif:id="State 6" transform="matrix(0.868065,0,0,1.49953,-178.386,36.5811)">
                        <circle cx="245.197" cy="77.68" r="2.684" style="fill:white;"/>
                        <path d="M245.197,74.995C246.679,74.995 247.881,76.198 247.881,77.68C247.881,79.161 246.679,80.364 245.197,80.364C243.715,80.364 242.513,79.161 242.513,77.68C242.513,76.198 243.715,74.995 245.197,74.995ZM245.197,75.685C244.096,75.685 243.203,76.579 243.203,77.68C243.203,78.78 244.096,79.674 245.197,79.674C246.298,79.674 247.191,78.78 247.191,77.68C247.191,76.579 246.298,75.685 245.197,75.685Z" style="fill:rgb(163,163,163);"/>
                    </g>
                    <g id="State-2" serif:id="State 2" transform="matrix(0.868065,0,0,1.49953,-172.335,15.6765)">
                        <circle cx="245.197" cy="77.68" r="2.684" style="fill:white;"/>
                        <path d="M245.197,74.995C246.679,74.995 247.881,76.198 247.881,77.68C247.881,79.161 246.679,80.364 245.197,80.364C243.715,80.364 242.513,79.161 242.513,77.68C242.513,76.198 243.715,74.995 245.197,74.995ZM245.197,75.685C244.096,75.685 243.203,76.579 243.203,77.68C243.203,78.78 244.096,79.674 245.197,79.674C246.298,79.674 247.191,78.78 247.191,77.68C247.191,76.579 246.298,75.685 245.197,75.685Z" style="fill:rgb(163,163,163);"/>
                    </g>
                    <g id="State-7" serif:id="State 7" transform="matrix(0.868065,0,0,1.49953,-172.335,36.5811)">
                        <circle cx="245.197" cy="77.68" r="2.684" style="fill:white;"/>
                        <path d="M245.197,74.995C246.679,74.995 247.881,76.198 247.881,77.68C247.881,79.161 246.679,80.364 245.197,80.364C243.715,80.364 242.513,79.161 242.513,77.68C242.513,76.198 243.715,74.995 245.197,74.995ZM245.197,75.685C244.096,75.685 243.203,76.579 243.203,77.68C243.203,78.78 244.096,79.674 245.197,79.674C246.298,79.674 247.191,78.78 247.191,77.68C247.191,76.579 246.298,75.685 245.197,75.685Z" style="fill:rgb(163,163,163);"/>
                    </g>
                    <g id="State-3" serif:id="State 3" transform="matrix(0.868065,0,0,1.49953,-166.285,15.6765)">
                        <circle cx="245.197" cy="77.68" r="2.684" style="fill:rgb(112,112,112);"/>
                        <path d="M245.197,74.995C246.679,74.995 247.881,76.198 247.881,77.68C247.881,79.161 246.679,80.364 245.197,80.364C243.715,80.364 242.513,79.161 242.513,77.68C242.513,76.198 243.715,74.995 245.197,74.995ZM245.197,75.685C244.096,75.685 243.203,76.579 243.203,77.68C243.203,78.78 244.096,79.674 245.197,79.674C246.298,79.674 247.191,78.78 247.191,77.68C247.191,76.579 246.298,75.685 245.197,75.685Z" style="fill:rgb(163,163,163);"/>
                    </g>
                    <g id="State-5" serif:id="State 5" transform="matrix(0.868065,0,0,1.49953,-166.285,26.1288)">
                        <circle cx="245.197" cy="77.68" r="2.684" style="fill:white;"/>
                        <path d="M245.197,74.995C246.679,74.995 247.881,76.198 247.881,77.68C247.881,79.161 246.679,80.364 245.197,80.364C243.715,80.364 242.513,79.161 242.513,77.68C242.513,76.198 243.715,74.995 245.197,74.995ZM245.197,75.685C244.096,75.685 243.203,76.579 243.203,77.68C243.203,78.78 244.096,79.674 245.197,79.674C246.298,79.674 247.191,78.78 247.191,77.68C247.191,76.579 246.298,75.685 245.197,75.685Z" style="fill:rgb(163,163,163);"/>
                    </g>
                    <g id="State-8" serif:id="State 8" transform="matrix(0.868065,0,0,1.49953,-166.285,36.5811)">
                        <circle cx="245.197" cy="77.68" r="2.684" style="fill:white;"/>
                        <path d="M245.197,74.995C246.679,74.995 247.881,76.198 247.881,77.68C247.881,79.161 246.679,80.364 245.197,80.364C243.715,80.364 242.513,79.161 242.513,77.68C242.513,76.198 243.715,74.995 245.197,74.995ZM245.197,75.685C244.096,75.685 243.203,76.579 243.203,77.68C243.203,78.78 244.096,79.674 245.197,79.674C246.298,79.674 247.191,78.78 247.191,77.68C247.191,76.579 246.298,75.685 245.197,75.685Z" style="fill:rgb(163,163,163);"/>
                    </g>
                </g>
                <g transform="matrix(2.27108,0,0,1.24003,152.351,187.655)">
                    <path d="M24.721,1.68C27.11,1.68 29.046,7.806 29.046,15.363L29.046,15.363C29.046,22.92 27.11,29.046 24.721,29.046C19.601,29.046 11.125,29.046 6.005,29.046C4.858,29.046 3.758,27.605 2.947,25.039C2.136,22.473 1.68,18.994 1.68,15.365C1.68,15.364 1.68,15.363 1.68,15.362C1.68,7.806 3.616,1.68 6.005,1.68C11.125,1.68 19.601,1.68 24.721,1.68Z" style="fill:white;"/>
                    <path d="M24.721,1.68C27.11,1.68 29.046,7.806 29.046,15.363C29.046,22.92 27.11,29.046 24.721,29.046L6.005,29.046C4.858,29.046 3.758,27.605 2.947,25.039C2.136,22.473 1.68,18.994 1.68,15.365L1.68,15.362C1.68,7.806 3.616,1.68 6.005,1.68L24.721,1.68ZM24.721,2.821L6.005,2.821C3.816,2.821 2.041,8.435 2.041,15.362L2.041,15.365C2.041,18.691 2.458,21.881 3.202,24.233C3.945,26.585 4.953,27.906 6.005,27.906L24.721,27.906C26.911,27.906 28.686,22.291 28.686,15.363C28.686,8.436 26.911,2.821 24.721,2.821Z" style="fill:rgb(163,163,163);"/>
                </g>
                <g transform="matrix(2.27108,0,0,1.24003,6.23405,35.6662)">
                    <path d="M24.721,1.68C27.11,1.68 29.046,7.806 29.046,15.363L29.046,15.363C29.046,22.92 27.11,29.046 24.721,29.046C19.601,29.046 11.125,29.046 6.005,29.046C4.858,29.046 3.758,27.605 2.947,25.039C2.136,22.473 1.68,18.994 1.68,15.365C1.68,15.364 1.68,15.363 1.68,15.362C1.68,7.806 3.616,1.68 6.005,1.68C11.125,1.68 19.601,1.68 24.721,1.68Z" style="fill:white;"/>
                    <path d="M24.721,1.68C27.11,1.68 29.046,7.806 29.046,15.363C29.046,22.92 27.11,29.046 24.721,29.046L6.005,29.046C4.858,29.046 3.758,27.605 2.947,25.039C2.136,22.473 1.68,18.994 1.68,15.365L1.68,15.362C1.68,7.806 3.616,1.68 6.005,1.68L24.721,1.68ZM24.721,2.821L6.005,2.821C3.816,2.821 2.041,8.435 2.041,15.362L2.041,15.365C2.041,18.691 2.458,21.881 3.202,24.233C3.945,26.585 4.953,27.906 6.005,27.906L24.721,27.906C26.911,27.906 28.686,22.291 28.686,15.363C28.686,8.436 26.911,2.821 24.721,2.821Z" style="fill:rgb(163,163,163);"/>
                </g>
                <g transform="matrix(2.27108,0,0,1.24003,78.6787,35.6662)">
                    <path d="M24.721,1.68C27.11,1.68 29.046,7.806 29.046,15.363L29.046,15.363C29.046,22.92 27.11,29.046 24.721,29.046C19.601,29.046 11.125,29.046 6.005,29.046C4.858,29.046 3.758,27.605 2.947,25.039C2.136,22.473 1.68,18.994 1.68,15.365C1.68,15.364 1.68,15.363 1.68,15.362C1.68,7.806 3.616,1.68 6.005,1.68C11.125,1.68 19.601,1.68 24.721,1.68Z" style="fill:white;"/>
                    <path d="M24.721,1.68C27.11,1.68 29.046,7.806 29.046,15.363C29.046,22.92 27.11,29.046 24.721,29.046L6.005,29.046C4.858,29.046 3.758,27.605 2.947,25.039C2.136,22.473 1.68,18.994 1.68,15.365L1.68,15.362C1.68,7.806 3.616,1.68 6.005,1.68L24.721,1.68ZM24.721,2.821L6.005,2.821C3.816,2.821 2.041,8.435 2.041,15.362L2.041,15.365C2.041,18.691 2.458,21.881 3.202,24.233C3.945,26.585 4.953,27.906 6.005,27.906L24.721,27.906C26.911,27.906 28.686,22.291 28.686,15.363C28.686,8.436 26.911,2.821 24.721,2.821Z" style="fill:rgb(163,163,163);"/>
                </g>
                <g transform="matrix(0.613893,0,0,1.06046,-8.04098,93.0573)">
                    <g transform="matrix(13.6864,0,0,13.6864,336.651,112)">
                    </g>
                    <text x="296.44px" y="112px" style="font-family:'SNPro-Bold', 'SN Pro';font-weight:700;font-size:13.686px;fill:rgb(112,112,112);">FMOD</text>
                </g>
                <g transform="matrix(0.613893,0,0,1.06046,-154.158,-58.9311)">
                    <g transform="matrix(13.6864,0,0,13.6864,337.13,112)">
                    </g>
                    <text x="295.961px" y="112px" style="font-family:'SNPro-Bold', 'SN Pro';font-weight:700;font-size:13.686px;fill:rgb(112,112,112);">E<tspan x="303.859px " y="112px ">S</tspan>P32</text>
                </g>
                <g transform="matrix(0.613893,0,0,1.06046,-88.2177,-58.9311)">
                    <g transform="matrix(13.6864,0,0,13.6864,335.597,112)">
                    </g>
                    <text x="297.494px" y="112px" style="font-family:'SNPro-Bold', 'SN Pro';font-weight:700;font-size:13.686px;fill:rgb(112,112,112);">Boar<tspan x="327.29px " y="112px ">d</tspan></text>
                </g>
                <g transform="matrix(-1.22751,-3.88578e-15,4.996e-16,-0.462816,267.37,104.163)">
                    <g transform="matrix(-0.500114,4.19894e-15,-9.3258e-16,-2.29133,217.815,225.064)">
                        <path d="M68.615,79.144L65.615,82.144L62.615,79.144" style="fill:none;stroke:rgb(112,112,112);stroke-width:2px;"/>
                        <path d="M65.615,67.598L65.615,82.144" style="fill:none;stroke:rgb(112,112,112);stroke-width:2px;stroke-linejoin:round;stroke-miterlimit:1.5;stroke-dasharray:2,4,0,0,0,0;"/>
                    </g>
                </g>
                <g transform="matrix(-1.08524e-14,-2.12044,0.281478,-4.09048e-15,62.7421,446.999)">
                    <g transform="matrix(-4.20723e-15,2.18096,-0.500114,-1.9282e-14,210.805,-222.902)">
                        <path d="M122.026,54.598L119.026,51.598L122.026,48.598" style="fill:none;stroke:rgb(112,112,112);stroke-width:2px;"/>
                        <path d="M134.38,51.598L119.026,51.598" style="fill:none;stroke:rgb(112,112,112);stroke-width:2px;stroke-linejoin:round;stroke-miterlimit:1.5;stroke-dasharray:2,4,0,0,0,0;"/>
                    </g>
                </g>
                <g transform="matrix(-1.69887e-10,2.12044,-0.348603,-8.33436e-11,95.4366,-261.591)">
                    <g transform="matrix(-6.92162e-11,-1.76101,0.500114,-2.43723e-10,123.366,273.769)">
                        <path d="M131.965,120.239L134.965,123.239L131.965,126.239" style="fill:none;stroke:rgb(112,112,112);stroke-width:2px;"/>
                        <path d="M115.611,123.239C115.611,123.239 130.287,123.239 134.965,123.239" style="fill:none;stroke:rgb(112,112,112);stroke-width:2px;stroke-linejoin:round;stroke-miterlimit:1.5;stroke-dasharray:2,4,0,0,0,0;"/>
                    </g>
                </g>
                <g transform="matrix(-1.69887e-10,2.12044,-0.348603,-8.33436e-11,168.172,-259.47)">
                    <g transform="matrix(-6.92162e-11,-1.76101,0.500114,-2.43723e-10,122.366,482.419)">
                        <path d="M250.447,122.239L253.447,125.239L250.447,128.239" style="fill:none;stroke:rgb(112,112,112);stroke-width:2px;"/>
                        <path d="M234.094,125.239C234.094,125.239 248.77,125.239 253.447,125.239" style="fill:none;stroke:rgb(112,112,112);stroke-width:2px;stroke-linejoin:round;stroke-miterlimit:1.5;stroke-dasharray:2,4,0,0,0,0;"/>
                    </g>
                </g>
                <g transform="matrix(-3.05168e-10,3.80896,-0.626196,-1.4971e-10,203.455,-571.845)">
                    <path d="M185.278,70.176C185.278,70.717 185.154,71.156 185,71.156C184.846,71.156 184.722,70.717 185.278,70.176ZM185.278,70.176L184.722,70.165L184.722,69.169C184.722,68.628 184.846,68.188 185,68.188C185.154,68.188 185.278,68.628 185.278,69.169L185.278,70.176ZM185.278,65.141C185.278,65.682 185.154,66.121 185,66.121C184.846,66.121 184.722,65.682 184.722,65.141L184.722,63.127C184.722,62.586 184.846,62.146 185,62.146C185.154,62.146 185.278,62.586 185.278,63.127L185.278,65.141ZM185.278,59.099C185.278,59.64 185.154,60.079 185,60.079C184.846,60.079 184.722,59.64 184.722,59.099L184.722,57.085C184.722,56.544 184.846,56.105 185,56.105C185.154,56.105 185.278,56.544 185.278,57.085L185.278,59.099ZM185.278,53.057C185.278,53.598 185.154,54.037 185,54.037C184.846,54.037 184.722,53.598 184.722,53.057L184.722,51.043C184.722,50.502 184.846,50.063 185,50.063C185.154,50.063 185.278,50.502 185.278,51.043L185.278,53.057ZM185.278,47.015C185.278,47.556 185.154,47.996 185,47.996C184.846,47.996 184.722,47.556 184.722,47.015L184.722,45.001C184.722,44.46 184.846,44.021 185,44.021C185.154,44.021 185.278,44.46 185.278,45.001L185.278,47.015ZM185.278,40.973C185.278,41.514 185.154,41.954 185,41.954C184.846,41.954 184.722,41.514 184.722,40.973L184.722,39.007L184.722,38.956C184.722,38.415 184.847,37.977 185.001,37.979C185.155,37.981 185.279,38.422 185.278,38.963L185.278,39.007L185.278,40.973ZM185.444,35.299C185.397,35.814 185.24,36.097 185.094,35.93C184.948,35.764 184.867,35.211 184.914,34.696C184.977,34.009 185.055,33.34 185.148,32.695C185.217,32.212 185.384,32.017 185.522,32.261C185.659,32.505 185.714,33.094 185.645,33.578C185.566,34.132 185.498,34.708 185.444,35.299ZM186.297,30.986C186.168,31.279 185.995,31.148 185.912,30.693C185.829,30.238 185.866,29.631 185.995,29.338C186.085,29.134 186.181,28.948 186.281,28.787C186.421,28.563 186.587,28.78 186.65,29.273C186.714,29.765 186.652,30.347 186.512,30.571C186.436,30.693 186.365,30.833 186.297,30.986Z" style="fill:rgb(230,230,230);"/>
                </g>
                <g transform="matrix(-1.19736,-2.86261e-10,4.7062e-11,-0.587399,407.817,188.641)">
                    <path d="M185,68.37L184.487,70.153L184.487,68.144C184.487,67.147 184.717,66.339 185,66.339C185.283,66.339 185.513,67.147 185.513,68.144L185.513,70.153C185.513,70.161 185.513,70.168 185.513,70.176C185.513,71.172 185.283,71.981 185,68.37ZM185.513,33.626L185.513,35.636C185.513,36.632 185.283,37.441 185,37.441C184.717,37.441 184.487,36.632 184.487,35.636L184.487,33.626L185,31.799C185.283,31.799 185.513,32.608 185.513,33.604C185.513,33.612 185.513,33.619 185.513,33.626ZM185.513,60.017C185.513,61.013 185.283,61.822 185,61.822C184.717,61.822 184.487,61.013 184.487,60.017L184.487,55.953C184.487,54.957 184.717,54.148 185,54.148C185.283,54.148 185.513,54.957 185.513,55.953L185.513,60.017ZM185.513,47.826C185.513,48.823 185.283,49.632 185,49.632C184.717,49.632 184.487,48.823 184.487,47.826L184.487,43.763C184.487,42.767 184.717,41.958 185,41.958C185.283,41.958 185.513,42.767 185.513,43.763L185.513,47.826Z" style="fill:rgb(230,230,230);"/>
                </g>
                <g transform="matrix(-1.22751,-3.88578e-15,4.996e-16,-0.462816,413.394,205.249)">
                    <g transform="matrix(-0.500114,4.19894e-15,-9.3258e-16,-2.29133,336.775,443.48)">
                        <path d="M306.482,174.467L303.482,177.467L300.482,174.467" style="fill:none;stroke:rgb(112,112,112);stroke-width:2px;"/>
                        <path d="M303.482,162.92L303.482,177.467" style="fill:none;stroke:rgb(112,112,112);stroke-width:2px;stroke-linejoin:round;stroke-miterlimit:1.5;stroke-dasharray:2,4,0,0,0,0;"/>
                    </g>
                </g>
                <g transform="matrix(0.000109614,-2.12044,0.884551,0.000136448,92.2848,598.98)">
                    <g transform="matrix(4.46592e-05,0.694017,-0.500114,6.19744e-05,282.472,-104.365)">
                        <path d="M203.194,197.918L200.194,194.918L203.194,191.918" style="fill:none;stroke:rgb(112,112,112);stroke-width:2px;"/>
                        <path d="M251.475,194.922C251.475,194.922 208.586,194.918 200.194,194.918" style="fill:none;stroke:rgb(112,112,112);stroke-width:2px;stroke-linejoin:round;stroke-miterlimit:1.5;stroke-dasharray:2,4,0,0,0,0;"/>
                    </g>
                </g>
                <g id="Bit-1" serif:id="Bit 1" transform="matrix(0.613893,0,0,1.06046,1.42109e-14,-531.826)">
                    <rect x="41.606" y="618.824" width="10.372" height="10.372" style="fill:white;"/>
                    <path d="M51.978,618.824L51.978,629.196L41.606,629.196L41.606,618.824L51.978,618.824ZM50.645,620.157L42.94,620.157L42.94,627.863L50.645,627.863L50.645,620.157Z" style="fill:rgb(163,163,163);"/>
                </g>
                <g id="Bit-5" serif:id="Bit 5" transform="matrix(0.613893,0,0,1.06046,1.42109e-14,-517.546)">
                    <rect x="41.606" y="618.824" width="10.372" height="10.372" style="fill:white;"/>
                    <path d="M51.978,618.824L51.978,629.196L41.606,629.196L41.606,618.824L51.978,618.824ZM50.645,620.157L42.94,620.157L42.94,627.863L50.645,627.863L50.645,620.157Z" style="fill:rgb(163,163,163);"/>
                </g>
                <g id="Bit-2" serif:id="Bit 2" transform="matrix(0.613893,0,0,1.06046,8.2668,-531.826)">
                    <rect x="41.606" y="618.824" width="10.372" height="10.372" style="fill:white;"/>
                    <path d="M51.978,618.824L51.978,629.196L41.606,629.196L41.606,618.824L51.978,618.824ZM50.645,620.157L42.94,620.157L42.94,627.863L50.645,627.863L50.645,620.157Z" style="fill:rgb(163,163,163);"/>
                </g>
                <g id="Bit-6" serif:id="Bit 6" transform="matrix(0.613893,0,0,1.06046,8.2668,-517.546)">
                    <rect x="41.606" y="618.824" width="10.372" height="10.372" style="fill:white;"/>
                    <path d="M51.978,618.824L51.978,629.196L41.606,629.196L41.606,618.824L51.978,618.824ZM50.645,620.157L42.94,620.157L42.94,627.863L50.645,627.863L50.645,620.157Z" style="fill:rgb(163,163,163);"/>
                </g>
                <g id="Bit-3" serif:id="Bit 3" transform="matrix(0.613893,0,0,1.06046,16.5336,-531.826)">
                    <rect x="41.606" y="618.824" width="10.372" height="10.372" style="fill:rgb(112,112,112);"/>
                    <path d="M51.978,618.824L51.978,629.196L41.606,629.196L41.606,618.824L51.978,618.824ZM50.645,620.157L42.94,620.157L42.94,627.863L50.645,627.863L50.645,620.157Z" style="fill:rgb(163,163,163);"/>
                </g>
                <g id="Bit-7" serif:id="Bit 7" transform="matrix(0.613893,0,0,1.06046,16.5336,-517.546)">
                    <rect x="41.606" y="618.824" width="10.372" height="10.372" style="fill:white;"/>
                    <path d="M51.978,618.824L51.978,629.196L41.606,629.196L41.606,618.824L51.978,618.824ZM50.645,620.157L42.94,620.157L42.94,627.863L50.645,627.863L50.645,620.157Z" style="fill:rgb(163,163,163);"/>
                </g>
                <g id="Bit-4" serif:id="Bit 4" transform="matrix(0.613893,0,0,1.06046,24.5557,-531.826)">
                    <rect x="41.606" y="618.824" width="10.372" height="10.372" style="fill:white;"/>
                    <path d="M51.978,618.824L51.978,629.196L41.606,629.196L41.606,618.824L51.978,618.824ZM50.645,620.157L42.94,620.157L42.94,627.863L50.645,627.863L50.645,620.157Z" style="fill:rgb(163,163,163);"/>
                </g>
                <g id="Bit8" transform="matrix(0.613893,0,0,1.06046,24.5557,-517.546)">
                    <rect x="41.606" y="618.824" width="10.372" height="10.372" style="fill:white;"/>
                    <path d="M51.978,618.824L51.978,629.196L41.606,629.196L41.606,618.824L51.978,618.824ZM50.645,620.157L42.94,620.157L42.94,627.863L50.645,627.863L50.645,620.157Z" style="fill:rgb(163,163,163);"/>
                </g>
                <g transform="matrix(0.613893,0,0,1.06046,106.204,193.985)">
                    <path d="M18.653,19.464L18.64,19.451C18.312,19.123 18.31,18.592 18.636,18.261L18.637,18.26C20.187,16.631 21.133,14.426 21.133,12C21.133,9.574 20.188,7.369 18.645,5.734L18.643,5.732C18.321,5.405 18.323,4.881 18.647,4.557C18.66,4.544 18.67,4.529 18.677,4.512L18.684,4.504C18.843,4.345 19.059,4.256 19.284,4.257C19.509,4.257 19.724,4.347 19.882,4.507C21.729,6.462 22.867,9.098 22.867,12C22.867,14.902 21.729,17.538 19.876,19.487C19.72,19.645 19.507,19.734 19.284,19.735C19.062,19.735 18.848,19.647 18.69,19.49C18.68,19.479 18.667,19.47 18.653,19.464ZM15.147,15.958C15.144,15.928 15.131,15.9 15.109,15.878C14.798,15.566 14.79,15.064 15.092,14.743L15.094,14.74C15.741,14.011 16.133,13.051 16.133,12C16.133,10.947 15.74,9.986 15.07,9.276C14.758,8.944 14.766,8.424 15.088,8.101L15.108,8.082C15.13,8.076 15.151,8.065 15.167,8.048C15.324,7.891 15.538,7.804 15.76,7.806C15.982,7.809 16.193,7.9 16.347,8.06C17.291,9.101 17.867,10.483 17.867,12C17.867,13.517 17.291,14.899 16.36,15.955C16.203,16.118 15.987,16.211 15.76,16.213C15.533,16.216 15.315,16.126 15.154,15.965L15.147,15.958ZM2,15.867C1.521,15.867 1.133,15.479 1.133,15L1.133,9C1.133,8.521 1.521,8.133 2,8.133L4.886,8.133C5.565,8.133 6.222,7.894 6.742,7.456L10.029,4.689C10.356,4.414 10.813,4.353 11.201,4.534C11.588,4.714 11.836,5.103 11.836,5.53L11.836,18.47C11.836,18.897 11.588,19.286 11.201,19.466C10.813,19.647 10.356,19.586 10.029,19.311L6.742,16.544C6.222,16.107 5.565,15.867 4.886,15.867L2,15.867ZM5.622,9.867L3,9.867C2.926,9.867 2.867,9.926 2.867,10L2.867,14C2.867,14.074 2.926,14.133 3,14.133L5.622,14.133C6.225,14.133 6.811,14.342 7.278,14.725L9.916,16.883C9.955,16.915 10.011,16.922 10.057,16.9C10.104,16.878 10.133,16.831 10.133,16.78L10.133,7.221C10.133,7.169 10.104,7.122 10.057,7.1C10.011,7.078 9.955,7.085 9.916,7.117L7.278,9.276C6.811,9.658 6.225,9.867 5.622,9.867Z" style="fill:rgb(112,112,112);fill-rule:nonzero;"/>
                </g>
                <g transform="matrix(0.156204,0,0,0.365237,116.848,17.1556)">
                    <path d="M68.821,81.22C73.364,77.359 78.166,77.391 83.228,81.317" style="fill:none;stroke:rgb(112,112,112);stroke-width:4.4px;stroke-linejoin:round;stroke-miterlimit:1.5;"/>
                </g>
                <g transform="matrix(0.156204,0,0,0.269832,121.684,25.1239)">
                    <path d="M68.821,81.22C73.364,77.359 78.166,77.391 83.228,81.317" style="fill:none;stroke:rgb(112,112,112);stroke-width:5.24px;stroke-linejoin:round;stroke-miterlimit:1.5;"/>
                </g>
                <g transform="matrix(-0.185241,-0.121417,0.0836494,-0.380823,140.851,104.395)">
                    <path d="M68.821,81.22C73.364,77.359 78.166,77.391 83.228,81.317" style="fill:none;stroke:rgb(112,112,112);stroke-width:3.76px;stroke-linejoin:round;stroke-miterlimit:1.5;"/>
                </g>
                <g transform="matrix(0.156204,0,0,0.321128,116.848,37.6851)">
                    <path d="M68.821,81.22C73.364,77.359 78.166,77.391 83.228,81.317" style="fill:none;stroke:rgb(112,112,112);stroke-width:4.77px;stroke-linejoin:round;stroke-miterlimit:1.5;"/>
                </g>
                <g transform="matrix(0.00396793,0.297778,-0.205151,0.00815738,142.386,35.9756)">
                    <path d="M68.821,81.22C73.364,77.359 78.166,77.391 83.228,81.317" style="fill:none;stroke:rgb(112,112,112);stroke-width:4.32px;stroke-linejoin:round;stroke-miterlimit:1.5;"/>
                </g>
                <g transform="matrix(9.56471e-18,-0.269832,0.185898,1.96634e-17,121.216,71.4754)">
                    <path d="M68.821,81.22C73.364,77.359 78.166,77.391 83.228,81.317" style="fill:none;stroke:rgb(112,112,112);stroke-width:4.77px;stroke-linejoin:round;stroke-miterlimit:1.5;"/>
                </g>
                <g transform="matrix(9.56471e-18,-0.269832,0.185898,1.96634e-17,111.193,71.4754)">
                    <path d="M68.821,81.22C73.364,77.359 78.166,77.391 83.228,81.317" style="fill:none;stroke:rgb(112,112,112);stroke-width:4.77px;stroke-linejoin:round;stroke-miterlimit:1.5;"/>
                </g>
                <g transform="matrix(-0.583268,0.483736,-0.298909,-1.07548,199.644,101.154)">
                    <path d="M68.821,81.22C73.364,77.359 78.166,77.391 83.228,81.317" style="fill:none;stroke:rgb(112,112,112);stroke-width:1.22px;stroke-linejoin:round;stroke-miterlimit:1.5;"/>
                </g>
                <g transform="matrix(0.323594,-0.491205,0.238431,0.468712,89.284,58.7744)">
                    <path d="M68.821,81.22C73.364,77.359 78.166,77.391 83.228,81.317" style="fill:none;stroke:rgb(112,112,112);stroke-width:2.06px;stroke-linejoin:round;stroke-miterlimit:1.5;"/>
                </g>
                <g transform="matrix(9.56471e-18,-0.269832,0.185898,1.96634e-17,121.137,79.7759)">
                    <path d="M68.821,81.22C73.364,77.359 78.166,77.391 83.228,81.317" style="fill:none;stroke:rgb(112,112,112);stroke-width:4.77px;stroke-linejoin:round;stroke-miterlimit:1.5;"/>
                </g>
                <g transform="matrix(0.752468,0,0,0.752468,100.78,-52.5932)">
                    <g id="Board-1" serif:id="Board 1" transform="matrix(0.868065,0,0,1.49953,-178.386,15.6765)">
                        <circle cx="245.197" cy="77.68" r="2.684" style="fill:white;"/>
                        <path d="M245.197,74.995C246.679,74.995 247.881,76.198 247.881,77.68C247.881,79.161 246.679,80.364 245.197,80.364C243.715,80.364 242.513,79.161 242.513,77.68C242.513,76.198 243.715,74.995 245.197,74.995ZM245.197,76.248C244.407,76.248 243.766,76.89 243.766,77.68C243.766,78.469 244.407,79.111 245.197,79.111C245.987,79.111 246.628,78.469 246.628,77.68C246.628,76.89 245.987,76.248 245.197,76.248Z" style="fill:rgb(163,163,163);"/>
                    </g>
                    <g id="Board-4" serif:id="Board 4" transform="matrix(0.868065,0,0,1.49953,-178.386,26.1288)">
                        <circle cx="245.197" cy="77.68" r="2.684" style="fill:white;"/>
                        <path d="M245.197,74.995C246.679,74.995 247.881,76.198 247.881,77.68C247.881,79.161 246.679,80.364 245.197,80.364C243.715,80.364 242.513,79.161 242.513,77.68C242.513,76.198 243.715,74.995 245.197,74.995ZM245.197,76.123C244.338,76.123 243.64,76.82 243.64,77.68C243.64,78.539 244.338,79.236 245.197,79.236C246.056,79.236 246.754,78.539 246.754,77.68C246.754,76.82 246.056,76.123 245.197,76.123Z" style="fill:rgb(163,163,163);"/>
                    </g>
                    <g id="Board-6" serif:id="Board 6" transform="matrix(0.868065,0,0,1.49953,-178.386,36.5811)">
                        <circle cx="245.197" cy="77.68" r="2.684" style="fill:white;"/>
                        <path d="M245.197,74.995C246.679,74.995 247.881,76.198 247.881,77.68C247.881,79.161 246.679,80.364 245.197,80.364C243.715,80.364 242.513,79.161 242.513,77.68C242.513,76.198 243.715,74.995 245.197,74.995ZM245.197,76.248C244.407,76.248 243.766,76.89 243.766,77.68C243.766,78.469 244.407,79.111 245.197,79.111C245.987,79.111 246.628,78.469 246.628,77.68C246.628,76.89 245.987,76.248 245.197,76.248Z" style="fill:rgb(163,163,163);"/>
                    </g>
                    <g id="Board-2" serif:id="Board 2" transform="matrix(0.868065,0,0,1.49953,-172.335,15.6765)">
                        <circle cx="245.197" cy="77.68" r="2.684" style="fill:white;"/>
                        <path d="M245.197,74.995C246.679,74.995 247.881,76.198 247.881,77.68C247.881,79.161 246.679,80.364 245.197,80.364C243.715,80.364 242.513,79.161 242.513,77.68C242.513,76.198 243.715,74.995 245.197,74.995ZM245.197,76.248C244.407,76.248 243.766,76.89 243.766,77.68C243.766,78.469 244.407,79.111 245.197,79.111C245.987,79.111 246.628,78.469 246.628,77.68C246.628,76.89 245.987,76.248 245.197,76.248Z" style="fill:rgb(163,163,163);"/>
                    </g>
                    <g id="Board-7" serif:id="Board 7" transform="matrix(0.868065,0,0,1.49953,-172.335,36.5811)">
                        <circle cx="245.197" cy="77.68" r="2.684" style="fill:white;"/>
                        <path d="M245.197,74.995C246.679,74.995 247.881,76.198 247.881,77.68C247.881,79.161 246.679,80.364 245.197,80.364C243.715,80.364 242.513,79.161 242.513,77.68C242.513,76.198 243.715,74.995 245.197,74.995ZM245.197,76.248C244.407,76.248 243.766,76.89 243.766,77.68C243.766,78.469 244.407,79.111 245.197,79.111C245.987,79.111 246.628,78.469 246.628,77.68C246.628,76.89 245.987,76.248 245.197,76.248Z" style="fill:rgb(163,163,163);"/>
                    </g>
                    <g id="Board-3" serif:id="Board 3" transform="matrix(0.868065,0,0,1.49953,-166.285,15.6765)">
                        <circle cx="245.197" cy="77.68" r="2.684" style="fill:rgb(112,112,112);"/>
                        <path d="M245.197,74.995C246.679,74.995 247.881,76.198 247.881,77.68C247.881,79.161 246.679,80.364 245.197,80.364C243.715,80.364 242.513,79.161 242.513,77.68C242.513,76.198 243.715,74.995 245.197,74.995ZM245.197,76.248C244.407,76.248 243.766,76.89 243.766,77.68C243.766,78.469 244.407,79.111 245.197,79.111C245.987,79.111 246.628,78.469 246.628,77.68C246.628,76.89 245.987,76.248 245.197,76.248Z" style="fill:rgb(163,163,163);"/>
                    </g>
                    <g id="Board-5" serif:id="Board 5" transform="matrix(0.868065,0,0,1.49953,-166.285,26.1288)">
                        <circle cx="245.197" cy="77.68" r="2.684" style="fill:white;"/>
                        <path d="M245.197,74.995C246.679,74.995 247.881,76.198 247.881,77.68C247.881,79.161 246.679,80.364 245.197,80.364C243.715,80.364 242.513,79.161 242.513,77.68C242.513,76.198 243.715,74.995 245.197,74.995ZM245.197,76.248C244.407,76.248 243.766,76.89 243.766,77.68C243.766,78.469 244.407,79.111 245.197,79.111C245.987,79.111 246.628,78.469 246.628,77.68C246.628,76.89 245.987,76.248 245.197,76.248Z" style="fill:rgb(163,163,163);"/>
                    </g>
                    <g id="Board-8" serif:id="Board 8" transform="matrix(0.868065,0,0,1.49953,-166.285,36.5811)">
                        <circle cx="245.197" cy="77.68" r="2.684" style="fill:white;"/>
                        <path d="M245.197,74.995C246.679,74.995 247.881,76.198 247.881,77.68C247.881,79.161 246.679,80.364 245.197,80.364C243.715,80.364 242.513,79.161 242.513,77.68C242.513,76.198 243.715,74.995 245.197,74.995ZM245.197,76.248C244.407,76.248 243.766,76.89 243.766,77.68C243.766,78.469 244.407,79.111 245.197,79.111C245.987,79.111 246.628,78.469 246.628,77.68C246.628,76.89 245.987,76.248 245.197,76.248Z" style="fill:rgb(163,163,163);"/>
                    </g>
                </g>
                <g transform="matrix(0.623271,0,0,1.07666,178.814,124.152)">
                    <path d="M10.975,14.51C11.172,14.313 11.283,14.046 11.283,13.768C11.283,13.489 11.172,13.222 10.975,13.025C10.422,12.472 10.111,11.721 10.111,10.939C10.111,10.157 10.422,9.406 10.975,8.853L14.511,5.318C15.064,4.765 15.815,4.454 16.597,4.454C18.215,4.454 19.547,5.786 19.547,7.404C19.547,8.186 19.236,8.937 18.683,9.49L17.59,10.582C17.393,10.779 17.282,11.046 17.282,11.324C17.282,11.901 17.756,12.375 18.333,12.375C18.611,12.375 18.878,12.264 19.075,12.067L20.168,10.975C21.115,10.028 21.647,8.743 21.647,7.404C21.647,4.634 19.367,2.354 16.597,2.354C15.258,2.354 13.973,2.886 13.026,3.833L9.49,7.368C8.543,8.315 8.011,9.6 8.011,10.939C8.011,12.278 8.543,13.563 9.49,14.51C9.9,14.92 10.565,14.92 10.975,14.51ZM13.025,9.49C12.828,9.687 12.717,9.954 12.717,10.233C12.717,10.511 12.828,10.778 13.025,10.975C13.578,11.528 13.889,12.279 13.889,13.061C13.889,13.843 13.578,14.594 13.025,15.147L9.525,18.647C8.97,19.218 8.206,19.541 7.41,19.541C5.791,19.541 4.46,18.209 4.46,16.591C4.46,15.794 4.782,15.03 5.354,14.475L6.379,13.45C6.576,13.253 6.687,12.986 6.687,12.708C6.687,12.131 6.213,11.657 5.636,11.657C5.358,11.657 5.091,11.768 4.894,11.965L3.87,12.99C2.923,13.937 2.391,15.222 2.391,16.561C2.391,19.331 4.671,21.611 7.441,21.611C8.78,21.611 10.065,21.079 11.012,20.132L14.512,16.632C15.459,15.685 15.991,14.4 15.991,13.061C15.991,11.722 15.459,10.437 14.512,9.49C14.315,9.293 14.048,9.182 13.77,9.182C13.491,9.182 13.224,9.293 13.027,9.49L13.025,9.49Z" style="fill:rgb(112,112,112);"/>
                </g>
            </g>
        </g>
    </g>
</svg>
