<?xml version="1.0" encoding="UTF-8" standalone="no"?>
<!DOCTYPE svg PUBLIC "-//W3C//DTD SVG 1.1//EN" "http://www.w3.org/Graphics/SVG/1.1/DTD/svg11.dtd">
<svg width="100%" height="100%" viewBox="0 0 370 224" version="1.1" xmlns="http://www.w3.org/2000/svg" xmlns:xlink="http://www.w3.org/1999/xlink" xml:space="preserve" xmlns:serif="http://www.serif.com/" style="fill-rule:evenodd;clip-rule:evenodd;stroke-linejoin:round;stroke-miterlimit:2;">
    <g id="Empty-Grid" serif:id="Empty Grid" transform="matrix(1.62895,0,0,0.856985,-2.31487e-14,0)">
        <rect x="0" y="0" width="227.141" height="261.381" style="fill:none;"/>
        <g transform="matrix(0.730664,0,0,1.38884,1.31549,2.66716)">
            <path d="M25.686,1.68C26.577,1.68 27.432,2.034 28.062,2.665C28.692,3.295 29.046,4.15 29.046,5.041C29.046,10.302 29.046,20.425 29.046,25.686C29.046,26.577 28.692,27.432 28.062,28.062C27.432,28.692 26.577,29.046 25.686,29.046C20.425,29.046 10.302,29.046 5.041,29.046C4.15,29.046 3.295,28.692 2.665,28.062C2.034,27.432 1.68,26.577 1.68,25.686C1.68,20.425 1.68,10.302 1.68,5.041C1.68,4.15 2.034,3.295 2.665,2.665C3.295,2.034 4.15,1.68 5.041,1.68C10.302,1.68 20.425,1.68 25.686,1.68Z" style="fill:white;"/>
            <path d="M25.686,1.68C26.577,1.68 27.432,2.034 28.062,2.665C28.692,3.295 29.046,4.15 29.046,5.041L29.046,25.686C29.046,26.577 28.692,27.432 28.062,28.062C27.432,28.692 26.577,29.046 25.686,29.046L5.041,29.046C4.15,29.046 3.295,28.692 2.665,28.062C2.034,27.432 1.68,26.577 1.68,25.686L1.68,5.041C1.68,4.15 2.034,3.295 2.665,2.665C3.295,2.034 4.15,1.68 5.041,1.68L25.686,1.68ZM25.686,2.361L5.041,2.361C4.33,2.361 3.649,2.643 3.146,3.146C2.643,3.649 2.361,4.33 2.361,5.041L2.361,25.686C2.361,26.397 2.643,27.078 3.146,27.581C3.649,28.083 4.33,28.366 5.041,28.366L25.686,28.366C26.397,28.366 27.078,28.084 27.581,27.581C28.083,27.078 28.366,26.397 28.366,25.686L28.366,5.041C28.366,4.33 28.083,3.649 27.581,3.146C27.078,2.643 26.397,2.361 25.686,2.361Z" style="fill:rgb(163,163,163);"/>
        </g>
        <g transform="matrix(0.730664,0,0,1.38884,1.31549,173.365)">
            <path d="M25.686,1.68C26.577,1.68 27.432,2.034 28.062,2.665C28.692,3.295 29.046,4.15 29.046,5.041C29.046,10.302 29.046,20.425 29.046,25.686C29.046,26.577 28.692,27.432 28.062,28.062C27.432,28.692 26.577,29.046 25.686,29.046C20.425,29.046 10.302,29.046 5.041,29.046C4.15,29.046 3.295,28.692 2.665,28.062C2.034,27.432 1.68,26.577 1.68,25.686C1.68,20.425 1.68,10.302 1.68,5.041C1.68,4.15 2.034,3.295 2.665,2.665C3.295,2.034 4.15,1.68 5.041,1.68C10.302,1.68 20.425,1.68 25.686,1.68Z" style="fill:white;"/>
            <path d="M25.686,1.68C26.577,1.68 27.432,2.034 28.062,2.665C28.692,3.295 29.046,4.15 29.046,5.041L29.046,25.686C29.046,26.577 28.692,27.432 28.062,28.062C27.432,28.692 26.577,29.046 25.686,29.046L5.041,29.046C4.15,29.046 3.295,28.692 2.665,28.062C2.034,27.432 1.68,26.577 1.68,25.686L1.68,5.041C1.68,4.15 2.034,3.295 2.665,2.665C3.295,2.034 4.15,1.68 5.041,1.68L25.686,1.68ZM25.686,2.361L5.041,2.361C4.33,2.361 3.649,2.643 3.146,3.146C2.643,3.649 2.361,4.33 2.361,5.041L2.361,25.686C2.361,26.397 2.643,27.078 3.146,27.581C3.649,28.083 4.33,28.366 5.041,28.366L25.686,28.366C26.397,28.366 27.078,28.084 27.581,27.581C28.083,27.078 28.366,26.397 28.366,25.686L28.366,5.041C28.366,4.33 28.083,3.649 27.581,3.146C27.078,2.643 26.397,2.361 25.686,2.361Z" style="fill:rgb(163,163,163);"/>
        </g>
        <g transform="matrix(0.730664,0,0,1.38884,1.31549,88.0162)">
            <path d="M25.686,1.68C26.577,1.68 27.432,2.034 28.062,2.665C28.692,3.295 29.046,4.15 29.046,5.041C29.046,10.302 29.046,20.425 29.046,25.686C29.046,26.577 28.692,27.432 28.062,28.062C27.432,28.692 26.577,29.046 25.686,29.046C20.425,29.046 10.302,29.046 5.041,29.046C4.15,29.046 3.295,28.692 2.665,28.062C2.034,27.432 1.68,26.577 1.68,25.686C1.68,20.425 1.68,10.302 1.68,5.041C1.68,4.15 2.034,3.295 2.665,2.665C3.295,2.034 4.15,1.68 5.041,1.68C10.302,1.68 20.425,1.68 25.686,1.68Z" style="fill:white;"/>
            <path d="M25.686,1.68C26.577,1.68 27.432,2.034 28.062,2.665C28.692,3.295 29.046,4.15 29.046,5.041L29.046,25.686C29.046,26.577 28.692,27.432 28.062,28.062C27.432,28.692 26.577,29.046 25.686,29.046L5.041,29.046C4.15,29.046 3.295,28.692 2.665,28.062C2.034,27.432 1.68,26.577 1.68,25.686L1.68,5.041C1.68,4.15 2.034,3.295 2.665,2.665C3.295,2.034 4.15,1.68 5.041,1.68L25.686,1.68ZM25.686,2.361L5.041,2.361C4.33,2.361 3.649,2.643 3.146,3.146C2.643,3.649 2.361,4.33 2.361,5.041L2.361,25.686C2.361,26.397 2.643,27.078 3.146,27.581C3.649,28.083 4.33,28.366 5.041,28.366L25.686,28.366C26.397,28.366 27.078,28.084 27.581,27.581C28.083,27.078 28.366,26.397 28.366,25.686L28.366,5.041C28.366,4.33 28.083,3.649 27.581,3.146C27.078,2.643 26.397,2.361 25.686,2.361Z" style="fill:rgb(163,163,163);"/>
        </g>
        <g transform="matrix(0.730664,0,0,1.38884,1.31549,45.3417)">
            <path d="M25.686,1.68C26.577,1.68 27.432,2.034 28.062,2.665C28.692,3.295 29.046,4.15 29.046,5.041C29.046,10.302 29.046,20.425 29.046,25.686C29.046,26.577 28.692,27.432 28.062,28.062C27.432,28.692 26.577,29.046 25.686,29.046C20.425,29.046 10.302,29.046 5.041,29.046C4.15,29.046 3.295,28.692 2.665,28.062C2.034,27.432 1.68,26.577 1.68,25.686C1.68,20.425 1.68,10.302 1.68,5.041C1.68,4.15 2.034,3.295 2.665,2.665C3.295,2.034 4.15,1.68 5.041,1.68C10.302,1.68 20.425,1.68 25.686,1.68Z" style="fill:white;"/>
            <path d="M25.686,1.68C26.577,1.68 27.432,2.034 28.062,2.665C28.692,3.295 29.046,4.15 29.046,5.041L29.046,25.686C29.046,26.577 28.692,27.432 28.062,28.062C27.432,28.692 26.577,29.046 25.686,29.046L5.041,29.046C4.15,29.046 3.295,28.692 2.665,28.062C2.034,27.432 1.68,26.577 1.68,25.686L1.68,5.041C1.68,4.15 2.034,3.295 2.665,2.665C3.295,2.034 4.15,1.68 5.041,1.68L25.686,1.68ZM25.686,2.361L5.041,2.361C4.33,2.361 3.649,2.643 3.146,3.146C2.643,3.649 2.361,4.33 2.361,5.041L2.361,25.686C2.361,26.397 2.643,27.078 3.146,27.581C3.649,28.083 4.33,28.366 5.041,28.366L25.686,28.366C26.397,28.366 27.078,28.084 27.581,27.581C28.083,27.078 28.366,26.397 28.366,25.686L28.366,5.041C28.366,4.33 28.083,3.649 27.581,3.146C27.078,2.643 26.397,2.361 25.686,2.361Z" style="fill:rgb(163,163,163);"/>
        </g>
        <g transform="matrix(0.730664,0,0,1.38884,1.31549,216.04)">
            <path d="M25.686,1.68C26.577,1.68 27.432,2.034 28.062,2.665C28.692,3.295 29.046,4.15 29.046,5.041C29.046,10.302 29.046,20.425 29.046,25.686C29.046,26.577 28.692,27.432 28.062,28.062C27.432,28.692 26.577,29.046 25.686,29.046C20.425,29.046 10.302,29.046 5.041,29.046C4.15,29.046 3.295,28.692 2.665,28.062C2.034,27.432 1.68,26.577 1.68,25.686C1.68,20.425 1.68,10.302 1.68,5.041C1.68,4.15 2.034,3.295 2.665,2.665C3.295,2.034 4.15,1.68 5.041,1.68C10.302,1.68 20.425,1.68 25.686,1.68Z" style="fill:white;"/>
            <path d="M25.686,1.68C26.577,1.68 27.432,2.034 28.062,2.665C28.692,3.295 29.046,4.15 29.046,5.041L29.046,25.686C29.046,26.577 28.692,27.432 28.062,28.062C27.432,28.692 26.577,29.046 25.686,29.046L5.041,29.046C4.15,29.046 3.295,28.692 2.665,28.062C2.034,27.432 1.68,26.577 1.68,25.686L1.68,5.041C1.68,4.15 2.034,3.295 2.665,2.665C3.295,2.034 4.15,1.68 5.041,1.68L25.686,1.68ZM25.686,2.361L5.041,2.361C4.33,2.361 3.649,2.643 3.146,3.146C2.643,3.649 2.361,4.33 2.361,5.041L2.361,25.686C2.361,26.397 2.643,27.078 3.146,27.581C3.649,28.083 4.33,28.366 5.041,28.366L25.686,28.366C26.397,28.366 27.078,28.084 27.581,27.581C28.083,27.078 28.366,26.397 28.366,25.686L28.366,5.041C28.366,4.33 28.083,3.649 27.581,3.146C27.078,2.643 26.397,2.361 25.686,2.361Z" style="fill:rgb(163,163,163);"/>
        </g>
        <g transform="matrix(0.730664,0,0,1.38884,1.31549,130.691)">
            <path d="M25.686,1.68C26.577,1.68 27.432,2.034 28.062,2.665C28.692,3.295 29.046,4.15 29.046,5.041C29.046,10.302 29.046,20.425 29.046,25.686C29.046,26.577 28.692,27.432 28.062,28.062C27.432,28.692 26.577,29.046 25.686,29.046C20.425,29.046 10.302,29.046 5.041,29.046C4.15,29.046 3.295,28.692 2.665,28.062C2.034,27.432 1.68,26.577 1.68,25.686C1.68,20.425 1.68,10.302 1.68,5.041C1.68,4.15 2.034,3.295 2.665,2.665C3.295,2.034 4.15,1.68 5.041,1.68C10.302,1.68 20.425,1.68 25.686,1.68Z" style="fill:white;"/>
            <path d="M25.686,1.68C26.577,1.68 27.432,2.034 28.062,2.665C28.692,3.295 29.046,4.15 29.046,5.041L29.046,25.686C29.046,26.577 28.692,27.432 28.062,28.062C27.432,28.692 26.577,29.046 25.686,29.046L5.041,29.046C4.15,29.046 3.295,28.692 2.665,28.062C2.034,27.432 1.68,26.577 1.68,25.686L1.68,5.041C1.68,4.15 2.034,3.295 2.665,2.665C3.295,2.034 4.15,1.68 5.041,1.68L25.686,1.68ZM25.686,2.361L5.041,2.361C4.33,2.361 3.649,2.643 3.146,3.146C2.643,3.649 2.361,4.33 2.361,5.041L2.361,25.686C2.361,26.397 2.643,27.078 3.146,27.581C3.649,28.083 4.33,28.366 5.041,28.366L25.686,28.366C26.397,28.366 27.078,28.084 27.581,27.581C28.083,27.078 28.366,26.397 28.366,25.686L28.366,5.041C28.366,4.33 28.083,3.649 27.581,3.146C27.078,2.643 26.397,2.361 25.686,2.361Z" style="fill:rgb(163,163,163);"/>
        </g>
        <g transform="matrix(0.730664,0,0,1.38884,46.2174,2.66716)">
            <path d="M25.686,1.68C26.577,1.68 27.432,2.034 28.062,2.665C28.692,3.295 29.046,4.15 29.046,5.041C29.046,10.302 29.046,20.425 29.046,25.686C29.046,26.577 28.692,27.432 28.062,28.062C27.432,28.692 26.577,29.046 25.686,29.046C20.425,29.046 10.302,29.046 5.041,29.046C4.15,29.046 3.295,28.692 2.665,28.062C2.034,27.432 1.68,26.577 1.68,25.686C1.68,20.425 1.68,10.302 1.68,5.041C1.68,4.15 2.034,3.295 2.665,2.665C3.295,2.034 4.15,1.68 5.041,1.68C10.302,1.68 20.425,1.68 25.686,1.68Z" style="fill:white;"/>
            <path d="M25.686,1.68C26.577,1.68 27.432,2.034 28.062,2.665C28.692,3.295 29.046,4.15 29.046,5.041L29.046,25.686C29.046,26.577 28.692,27.432 28.062,28.062C27.432,28.692 26.577,29.046 25.686,29.046L5.041,29.046C4.15,29.046 3.295,28.692 2.665,28.062C2.034,27.432 1.68,26.577 1.68,25.686L1.68,5.041C1.68,4.15 2.034,3.295 2.665,2.665C3.295,2.034 4.15,1.68 5.041,1.68L25.686,1.68ZM25.686,2.361L5.041,2.361C4.33,2.361 3.649,2.643 3.146,3.146C2.643,3.649 2.361,4.33 2.361,5.041L2.361,25.686C2.361,26.397 2.643,27.078 3.146,27.581C3.649,28.083 4.33,28.366 5.041,28.366L25.686,28.366C26.397,28.366 27.078,28.084 27.581,27.581C28.083,27.078 28.366,26.397 28.366,25.686L28.366,5.041C28.366,4.33 28.083,3.649 27.581,3.146C27.078,2.643 26.397,2.361 25.686,2.361Z" style="fill:rgb(163,163,163);"/>
        </g>
        <g transform="matrix(0.730664,0,0,1.38884,46.2174,173.365)">
            <path d="M25.686,1.68C26.577,1.68 27.432,2.034 28.062,2.665C28.692,3.295 29.046,4.15 29.046,5.041C29.046,10.302 29.046,20.425 29.046,25.686C29.046,26.577 28.692,27.432 28.062,28.062C27.432,28.692 26.577,29.046 25.686,29.046C20.425,29.046 10.302,29.046 5.041,29.046C4.15,29.046 3.295,28.692 2.665,28.062C2.034,27.432 1.68,26.577 1.68,25.686C1.68,20.425 1.68,10.302 1.68,5.041C1.68,4.15 2.034,3.295 2.665,2.665C3.295,2.034 4.15,1.68 5.041,1.68C10.302,1.68 20.425,1.68 25.686,1.68Z" style="fill:white;"/>
            <path d="M25.686,1.68C26.577,1.68 27.432,2.034 28.062,2.665C28.692,3.295 29.046,4.15 29.046,5.041L29.046,25.686C29.046,26.577 28.692,27.432 28.062,28.062C27.432,28.692 26.577,29.046 25.686,29.046L5.041,29.046C4.15,29.046 3.295,28.692 2.665,28.062C2.034,27.432 1.68,26.577 1.68,25.686L1.68,5.041C1.68,4.15 2.034,3.295 2.665,2.665C3.295,2.034 4.15,1.68 5.041,1.68L25.686,1.68ZM25.686,2.361L5.041,2.361C4.33,2.361 3.649,2.643 3.146,3.146C2.643,3.649 2.361,4.33 2.361,5.041L2.361,25.686C2.361,26.397 2.643,27.078 3.146,27.581C3.649,28.083 4.33,28.366 5.041,28.366L25.686,28.366C26.397,28.366 27.078,28.084 27.581,27.581C28.083,27.078 28.366,26.397 28.366,25.686L28.366,5.041C28.366,4.33 28.083,3.649 27.581,3.146C27.078,2.643 26.397,2.361 25.686,2.361Z" style="fill:rgb(163,163,163);"/>
        </g>
        <g transform="matrix(0.730664,0,0,1.38884,46.2174,88.0162)">
            <path d="M25.686,1.68C26.577,1.68 27.432,2.034 28.062,2.665C28.692,3.295 29.046,4.15 29.046,5.041C29.046,10.302 29.046,20.425 29.046,25.686C29.046,26.577 28.692,27.432 28.062,28.062C27.432,28.692 26.577,29.046 25.686,29.046C20.425,29.046 10.302,29.046 5.041,29.046C4.15,29.046 3.295,28.692 2.665,28.062C2.034,27.432 1.68,26.577 1.68,25.686C1.68,20.425 1.68,10.302 1.68,5.041C1.68,4.15 2.034,3.295 2.665,2.665C3.295,2.034 4.15,1.68 5.041,1.68C10.302,1.68 20.425,1.68 25.686,1.68Z" style="fill:white;"/>
            <path d="M25.686,1.68C26.577,1.68 27.432,2.034 28.062,2.665C28.692,3.295 29.046,4.15 29.046,5.041L29.046,25.686C29.046,26.577 28.692,27.432 28.062,28.062C27.432,28.692 26.577,29.046 25.686,29.046L5.041,29.046C4.15,29.046 3.295,28.692 2.665,28.062C2.034,27.432 1.68,26.577 1.68,25.686L1.68,5.041C1.68,4.15 2.034,3.295 2.665,2.665C3.295,2.034 4.15,1.68 5.041,1.68L25.686,1.68ZM25.686,2.361L5.041,2.361C4.33,2.361 3.649,2.643 3.146,3.146C2.643,3.649 2.361,4.33 2.361,5.041L2.361,25.686C2.361,26.397 2.643,27.078 3.146,27.581C3.649,28.083 4.33,28.366 5.041,28.366L25.686,28.366C26.397,28.366 27.078,28.084 27.581,27.581C28.083,27.078 28.366,26.397 28.366,25.686L28.366,5.041C28.366,4.33 28.083,3.649 27.581,3.146C27.078,2.643 26.397,2.361 25.686,2.361Z" style="fill:rgb(163,163,163);"/>
        </g>
        <g transform="matrix(0.730664,0,0,1.38884,46.2174,45.3417)">
            <path d="M25.686,1.68C26.577,1.68 27.432,2.034 28.062,2.665C28.692,3.295 29.046,4.15 29.046,5.041C29.046,10.302 29.046,20.425 29.046,25.686C29.046,26.577 28.692,27.432 28.062,28.062C27.432,28.692 26.577,29.046 25.686,29.046C20.425,29.046 10.302,29.046 5.041,29.046C4.15,29.046 3.295,28.692 2.665,28.062C2.034,27.432 1.68,26.577 1.68,25.686C1.68,20.425 1.68,10.302 1.68,5.041C1.68,4.15 2.034,3.295 2.665,2.665C3.295,2.034 4.15,1.68 5.041,1.68C10.302,1.68 20.425,1.68 25.686,1.68Z" style="fill:white;"/>
            <path d="M25.686,1.68C26.577,1.68 27.432,2.034 28.062,2.665C28.692,3.295 29.046,4.15 29.046,5.041L29.046,25.686C29.046,26.577 28.692,27.432 28.062,28.062C27.432,28.692 26.577,29.046 25.686,29.046L5.041,29.046C4.15,29.046 3.295,28.692 2.665,28.062C2.034,27.432 1.68,26.577 1.68,25.686L1.68,5.041C1.68,4.15 2.034,3.295 2.665,2.665C3.295,2.034 4.15,1.68 5.041,1.68L25.686,1.68ZM25.686,2.361L5.041,2.361C4.33,2.361 3.649,2.643 3.146,3.146C2.643,3.649 2.361,4.33 2.361,5.041L2.361,25.686C2.361,26.397 2.643,27.078 3.146,27.581C3.649,28.083 4.33,28.366 5.041,28.366L25.686,28.366C26.397,28.366 27.078,28.084 27.581,27.581C28.083,27.078 28.366,26.397 28.366,25.686L28.366,5.041C28.366,4.33 28.083,3.649 27.581,3.146C27.078,2.643 26.397,2.361 25.686,2.361Z" style="fill:rgb(163,163,163);"/>
        </g>
        <g transform="matrix(0.730664,0,0,1.38884,46.2174,216.04)">
            <path d="M25.686,1.68C26.577,1.68 27.432,2.034 28.062,2.665C28.692,3.295 29.046,4.15 29.046,5.041C29.046,10.302 29.046,20.425 29.046,25.686C29.046,26.577 28.692,27.432 28.062,28.062C27.432,28.692 26.577,29.046 25.686,29.046C20.425,29.046 10.302,29.046 5.041,29.046C4.15,29.046 3.295,28.692 2.665,28.062C2.034,27.432 1.68,26.577 1.68,25.686C1.68,20.425 1.68,10.302 1.68,5.041C1.68,4.15 2.034,3.295 2.665,2.665C3.295,2.034 4.15,1.68 5.041,1.68C10.302,1.68 20.425,1.68 25.686,1.68Z" style="fill:white;"/>
            <path d="M25.686,1.68C26.577,1.68 27.432,2.034 28.062,2.665C28.692,3.295 29.046,4.15 29.046,5.041L29.046,25.686C29.046,26.577 28.692,27.432 28.062,28.062C27.432,28.692 26.577,29.046 25.686,29.046L5.041,29.046C4.15,29.046 3.295,28.692 2.665,28.062C2.034,27.432 1.68,26.577 1.68,25.686L1.68,5.041C1.68,4.15 2.034,3.295 2.665,2.665C3.295,2.034 4.15,1.68 5.041,1.68L25.686,1.68ZM25.686,2.361L5.041,2.361C4.33,2.361 3.649,2.643 3.146,3.146C2.643,3.649 2.361,4.33 2.361,5.041L2.361,25.686C2.361,26.397 2.643,27.078 3.146,27.581C3.649,28.083 4.33,28.366 5.041,28.366L25.686,28.366C26.397,28.366 27.078,28.084 27.581,27.581C28.083,27.078 28.366,26.397 28.366,25.686L28.366,5.041C28.366,4.33 28.083,3.649 27.581,3.146C27.078,2.643 26.397,2.361 25.686,2.361Z" style="fill:rgb(163,163,163);"/>
        </g>
        <g transform="matrix(0.730664,0,0,1.38884,46.2174,130.691)">
            <path d="M25.686,1.68C26.577,1.68 27.432,2.034 28.062,2.665C28.692,3.295 29.046,4.15 29.046,5.041C29.046,10.302 29.046,20.425 29.046,25.686C29.046,26.577 28.692,27.432 28.062,28.062C27.432,28.692 26.577,29.046 25.686,29.046C20.425,29.046 10.302,29.046 5.041,29.046C4.15,29.046 3.295,28.692 2.665,28.062C2.034,27.432 1.68,26.577 1.68,25.686C1.68,20.425 1.68,10.302 1.68,5.041C1.68,4.15 2.034,3.295 2.665,2.665C3.295,2.034 4.15,1.68 5.041,1.68C10.302,1.68 20.425,1.68 25.686,1.68Z" style="fill:white;"/>
            <path d="M25.686,1.68C26.577,1.68 27.432,2.034 28.062,2.665C28.692,3.295 29.046,4.15 29.046,5.041L29.046,25.686C29.046,26.577 28.692,27.432 28.062,28.062C27.432,28.692 26.577,29.046 25.686,29.046L5.041,29.046C4.15,29.046 3.295,28.692 2.665,28.062C2.034,27.432 1.68,26.577 1.68,25.686L1.68,5.041C1.68,4.15 2.034,3.295 2.665,2.665C3.295,2.034 4.15,1.68 5.041,1.68L25.686,1.68ZM25.686,2.361L5.041,2.361C4.33,2.361 3.649,2.643 3.146,3.146C2.643,3.649 2.361,4.33 2.361,5.041L2.361,25.686C2.361,26.397 2.643,27.078 3.146,27.581C3.649,28.083 4.33,28.366 5.041,28.366L25.686,28.366C26.397,28.366 27.078,28.084 27.581,27.581C28.083,27.078 28.366,26.397 28.366,25.686L28.366,5.041C28.366,4.33 28.083,3.649 27.581,3.146C27.078,2.643 26.397,2.361 25.686,2.361Z" style="fill:rgb(163,163,163);"/>
        </g>
        <g transform="matrix(0.730664,0,0,1.38884,91.1193,2.66716)">
            <path d="M25.686,1.68C26.577,1.68 27.432,2.034 28.062,2.665C28.692,3.295 29.046,4.15 29.046,5.041C29.046,10.302 29.046,20.425 29.046,25.686C29.046,26.577 28.692,27.432 28.062,28.062C27.432,28.692 26.577,29.046 25.686,29.046C20.425,29.046 10.302,29.046 5.041,29.046C4.15,29.046 3.295,28.692 2.665,28.062C2.034,27.432 1.68,26.577 1.68,25.686C1.68,20.425 1.68,10.302 1.68,5.041C1.68,4.15 2.034,3.295 2.665,2.665C3.295,2.034 4.15,1.68 5.041,1.68C10.302,1.68 20.425,1.68 25.686,1.68Z" style="fill:white;"/>
            <path d="M25.686,1.68C26.577,1.68 27.432,2.034 28.062,2.665C28.692,3.295 29.046,4.15 29.046,5.041L29.046,25.686C29.046,26.577 28.692,27.432 28.062,28.062C27.432,28.692 26.577,29.046 25.686,29.046L5.041,29.046C4.15,29.046 3.295,28.692 2.665,28.062C2.034,27.432 1.68,26.577 1.68,25.686L1.68,5.041C1.68,4.15 2.034,3.295 2.665,2.665C3.295,2.034 4.15,1.68 5.041,1.68L25.686,1.68ZM25.686,2.361L5.041,2.361C4.33,2.361 3.649,2.643 3.146,3.146C2.643,3.649 2.361,4.33 2.361,5.041L2.361,25.686C2.361,26.397 2.643,27.078 3.146,27.581C3.649,28.083 4.33,28.366 5.041,28.366L25.686,28.366C26.397,28.366 27.078,28.084 27.581,27.581C28.083,27.078 28.366,26.397 28.366,25.686L28.366,5.041C28.366,4.33 28.083,3.649 27.581,3.146C27.078,2.643 26.397,2.361 25.686,2.361Z" style="fill:rgb(163,163,163);"/>
        </g>
        <g transform="matrix(0.730664,0,0,1.38884,91.1193,173.365)">
            <path d="M25.686,1.68C26.577,1.68 27.432,2.034 28.062,2.665C28.692,3.295 29.046,4.15 29.046,5.041C29.046,10.302 29.046,20.425 29.046,25.686C29.046,26.577 28.692,27.432 28.062,28.062C27.432,28.692 26.577,29.046 25.686,29.046C20.425,29.046 10.302,29.046 5.041,29.046C4.15,29.046 3.295,28.692 2.665,28.062C2.034,27.432 1.68,26.577 1.68,25.686C1.68,20.425 1.68,10.302 1.68,5.041C1.68,4.15 2.034,3.295 2.665,2.665C3.295,2.034 4.15,1.68 5.041,1.68C10.302,1.68 20.425,1.68 25.686,1.68Z" style="fill:white;"/>
            <path d="M25.686,1.68C26.577,1.68 27.432,2.034 28.062,2.665C28.692,3.295 29.046,4.15 29.046,5.041L29.046,25.686C29.046,26.577 28.692,27.432 28.062,28.062C27.432,28.692 26.577,29.046 25.686,29.046L5.041,29.046C4.15,29.046 3.295,28.692 2.665,28.062C2.034,27.432 1.68,26.577 1.68,25.686L1.68,5.041C1.68,4.15 2.034,3.295 2.665,2.665C3.295,2.034 4.15,1.68 5.041,1.68L25.686,1.68ZM25.686,2.361L5.041,2.361C4.33,2.361 3.649,2.643 3.146,3.146C2.643,3.649 2.361,4.33 2.361,5.041L2.361,25.686C2.361,26.397 2.643,27.078 3.146,27.581C3.649,28.083 4.33,28.366 5.041,28.366L25.686,28.366C26.397,28.366 27.078,28.084 27.581,27.581C28.083,27.078 28.366,26.397 28.366,25.686L28.366,5.041C28.366,4.33 28.083,3.649 27.581,3.146C27.078,2.643 26.397,2.361 25.686,2.361Z" style="fill:rgb(163,163,163);"/>
        </g>
        <g transform="matrix(0.730664,0,0,1.38884,91.1193,88.0162)">
            <path d="M25.686,1.68C26.577,1.68 27.432,2.034 28.062,2.665C28.692,3.295 29.046,4.15 29.046,5.041C29.046,10.302 29.046,20.425 29.046,25.686C29.046,26.577 28.692,27.432 28.062,28.062C27.432,28.692 26.577,29.046 25.686,29.046C20.425,29.046 10.302,29.046 5.041,29.046C4.15,29.046 3.295,28.692 2.665,28.062C2.034,27.432 1.68,26.577 1.68,25.686C1.68,20.425 1.68,10.302 1.68,5.041C1.68,4.15 2.034,3.295 2.665,2.665C3.295,2.034 4.15,1.68 5.041,1.68C10.302,1.68 20.425,1.68 25.686,1.68Z" style="fill:white;"/>
            <path d="M25.686,1.68C26.577,1.68 27.432,2.034 28.062,2.665C28.692,3.295 29.046,4.15 29.046,5.041L29.046,25.686C29.046,26.577 28.692,27.432 28.062,28.062C27.432,28.692 26.577,29.046 25.686,29.046L5.041,29.046C4.15,29.046 3.295,28.692 2.665,28.062C2.034,27.432 1.68,26.577 1.68,25.686L1.68,5.041C1.68,4.15 2.034,3.295 2.665,2.665C3.295,2.034 4.15,1.68 5.041,1.68L25.686,1.68ZM25.686,2.361L5.041,2.361C4.33,2.361 3.649,2.643 3.146,3.146C2.643,3.649 2.361,4.33 2.361,5.041L2.361,25.686C2.361,26.397 2.643,27.078 3.146,27.581C3.649,28.083 4.33,28.366 5.041,28.366L25.686,28.366C26.397,28.366 27.078,28.084 27.581,27.581C28.083,27.078 28.366,26.397 28.366,25.686L28.366,5.041C28.366,4.33 28.083,3.649 27.581,3.146C27.078,2.643 26.397,2.361 25.686,2.361Z" style="fill:rgb(163,163,163);"/>
        </g>
        <g transform="matrix(0.730664,0,0,1.38884,91.1193,45.3417)">
            <path d="M25.686,1.68C26.577,1.68 27.432,2.034 28.062,2.665C28.692,3.295 29.046,4.15 29.046,5.041C29.046,10.302 29.046,20.425 29.046,25.686C29.046,26.577 28.692,27.432 28.062,28.062C27.432,28.692 26.577,29.046 25.686,29.046C20.425,29.046 10.302,29.046 5.041,29.046C4.15,29.046 3.295,28.692 2.665,28.062C2.034,27.432 1.68,26.577 1.68,25.686C1.68,20.425 1.68,10.302 1.68,5.041C1.68,4.15 2.034,3.295 2.665,2.665C3.295,2.034 4.15,1.68 5.041,1.68C10.302,1.68 20.425,1.68 25.686,1.68Z" style="fill:white;"/>
            <path d="M25.686,1.68C26.577,1.68 27.432,2.034 28.062,2.665C28.692,3.295 29.046,4.15 29.046,5.041L29.046,25.686C29.046,26.577 28.692,27.432 28.062,28.062C27.432,28.692 26.577,29.046 25.686,29.046L5.041,29.046C4.15,29.046 3.295,28.692 2.665,28.062C2.034,27.432 1.68,26.577 1.68,25.686L1.68,5.041C1.68,4.15 2.034,3.295 2.665,2.665C3.295,2.034 4.15,1.68 5.041,1.68L25.686,1.68ZM25.686,2.361L5.041,2.361C4.33,2.361 3.649,2.643 3.146,3.146C2.643,3.649 2.361,4.33 2.361,5.041L2.361,25.686C2.361,26.397 2.643,27.078 3.146,27.581C3.649,28.083 4.33,28.366 5.041,28.366L25.686,28.366C26.397,28.366 27.078,28.084 27.581,27.581C28.083,27.078 28.366,26.397 28.366,25.686L28.366,5.041C28.366,4.33 28.083,3.649 27.581,3.146C27.078,2.643 26.397,2.361 25.686,2.361Z" style="fill:rgb(163,163,163);"/>
        </g>
        <g transform="matrix(0.730664,0,0,1.38884,91.1193,216.04)">
            <path d="M25.686,1.68C26.577,1.68 27.432,2.034 28.062,2.665C28.692,3.295 29.046,4.15 29.046,5.041C29.046,10.302 29.046,20.425 29.046,25.686C29.046,26.577 28.692,27.432 28.062,28.062C27.432,28.692 26.577,29.046 25.686,29.046C20.425,29.046 10.302,29.046 5.041,29.046C4.15,29.046 3.295,28.692 2.665,28.062C2.034,27.432 1.68,26.577 1.68,25.686C1.68,20.425 1.68,10.302 1.68,5.041C1.68,4.15 2.034,3.295 2.665,2.665C3.295,2.034 4.15,1.68 5.041,1.68C10.302,1.68 20.425,1.68 25.686,1.68Z" style="fill:white;"/>
            <path d="M25.686,1.68C26.577,1.68 27.432,2.034 28.062,2.665C28.692,3.295 29.046,4.15 29.046,5.041L29.046,25.686C29.046,26.577 28.692,27.432 28.062,28.062C27.432,28.692 26.577,29.046 25.686,29.046L5.041,29.046C4.15,29.046 3.295,28.692 2.665,28.062C2.034,27.432 1.68,26.577 1.68,25.686L1.68,5.041C1.68,4.15 2.034,3.295 2.665,2.665C3.295,2.034 4.15,1.68 5.041,1.68L25.686,1.68ZM25.686,2.361L5.041,2.361C4.33,2.361 3.649,2.643 3.146,3.146C2.643,3.649 2.361,4.33 2.361,5.041L2.361,25.686C2.361,26.397 2.643,27.078 3.146,27.581C3.649,28.083 4.33,28.366 5.041,28.366L25.686,28.366C26.397,28.366 27.078,28.084 27.581,27.581C28.083,27.078 28.366,26.397 28.366,25.686L28.366,5.041C28.366,4.33 28.083,3.649 27.581,3.146C27.078,2.643 26.397,2.361 25.686,2.361Z" style="fill:rgb(163,163,163);"/>
        </g>
        <g transform="matrix(0.730664,0,0,1.38884,91.1193,130.691)">
            <path d="M25.686,1.68C26.577,1.68 27.432,2.034 28.062,2.665C28.692,3.295 29.046,4.15 29.046,5.041C29.046,10.302 29.046,20.425 29.046,25.686C29.046,26.577 28.692,27.432 28.062,28.062C27.432,28.692 26.577,29.046 25.686,29.046C20.425,29.046 10.302,29.046 5.041,29.046C4.15,29.046 3.295,28.692 2.665,28.062C2.034,27.432 1.68,26.577 1.68,25.686C1.68,20.425 1.68,10.302 1.68,5.041C1.68,4.15 2.034,3.295 2.665,2.665C3.295,2.034 4.15,1.68 5.041,1.68C10.302,1.68 20.425,1.68 25.686,1.68Z" style="fill:white;"/>
            <path d="M25.686,1.68C26.577,1.68 27.432,2.034 28.062,2.665C28.692,3.295 29.046,4.15 29.046,5.041L29.046,25.686C29.046,26.577 28.692,27.432 28.062,28.062C27.432,28.692 26.577,29.046 25.686,29.046L5.041,29.046C4.15,29.046 3.295,28.692 2.665,28.062C2.034,27.432 1.68,26.577 1.68,25.686L1.68,5.041C1.68,4.15 2.034,3.295 2.665,2.665C3.295,2.034 4.15,1.68 5.041,1.68L25.686,1.68ZM25.686,2.361L5.041,2.361C4.33,2.361 3.649,2.643 3.146,3.146C2.643,3.649 2.361,4.33 2.361,5.041L2.361,25.686C2.361,26.397 2.643,27.078 3.146,27.581C3.649,28.083 4.33,28.366 5.041,28.366L25.686,28.366C26.397,28.366 27.078,28.084 27.581,27.581C28.083,27.078 28.366,26.397 28.366,25.686L28.366,5.041C28.366,4.33 28.083,3.649 27.581,3.146C27.078,2.643 26.397,2.361 25.686,2.361Z" style="fill:rgb(163,163,163);"/>
        </g>
        <g transform="matrix(0.730664,0,0,1.38884,23.7664,2.66716)">
            <path d="M25.686,1.68C26.577,1.68 27.432,2.034 28.062,2.665C28.692,3.295 29.046,4.15 29.046,5.041C29.046,10.302 29.046,20.425 29.046,25.686C29.046,26.577 28.692,27.432 28.062,28.062C27.432,28.692 26.577,29.046 25.686,29.046C20.425,29.046 10.302,29.046 5.041,29.046C4.15,29.046 3.295,28.692 2.665,28.062C2.034,27.432 1.68,26.577 1.68,25.686C1.68,20.425 1.68,10.302 1.68,5.041C1.68,4.15 2.034,3.295 2.665,2.665C3.295,2.034 4.15,1.68 5.041,1.68C10.302,1.68 20.425,1.68 25.686,1.68Z" style="fill:white;"/>
            <path d="M25.686,1.68C26.577,1.68 27.432,2.034 28.062,2.665C28.692,3.295 29.046,4.15 29.046,5.041L29.046,25.686C29.046,26.577 28.692,27.432 28.062,28.062C27.432,28.692 26.577,29.046 25.686,29.046L5.041,29.046C4.15,29.046 3.295,28.692 2.665,28.062C2.034,27.432 1.68,26.577 1.68,25.686L1.68,5.041C1.68,4.15 2.034,3.295 2.665,2.665C3.295,2.034 4.15,1.68 5.041,1.68L25.686,1.68ZM25.686,2.361L5.041,2.361C4.33,2.361 3.649,2.643 3.146,3.146C2.643,3.649 2.361,4.33 2.361,5.041L2.361,25.686C2.361,26.397 2.643,27.078 3.146,27.581C3.649,28.083 4.33,28.366 5.041,28.366L25.686,28.366C26.397,28.366 27.078,28.084 27.581,27.581C28.083,27.078 28.366,26.397 28.366,25.686L28.366,5.041C28.366,4.33 28.083,3.649 27.581,3.146C27.078,2.643 26.397,2.361 25.686,2.361Z" style="fill:rgb(163,163,163);"/>
        </g>
        <g transform="matrix(0.730664,0,0,1.38884,23.7664,173.365)">
            <path d="M25.686,1.68C26.577,1.68 27.432,2.034 28.062,2.665C28.692,3.295 29.046,4.15 29.046,5.041C29.046,10.302 29.046,20.425 29.046,25.686C29.046,26.577 28.692,27.432 28.062,28.062C27.432,28.692 26.577,29.046 25.686,29.046C20.425,29.046 10.302,29.046 5.041,29.046C4.15,29.046 3.295,28.692 2.665,28.062C2.034,27.432 1.68,26.577 1.68,25.686C1.68,20.425 1.68,10.302 1.68,5.041C1.68,4.15 2.034,3.295 2.665,2.665C3.295,2.034 4.15,1.68 5.041,1.68C10.302,1.68 20.425,1.68 25.686,1.68Z" style="fill:white;"/>
            <path d="M25.686,1.68C26.577,1.68 27.432,2.034 28.062,2.665C28.692,3.295 29.046,4.15 29.046,5.041L29.046,25.686C29.046,26.577 28.692,27.432 28.062,28.062C27.432,28.692 26.577,29.046 25.686,29.046L5.041,29.046C4.15,29.046 3.295,28.692 2.665,28.062C2.034,27.432 1.68,26.577 1.68,25.686L1.68,5.041C1.68,4.15 2.034,3.295 2.665,2.665C3.295,2.034 4.15,1.68 5.041,1.68L25.686,1.68ZM25.686,2.361L5.041,2.361C4.33,2.361 3.649,2.643 3.146,3.146C2.643,3.649 2.361,4.33 2.361,5.041L2.361,25.686C2.361,26.397 2.643,27.078 3.146,27.581C3.649,28.083 4.33,28.366 5.041,28.366L25.686,28.366C26.397,28.366 27.078,28.084 27.581,27.581C28.083,27.078 28.366,26.397 28.366,25.686L28.366,5.041C28.366,4.33 28.083,3.649 27.581,3.146C27.078,2.643 26.397,2.361 25.686,2.361Z" style="fill:rgb(163,163,163);"/>
        </g>
        <g transform="matrix(0.730664,0,0,1.38884,23.7664,88.0162)">
            <path d="M25.686,1.68C26.577,1.68 27.432,2.034 28.062,2.665C28.692,3.295 29.046,4.15 29.046,5.041C29.046,10.302 29.046,20.425 29.046,25.686C29.046,26.577 28.692,27.432 28.062,28.062C27.432,28.692 26.577,29.046 25.686,29.046C20.425,29.046 10.302,29.046 5.041,29.046C4.15,29.046 3.295,28.692 2.665,28.062C2.034,27.432 1.68,26.577 1.68,25.686C1.68,20.425 1.68,10.302 1.68,5.041C1.68,4.15 2.034,3.295 2.665,2.665C3.295,2.034 4.15,1.68 5.041,1.68C10.302,1.68 20.425,1.68 25.686,1.68Z" style="fill:white;"/>
            <path d="M25.686,1.68C26.577,1.68 27.432,2.034 28.062,2.665C28.692,3.295 29.046,4.15 29.046,5.041L29.046,25.686C29.046,26.577 28.692,27.432 28.062,28.062C27.432,28.692 26.577,29.046 25.686,29.046L5.041,29.046C4.15,29.046 3.295,28.692 2.665,28.062C2.034,27.432 1.68,26.577 1.68,25.686L1.68,5.041C1.68,4.15 2.034,3.295 2.665,2.665C3.295,2.034 4.15,1.68 5.041,1.68L25.686,1.68ZM25.686,2.361L5.041,2.361C4.33,2.361 3.649,2.643 3.146,3.146C2.643,3.649 2.361,4.33 2.361,5.041L2.361,25.686C2.361,26.397 2.643,27.078 3.146,27.581C3.649,28.083 4.33,28.366 5.041,28.366L25.686,28.366C26.397,28.366 27.078,28.084 27.581,27.581C28.083,27.078 28.366,26.397 28.366,25.686L28.366,5.041C28.366,4.33 28.083,3.649 27.581,3.146C27.078,2.643 26.397,2.361 25.686,2.361Z" style="fill:rgb(163,163,163);"/>
        </g>
        <g transform="matrix(0.730664,0,0,1.38884,23.7664,45.3417)">
            <path d="M25.686,1.68C26.577,1.68 27.432,2.034 28.062,2.665C28.692,3.295 29.046,4.15 29.046,5.041C29.046,10.302 29.046,20.425 29.046,25.686C29.046,26.577 28.692,27.432 28.062,28.062C27.432,28.692 26.577,29.046 25.686,29.046C20.425,29.046 10.302,29.046 5.041,29.046C4.15,29.046 3.295,28.692 2.665,28.062C2.034,27.432 1.68,26.577 1.68,25.686C1.68,20.425 1.68,10.302 1.68,5.041C1.68,4.15 2.034,3.295 2.665,2.665C3.295,2.034 4.15,1.68 5.041,1.68C10.302,1.68 20.425,1.68 25.686,1.68Z" style="fill:white;"/>
            <path d="M25.686,1.68C26.577,1.68 27.432,2.034 28.062,2.665C28.692,3.295 29.046,4.15 29.046,5.041L29.046,25.686C29.046,26.577 28.692,27.432 28.062,28.062C27.432,28.692 26.577,29.046 25.686,29.046L5.041,29.046C4.15,29.046 3.295,28.692 2.665,28.062C2.034,27.432 1.68,26.577 1.68,25.686L1.68,5.041C1.68,4.15 2.034,3.295 2.665,2.665C3.295,2.034 4.15,1.68 5.041,1.68L25.686,1.68ZM25.686,2.361L5.041,2.361C4.33,2.361 3.649,2.643 3.146,3.146C2.643,3.649 2.361,4.33 2.361,5.041L2.361,25.686C2.361,26.397 2.643,27.078 3.146,27.581C3.649,28.083 4.33,28.366 5.041,28.366L25.686,28.366C26.397,28.366 27.078,28.084 27.581,27.581C28.083,27.078 28.366,26.397 28.366,25.686L28.366,5.041C28.366,4.33 28.083,3.649 27.581,3.146C27.078,2.643 26.397,2.361 25.686,2.361Z" style="fill:rgb(163,163,163);"/>
        </g>
        <g transform="matrix(0.730664,0,0,1.38884,23.7664,216.04)">
            <path d="M25.686,1.68C26.577,1.68 27.432,2.034 28.062,2.665C28.692,3.295 29.046,4.15 29.046,5.041C29.046,10.302 29.046,20.425 29.046,25.686C29.046,26.577 28.692,27.432 28.062,28.062C27.432,28.692 26.577,29.046 25.686,29.046C20.425,29.046 10.302,29.046 5.041,29.046C4.15,29.046 3.295,28.692 2.665,28.062C2.034,27.432 1.68,26.577 1.68,25.686C1.68,20.425 1.68,10.302 1.68,5.041C1.68,4.15 2.034,3.295 2.665,2.665C3.295,2.034 4.15,1.68 5.041,1.68C10.302,1.68 20.425,1.68 25.686,1.68Z" style="fill:white;"/>
            <path d="M25.686,1.68C26.577,1.68 27.432,2.034 28.062,2.665C28.692,3.295 29.046,4.15 29.046,5.041L29.046,25.686C29.046,26.577 28.692,27.432 28.062,28.062C27.432,28.692 26.577,29.046 25.686,29.046L5.041,29.046C4.15,29.046 3.295,28.692 2.665,28.062C2.034,27.432 1.68,26.577 1.68,25.686L1.68,5.041C1.68,4.15 2.034,3.295 2.665,2.665C3.295,2.034 4.15,1.68 5.041,1.68L25.686,1.68ZM25.686,2.361L5.041,2.361C4.33,2.361 3.649,2.643 3.146,3.146C2.643,3.649 2.361,4.33 2.361,5.041L2.361,25.686C2.361,26.397 2.643,27.078 3.146,27.581C3.649,28.083 4.33,28.366 5.041,28.366L25.686,28.366C26.397,28.366 27.078,28.084 27.581,27.581C28.083,27.078 28.366,26.397 28.366,25.686L28.366,5.041C28.366,4.33 28.083,3.649 27.581,3.146C27.078,2.643 26.397,2.361 25.686,2.361Z" style="fill:rgb(163,163,163);"/>
        </g>
        <g transform="matrix(0.730664,0,0,1.38884,23.7664,130.691)">
            <path d="M25.686,1.68C26.577,1.68 27.432,2.034 28.062,2.665C28.692,3.295 29.046,4.15 29.046,5.041C29.046,10.302 29.046,20.425 29.046,25.686C29.046,26.577 28.692,27.432 28.062,28.062C27.432,28.692 26.577,29.046 25.686,29.046C20.425,29.046 10.302,29.046 5.041,29.046C4.15,29.046 3.295,28.692 2.665,28.062C2.034,27.432 1.68,26.577 1.68,25.686C1.68,20.425 1.68,10.302 1.68,5.041C1.68,4.15 2.034,3.295 2.665,2.665C3.295,2.034 4.15,1.68 5.041,1.68C10.302,1.68 20.425,1.68 25.686,1.68Z" style="fill:white;"/>
            <path d="M25.686,1.68C26.577,1.68 27.432,2.034 28.062,2.665C28.692,3.295 29.046,4.15 29.046,5.041L29.046,25.686C29.046,26.577 28.692,27.432 28.062,28.062C27.432,28.692 26.577,29.046 25.686,29.046L5.041,29.046C4.15,29.046 3.295,28.692 2.665,28.062C2.034,27.432 1.68,26.577 1.68,25.686L1.68,5.041C1.68,4.15 2.034,3.295 2.665,2.665C3.295,2.034 4.15,1.68 5.041,1.68L25.686,1.68ZM25.686,2.361L5.041,2.361C4.33,2.361 3.649,2.643 3.146,3.146C2.643,3.649 2.361,4.33 2.361,5.041L2.361,25.686C2.361,26.397 2.643,27.078 3.146,27.581C3.649,28.083 4.33,28.366 5.041,28.366L25.686,28.366C26.397,28.366 27.078,28.084 27.581,27.581C28.083,27.078 28.366,26.397 28.366,25.686L28.366,5.041C28.366,4.33 28.083,3.649 27.581,3.146C27.078,2.643 26.397,2.361 25.686,2.361Z" style="fill:rgb(163,163,163);"/>
        </g>
        <g transform="matrix(0.730664,0,0,1.38884,68.6684,2.66716)">
            <path d="M25.686,1.68C26.577,1.68 27.432,2.034 28.062,2.665C28.692,3.295 29.046,4.15 29.046,5.041C29.046,10.302 29.046,20.425 29.046,25.686C29.046,26.577 28.692,27.432 28.062,28.062C27.432,28.692 26.577,29.046 25.686,29.046C20.425,29.046 10.302,29.046 5.041,29.046C4.15,29.046 3.295,28.692 2.665,28.062C2.034,27.432 1.68,26.577 1.68,25.686C1.68,20.425 1.68,10.302 1.68,5.041C1.68,4.15 2.034,3.295 2.665,2.665C3.295,2.034 4.15,1.68 5.041,1.68C10.302,1.68 20.425,1.68 25.686,1.68Z" style="fill:white;"/>
            <path d="M25.686,1.68C26.577,1.68 27.432,2.034 28.062,2.665C28.692,3.295 29.046,4.15 29.046,5.041L29.046,25.686C29.046,26.577 28.692,27.432 28.062,28.062C27.432,28.692 26.577,29.046 25.686,29.046L5.041,29.046C4.15,29.046 3.295,28.692 2.665,28.062C2.034,27.432 1.68,26.577 1.68,25.686L1.68,5.041C1.68,4.15 2.034,3.295 2.665,2.665C3.295,2.034 4.15,1.68 5.041,1.68L25.686,1.68ZM25.686,2.361L5.041,2.361C4.33,2.361 3.649,2.643 3.146,3.146C2.643,3.649 2.361,4.33 2.361,5.041L2.361,25.686C2.361,26.397 2.643,27.078 3.146,27.581C3.649,28.083 4.33,28.366 5.041,28.366L25.686,28.366C26.397,28.366 27.078,28.084 27.581,27.581C28.083,27.078 28.366,26.397 28.366,25.686L28.366,5.041C28.366,4.33 28.083,3.649 27.581,3.146C27.078,2.643 26.397,2.361 25.686,2.361Z" style="fill:rgb(163,163,163);"/>
        </g>
        <g transform="matrix(0.730664,0,0,1.38884,68.6684,173.365)">
            <path d="M25.686,1.68C26.577,1.68 27.432,2.034 28.062,2.665C28.692,3.295 29.046,4.15 29.046,5.041C29.046,10.302 29.046,20.425 29.046,25.686C29.046,26.577 28.692,27.432 28.062,28.062C27.432,28.692 26.577,29.046 25.686,29.046C20.425,29.046 10.302,29.046 5.041,29.046C4.15,29.046 3.295,28.692 2.665,28.062C2.034,27.432 1.68,26.577 1.68,25.686C1.68,20.425 1.68,10.302 1.68,5.041C1.68,4.15 2.034,3.295 2.665,2.665C3.295,2.034 4.15,1.68 5.041,1.68C10.302,1.68 20.425,1.68 25.686,1.68Z" style="fill:white;"/>
            <path d="M25.686,1.68C26.577,1.68 27.432,2.034 28.062,2.665C28.692,3.295 29.046,4.15 29.046,5.041L29.046,25.686C29.046,26.577 28.692,27.432 28.062,28.062C27.432,28.692 26.577,29.046 25.686,29.046L5.041,29.046C4.15,29.046 3.295,28.692 2.665,28.062C2.034,27.432 1.68,26.577 1.68,25.686L1.68,5.041C1.68,4.15 2.034,3.295 2.665,2.665C3.295,2.034 4.15,1.68 5.041,1.68L25.686,1.68ZM25.686,2.361L5.041,2.361C4.33,2.361 3.649,2.643 3.146,3.146C2.643,3.649 2.361,4.33 2.361,5.041L2.361,25.686C2.361,26.397 2.643,27.078 3.146,27.581C3.649,28.083 4.33,28.366 5.041,28.366L25.686,28.366C26.397,28.366 27.078,28.084 27.581,27.581C28.083,27.078 28.366,26.397 28.366,25.686L28.366,5.041C28.366,4.33 28.083,3.649 27.581,3.146C27.078,2.643 26.397,2.361 25.686,2.361Z" style="fill:rgb(163,163,163);"/>
        </g>
        <g transform="matrix(0.730664,0,0,1.38884,68.6684,88.0162)">
            <path d="M25.686,1.68C26.577,1.68 27.432,2.034 28.062,2.665C28.692,3.295 29.046,4.15 29.046,5.041C29.046,10.302 29.046,20.425 29.046,25.686C29.046,26.577 28.692,27.432 28.062,28.062C27.432,28.692 26.577,29.046 25.686,29.046C20.425,29.046 10.302,29.046 5.041,29.046C4.15,29.046 3.295,28.692 2.665,28.062C2.034,27.432 1.68,26.577 1.68,25.686C1.68,20.425 1.68,10.302 1.68,5.041C1.68,4.15 2.034,3.295 2.665,2.665C3.295,2.034 4.15,1.68 5.041,1.68C10.302,1.68 20.425,1.68 25.686,1.68Z" style="fill:white;"/>
            <path d="M25.686,1.68C26.577,1.68 27.432,2.034 28.062,2.665C28.692,3.295 29.046,4.15 29.046,5.041L29.046,25.686C29.046,26.577 28.692,27.432 28.062,28.062C27.432,28.692 26.577,29.046 25.686,29.046L5.041,29.046C4.15,29.046 3.295,28.692 2.665,28.062C2.034,27.432 1.68,26.577 1.68,25.686L1.68,5.041C1.68,4.15 2.034,3.295 2.665,2.665C3.295,2.034 4.15,1.68 5.041,1.68L25.686,1.68ZM25.686,2.361L5.041,2.361C4.33,2.361 3.649,2.643 3.146,3.146C2.643,3.649 2.361,4.33 2.361,5.041L2.361,25.686C2.361,26.397 2.643,27.078 3.146,27.581C3.649,28.083 4.33,28.366 5.041,28.366L25.686,28.366C26.397,28.366 27.078,28.084 27.581,27.581C28.083,27.078 28.366,26.397 28.366,25.686L28.366,5.041C28.366,4.33 28.083,3.649 27.581,3.146C27.078,2.643 26.397,2.361 25.686,2.361Z" style="fill:rgb(163,163,163);"/>
        </g>
        <g transform="matrix(0.730664,0,0,1.38884,68.6684,45.3417)">
            <path d="M25.686,1.68C26.577,1.68 27.432,2.034 28.062,2.665C28.692,3.295 29.046,4.15 29.046,5.041C29.046,10.302 29.046,20.425 29.046,25.686C29.046,26.577 28.692,27.432 28.062,28.062C27.432,28.692 26.577,29.046 25.686,29.046C20.425,29.046 10.302,29.046 5.041,29.046C4.15,29.046 3.295,28.692 2.665,28.062C2.034,27.432 1.68,26.577 1.68,25.686C1.68,20.425 1.68,10.302 1.68,5.041C1.68,4.15 2.034,3.295 2.665,2.665C3.295,2.034 4.15,1.68 5.041,1.68C10.302,1.68 20.425,1.68 25.686,1.68Z" style="fill:white;"/>
            <path d="M25.686,1.68C26.577,1.68 27.432,2.034 28.062,2.665C28.692,3.295 29.046,4.15 29.046,5.041L29.046,25.686C29.046,26.577 28.692,27.432 28.062,28.062C27.432,28.692 26.577,29.046 25.686,29.046L5.041,29.046C4.15,29.046 3.295,28.692 2.665,28.062C2.034,27.432 1.68,26.577 1.68,25.686L1.68,5.041C1.68,4.15 2.034,3.295 2.665,2.665C3.295,2.034 4.15,1.68 5.041,1.68L25.686,1.68ZM25.686,2.361L5.041,2.361C4.33,2.361 3.649,2.643 3.146,3.146C2.643,3.649 2.361,4.33 2.361,5.041L2.361,25.686C2.361,26.397 2.643,27.078 3.146,27.581C3.649,28.083 4.33,28.366 5.041,28.366L25.686,28.366C26.397,28.366 27.078,28.084 27.581,27.581C28.083,27.078 28.366,26.397 28.366,25.686L28.366,5.041C28.366,4.33 28.083,3.649 27.581,3.146C27.078,2.643 26.397,2.361 25.686,2.361Z" style="fill:rgb(163,163,163);"/>
        </g>
        <g transform="matrix(0.730664,0,0,1.38884,68.6684,216.04)">
            <path d="M25.686,1.68C26.577,1.68 27.432,2.034 28.062,2.665C28.692,3.295 29.046,4.15 29.046,5.041C29.046,10.302 29.046,20.425 29.046,25.686C29.046,26.577 28.692,27.432 28.062,28.062C27.432,28.692 26.577,29.046 25.686,29.046C20.425,29.046 10.302,29.046 5.041,29.046C4.15,29.046 3.295,28.692 2.665,28.062C2.034,27.432 1.68,26.577 1.68,25.686C1.68,20.425 1.68,10.302 1.68,5.041C1.68,4.15 2.034,3.295 2.665,2.665C3.295,2.034 4.15,1.68 5.041,1.68C10.302,1.68 20.425,1.68 25.686,1.68Z" style="fill:white;"/>
            <path d="M25.686,1.68C26.577,1.68 27.432,2.034 28.062,2.665C28.692,3.295 29.046,4.15 29.046,5.041L29.046,25.686C29.046,26.577 28.692,27.432 28.062,28.062C27.432,28.692 26.577,29.046 25.686,29.046L5.041,29.046C4.15,29.046 3.295,28.692 2.665,28.062C2.034,27.432 1.68,26.577 1.68,25.686L1.68,5.041C1.68,4.15 2.034,3.295 2.665,2.665C3.295,2.034 4.15,1.68 5.041,1.68L25.686,1.68ZM25.686,2.361L5.041,2.361C4.33,2.361 3.649,2.643 3.146,3.146C2.643,3.649 2.361,4.33 2.361,5.041L2.361,25.686C2.361,26.397 2.643,27.078 3.146,27.581C3.649,28.083 4.33,28.366 5.041,28.366L25.686,28.366C26.397,28.366 27.078,28.084 27.581,27.581C28.083,27.078 28.366,26.397 28.366,25.686L28.366,5.041C28.366,4.33 28.083,3.649 27.581,3.146C27.078,2.643 26.397,2.361 25.686,2.361Z" style="fill:rgb(163,163,163);"/>
        </g>
        <g transform="matrix(0.730664,0,0,1.38884,68.6684,130.691)">
            <path d="M25.686,1.68C26.577,1.68 27.432,2.034 28.062,2.665C28.692,3.295 29.046,4.15 29.046,5.041C29.046,10.302 29.046,20.425 29.046,25.686C29.046,26.577 28.692,27.432 28.062,28.062C27.432,28.692 26.577,29.046 25.686,29.046C20.425,29.046 10.302,29.046 5.041,29.046C4.15,29.046 3.295,28.692 2.665,28.062C2.034,27.432 1.68,26.577 1.68,25.686C1.68,20.425 1.68,10.302 1.68,5.041C1.68,4.15 2.034,3.295 2.665,2.665C3.295,2.034 4.15,1.68 5.041,1.68C10.302,1.68 20.425,1.68 25.686,1.68Z" style="fill:white;"/>
            <path d="M25.686,1.68C26.577,1.68 27.432,2.034 28.062,2.665C28.692,3.295 29.046,4.15 29.046,5.041L29.046,25.686C29.046,26.577 28.692,27.432 28.062,28.062C27.432,28.692 26.577,29.046 25.686,29.046L5.041,29.046C4.15,29.046 3.295,28.692 2.665,28.062C2.034,27.432 1.68,26.577 1.68,25.686L1.68,5.041C1.68,4.15 2.034,3.295 2.665,2.665C3.295,2.034 4.15,1.68 5.041,1.68L25.686,1.68ZM25.686,2.361L5.041,2.361C4.33,2.361 3.649,2.643 3.146,3.146C2.643,3.649 2.361,4.33 2.361,5.041L2.361,25.686C2.361,26.397 2.643,27.078 3.146,27.581C3.649,28.083 4.33,28.366 5.041,28.366L25.686,28.366C26.397,28.366 27.078,28.084 27.581,27.581C28.083,27.078 28.366,26.397 28.366,25.686L28.366,5.041C28.366,4.33 28.083,3.649 27.581,3.146C27.078,2.643 26.397,2.361 25.686,2.361Z" style="fill:rgb(163,163,163);"/>
        </g>
        <g transform="matrix(0.730664,0,0,1.38884,113.57,2.66716)">
            <path d="M25.686,1.68C26.577,1.68 27.432,2.034 28.062,2.665C28.692,3.295 29.046,4.15 29.046,5.041C29.046,10.302 29.046,20.425 29.046,25.686C29.046,26.577 28.692,27.432 28.062,28.062C27.432,28.692 26.577,29.046 25.686,29.046C20.425,29.046 10.302,29.046 5.041,29.046C4.15,29.046 3.295,28.692 2.665,28.062C2.034,27.432 1.68,26.577 1.68,25.686C1.68,20.425 1.68,10.302 1.68,5.041C1.68,4.15 2.034,3.295 2.665,2.665C3.295,2.034 4.15,1.68 5.041,1.68C10.302,1.68 20.425,1.68 25.686,1.68Z" style="fill:white;"/>
            <path d="M25.686,1.68C26.577,1.68 27.432,2.034 28.062,2.665C28.692,3.295 29.046,4.15 29.046,5.041L29.046,25.686C29.046,26.577 28.692,27.432 28.062,28.062C27.432,28.692 26.577,29.046 25.686,29.046L5.041,29.046C4.15,29.046 3.295,28.692 2.665,28.062C2.034,27.432 1.68,26.577 1.68,25.686L1.68,5.041C1.68,4.15 2.034,3.295 2.665,2.665C3.295,2.034 4.15,1.68 5.041,1.68L25.686,1.68ZM25.686,2.361L5.041,2.361C4.33,2.361 3.649,2.643 3.146,3.146C2.643,3.649 2.361,4.33 2.361,5.041L2.361,25.686C2.361,26.397 2.643,27.078 3.146,27.581C3.649,28.083 4.33,28.366 5.041,28.366L25.686,28.366C26.397,28.366 27.078,28.084 27.581,27.581C28.083,27.078 28.366,26.397 28.366,25.686L28.366,5.041C28.366,4.33 28.083,3.649 27.581,3.146C27.078,2.643 26.397,2.361 25.686,2.361Z" style="fill:rgb(163,163,163);"/>
        </g>
        <g transform="matrix(0.730664,0,0,1.38884,158.472,2.66716)">
            <path d="M25.686,1.68C26.577,1.68 27.432,2.034 28.062,2.665C28.692,3.295 29.046,4.15 29.046,5.041C29.046,10.302 29.046,20.425 29.046,25.686C29.046,26.577 28.692,27.432 28.062,28.062C27.432,28.692 26.577,29.046 25.686,29.046C20.425,29.046 10.302,29.046 5.041,29.046C4.15,29.046 3.295,28.692 2.665,28.062C2.034,27.432 1.68,26.577 1.68,25.686C1.68,20.425 1.68,10.302 1.68,5.041C1.68,4.15 2.034,3.295 2.665,2.665C3.295,2.034 4.15,1.68 5.041,1.68C10.302,1.68 20.425,1.68 25.686,1.68Z" style="fill:white;"/>
            <path d="M25.686,1.68C26.577,1.68 27.432,2.034 28.062,2.665C28.692,3.295 29.046,4.15 29.046,5.041L29.046,25.686C29.046,26.577 28.692,27.432 28.062,28.062C27.432,28.692 26.577,29.046 25.686,29.046L5.041,29.046C4.15,29.046 3.295,28.692 2.665,28.062C2.034,27.432 1.68,26.577 1.68,25.686L1.68,5.041C1.68,4.15 2.034,3.295 2.665,2.665C3.295,2.034 4.15,1.68 5.041,1.68L25.686,1.68ZM25.686,2.361L5.041,2.361C4.33,2.361 3.649,2.643 3.146,3.146C2.643,3.649 2.361,4.33 2.361,5.041L2.361,25.686C2.361,26.397 2.643,27.078 3.146,27.581C3.649,28.083 4.33,28.366 5.041,28.366L25.686,28.366C26.397,28.366 27.078,28.084 27.581,27.581C28.083,27.078 28.366,26.397 28.366,25.686L28.366,5.041C28.366,4.33 28.083,3.649 27.581,3.146C27.078,2.643 26.397,2.361 25.686,2.361Z" style="fill:rgb(163,163,163);"/>
        </g>
        <g transform="matrix(0.730664,0,0,1.38884,113.57,173.365)">
            <path d="M25.686,1.68C26.577,1.68 27.432,2.034 28.062,2.665C28.692,3.295 29.046,4.15 29.046,5.041C29.046,10.302 29.046,20.425 29.046,25.686C29.046,26.577 28.692,27.432 28.062,28.062C27.432,28.692 26.577,29.046 25.686,29.046C20.425,29.046 10.302,29.046 5.041,29.046C4.15,29.046 3.295,28.692 2.665,28.062C2.034,27.432 1.68,26.577 1.68,25.686C1.68,20.425 1.68,10.302 1.68,5.041C1.68,4.15 2.034,3.295 2.665,2.665C3.295,2.034 4.15,1.68 5.041,1.68C10.302,1.68 20.425,1.68 25.686,1.68Z" style="fill:white;"/>
            <path d="M25.686,1.68C26.577,1.68 27.432,2.034 28.062,2.665C28.692,3.295 29.046,4.15 29.046,5.041L29.046,25.686C29.046,26.577 28.692,27.432 28.062,28.062C27.432,28.692 26.577,29.046 25.686,29.046L5.041,29.046C4.15,29.046 3.295,28.692 2.665,28.062C2.034,27.432 1.68,26.577 1.68,25.686L1.68,5.041C1.68,4.15 2.034,3.295 2.665,2.665C3.295,2.034 4.15,1.68 5.041,1.68L25.686,1.68ZM25.686,2.361L5.041,2.361C4.33,2.361 3.649,2.643 3.146,3.146C2.643,3.649 2.361,4.33 2.361,5.041L2.361,25.686C2.361,26.397 2.643,27.078 3.146,27.581C3.649,28.083 4.33,28.366 5.041,28.366L25.686,28.366C26.397,28.366 27.078,28.084 27.581,27.581C28.083,27.078 28.366,26.397 28.366,25.686L28.366,5.041C28.366,4.33 28.083,3.649 27.581,3.146C27.078,2.643 26.397,2.361 25.686,2.361Z" style="fill:rgb(163,163,163);"/>
        </g>
        <g transform="matrix(0.730664,0,0,1.38884,158.472,173.365)">
            <path d="M25.686,1.68C26.577,1.68 27.432,2.034 28.062,2.665C28.692,3.295 29.046,4.15 29.046,5.041C29.046,10.302 29.046,20.425 29.046,25.686C29.046,26.577 28.692,27.432 28.062,28.062C27.432,28.692 26.577,29.046 25.686,29.046C20.425,29.046 10.302,29.046 5.041,29.046C4.15,29.046 3.295,28.692 2.665,28.062C2.034,27.432 1.68,26.577 1.68,25.686C1.68,20.425 1.68,10.302 1.68,5.041C1.68,4.15 2.034,3.295 2.665,2.665C3.295,2.034 4.15,1.68 5.041,1.68C10.302,1.68 20.425,1.68 25.686,1.68Z" style="fill:white;"/>
            <path d="M25.686,1.68C26.577,1.68 27.432,2.034 28.062,2.665C28.692,3.295 29.046,4.15 29.046,5.041L29.046,25.686C29.046,26.577 28.692,27.432 28.062,28.062C27.432,28.692 26.577,29.046 25.686,29.046L5.041,29.046C4.15,29.046 3.295,28.692 2.665,28.062C2.034,27.432 1.68,26.577 1.68,25.686L1.68,5.041C1.68,4.15 2.034,3.295 2.665,2.665C3.295,2.034 4.15,1.68 5.041,1.68L25.686,1.68ZM25.686,2.361L5.041,2.361C4.33,2.361 3.649,2.643 3.146,3.146C2.643,3.649 2.361,4.33 2.361,5.041L2.361,25.686C2.361,26.397 2.643,27.078 3.146,27.581C3.649,28.083 4.33,28.366 5.041,28.366L25.686,28.366C26.397,28.366 27.078,28.084 27.581,27.581C28.083,27.078 28.366,26.397 28.366,25.686L28.366,5.041C28.366,4.33 28.083,3.649 27.581,3.146C27.078,2.643 26.397,2.361 25.686,2.361Z" style="fill:rgb(163,163,163);"/>
        </g>
        <g transform="matrix(0.730664,0,0,1.38884,113.57,88.0162)">
            <path d="M25.686,1.68C26.577,1.68 27.432,2.034 28.062,2.665C28.692,3.295 29.046,4.15 29.046,5.041C29.046,10.302 29.046,20.425 29.046,25.686C29.046,26.577 28.692,27.432 28.062,28.062C27.432,28.692 26.577,29.046 25.686,29.046C20.425,29.046 10.302,29.046 5.041,29.046C4.15,29.046 3.295,28.692 2.665,28.062C2.034,27.432 1.68,26.577 1.68,25.686C1.68,20.425 1.68,10.302 1.68,5.041C1.68,4.15 2.034,3.295 2.665,2.665C3.295,2.034 4.15,1.68 5.041,1.68C10.302,1.68 20.425,1.68 25.686,1.68Z" style="fill:white;"/>
            <path d="M25.686,1.68C26.577,1.68 27.432,2.034 28.062,2.665C28.692,3.295 29.046,4.15 29.046,5.041L29.046,25.686C29.046,26.577 28.692,27.432 28.062,28.062C27.432,28.692 26.577,29.046 25.686,29.046L5.041,29.046C4.15,29.046 3.295,28.692 2.665,28.062C2.034,27.432 1.68,26.577 1.68,25.686L1.68,5.041C1.68,4.15 2.034,3.295 2.665,2.665C3.295,2.034 4.15,1.68 5.041,1.68L25.686,1.68ZM25.686,2.361L5.041,2.361C4.33,2.361 3.649,2.643 3.146,3.146C2.643,3.649 2.361,4.33 2.361,5.041L2.361,25.686C2.361,26.397 2.643,27.078 3.146,27.581C3.649,28.083 4.33,28.366 5.041,28.366L25.686,28.366C26.397,28.366 27.078,28.084 27.581,27.581C28.083,27.078 28.366,26.397 28.366,25.686L28.366,5.041C28.366,4.33 28.083,3.649 27.581,3.146C27.078,2.643 26.397,2.361 25.686,2.361Z" style="fill:rgb(163,163,163);"/>
        </g>
        <g transform="matrix(0.730664,0,0,1.38884,158.472,88.0162)">
            <path d="M25.686,1.68C26.577,1.68 27.432,2.034 28.062,2.665C28.692,3.295 29.046,4.15 29.046,5.041C29.046,10.302 29.046,20.425 29.046,25.686C29.046,26.577 28.692,27.432 28.062,28.062C27.432,28.692 26.577,29.046 25.686,29.046C20.425,29.046 10.302,29.046 5.041,29.046C4.15,29.046 3.295,28.692 2.665,28.062C2.034,27.432 1.68,26.577 1.68,25.686C1.68,20.425 1.68,10.302 1.68,5.041C1.68,4.15 2.034,3.295 2.665,2.665C3.295,2.034 4.15,1.68 5.041,1.68C10.302,1.68 20.425,1.68 25.686,1.68Z" style="fill:white;"/>
            <path d="M25.686,1.68C26.577,1.68 27.432,2.034 28.062,2.665C28.692,3.295 29.046,4.15 29.046,5.041L29.046,25.686C29.046,26.577 28.692,27.432 28.062,28.062C27.432,28.692 26.577,29.046 25.686,29.046L5.041,29.046C4.15,29.046 3.295,28.692 2.665,28.062C2.034,27.432 1.68,26.577 1.68,25.686L1.68,5.041C1.68,4.15 2.034,3.295 2.665,2.665C3.295,2.034 4.15,1.68 5.041,1.68L25.686,1.68ZM25.686,2.361L5.041,2.361C4.33,2.361 3.649,2.643 3.146,3.146C2.643,3.649 2.361,4.33 2.361,5.041L2.361,25.686C2.361,26.397 2.643,27.078 3.146,27.581C3.649,28.083 4.33,28.366 5.041,28.366L25.686,28.366C26.397,28.366 27.078,28.084 27.581,27.581C28.083,27.078 28.366,26.397 28.366,25.686L28.366,5.041C28.366,4.33 28.083,3.649 27.581,3.146C27.078,2.643 26.397,2.361 25.686,2.361Z" style="fill:rgb(163,163,163);"/>
        </g>
        <g transform="matrix(0.730664,0,0,1.38884,113.57,45.3417)">
            <path d="M25.686,1.68C26.577,1.68 27.432,2.034 28.062,2.665C28.692,3.295 29.046,4.15 29.046,5.041C29.046,10.302 29.046,20.425 29.046,25.686C29.046,26.577 28.692,27.432 28.062,28.062C27.432,28.692 26.577,29.046 25.686,29.046C20.425,29.046 10.302,29.046 5.041,29.046C4.15,29.046 3.295,28.692 2.665,28.062C2.034,27.432 1.68,26.577 1.68,25.686C1.68,20.425 1.68,10.302 1.68,5.041C1.68,4.15 2.034,3.295 2.665,2.665C3.295,2.034 4.15,1.68 5.041,1.68C10.302,1.68 20.425,1.68 25.686,1.68Z" style="fill:white;"/>
            <path d="M25.686,1.68C26.577,1.68 27.432,2.034 28.062,2.665C28.692,3.295 29.046,4.15 29.046,5.041L29.046,25.686C29.046,26.577 28.692,27.432 28.062,28.062C27.432,28.692 26.577,29.046 25.686,29.046L5.041,29.046C4.15,29.046 3.295,28.692 2.665,28.062C2.034,27.432 1.68,26.577 1.68,25.686L1.68,5.041C1.68,4.15 2.034,3.295 2.665,2.665C3.295,2.034 4.15,1.68 5.041,1.68L25.686,1.68ZM25.686,2.361L5.041,2.361C4.33,2.361 3.649,2.643 3.146,3.146C2.643,3.649 2.361,4.33 2.361,5.041L2.361,25.686C2.361,26.397 2.643,27.078 3.146,27.581C3.649,28.083 4.33,28.366 5.041,28.366L25.686,28.366C26.397,28.366 27.078,28.084 27.581,27.581C28.083,27.078 28.366,26.397 28.366,25.686L28.366,5.041C28.366,4.33 28.083,3.649 27.581,3.146C27.078,2.643 26.397,2.361 25.686,2.361Z" style="fill:rgb(163,163,163);"/>
        </g>
        <g transform="matrix(0.730664,0,0,1.38884,158.472,45.3417)">
            <path d="M25.686,1.68C26.577,1.68 27.432,2.034 28.062,2.665C28.692,3.295 29.046,4.15 29.046,5.041C29.046,10.302 29.046,20.425 29.046,25.686C29.046,26.577 28.692,27.432 28.062,28.062C27.432,28.692 26.577,29.046 25.686,29.046C20.425,29.046 10.302,29.046 5.041,29.046C4.15,29.046 3.295,28.692 2.665,28.062C2.034,27.432 1.68,26.577 1.68,25.686C1.68,20.425 1.68,10.302 1.68,5.041C1.68,4.15 2.034,3.295 2.665,2.665C3.295,2.034 4.15,1.68 5.041,1.68C10.302,1.68 20.425,1.68 25.686,1.68Z" style="fill:white;"/>
            <path d="M25.686,1.68C26.577,1.68 27.432,2.034 28.062,2.665C28.692,3.295 29.046,4.15 29.046,5.041L29.046,25.686C29.046,26.577 28.692,27.432 28.062,28.062C27.432,28.692 26.577,29.046 25.686,29.046L5.041,29.046C4.15,29.046 3.295,28.692 2.665,28.062C2.034,27.432 1.68,26.577 1.68,25.686L1.68,5.041C1.68,4.15 2.034,3.295 2.665,2.665C3.295,2.034 4.15,1.68 5.041,1.68L25.686,1.68ZM25.686,2.361L5.041,2.361C4.33,2.361 3.649,2.643 3.146,3.146C2.643,3.649 2.361,4.33 2.361,5.041L2.361,25.686C2.361,26.397 2.643,27.078 3.146,27.581C3.649,28.083 4.33,28.366 5.041,28.366L25.686,28.366C26.397,28.366 27.078,28.084 27.581,27.581C28.083,27.078 28.366,26.397 28.366,25.686L28.366,5.041C28.366,4.33 28.083,3.649 27.581,3.146C27.078,2.643 26.397,2.361 25.686,2.361Z" style="fill:rgb(163,163,163);"/>
        </g>
        <g transform="matrix(0.730664,0,0,1.38884,113.57,216.04)">
            <path d="M25.686,1.68C26.577,1.68 27.432,2.034 28.062,2.665C28.692,3.295 29.046,4.15 29.046,5.041C29.046,10.302 29.046,20.425 29.046,25.686C29.046,26.577 28.692,27.432 28.062,28.062C27.432,28.692 26.577,29.046 25.686,29.046C20.425,29.046 10.302,29.046 5.041,29.046C4.15,29.046 3.295,28.692 2.665,28.062C2.034,27.432 1.68,26.577 1.68,25.686C1.68,20.425 1.68,10.302 1.68,5.041C1.68,4.15 2.034,3.295 2.665,2.665C3.295,2.034 4.15,1.68 5.041,1.68C10.302,1.68 20.425,1.68 25.686,1.68Z" style="fill:white;"/>
            <path d="M25.686,1.68C26.577,1.68 27.432,2.034 28.062,2.665C28.692,3.295 29.046,4.15 29.046,5.041L29.046,25.686C29.046,26.577 28.692,27.432 28.062,28.062C27.432,28.692 26.577,29.046 25.686,29.046L5.041,29.046C4.15,29.046 3.295,28.692 2.665,28.062C2.034,27.432 1.68,26.577 1.68,25.686L1.68,5.041C1.68,4.15 2.034,3.295 2.665,2.665C3.295,2.034 4.15,1.68 5.041,1.68L25.686,1.68ZM25.686,2.361L5.041,2.361C4.33,2.361 3.649,2.643 3.146,3.146C2.643,3.649 2.361,4.33 2.361,5.041L2.361,25.686C2.361,26.397 2.643,27.078 3.146,27.581C3.649,28.083 4.33,28.366 5.041,28.366L25.686,28.366C26.397,28.366 27.078,28.084 27.581,27.581C28.083,27.078 28.366,26.397 28.366,25.686L28.366,5.041C28.366,4.33 28.083,3.649 27.581,3.146C27.078,2.643 26.397,2.361 25.686,2.361Z" style="fill:rgb(163,163,163);"/>
        </g>
        <g transform="matrix(0.730664,0,0,1.38884,158.472,216.04)">
            <path d="M25.686,1.68C26.577,1.68 27.432,2.034 28.062,2.665C28.692,3.295 29.046,4.15 29.046,5.041C29.046,10.302 29.046,20.425 29.046,25.686C29.046,26.577 28.692,27.432 28.062,28.062C27.432,28.692 26.577,29.046 25.686,29.046C20.425,29.046 10.302,29.046 5.041,29.046C4.15,29.046 3.295,28.692 2.665,28.062C2.034,27.432 1.68,26.577 1.68,25.686C1.68,20.425 1.68,10.302 1.68,5.041C1.68,4.15 2.034,3.295 2.665,2.665C3.295,2.034 4.15,1.68 5.041,1.68C10.302,1.68 20.425,1.68 25.686,1.68Z" style="fill:white;"/>
            <path d="M25.686,1.68C26.577,1.68 27.432,2.034 28.062,2.665C28.692,3.295 29.046,4.15 29.046,5.041L29.046,25.686C29.046,26.577 28.692,27.432 28.062,28.062C27.432,28.692 26.577,29.046 25.686,29.046L5.041,29.046C4.15,29.046 3.295,28.692 2.665,28.062C2.034,27.432 1.68,26.577 1.68,25.686L1.68,5.041C1.68,4.15 2.034,3.295 2.665,2.665C3.295,2.034 4.15,1.68 5.041,1.68L25.686,1.68ZM25.686,2.361L5.041,2.361C4.33,2.361 3.649,2.643 3.146,3.146C2.643,3.649 2.361,4.33 2.361,5.041L2.361,25.686C2.361,26.397 2.643,27.078 3.146,27.581C3.649,28.083 4.33,28.366 5.041,28.366L25.686,28.366C26.397,28.366 27.078,28.084 27.581,27.581C28.083,27.078 28.366,26.397 28.366,25.686L28.366,5.041C28.366,4.33 28.083,3.649 27.581,3.146C27.078,2.643 26.397,2.361 25.686,2.361Z" style="fill:rgb(163,163,163);"/>
        </g>
        <g transform="matrix(0.730664,0,0,1.38884,113.57,130.691)">
            <path d="M25.686,1.68C26.577,1.68 27.432,2.034 28.062,2.665C28.692,3.295 29.046,4.15 29.046,5.041C29.046,10.302 29.046,20.425 29.046,25.686C29.046,26.577 28.692,27.432 28.062,28.062C27.432,28.692 26.577,29.046 25.686,29.046C20.425,29.046 10.302,29.046 5.041,29.046C4.15,29.046 3.295,28.692 2.665,28.062C2.034,27.432 1.68,26.577 1.68,25.686C1.68,20.425 1.68,10.302 1.68,5.041C1.68,4.15 2.034,3.295 2.665,2.665C3.295,2.034 4.15,1.68 5.041,1.68C10.302,1.68 20.425,1.68 25.686,1.68Z" style="fill:white;"/>
            <path d="M25.686,1.68C26.577,1.68 27.432,2.034 28.062,2.665C28.692,3.295 29.046,4.15 29.046,5.041L29.046,25.686C29.046,26.577 28.692,27.432 28.062,28.062C27.432,28.692 26.577,29.046 25.686,29.046L5.041,29.046C4.15,29.046 3.295,28.692 2.665,28.062C2.034,27.432 1.68,26.577 1.68,25.686L1.68,5.041C1.68,4.15 2.034,3.295 2.665,2.665C3.295,2.034 4.15,1.68 5.041,1.68L25.686,1.68ZM25.686,2.361L5.041,2.361C4.33,2.361 3.649,2.643 3.146,3.146C2.643,3.649 2.361,4.33 2.361,5.041L2.361,25.686C2.361,26.397 2.643,27.078 3.146,27.581C3.649,28.083 4.33,28.366 5.041,28.366L25.686,28.366C26.397,28.366 27.078,28.084 27.581,27.581C28.083,27.078 28.366,26.397 28.366,25.686L28.366,5.041C28.366,4.33 28.083,3.649 27.581,3.146C27.078,2.643 26.397,2.361 25.686,2.361Z" style="fill:rgb(163,163,163);"/>
        </g>
        <g transform="matrix(0.730664,0,0,1.38884,158.472,130.691)">
            <path d="M25.686,1.68C26.577,1.68 27.432,2.034 28.062,2.665C28.692,3.295 29.046,4.15 29.046,5.041C29.046,10.302 29.046,20.425 29.046,25.686C29.046,26.577 28.692,27.432 28.062,28.062C27.432,28.692 26.577,29.046 25.686,29.046C20.425,29.046 10.302,29.046 5.041,29.046C4.15,29.046 3.295,28.692 2.665,28.062C2.034,27.432 1.68,26.577 1.68,25.686C1.68,20.425 1.68,10.302 1.68,5.041C1.68,4.15 2.034,3.295 2.665,2.665C3.295,2.034 4.15,1.68 5.041,1.68C10.302,1.68 20.425,1.68 25.686,1.68Z" style="fill:white;"/>
            <path d="M25.686,1.68C26.577,1.68 27.432,2.034 28.062,2.665C28.692,3.295 29.046,4.15 29.046,5.041L29.046,25.686C29.046,26.577 28.692,27.432 28.062,28.062C27.432,28.692 26.577,29.046 25.686,29.046L5.041,29.046C4.15,29.046 3.295,28.692 2.665,28.062C2.034,27.432 1.68,26.577 1.68,25.686L1.68,5.041C1.68,4.15 2.034,3.295 2.665,2.665C3.295,2.034 4.15,1.68 5.041,1.68L25.686,1.68ZM25.686,2.361L5.041,2.361C4.33,2.361 3.649,2.643 3.146,3.146C2.643,3.649 2.361,4.33 2.361,5.041L2.361,25.686C2.361,26.397 2.643,27.078 3.146,27.581C3.649,28.083 4.33,28.366 5.041,28.366L25.686,28.366C26.397,28.366 27.078,28.084 27.581,27.581C28.083,27.078 28.366,26.397 28.366,25.686L28.366,5.041C28.366,4.33 28.083,3.649 27.581,3.146C27.078,2.643 26.397,2.361 25.686,2.361Z" style="fill:rgb(163,163,163);"/>
        </g>
        <g transform="matrix(0.730664,0,0,1.38884,136.021,2.66716)">
            <path d="M25.686,1.68C26.577,1.68 27.432,2.034 28.062,2.665C28.692,3.295 29.046,4.15 29.046,5.041C29.046,10.302 29.046,20.425 29.046,25.686C29.046,26.577 28.692,27.432 28.062,28.062C27.432,28.692 26.577,29.046 25.686,29.046C20.425,29.046 10.302,29.046 5.041,29.046C4.15,29.046 3.295,28.692 2.665,28.062C2.034,27.432 1.68,26.577 1.68,25.686C1.68,20.425 1.68,10.302 1.68,5.041C1.68,4.15 2.034,3.295 2.665,2.665C3.295,2.034 4.15,1.68 5.041,1.68C10.302,1.68 20.425,1.68 25.686,1.68Z" style="fill:white;"/>
            <path d="M25.686,1.68C26.577,1.68 27.432,2.034 28.062,2.665C28.692,3.295 29.046,4.15 29.046,5.041L29.046,25.686C29.046,26.577 28.692,27.432 28.062,28.062C27.432,28.692 26.577,29.046 25.686,29.046L5.041,29.046C4.15,29.046 3.295,28.692 2.665,28.062C2.034,27.432 1.68,26.577 1.68,25.686L1.68,5.041C1.68,4.15 2.034,3.295 2.665,2.665C3.295,2.034 4.15,1.68 5.041,1.68L25.686,1.68ZM25.686,2.361L5.041,2.361C4.33,2.361 3.649,2.643 3.146,3.146C2.643,3.649 2.361,4.33 2.361,5.041L2.361,25.686C2.361,26.397 2.643,27.078 3.146,27.581C3.649,28.083 4.33,28.366 5.041,28.366L25.686,28.366C26.397,28.366 27.078,28.084 27.581,27.581C28.083,27.078 28.366,26.397 28.366,25.686L28.366,5.041C28.366,4.33 28.083,3.649 27.581,3.146C27.078,2.643 26.397,2.361 25.686,2.361Z" style="fill:rgb(163,163,163);"/>
        </g>
        <g transform="matrix(0.730664,0,0,1.38884,180.923,2.66716)">
            <path d="M25.686,1.68C26.577,1.68 27.432,2.034 28.062,2.665C28.692,3.295 29.046,4.15 29.046,5.041C29.046,10.302 29.046,20.425 29.046,25.686C29.046,26.577 28.692,27.432 28.062,28.062C27.432,28.692 26.577,29.046 25.686,29.046C20.425,29.046 10.302,29.046 5.041,29.046C4.15,29.046 3.295,28.692 2.665,28.062C2.034,27.432 1.68,26.577 1.68,25.686C1.68,20.425 1.68,10.302 1.68,5.041C1.68,4.15 2.034,3.295 2.665,2.665C3.295,2.034 4.15,1.68 5.041,1.68C10.302,1.68 20.425,1.68 25.686,1.68Z" style="fill:white;"/>
            <path d="M25.686,1.68C26.577,1.68 27.432,2.034 28.062,2.665C28.692,3.295 29.046,4.15 29.046,5.041L29.046,25.686C29.046,26.577 28.692,27.432 28.062,28.062C27.432,28.692 26.577,29.046 25.686,29.046L5.041,29.046C4.15,29.046 3.295,28.692 2.665,28.062C2.034,27.432 1.68,26.577 1.68,25.686L1.68,5.041C1.68,4.15 2.034,3.295 2.665,2.665C3.295,2.034 4.15,1.68 5.041,1.68L25.686,1.68ZM25.686,2.361L5.041,2.361C4.33,2.361 3.649,2.643 3.146,3.146C2.643,3.649 2.361,4.33 2.361,5.041L2.361,25.686C2.361,26.397 2.643,27.078 3.146,27.581C3.649,28.083 4.33,28.366 5.041,28.366L25.686,28.366C26.397,28.366 27.078,28.084 27.581,27.581C28.083,27.078 28.366,26.397 28.366,25.686L28.366,5.041C28.366,4.33 28.083,3.649 27.581,3.146C27.078,2.643 26.397,2.361 25.686,2.361Z" style="fill:rgb(163,163,163);"/>
        </g>
        <g transform="matrix(0.730664,0,0,1.38884,203.374,2.66716)">
            <path d="M25.686,1.68C26.577,1.68 27.432,2.034 28.062,2.665C28.692,3.295 29.046,4.15 29.046,5.041C29.046,10.302 29.046,20.425 29.046,25.686C29.046,26.577 28.692,27.432 28.062,28.062C27.432,28.692 26.577,29.046 25.686,29.046C20.425,29.046 10.302,29.046 5.041,29.046C4.15,29.046 3.295,28.692 2.665,28.062C2.034,27.432 1.68,26.577 1.68,25.686C1.68,20.425 1.68,10.302 1.68,5.041C1.68,4.15 2.034,3.295 2.665,2.665C3.295,2.034 4.15,1.68 5.041,1.68C10.302,1.68 20.425,1.68 25.686,1.68Z" style="fill:white;"/>
            <path d="M25.686,1.68C26.577,1.68 27.432,2.034 28.062,2.665C28.692,3.295 29.046,4.15 29.046,5.041L29.046,25.686C29.046,26.577 28.692,27.432 28.062,28.062C27.432,28.692 26.577,29.046 25.686,29.046L5.041,29.046C4.15,29.046 3.295,28.692 2.665,28.062C2.034,27.432 1.68,26.577 1.68,25.686L1.68,5.041C1.68,4.15 2.034,3.295 2.665,2.665C3.295,2.034 4.15,1.68 5.041,1.68L25.686,1.68ZM25.686,2.361L5.041,2.361C4.33,2.361 3.649,2.643 3.146,3.146C2.643,3.649 2.361,4.33 2.361,5.041L2.361,25.686C2.361,26.397 2.643,27.078 3.146,27.581C3.649,28.083 4.33,28.366 5.041,28.366L25.686,28.366C26.397,28.366 27.078,28.084 27.581,27.581C28.083,27.078 28.366,26.397 28.366,25.686L28.366,5.041C28.366,4.33 28.083,3.649 27.581,3.146C27.078,2.643 26.397,2.361 25.686,2.361Z" style="fill:rgb(163,163,163);"/>
        </g>
        <g transform="matrix(0.730664,0,0,1.38884,136.021,173.365)">
            <path d="M25.686,1.68C26.577,1.68 27.432,2.034 28.062,2.665C28.692,3.295 29.046,4.15 29.046,5.041C29.046,10.302 29.046,20.425 29.046,25.686C29.046,26.577 28.692,27.432 28.062,28.062C27.432,28.692 26.577,29.046 25.686,29.046C20.425,29.046 10.302,29.046 5.041,29.046C4.15,29.046 3.295,28.692 2.665,28.062C2.034,27.432 1.68,26.577 1.68,25.686C1.68,20.425 1.68,10.302 1.68,5.041C1.68,4.15 2.034,3.295 2.665,2.665C3.295,2.034 4.15,1.68 5.041,1.68C10.302,1.68 20.425,1.68 25.686,1.68Z" style="fill:white;"/>
            <path d="M25.686,1.68C26.577,1.68 27.432,2.034 28.062,2.665C28.692,3.295 29.046,4.15 29.046,5.041L29.046,25.686C29.046,26.577 28.692,27.432 28.062,28.062C27.432,28.692 26.577,29.046 25.686,29.046L5.041,29.046C4.15,29.046 3.295,28.692 2.665,28.062C2.034,27.432 1.68,26.577 1.68,25.686L1.68,5.041C1.68,4.15 2.034,3.295 2.665,2.665C3.295,2.034 4.15,1.68 5.041,1.68L25.686,1.68ZM25.686,2.361L5.041,2.361C4.33,2.361 3.649,2.643 3.146,3.146C2.643,3.649 2.361,4.33 2.361,5.041L2.361,25.686C2.361,26.397 2.643,27.078 3.146,27.581C3.649,28.083 4.33,28.366 5.041,28.366L25.686,28.366C26.397,28.366 27.078,28.084 27.581,27.581C28.083,27.078 28.366,26.397 28.366,25.686L28.366,5.041C28.366,4.33 28.083,3.649 27.581,3.146C27.078,2.643 26.397,2.361 25.686,2.361Z" style="fill:rgb(163,163,163);"/>
        </g>
        <g transform="matrix(0.730664,0,0,1.38884,180.923,173.365)">
            <path d="M25.686,1.68C26.577,1.68 27.432,2.034 28.062,2.665C28.692,3.295 29.046,4.15 29.046,5.041C29.046,10.302 29.046,20.425 29.046,25.686C29.046,26.577 28.692,27.432 28.062,28.062C27.432,28.692 26.577,29.046 25.686,29.046C20.425,29.046 10.302,29.046 5.041,29.046C4.15,29.046 3.295,28.692 2.665,28.062C2.034,27.432 1.68,26.577 1.68,25.686C1.68,20.425 1.68,10.302 1.68,5.041C1.68,4.15 2.034,3.295 2.665,2.665C3.295,2.034 4.15,1.68 5.041,1.68C10.302,1.68 20.425,1.68 25.686,1.68Z" style="fill:white;"/>
            <path d="M25.686,1.68C26.577,1.68 27.432,2.034 28.062,2.665C28.692,3.295 29.046,4.15 29.046,5.041L29.046,25.686C29.046,26.577 28.692,27.432 28.062,28.062C27.432,28.692 26.577,29.046 25.686,29.046L5.041,29.046C4.15,29.046 3.295,28.692 2.665,28.062C2.034,27.432 1.68,26.577 1.68,25.686L1.68,5.041C1.68,4.15 2.034,3.295 2.665,2.665C3.295,2.034 4.15,1.68 5.041,1.68L25.686,1.68ZM25.686,2.361L5.041,2.361C4.33,2.361 3.649,2.643 3.146,3.146C2.643,3.649 2.361,4.33 2.361,5.041L2.361,25.686C2.361,26.397 2.643,27.078 3.146,27.581C3.649,28.083 4.33,28.366 5.041,28.366L25.686,28.366C26.397,28.366 27.078,28.084 27.581,27.581C28.083,27.078 28.366,26.397 28.366,25.686L28.366,5.041C28.366,4.33 28.083,3.649 27.581,3.146C27.078,2.643 26.397,2.361 25.686,2.361Z" style="fill:rgb(163,163,163);"/>
        </g>
        <g transform="matrix(0.730664,0,0,1.38884,203.374,173.365)">
            <path d="M25.686,1.68C26.577,1.68 27.432,2.034 28.062,2.665C28.692,3.295 29.046,4.15 29.046,5.041C29.046,10.302 29.046,20.425 29.046,25.686C29.046,26.577 28.692,27.432 28.062,28.062C27.432,28.692 26.577,29.046 25.686,29.046C20.425,29.046 10.302,29.046 5.041,29.046C4.15,29.046 3.295,28.692 2.665,28.062C2.034,27.432 1.68,26.577 1.68,25.686C1.68,20.425 1.68,10.302 1.68,5.041C1.68,4.15 2.034,3.295 2.665,2.665C3.295,2.034 4.15,1.68 5.041,1.68C10.302,1.68 20.425,1.68 25.686,1.68Z" style="fill:white;"/>
            <path d="M25.686,1.68C26.577,1.68 27.432,2.034 28.062,2.665C28.692,3.295 29.046,4.15 29.046,5.041L29.046,25.686C29.046,26.577 28.692,27.432 28.062,28.062C27.432,28.692 26.577,29.046 25.686,29.046L5.041,29.046C4.15,29.046 3.295,28.692 2.665,28.062C2.034,27.432 1.68,26.577 1.68,25.686L1.68,5.041C1.68,4.15 2.034,3.295 2.665,2.665C3.295,2.034 4.15,1.68 5.041,1.68L25.686,1.68ZM25.686,2.361L5.041,2.361C4.33,2.361 3.649,2.643 3.146,3.146C2.643,3.649 2.361,4.33 2.361,5.041L2.361,25.686C2.361,26.397 2.643,27.078 3.146,27.581C3.649,28.083 4.33,28.366 5.041,28.366L25.686,28.366C26.397,28.366 27.078,28.084 27.581,27.581C28.083,27.078 28.366,26.397 28.366,25.686L28.366,5.041C28.366,4.33 28.083,3.649 27.581,3.146C27.078,2.643 26.397,2.361 25.686,2.361Z" style="fill:rgb(163,163,163);"/>
        </g>
        <g transform="matrix(0.730664,0,0,1.38884,136.021,88.0162)">
            <path d="M25.686,1.68C26.577,1.68 27.432,2.034 28.062,2.665C28.692,3.295 29.046,4.15 29.046,5.041C29.046,10.302 29.046,20.425 29.046,25.686C29.046,26.577 28.692,27.432 28.062,28.062C27.432,28.692 26.577,29.046 25.686,29.046C20.425,29.046 10.302,29.046 5.041,29.046C4.15,29.046 3.295,28.692 2.665,28.062C2.034,27.432 1.68,26.577 1.68,25.686C1.68,20.425 1.68,10.302 1.68,5.041C1.68,4.15 2.034,3.295 2.665,2.665C3.295,2.034 4.15,1.68 5.041,1.68C10.302,1.68 20.425,1.68 25.686,1.68Z" style="fill:white;"/>
            <path d="M25.686,1.68C26.577,1.68 27.432,2.034 28.062,2.665C28.692,3.295 29.046,4.15 29.046,5.041L29.046,25.686C29.046,26.577 28.692,27.432 28.062,28.062C27.432,28.692 26.577,29.046 25.686,29.046L5.041,29.046C4.15,29.046 3.295,28.692 2.665,28.062C2.034,27.432 1.68,26.577 1.68,25.686L1.68,5.041C1.68,4.15 2.034,3.295 2.665,2.665C3.295,2.034 4.15,1.68 5.041,1.68L25.686,1.68ZM25.686,2.361L5.041,2.361C4.33,2.361 3.649,2.643 3.146,3.146C2.643,3.649 2.361,4.33 2.361,5.041L2.361,25.686C2.361,26.397 2.643,27.078 3.146,27.581C3.649,28.083 4.33,28.366 5.041,28.366L25.686,28.366C26.397,28.366 27.078,28.084 27.581,27.581C28.083,27.078 28.366,26.397 28.366,25.686L28.366,5.041C28.366,4.33 28.083,3.649 27.581,3.146C27.078,2.643 26.397,2.361 25.686,2.361Z" style="fill:rgb(163,163,163);"/>
        </g>
        <g transform="matrix(0.730664,0,0,1.38884,180.923,88.0162)">
            <path d="M25.686,1.68C26.577,1.68 27.432,2.034 28.062,2.665C28.692,3.295 29.046,4.15 29.046,5.041C29.046,10.302 29.046,20.425 29.046,25.686C29.046,26.577 28.692,27.432 28.062,28.062C27.432,28.692 26.577,29.046 25.686,29.046C20.425,29.046 10.302,29.046 5.041,29.046C4.15,29.046 3.295,28.692 2.665,28.062C2.034,27.432 1.68,26.577 1.68,25.686C1.68,20.425 1.68,10.302 1.68,5.041C1.68,4.15 2.034,3.295 2.665,2.665C3.295,2.034 4.15,1.68 5.041,1.68C10.302,1.68 20.425,1.68 25.686,1.68Z" style="fill:white;"/>
            <path d="M25.686,1.68C26.577,1.68 27.432,2.034 28.062,2.665C28.692,3.295 29.046,4.15 29.046,5.041L29.046,25.686C29.046,26.577 28.692,27.432 28.062,28.062C27.432,28.692 26.577,29.046 25.686,29.046L5.041,29.046C4.15,29.046 3.295,28.692 2.665,28.062C2.034,27.432 1.68,26.577 1.68,25.686L1.68,5.041C1.68,4.15 2.034,3.295 2.665,2.665C3.295,2.034 4.15,1.68 5.041,1.68L25.686,1.68ZM25.686,2.361L5.041,2.361C4.33,2.361 3.649,2.643 3.146,3.146C2.643,3.649 2.361,4.33 2.361,5.041L2.361,25.686C2.361,26.397 2.643,27.078 3.146,27.581C3.649,28.083 4.33,28.366 5.041,28.366L25.686,28.366C26.397,28.366 27.078,28.084 27.581,27.581C28.083,27.078 28.366,26.397 28.366,25.686L28.366,5.041C28.366,4.33 28.083,3.649 27.581,3.146C27.078,2.643 26.397,2.361 25.686,2.361Z" style="fill:rgb(163,163,163);"/>
        </g>
        <g transform="matrix(0.730664,0,0,1.38884,203.374,88.0162)">
            <path d="M25.686,1.68C26.577,1.68 27.432,2.034 28.062,2.665C28.692,3.295 29.046,4.15 29.046,5.041C29.046,10.302 29.046,20.425 29.046,25.686C29.046,26.577 28.692,27.432 28.062,28.062C27.432,28.692 26.577,29.046 25.686,29.046C20.425,29.046 10.302,29.046 5.041,29.046C4.15,29.046 3.295,28.692 2.665,28.062C2.034,27.432 1.68,26.577 1.68,25.686C1.68,20.425 1.68,10.302 1.68,5.041C1.68,4.15 2.034,3.295 2.665,2.665C3.295,2.034 4.15,1.68 5.041,1.68C10.302,1.68 20.425,1.68 25.686,1.68Z" style="fill:white;"/>
            <path d="M25.686,1.68C26.577,1.68 27.432,2.034 28.062,2.665C28.692,3.295 29.046,4.15 29.046,5.041L29.046,25.686C29.046,26.577 28.692,27.432 28.062,28.062C27.432,28.692 26.577,29.046 25.686,29.046L5.041,29.046C4.15,29.046 3.295,28.692 2.665,28.062C2.034,27.432 1.68,26.577 1.68,25.686L1.68,5.041C1.68,4.15 2.034,3.295 2.665,2.665C3.295,2.034 4.15,1.68 5.041,1.68L25.686,1.68ZM25.686,2.361L5.041,2.361C4.33,2.361 3.649,2.643 3.146,3.146C2.643,3.649 2.361,4.33 2.361,5.041L2.361,25.686C2.361,26.397 2.643,27.078 3.146,27.581C3.649,28.083 4.33,28.366 5.041,28.366L25.686,28.366C26.397,28.366 27.078,28.084 27.581,27.581C28.083,27.078 28.366,26.397 28.366,25.686L28.366,5.041C28.366,4.33 28.083,3.649 27.581,3.146C27.078,2.643 26.397,2.361 25.686,2.361Z" style="fill:rgb(163,163,163);"/>
        </g>
        <g transform="matrix(0.730664,0,0,1.38884,136.021,45.3417)">
            <path d="M25.686,1.68C26.577,1.68 27.432,2.034 28.062,2.665C28.692,3.295 29.046,4.15 29.046,5.041C29.046,10.302 29.046,20.425 29.046,25.686C29.046,26.577 28.692,27.432 28.062,28.062C27.432,28.692 26.577,29.046 25.686,29.046C20.425,29.046 10.302,29.046 5.041,29.046C4.15,29.046 3.295,28.692 2.665,28.062C2.034,27.432 1.68,26.577 1.68,25.686C1.68,20.425 1.68,10.302 1.68,5.041C1.68,4.15 2.034,3.295 2.665,2.665C3.295,2.034 4.15,1.68 5.041,1.68C10.302,1.68 20.425,1.68 25.686,1.68Z" style="fill:white;"/>
            <path d="M25.686,1.68C26.577,1.68 27.432,2.034 28.062,2.665C28.692,3.295 29.046,4.15 29.046,5.041L29.046,25.686C29.046,26.577 28.692,27.432 28.062,28.062C27.432,28.692 26.577,29.046 25.686,29.046L5.041,29.046C4.15,29.046 3.295,28.692 2.665,28.062C2.034,27.432 1.68,26.577 1.68,25.686L1.68,5.041C1.68,4.15 2.034,3.295 2.665,2.665C3.295,2.034 4.15,1.68 5.041,1.68L25.686,1.68ZM25.686,2.361L5.041,2.361C4.33,2.361 3.649,2.643 3.146,3.146C2.643,3.649 2.361,4.33 2.361,5.041L2.361,25.686C2.361,26.397 2.643,27.078 3.146,27.581C3.649,28.083 4.33,28.366 5.041,28.366L25.686,28.366C26.397,28.366 27.078,28.084 27.581,27.581C28.083,27.078 28.366,26.397 28.366,25.686L28.366,5.041C28.366,4.33 28.083,3.649 27.581,3.146C27.078,2.643 26.397,2.361 25.686,2.361Z" style="fill:rgb(163,163,163);"/>
        </g>
        <g transform="matrix(0.730664,0,0,1.38884,180.923,45.3417)">
            <path d="M25.686,1.68C26.577,1.68 27.432,2.034 28.062,2.665C28.692,3.295 29.046,4.15 29.046,5.041C29.046,10.302 29.046,20.425 29.046,25.686C29.046,26.577 28.692,27.432 28.062,28.062C27.432,28.692 26.577,29.046 25.686,29.046C20.425,29.046 10.302,29.046 5.041,29.046C4.15,29.046 3.295,28.692 2.665,28.062C2.034,27.432 1.68,26.577 1.68,25.686C1.68,20.425 1.68,10.302 1.68,5.041C1.68,4.15 2.034,3.295 2.665,2.665C3.295,2.034 4.15,1.68 5.041,1.68C10.302,1.68 20.425,1.68 25.686,1.68Z" style="fill:white;"/>
            <path d="M25.686,1.68C26.577,1.68 27.432,2.034 28.062,2.665C28.692,3.295 29.046,4.15 29.046,5.041L29.046,25.686C29.046,26.577 28.692,27.432 28.062,28.062C27.432,28.692 26.577,29.046 25.686,29.046L5.041,29.046C4.15,29.046 3.295,28.692 2.665,28.062C2.034,27.432 1.68,26.577 1.68,25.686L1.68,5.041C1.68,4.15 2.034,3.295 2.665,2.665C3.295,2.034 4.15,1.68 5.041,1.68L25.686,1.68ZM25.686,2.361L5.041,2.361C4.33,2.361 3.649,2.643 3.146,3.146C2.643,3.649 2.361,4.33 2.361,5.041L2.361,25.686C2.361,26.397 2.643,27.078 3.146,27.581C3.649,28.083 4.33,28.366 5.041,28.366L25.686,28.366C26.397,28.366 27.078,28.084 27.581,27.581C28.083,27.078 28.366,26.397 28.366,25.686L28.366,5.041C28.366,4.33 28.083,3.649 27.581,3.146C27.078,2.643 26.397,2.361 25.686,2.361Z" style="fill:rgb(163,163,163);"/>
        </g>
        <g transform="matrix(0.730664,0,0,1.38884,203.374,45.3417)">
            <path d="M25.686,1.68C26.577,1.68 27.432,2.034 28.062,2.665C28.692,3.295 29.046,4.15 29.046,5.041C29.046,10.302 29.046,20.425 29.046,25.686C29.046,26.577 28.692,27.432 28.062,28.062C27.432,28.692 26.577,29.046 25.686,29.046C20.425,29.046 10.302,29.046 5.041,29.046C4.15,29.046 3.295,28.692 2.665,28.062C2.034,27.432 1.68,26.577 1.68,25.686C1.68,20.425 1.68,10.302 1.68,5.041C1.68,4.15 2.034,3.295 2.665,2.665C3.295,2.034 4.15,1.68 5.041,1.68C10.302,1.68 20.425,1.68 25.686,1.68Z" style="fill:white;"/>
            <path d="M25.686,1.68C26.577,1.68 27.432,2.034 28.062,2.665C28.692,3.295 29.046,4.15 29.046,5.041L29.046,25.686C29.046,26.577 28.692,27.432 28.062,28.062C27.432,28.692 26.577,29.046 25.686,29.046L5.041,29.046C4.15,29.046 3.295,28.692 2.665,28.062C2.034,27.432 1.68,26.577 1.68,25.686L1.68,5.041C1.68,4.15 2.034,3.295 2.665,2.665C3.295,2.034 4.15,1.68 5.041,1.68L25.686,1.68ZM25.686,2.361L5.041,2.361C4.33,2.361 3.649,2.643 3.146,3.146C2.643,3.649 2.361,4.33 2.361,5.041L2.361,25.686C2.361,26.397 2.643,27.078 3.146,27.581C3.649,28.083 4.33,28.366 5.041,28.366L25.686,28.366C26.397,28.366 27.078,28.084 27.581,27.581C28.083,27.078 28.366,26.397 28.366,25.686L28.366,5.041C28.366,4.33 28.083,3.649 27.581,3.146C27.078,2.643 26.397,2.361 25.686,2.361Z" style="fill:rgb(163,163,163);"/>
        </g>
        <g transform="matrix(0.730664,0,0,1.38884,136.021,216.04)">
            <path d="M25.686,1.68C26.577,1.68 27.432,2.034 28.062,2.665C28.692,3.295 29.046,4.15 29.046,5.041C29.046,10.302 29.046,20.425 29.046,25.686C29.046,26.577 28.692,27.432 28.062,28.062C27.432,28.692 26.577,29.046 25.686,29.046C20.425,29.046 10.302,29.046 5.041,29.046C4.15,29.046 3.295,28.692 2.665,28.062C2.034,27.432 1.68,26.577 1.68,25.686C1.68,20.425 1.68,10.302 1.68,5.041C1.68,4.15 2.034,3.295 2.665,2.665C3.295,2.034 4.15,1.68 5.041,1.68C10.302,1.68 20.425,1.68 25.686,1.68Z" style="fill:white;"/>
            <path d="M25.686,1.68C26.577,1.68 27.432,2.034 28.062,2.665C28.692,3.295 29.046,4.15 29.046,5.041L29.046,25.686C29.046,26.577 28.692,27.432 28.062,28.062C27.432,28.692 26.577,29.046 25.686,29.046L5.041,29.046C4.15,29.046 3.295,28.692 2.665,28.062C2.034,27.432 1.68,26.577 1.68,25.686L1.68,5.041C1.68,4.15 2.034,3.295 2.665,2.665C3.295,2.034 4.15,1.68 5.041,1.68L25.686,1.68ZM25.686,2.361L5.041,2.361C4.33,2.361 3.649,2.643 3.146,3.146C2.643,3.649 2.361,4.33 2.361,5.041L2.361,25.686C2.361,26.397 2.643,27.078 3.146,27.581C3.649,28.083 4.33,28.366 5.041,28.366L25.686,28.366C26.397,28.366 27.078,28.084 27.581,27.581C28.083,27.078 28.366,26.397 28.366,25.686L28.366,5.041C28.366,4.33 28.083,3.649 27.581,3.146C27.078,2.643 26.397,2.361 25.686,2.361Z" style="fill:rgb(163,163,163);"/>
        </g>
        <g transform="matrix(0.730664,0,0,1.38884,180.923,216.04)">
            <path d="M25.686,1.68C26.577,1.68 27.432,2.034 28.062,2.665C28.692,3.295 29.046,4.15 29.046,5.041C29.046,10.302 29.046,20.425 29.046,25.686C29.046,26.577 28.692,27.432 28.062,28.062C27.432,28.692 26.577,29.046 25.686,29.046C20.425,29.046 10.302,29.046 5.041,29.046C4.15,29.046 3.295,28.692 2.665,28.062C2.034,27.432 1.68,26.577 1.68,25.686C1.68,20.425 1.68,10.302 1.68,5.041C1.68,4.15 2.034,3.295 2.665,2.665C3.295,2.034 4.15,1.68 5.041,1.68C10.302,1.68 20.425,1.68 25.686,1.68Z" style="fill:white;"/>
            <path d="M25.686,1.68C26.577,1.68 27.432,2.034 28.062,2.665C28.692,3.295 29.046,4.15 29.046,5.041L29.046,25.686C29.046,26.577 28.692,27.432 28.062,28.062C27.432,28.692 26.577,29.046 25.686,29.046L5.041,29.046C4.15,29.046 3.295,28.692 2.665,28.062C2.034,27.432 1.68,26.577 1.68,25.686L1.68,5.041C1.68,4.15 2.034,3.295 2.665,2.665C3.295,2.034 4.15,1.68 5.041,1.68L25.686,1.68ZM25.686,2.361L5.041,2.361C4.33,2.361 3.649,2.643 3.146,3.146C2.643,3.649 2.361,4.33 2.361,5.041L2.361,25.686C2.361,26.397 2.643,27.078 3.146,27.581C3.649,28.083 4.33,28.366 5.041,28.366L25.686,28.366C26.397,28.366 27.078,28.084 27.581,27.581C28.083,27.078 28.366,26.397 28.366,25.686L28.366,5.041C28.366,4.33 28.083,3.649 27.581,3.146C27.078,2.643 26.397,2.361 25.686,2.361Z" style="fill:rgb(163,163,163);"/>
        </g>
        <g transform="matrix(0.730664,0,0,1.38884,203.374,216.04)">
            <path d="M25.686,1.68C26.577,1.68 27.432,2.034 28.062,2.665C28.692,3.295 29.046,4.15 29.046,5.041C29.046,10.302 29.046,20.425 29.046,25.686C29.046,26.577 28.692,27.432 28.062,28.062C27.432,28.692 26.577,29.046 25.686,29.046C20.425,29.046 10.302,29.046 5.041,29.046C4.15,29.046 3.295,28.692 2.665,28.062C2.034,27.432 1.68,26.577 1.68,25.686C1.68,20.425 1.68,10.302 1.68,5.041C1.68,4.15 2.034,3.295 2.665,2.665C3.295,2.034 4.15,1.68 5.041,1.68C10.302,1.68 20.425,1.68 25.686,1.68Z" style="fill:white;"/>
            <path d="M25.686,1.68C26.577,1.68 27.432,2.034 28.062,2.665C28.692,3.295 29.046,4.15 29.046,5.041L29.046,25.686C29.046,26.577 28.692,27.432 28.062,28.062C27.432,28.692 26.577,29.046 25.686,29.046L5.041,29.046C4.15,29.046 3.295,28.692 2.665,28.062C2.034,27.432 1.68,26.577 1.68,25.686L1.68,5.041C1.68,4.15 2.034,3.295 2.665,2.665C3.295,2.034 4.15,1.68 5.041,1.68L25.686,1.68ZM25.686,2.361L5.041,2.361C4.33,2.361 3.649,2.643 3.146,3.146C2.643,3.649 2.361,4.33 2.361,5.041L2.361,25.686C2.361,26.397 2.643,27.078 3.146,27.581C3.649,28.083 4.33,28.366 5.041,28.366L25.686,28.366C26.397,28.366 27.078,28.084 27.581,27.581C28.083,27.078 28.366,26.397 28.366,25.686L28.366,5.041C28.366,4.33 28.083,3.649 27.581,3.146C27.078,2.643 26.397,2.361 25.686,2.361Z" style="fill:rgb(163,163,163);"/>
        </g>
        <g transform="matrix(0.730664,0,0,1.38884,136.021,130.691)">
            <path d="M25.686,1.68C26.577,1.68 27.432,2.034 28.062,2.665C28.692,3.295 29.046,4.15 29.046,5.041C29.046,10.302 29.046,20.425 29.046,25.686C29.046,26.577 28.692,27.432 28.062,28.062C27.432,28.692 26.577,29.046 25.686,29.046C20.425,29.046 10.302,29.046 5.041,29.046C4.15,29.046 3.295,28.692 2.665,28.062C2.034,27.432 1.68,26.577 1.68,25.686C1.68,20.425 1.68,10.302 1.68,5.041C1.68,4.15 2.034,3.295 2.665,2.665C3.295,2.034 4.15,1.68 5.041,1.68C10.302,1.68 20.425,1.68 25.686,1.68Z" style="fill:white;"/>
            <path d="M25.686,1.68C26.577,1.68 27.432,2.034 28.062,2.665C28.692,3.295 29.046,4.15 29.046,5.041L29.046,25.686C29.046,26.577 28.692,27.432 28.062,28.062C27.432,28.692 26.577,29.046 25.686,29.046L5.041,29.046C4.15,29.046 3.295,28.692 2.665,28.062C2.034,27.432 1.68,26.577 1.68,25.686L1.68,5.041C1.68,4.15 2.034,3.295 2.665,2.665C3.295,2.034 4.15,1.68 5.041,1.68L25.686,1.68ZM25.686,2.361L5.041,2.361C4.33,2.361 3.649,2.643 3.146,3.146C2.643,3.649 2.361,4.33 2.361,5.041L2.361,25.686C2.361,26.397 2.643,27.078 3.146,27.581C3.649,28.083 4.33,28.366 5.041,28.366L25.686,28.366C26.397,28.366 27.078,28.084 27.581,27.581C28.083,27.078 28.366,26.397 28.366,25.686L28.366,5.041C28.366,4.33 28.083,3.649 27.581,3.146C27.078,2.643 26.397,2.361 25.686,2.361Z" style="fill:rgb(163,163,163);"/>
        </g>
        <g transform="matrix(0.730664,0,0,1.38884,180.923,130.691)">
            <path d="M25.686,1.68C26.577,1.68 27.432,2.034 28.062,2.665C28.692,3.295 29.046,4.15 29.046,5.041C29.046,10.302 29.046,20.425 29.046,25.686C29.046,26.577 28.692,27.432 28.062,28.062C27.432,28.692 26.577,29.046 25.686,29.046C20.425,29.046 10.302,29.046 5.041,29.046C4.15,29.046 3.295,28.692 2.665,28.062C2.034,27.432 1.68,26.577 1.68,25.686C1.68,20.425 1.68,10.302 1.68,5.041C1.68,4.15 2.034,3.295 2.665,2.665C3.295,2.034 4.15,1.68 5.041,1.68C10.302,1.68 20.425,1.68 25.686,1.68Z" style="fill:white;"/>
            <path d="M25.686,1.68C26.577,1.68 27.432,2.034 28.062,2.665C28.692,3.295 29.046,4.15 29.046,5.041L29.046,25.686C29.046,26.577 28.692,27.432 28.062,28.062C27.432,28.692 26.577,29.046 25.686,29.046L5.041,29.046C4.15,29.046 3.295,28.692 2.665,28.062C2.034,27.432 1.68,26.577 1.68,25.686L1.68,5.041C1.68,4.15 2.034,3.295 2.665,2.665C3.295,2.034 4.15,1.68 5.041,1.68L25.686,1.68ZM25.686,2.361L5.041,2.361C4.33,2.361 3.649,2.643 3.146,3.146C2.643,3.649 2.361,4.33 2.361,5.041L2.361,25.686C2.361,26.397 2.643,27.078 3.146,27.581C3.649,28.083 4.33,28.366 5.041,28.366L25.686,28.366C26.397,28.366 27.078,28.084 27.581,27.581C28.083,27.078 28.366,26.397 28.366,25.686L28.366,5.041C28.366,4.33 28.083,3.649 27.581,3.146C27.078,2.643 26.397,2.361 25.686,2.361Z" style="fill:rgb(163,163,163);"/>
        </g>
        <g transform="matrix(0.730664,0,0,1.38884,203.374,130.691)">
            <path d="M25.686,1.68C26.577,1.68 27.432,2.034 28.062,2.665C28.692,3.295 29.046,4.15 29.046,5.041C29.046,10.302 29.046,20.425 29.046,25.686C29.046,26.577 28.692,27.432 28.062,28.062C27.432,28.692 26.577,29.046 25.686,29.046C20.425,29.046 10.302,29.046 5.041,29.046C4.15,29.046 3.295,28.692 2.665,28.062C2.034,27.432 1.68,26.577 1.68,25.686C1.68,20.425 1.68,10.302 1.68,5.041C1.68,4.15 2.034,3.295 2.665,2.665C3.295,2.034 4.15,1.68 5.041,1.68C10.302,1.68 20.425,1.68 25.686,1.68Z" style="fill:white;"/>
            <path d="M25.686,1.68C26.577,1.68 27.432,2.034 28.062,2.665C28.692,3.295 29.046,4.15 29.046,5.041L29.046,25.686C29.046,26.577 28.692,27.432 28.062,28.062C27.432,28.692 26.577,29.046 25.686,29.046L5.041,29.046C4.15,29.046 3.295,28.692 2.665,28.062C2.034,27.432 1.68,26.577 1.68,25.686L1.68,5.041C1.68,4.15 2.034,3.295 2.665,2.665C3.295,2.034 4.15,1.68 5.041,1.68L25.686,1.68ZM25.686,2.361L5.041,2.361C4.33,2.361 3.649,2.643 3.146,3.146C2.643,3.649 2.361,4.33 2.361,5.041L2.361,25.686C2.361,26.397 2.643,27.078 3.146,27.581C3.649,28.083 4.33,28.366 5.041,28.366L25.686,28.366C26.397,28.366 27.078,28.084 27.581,27.581C28.083,27.078 28.366,26.397 28.366,25.686L28.366,5.041C28.366,4.33 28.083,3.649 27.581,3.146C27.078,2.643 26.397,2.361 25.686,2.361Z" style="fill:rgb(163,163,163);"/>
        </g>
    </g>
</svg>
