<?xml version="1.0" encoding="UTF-8" standalone="no"?>
<!DOCTYPE svg PUBLIC "-//W3C//DTD SVG 1.1//EN" "http://www.w3.org/Graphics/SVG/1.1/DTD/svg11.dtd">
<svg width="100%" height="100%" viewBox="0 0 370 225" version="1.1" xmlns="http://www.w3.org/2000/svg" xmlns:xlink="http://www.w3.org/1999/xlink" xml:space="preserve" xmlns:serif="http://www.serif.com/" style="fill-rule:evenodd;clip-rule:evenodd;stroke-linecap:round;stroke-linejoin:round;stroke-miterlimit:1.5;">
    <g transform="matrix(1,0,0,1,0,-547)">
        <g id="Grid-Islands-Paths" serif:id="Grid Islands Paths" transform="matrix(1.62895,0,0,0.856985,-2.31487e-14,547.082)">
            <rect x="0" y="0" width="227.141" height="261.381" style="fill:none;"/>
            <g transform="matrix(0.730664,0,0,1.38884,1.31549,2.66716)">
                <path d="M25.686,1.68C26.577,1.68 27.432,2.034 28.062,2.665C28.692,3.295 29.046,4.15 29.046,5.041C29.046,10.302 29.046,20.425 29.046,25.686C29.046,26.577 28.692,27.432 28.062,28.062C27.432,28.692 26.577,29.046 25.686,29.046C20.425,29.046 10.302,29.046 5.041,29.046C4.15,29.046 3.295,28.692 2.665,28.062C2.034,27.432 1.68,26.577 1.68,25.686C1.68,20.425 1.68,10.302 1.68,5.041C1.68,4.15 2.034,3.295 2.665,2.665C3.295,2.034 4.15,1.68 5.041,1.68C10.302,1.68 20.425,1.68 25.686,1.68Z" style="fill:white;"/>
                <path d="M25.686,1.68C26.577,1.68 27.432,2.034 28.062,2.665C28.692,3.295 29.046,4.15 29.046,5.041L29.046,25.686C29.046,26.577 28.692,27.432 28.062,28.062C27.432,28.692 26.577,29.046 25.686,29.046L5.041,29.046C4.15,29.046 3.295,28.692 2.665,28.062C2.034,27.432 1.68,26.577 1.68,25.686L1.68,5.041C1.68,4.15 2.034,3.295 2.665,2.665C3.295,2.034 4.15,1.68 5.041,1.68L25.686,1.68ZM25.686,2.361L5.041,2.361C4.33,2.361 3.649,2.643 3.146,3.146C2.643,3.649 2.361,4.33 2.361,5.041L2.361,25.686C2.361,26.397 2.643,27.078 3.146,27.581C3.649,28.083 4.33,28.366 5.041,28.366L25.686,28.366C26.397,28.366 27.078,28.084 27.581,27.581C28.083,27.078 28.366,26.397 28.366,25.686L28.366,5.041C28.366,4.33 28.083,3.649 27.581,3.146C27.078,2.643 26.397,2.361 25.686,2.361Z" style="fill:rgb(163,163,163);"/>
            </g>
            <g transform="matrix(0.730664,0,0,1.38884,1.31549,173.365)">
                <path d="M25.686,1.68C26.577,1.68 27.432,2.034 28.062,2.665C28.692,3.295 29.046,4.15 29.046,5.041C29.046,10.302 29.046,20.425 29.046,25.686C29.046,26.577 28.692,27.432 28.062,28.062C27.432,28.692 26.577,29.046 25.686,29.046C20.425,29.046 10.302,29.046 5.041,29.046C4.15,29.046 3.295,28.692 2.665,28.062C2.034,27.432 1.68,26.577 1.68,25.686C1.68,20.425 1.68,10.302 1.68,5.041C1.68,4.15 2.034,3.295 2.665,2.665C3.295,2.034 4.15,1.68 5.041,1.68C10.302,1.68 20.425,1.68 25.686,1.68Z" style="fill:white;"/>
                <path d="M25.686,1.68C26.577,1.68 27.432,2.034 28.062,2.665C28.692,3.295 29.046,4.15 29.046,5.041L29.046,25.686C29.046,26.577 28.692,27.432 28.062,28.062C27.432,28.692 26.577,29.046 25.686,29.046L5.041,29.046C4.15,29.046 3.295,28.692 2.665,28.062C2.034,27.432 1.68,26.577 1.68,25.686L1.68,5.041C1.68,4.15 2.034,3.295 2.665,2.665C3.295,2.034 4.15,1.68 5.041,1.68L25.686,1.68ZM25.686,2.361L5.041,2.361C4.33,2.361 3.649,2.643 3.146,3.146C2.643,3.649 2.361,4.33 2.361,5.041L2.361,25.686C2.361,26.397 2.643,27.078 3.146,27.581C3.649,28.083 4.33,28.366 5.041,28.366L25.686,28.366C26.397,28.366 27.078,28.084 27.581,27.581C28.083,27.078 28.366,26.397 28.366,25.686L28.366,5.041C28.366,4.33 28.083,3.649 27.581,3.146C27.078,2.643 26.397,2.361 25.686,2.361Z" style="fill:rgb(163,163,163);"/>
            </g>
            <g transform="matrix(0.730664,0,0,1.38884,1.31549,88.0162)">
                <path d="M25.686,1.68C26.577,1.68 27.432,2.034 28.062,2.665C28.692,3.295 29.046,4.15 29.046,5.041C29.046,10.302 29.046,20.425 29.046,25.686C29.046,26.577 28.692,27.432 28.062,28.062C27.432,28.692 26.577,29.046 25.686,29.046C20.425,29.046 10.302,29.046 5.041,29.046C4.15,29.046 3.295,28.692 2.665,28.062C2.034,27.432 1.68,26.577 1.68,25.686C1.68,20.425 1.68,10.302 1.68,5.041C1.68,4.15 2.034,3.295 2.665,2.665C3.295,2.034 4.15,1.68 5.041,1.68C10.302,1.68 20.425,1.68 25.686,1.68Z" style="fill:white;"/>
                <path d="M25.686,1.68C26.577,1.68 27.432,2.034 28.062,2.665C28.692,3.295 29.046,4.15 29.046,5.041L29.046,25.686C29.046,26.577 28.692,27.432 28.062,28.062C27.432,28.692 26.577,29.046 25.686,29.046L5.041,29.046C4.15,29.046 3.295,28.692 2.665,28.062C2.034,27.432 1.68,26.577 1.68,25.686L1.68,5.041C1.68,4.15 2.034,3.295 2.665,2.665C3.295,2.034 4.15,1.68 5.041,1.68L25.686,1.68ZM25.686,2.361L5.041,2.361C4.33,2.361 3.649,2.643 3.146,3.146C2.643,3.649 2.361,4.33 2.361,5.041L2.361,25.686C2.361,26.397 2.643,27.078 3.146,27.581C3.649,28.083 4.33,28.366 5.041,28.366L25.686,28.366C26.397,28.366 27.078,28.084 27.581,27.581C28.083,27.078 28.366,26.397 28.366,25.686L28.366,5.041C28.366,4.33 28.083,3.649 27.581,3.146C27.078,2.643 26.397,2.361 25.686,2.361Z" style="fill:rgb(163,163,163);"/>
            </g>
            <g transform="matrix(0.730664,0,0,1.38884,1.31549,45.3417)">
                <path d="M25.686,1.68C26.577,1.68 27.432,2.034 28.062,2.665C28.692,3.295 29.046,4.15 29.046,5.041C29.046,10.302 29.046,20.425 29.046,25.686C29.046,26.577 28.692,27.432 28.062,28.062C27.432,28.692 26.577,29.046 25.686,29.046C20.425,29.046 10.302,29.046 5.041,29.046C4.15,29.046 3.295,28.692 2.665,28.062C2.034,27.432 1.68,26.577 1.68,25.686C1.68,20.425 1.68,10.302 1.68,5.041C1.68,4.15 2.034,3.295 2.665,2.665C3.295,2.034 4.15,1.68 5.041,1.68C10.302,1.68 20.425,1.68 25.686,1.68Z" style="fill:white;"/>
                <path d="M25.686,1.68C26.577,1.68 27.432,2.034 28.062,2.665C28.692,3.295 29.046,4.15 29.046,5.041L29.046,25.686C29.046,26.577 28.692,27.432 28.062,28.062C27.432,28.692 26.577,29.046 25.686,29.046L5.041,29.046C4.15,29.046 3.295,28.692 2.665,28.062C2.034,27.432 1.68,26.577 1.68,25.686L1.68,5.041C1.68,4.15 2.034,3.295 2.665,2.665C3.295,2.034 4.15,1.68 5.041,1.68L25.686,1.68ZM25.686,2.361L5.041,2.361C4.33,2.361 3.649,2.643 3.146,3.146C2.643,3.649 2.361,4.33 2.361,5.041L2.361,25.686C2.361,26.397 2.643,27.078 3.146,27.581C3.649,28.083 4.33,28.366 5.041,28.366L25.686,28.366C26.397,28.366 27.078,28.084 27.581,27.581C28.083,27.078 28.366,26.397 28.366,25.686L28.366,5.041C28.366,4.33 28.083,3.649 27.581,3.146C27.078,2.643 26.397,2.361 25.686,2.361Z" style="fill:rgb(163,163,163);"/>
            </g>
            <g transform="matrix(0.730664,0,0,1.38884,1.31549,216.04)">
                <path d="M25.686,1.68C26.577,1.68 27.432,2.034 28.062,2.665C28.692,3.295 29.046,4.15 29.046,5.041C29.046,10.302 29.046,20.425 29.046,25.686C29.046,26.577 28.692,27.432 28.062,28.062C27.432,28.692 26.577,29.046 25.686,29.046C20.425,29.046 10.302,29.046 5.041,29.046C4.15,29.046 3.295,28.692 2.665,28.062C2.034,27.432 1.68,26.577 1.68,25.686C1.68,20.425 1.68,10.302 1.68,5.041C1.68,4.15 2.034,3.295 2.665,2.665C3.295,2.034 4.15,1.68 5.041,1.68C10.302,1.68 20.425,1.68 25.686,1.68Z" style="fill:white;"/>
                <path d="M25.686,1.68C26.577,1.68 27.432,2.034 28.062,2.665C28.692,3.295 29.046,4.15 29.046,5.041L29.046,25.686C29.046,26.577 28.692,27.432 28.062,28.062C27.432,28.692 26.577,29.046 25.686,29.046L5.041,29.046C4.15,29.046 3.295,28.692 2.665,28.062C2.034,27.432 1.68,26.577 1.68,25.686L1.68,5.041C1.68,4.15 2.034,3.295 2.665,2.665C3.295,2.034 4.15,1.68 5.041,1.68L25.686,1.68ZM25.686,2.361L5.041,2.361C4.33,2.361 3.649,2.643 3.146,3.146C2.643,3.649 2.361,4.33 2.361,5.041L2.361,25.686C2.361,26.397 2.643,27.078 3.146,27.581C3.649,28.083 4.33,28.366 5.041,28.366L25.686,28.366C26.397,28.366 27.078,28.084 27.581,27.581C28.083,27.078 28.366,26.397 28.366,25.686L28.366,5.041C28.366,4.33 28.083,3.649 27.581,3.146C27.078,2.643 26.397,2.361 25.686,2.361Z" style="fill:rgb(163,163,163);"/>
            </g>
            <g transform="matrix(0.730664,0,0,1.38884,1.31549,130.691)">
                <path d="M25.686,1.68C26.577,1.68 27.432,2.034 28.062,2.665C28.692,3.295 29.046,4.15 29.046,5.041C29.046,10.302 29.046,20.425 29.046,25.686C29.046,26.577 28.692,27.432 28.062,28.062C27.432,28.692 26.577,29.046 25.686,29.046C20.425,29.046 10.302,29.046 5.041,29.046C4.15,29.046 3.295,28.692 2.665,28.062C2.034,27.432 1.68,26.577 1.68,25.686C1.68,20.425 1.68,10.302 1.68,5.041C1.68,4.15 2.034,3.295 2.665,2.665C3.295,2.034 4.15,1.68 5.041,1.68C10.302,1.68 20.425,1.68 25.686,1.68Z" style="fill:white;"/>
                <path d="M25.686,1.68C26.577,1.68 27.432,2.034 28.062,2.665C28.692,3.295 29.046,4.15 29.046,5.041L29.046,25.686C29.046,26.577 28.692,27.432 28.062,28.062C27.432,28.692 26.577,29.046 25.686,29.046L5.041,29.046C4.15,29.046 3.295,28.692 2.665,28.062C2.034,27.432 1.68,26.577 1.68,25.686L1.68,5.041C1.68,4.15 2.034,3.295 2.665,2.665C3.295,2.034 4.15,1.68 5.041,1.68L25.686,1.68ZM25.686,2.361L5.041,2.361C4.33,2.361 3.649,2.643 3.146,3.146C2.643,3.649 2.361,4.33 2.361,5.041L2.361,25.686C2.361,26.397 2.643,27.078 3.146,27.581C3.649,28.083 4.33,28.366 5.041,28.366L25.686,28.366C26.397,28.366 27.078,28.084 27.581,27.581C28.083,27.078 28.366,26.397 28.366,25.686L28.366,5.041C28.366,4.33 28.083,3.649 27.581,3.146C27.078,2.643 26.397,2.361 25.686,2.361Z" style="fill:rgb(163,163,163);"/>
            </g>
            <g transform="matrix(0.730664,0,0,1.38884,46.2174,2.66716)">
                <path d="M25.686,1.68C26.577,1.68 27.432,2.034 28.062,2.665C28.692,3.295 29.046,4.15 29.046,5.041C29.046,10.302 29.046,20.425 29.046,25.686C29.046,26.577 28.692,27.432 28.062,28.062C27.432,28.692 26.577,29.046 25.686,29.046C20.425,29.046 10.302,29.046 5.041,29.046C4.15,29.046 3.295,28.692 2.665,28.062C2.034,27.432 1.68,26.577 1.68,25.686C1.68,20.425 1.68,10.302 1.68,5.041C1.68,4.15 2.034,3.295 2.665,2.665C3.295,2.034 4.15,1.68 5.041,1.68C10.302,1.68 20.425,1.68 25.686,1.68Z" style="fill:white;"/>
                <path d="M25.686,1.68C26.577,1.68 27.432,2.034 28.062,2.665C28.692,3.295 29.046,4.15 29.046,5.041L29.046,25.686C29.046,26.577 28.692,27.432 28.062,28.062C27.432,28.692 26.577,29.046 25.686,29.046L5.041,29.046C4.15,29.046 3.295,28.692 2.665,28.062C2.034,27.432 1.68,26.577 1.68,25.686L1.68,5.041C1.68,4.15 2.034,3.295 2.665,2.665C3.295,2.034 4.15,1.68 5.041,1.68L25.686,1.68ZM25.686,2.361L5.041,2.361C4.33,2.361 3.649,2.643 3.146,3.146C2.643,3.649 2.361,4.33 2.361,5.041L2.361,25.686C2.361,26.397 2.643,27.078 3.146,27.581C3.649,28.083 4.33,28.366 5.041,28.366L25.686,28.366C26.397,28.366 27.078,28.084 27.581,27.581C28.083,27.078 28.366,26.397 28.366,25.686L28.366,5.041C28.366,4.33 28.083,3.649 27.581,3.146C27.078,2.643 26.397,2.361 25.686,2.361Z" style="fill:rgb(163,163,163);"/>
            </g>
            <g transform="matrix(0.730664,0,0,1.38884,46.2174,173.365)">
                <path d="M25.686,1.68C26.577,1.68 27.432,2.034 28.062,2.665C28.692,3.295 29.046,4.15 29.046,5.041C29.046,10.302 29.046,20.425 29.046,25.686C29.046,26.577 28.692,27.432 28.062,28.062C27.432,28.692 26.577,29.046 25.686,29.046C20.425,29.046 10.302,29.046 5.041,29.046C4.15,29.046 3.295,28.692 2.665,28.062C2.034,27.432 1.68,26.577 1.68,25.686C1.68,20.425 1.68,10.302 1.68,5.041C1.68,4.15 2.034,3.295 2.665,2.665C3.295,2.034 4.15,1.68 5.041,1.68C10.302,1.68 20.425,1.68 25.686,1.68Z" style="fill:white;"/>
                <path d="M25.686,1.68C26.577,1.68 27.432,2.034 28.062,2.665C28.692,3.295 29.046,4.15 29.046,5.041L29.046,25.686C29.046,26.577 28.692,27.432 28.062,28.062C27.432,28.692 26.577,29.046 25.686,29.046L5.041,29.046C4.15,29.046 3.295,28.692 2.665,28.062C2.034,27.432 1.68,26.577 1.68,25.686L1.68,5.041C1.68,4.15 2.034,3.295 2.665,2.665C3.295,2.034 4.15,1.68 5.041,1.68L25.686,1.68ZM25.686,2.361L5.041,2.361C4.33,2.361 3.649,2.643 3.146,3.146C2.643,3.649 2.361,4.33 2.361,5.041L2.361,25.686C2.361,26.397 2.643,27.078 3.146,27.581C3.649,28.083 4.33,28.366 5.041,28.366L25.686,28.366C26.397,28.366 27.078,28.084 27.581,27.581C28.083,27.078 28.366,26.397 28.366,25.686L28.366,5.041C28.366,4.33 28.083,3.649 27.581,3.146C27.078,2.643 26.397,2.361 25.686,2.361Z" style="fill:rgb(163,163,163);"/>
            </g>
            <g transform="matrix(0.730664,0,0,1.38884,46.2174,88.0162)">
                <path d="M25.686,1.68C26.577,1.68 27.432,2.034 28.062,2.665C28.692,3.295 29.046,4.15 29.046,5.041C29.046,10.302 29.046,20.425 29.046,25.686C29.046,26.577 28.692,27.432 28.062,28.062C27.432,28.692 26.577,29.046 25.686,29.046C20.425,29.046 10.302,29.046 5.041,29.046C4.15,29.046 3.295,28.692 2.665,28.062C2.034,27.432 1.68,26.577 1.68,25.686C1.68,20.425 1.68,10.302 1.68,5.041C1.68,4.15 2.034,3.295 2.665,2.665C3.295,2.034 4.15,1.68 5.041,1.68C10.302,1.68 20.425,1.68 25.686,1.68Z" style="fill:white;"/>
                <path d="M25.686,1.68C26.577,1.68 27.432,2.034 28.062,2.665C28.692,3.295 29.046,4.15 29.046,5.041L29.046,25.686C29.046,26.577 28.692,27.432 28.062,28.062C27.432,28.692 26.577,29.046 25.686,29.046L5.041,29.046C4.15,29.046 3.295,28.692 2.665,28.062C2.034,27.432 1.68,26.577 1.68,25.686L1.68,5.041C1.68,4.15 2.034,3.295 2.665,2.665C3.295,2.034 4.15,1.68 5.041,1.68L25.686,1.68ZM25.686,2.361L5.041,2.361C4.33,2.361 3.649,2.643 3.146,3.146C2.643,3.649 2.361,4.33 2.361,5.041L2.361,25.686C2.361,26.397 2.643,27.078 3.146,27.581C3.649,28.083 4.33,28.366 5.041,28.366L25.686,28.366C26.397,28.366 27.078,28.084 27.581,27.581C28.083,27.078 28.366,26.397 28.366,25.686L28.366,5.041C28.366,4.33 28.083,3.649 27.581,3.146C27.078,2.643 26.397,2.361 25.686,2.361Z" style="fill:rgb(163,163,163);"/>
            </g>
            <g transform="matrix(0.730664,0,0,1.38884,46.2174,45.3417)">
                <path d="M25.686,1.68C26.577,1.68 27.432,2.034 28.062,2.665C28.692,3.295 29.046,4.15 29.046,5.041C29.046,10.302 29.046,20.425 29.046,25.686C29.046,26.577 28.692,27.432 28.062,28.062C27.432,28.692 26.577,29.046 25.686,29.046C20.425,29.046 10.302,29.046 5.041,29.046C4.15,29.046 3.295,28.692 2.665,28.062C2.034,27.432 1.68,26.577 1.68,25.686C1.68,20.425 1.68,10.302 1.68,5.041C1.68,4.15 2.034,3.295 2.665,2.665C3.295,2.034 4.15,1.68 5.041,1.68C10.302,1.68 20.425,1.68 25.686,1.68Z" style="fill:white;"/>
                <path d="M25.686,1.68C26.577,1.68 27.432,2.034 28.062,2.665C28.692,3.295 29.046,4.15 29.046,5.041L29.046,25.686C29.046,26.577 28.692,27.432 28.062,28.062C27.432,28.692 26.577,29.046 25.686,29.046L5.041,29.046C4.15,29.046 3.295,28.692 2.665,28.062C2.034,27.432 1.68,26.577 1.68,25.686L1.68,5.041C1.68,4.15 2.034,3.295 2.665,2.665C3.295,2.034 4.15,1.68 5.041,1.68L25.686,1.68ZM25.686,2.361L5.041,2.361C4.33,2.361 3.649,2.643 3.146,3.146C2.643,3.649 2.361,4.33 2.361,5.041L2.361,25.686C2.361,26.397 2.643,27.078 3.146,27.581C3.649,28.083 4.33,28.366 5.041,28.366L25.686,28.366C26.397,28.366 27.078,28.084 27.581,27.581C28.083,27.078 28.366,26.397 28.366,25.686L28.366,5.041C28.366,4.33 28.083,3.649 27.581,3.146C27.078,2.643 26.397,2.361 25.686,2.361Z" style="fill:rgb(163,163,163);"/>
            </g>
            <g transform="matrix(0.730664,0,0,1.38884,46.2174,216.04)">
                <path d="M25.686,1.68C26.577,1.68 27.432,2.034 28.062,2.665C28.692,3.295 29.046,4.15 29.046,5.041C29.046,10.302 29.046,20.425 29.046,25.686C29.046,26.577 28.692,27.432 28.062,28.062C27.432,28.692 26.577,29.046 25.686,29.046C20.425,29.046 10.302,29.046 5.041,29.046C4.15,29.046 3.295,28.692 2.665,28.062C2.034,27.432 1.68,26.577 1.68,25.686C1.68,20.425 1.68,10.302 1.68,5.041C1.68,4.15 2.034,3.295 2.665,2.665C3.295,2.034 4.15,1.68 5.041,1.68C10.302,1.68 20.425,1.68 25.686,1.68Z" style="fill:white;"/>
                <path d="M25.686,1.68C26.577,1.68 27.432,2.034 28.062,2.665C28.692,3.295 29.046,4.15 29.046,5.041L29.046,25.686C29.046,26.577 28.692,27.432 28.062,28.062C27.432,28.692 26.577,29.046 25.686,29.046L5.041,29.046C4.15,29.046 3.295,28.692 2.665,28.062C2.034,27.432 1.68,26.577 1.68,25.686L1.68,5.041C1.68,4.15 2.034,3.295 2.665,2.665C3.295,2.034 4.15,1.68 5.041,1.68L25.686,1.68ZM25.686,2.361L5.041,2.361C4.33,2.361 3.649,2.643 3.146,3.146C2.643,3.649 2.361,4.33 2.361,5.041L2.361,25.686C2.361,26.397 2.643,27.078 3.146,27.581C3.649,28.083 4.33,28.366 5.041,28.366L25.686,28.366C26.397,28.366 27.078,28.084 27.581,27.581C28.083,27.078 28.366,26.397 28.366,25.686L28.366,5.041C28.366,4.33 28.083,3.649 27.581,3.146C27.078,2.643 26.397,2.361 25.686,2.361Z" style="fill:rgb(163,163,163);"/>
            </g>
            <g transform="matrix(0.613893,0,0,1.16688,-22.3632,-2742.7)">
                <circle cx="56.857" cy="2371.02" r="4.009" style="fill:rgb(163,163,163);"/>
                <path d="M56.857,2366.01C59.621,2366.01 61.866,2368.26 61.866,2371.02C61.866,2373.79 59.621,2376.03 56.857,2376.03C54.093,2376.03 51.849,2373.79 51.849,2371.02C51.849,2368.26 54.093,2366.01 56.857,2366.01ZM56.857,2367.01C54.645,2367.01 52.849,2368.81 52.849,2371.02C52.849,2373.23 54.645,2375.03 56.857,2375.03C59.069,2375.03 60.866,2373.23 60.866,2371.02C60.866,2368.81 59.069,2367.01 56.857,2367.01Z" style="fill:rgb(112,112,112);"/>
            </g>
            <g transform="matrix(0.730664,0,0,1.38884,46.2174,130.691)">
                <path d="M25.686,1.68C26.577,1.68 27.432,2.034 28.062,2.665C28.692,3.295 29.046,4.15 29.046,5.041C29.046,10.302 29.046,20.425 29.046,25.686C29.046,26.577 28.692,27.432 28.062,28.062C27.432,28.692 26.577,29.046 25.686,29.046C20.425,29.046 10.302,29.046 5.041,29.046C4.15,29.046 3.295,28.692 2.665,28.062C2.034,27.432 1.68,26.577 1.68,25.686C1.68,20.425 1.68,10.302 1.68,5.041C1.68,4.15 2.034,3.295 2.665,2.665C3.295,2.034 4.15,1.68 5.041,1.68C10.302,1.68 20.425,1.68 25.686,1.68Z" style="fill:white;"/>
                <path d="M25.686,1.68C26.577,1.68 27.432,2.034 28.062,2.665C28.692,3.295 29.046,4.15 29.046,5.041L29.046,25.686C29.046,26.577 28.692,27.432 28.062,28.062C27.432,28.692 26.577,29.046 25.686,29.046L5.041,29.046C4.15,29.046 3.295,28.692 2.665,28.062C2.034,27.432 1.68,26.577 1.68,25.686L1.68,5.041C1.68,4.15 2.034,3.295 2.665,2.665C3.295,2.034 4.15,1.68 5.041,1.68L25.686,1.68ZM25.686,2.361L5.041,2.361C4.33,2.361 3.649,2.643 3.146,3.146C2.643,3.649 2.361,4.33 2.361,5.041L2.361,25.686C2.361,26.397 2.643,27.078 3.146,27.581C3.649,28.083 4.33,28.366 5.041,28.366L25.686,28.366C26.397,28.366 27.078,28.084 27.581,27.581C28.083,27.078 28.366,26.397 28.366,25.686L28.366,5.041C28.366,4.33 28.083,3.649 27.581,3.146C27.078,2.643 26.397,2.361 25.686,2.361Z" style="fill:rgb(163,163,163);"/>
            </g>
            <g transform="matrix(0.730664,0,0,1.38884,91.1193,2.66716)">
                <path d="M25.686,1.68C26.577,1.68 27.432,2.034 28.062,2.665C28.692,3.295 29.046,4.15 29.046,5.041C29.046,10.302 29.046,20.425 29.046,25.686C29.046,26.577 28.692,27.432 28.062,28.062C27.432,28.692 26.577,29.046 25.686,29.046C20.425,29.046 10.302,29.046 5.041,29.046C4.15,29.046 3.295,28.692 2.665,28.062C2.034,27.432 1.68,26.577 1.68,25.686C1.68,20.425 1.68,10.302 1.68,5.041C1.68,4.15 2.034,3.295 2.665,2.665C3.295,2.034 4.15,1.68 5.041,1.68C10.302,1.68 20.425,1.68 25.686,1.68Z" style="fill:white;"/>
                <path d="M25.686,1.68C26.577,1.68 27.432,2.034 28.062,2.665C28.692,3.295 29.046,4.15 29.046,5.041L29.046,25.686C29.046,26.577 28.692,27.432 28.062,28.062C27.432,28.692 26.577,29.046 25.686,29.046L5.041,29.046C4.15,29.046 3.295,28.692 2.665,28.062C2.034,27.432 1.68,26.577 1.68,25.686L1.68,5.041C1.68,4.15 2.034,3.295 2.665,2.665C3.295,2.034 4.15,1.68 5.041,1.68L25.686,1.68ZM25.686,2.361L5.041,2.361C4.33,2.361 3.649,2.643 3.146,3.146C2.643,3.649 2.361,4.33 2.361,5.041L2.361,25.686C2.361,26.397 2.643,27.078 3.146,27.581C3.649,28.083 4.33,28.366 5.041,28.366L25.686,28.366C26.397,28.366 27.078,28.084 27.581,27.581C28.083,27.078 28.366,26.397 28.366,25.686L28.366,5.041C28.366,4.33 28.083,3.649 27.581,3.146C27.078,2.643 26.397,2.361 25.686,2.361Z" style="fill:rgb(163,163,163);"/>
            </g>
            <g transform="matrix(0.730664,0,0,1.38884,91.1193,173.365)">
                <path d="M25.686,1.68C26.577,1.68 27.432,2.034 28.062,2.665C28.692,3.295 29.046,4.15 29.046,5.041C29.046,10.302 29.046,20.425 29.046,25.686C29.046,26.577 28.692,27.432 28.062,28.062C27.432,28.692 26.577,29.046 25.686,29.046C20.425,29.046 10.302,29.046 5.041,29.046C4.15,29.046 3.295,28.692 2.665,28.062C2.034,27.432 1.68,26.577 1.68,25.686C1.68,20.425 1.68,10.302 1.68,5.041C1.68,4.15 2.034,3.295 2.665,2.665C3.295,2.034 4.15,1.68 5.041,1.68C10.302,1.68 20.425,1.68 25.686,1.68Z" style="fill:white;"/>
                <path d="M25.686,1.68C26.577,1.68 27.432,2.034 28.062,2.665C28.692,3.295 29.046,4.15 29.046,5.041L29.046,25.686C29.046,26.577 28.692,27.432 28.062,28.062C27.432,28.692 26.577,29.046 25.686,29.046L5.041,29.046C4.15,29.046 3.295,28.692 2.665,28.062C2.034,27.432 1.68,26.577 1.68,25.686L1.68,5.041C1.68,4.15 2.034,3.295 2.665,2.665C3.295,2.034 4.15,1.68 5.041,1.68L25.686,1.68ZM25.686,2.361L5.041,2.361C4.33,2.361 3.649,2.643 3.146,3.146C2.643,3.649 2.361,4.33 2.361,5.041L2.361,25.686C2.361,26.397 2.643,27.078 3.146,27.581C3.649,28.083 4.33,28.366 5.041,28.366L25.686,28.366C26.397,28.366 27.078,28.084 27.581,27.581C28.083,27.078 28.366,26.397 28.366,25.686L28.366,5.041C28.366,4.33 28.083,3.649 27.581,3.146C27.078,2.643 26.397,2.361 25.686,2.361Z" style="fill:rgb(163,163,163);"/>
            </g>
            <g transform="matrix(0.730664,0,0,1.38884,91.1193,88.0162)">
                <path d="M25.686,1.68C26.577,1.68 27.432,2.034 28.062,2.665C28.692,3.295 29.046,4.15 29.046,5.041C29.046,10.302 29.046,20.425 29.046,25.686C29.046,26.577 28.692,27.432 28.062,28.062C27.432,28.692 26.577,29.046 25.686,29.046C20.425,29.046 10.302,29.046 5.041,29.046C4.15,29.046 3.295,28.692 2.665,28.062C2.034,27.432 1.68,26.577 1.68,25.686C1.68,20.425 1.68,10.302 1.68,5.041C1.68,4.15 2.034,3.295 2.665,2.665C3.295,2.034 4.15,1.68 5.041,1.68C10.302,1.68 20.425,1.68 25.686,1.68Z" style="fill:white;"/>
                <path d="M25.686,1.68C26.577,1.68 27.432,2.034 28.062,2.665C28.692,3.295 29.046,4.15 29.046,5.041L29.046,25.686C29.046,26.577 28.692,27.432 28.062,28.062C27.432,28.692 26.577,29.046 25.686,29.046L5.041,29.046C4.15,29.046 3.295,28.692 2.665,28.062C2.034,27.432 1.68,26.577 1.68,25.686L1.68,5.041C1.68,4.15 2.034,3.295 2.665,2.665C3.295,2.034 4.15,1.68 5.041,1.68L25.686,1.68ZM25.686,2.361L5.041,2.361C4.33,2.361 3.649,2.643 3.146,3.146C2.643,3.649 2.361,4.33 2.361,5.041L2.361,25.686C2.361,26.397 2.643,27.078 3.146,27.581C3.649,28.083 4.33,28.366 5.041,28.366L25.686,28.366C26.397,28.366 27.078,28.084 27.581,27.581C28.083,27.078 28.366,26.397 28.366,25.686L28.366,5.041C28.366,4.33 28.083,3.649 27.581,3.146C27.078,2.643 26.397,2.361 25.686,2.361Z" style="fill:rgb(163,163,163);"/>
            </g>
            <g transform="matrix(0.730664,0,0,1.38884,91.1193,45.3417)">
                <path d="M25.686,1.68C26.577,1.68 27.432,2.034 28.062,2.665C28.692,3.295 29.046,4.15 29.046,5.041C29.046,10.302 29.046,20.425 29.046,25.686C29.046,26.577 28.692,27.432 28.062,28.062C27.432,28.692 26.577,29.046 25.686,29.046C20.425,29.046 10.302,29.046 5.041,29.046C4.15,29.046 3.295,28.692 2.665,28.062C2.034,27.432 1.68,26.577 1.68,25.686C1.68,20.425 1.68,10.302 1.68,5.041C1.68,4.15 2.034,3.295 2.665,2.665C3.295,2.034 4.15,1.68 5.041,1.68C10.302,1.68 20.425,1.68 25.686,1.68Z" style="fill:white;"/>
                <path d="M25.686,1.68C26.577,1.68 27.432,2.034 28.062,2.665C28.692,3.295 29.046,4.15 29.046,5.041L29.046,25.686C29.046,26.577 28.692,27.432 28.062,28.062C27.432,28.692 26.577,29.046 25.686,29.046L5.041,29.046C4.15,29.046 3.295,28.692 2.665,28.062C2.034,27.432 1.68,26.577 1.68,25.686L1.68,5.041C1.68,4.15 2.034,3.295 2.665,2.665C3.295,2.034 4.15,1.68 5.041,1.68L25.686,1.68ZM25.686,2.361L5.041,2.361C4.33,2.361 3.649,2.643 3.146,3.146C2.643,3.649 2.361,4.33 2.361,5.041L2.361,25.686C2.361,26.397 2.643,27.078 3.146,27.581C3.649,28.083 4.33,28.366 5.041,28.366L25.686,28.366C26.397,28.366 27.078,28.084 27.581,27.581C28.083,27.078 28.366,26.397 28.366,25.686L28.366,5.041C28.366,4.33 28.083,3.649 27.581,3.146C27.078,2.643 26.397,2.361 25.686,2.361Z" style="fill:rgb(163,163,163);"/>
            </g>
            <g transform="matrix(0.730664,0,0,1.38884,91.1193,216.04)">
                <path d="M25.686,1.68C26.577,1.68 27.432,2.034 28.062,2.665C28.692,3.295 29.046,4.15 29.046,5.041C29.046,10.302 29.046,20.425 29.046,25.686C29.046,26.577 28.692,27.432 28.062,28.062C27.432,28.692 26.577,29.046 25.686,29.046C20.425,29.046 10.302,29.046 5.041,29.046C4.15,29.046 3.295,28.692 2.665,28.062C2.034,27.432 1.68,26.577 1.68,25.686C1.68,20.425 1.68,10.302 1.68,5.041C1.68,4.15 2.034,3.295 2.665,2.665C3.295,2.034 4.15,1.68 5.041,1.68C10.302,1.68 20.425,1.68 25.686,1.68Z" style="fill:white;"/>
                <path d="M25.686,1.68C26.577,1.68 27.432,2.034 28.062,2.665C28.692,3.295 29.046,4.15 29.046,5.041L29.046,25.686C29.046,26.577 28.692,27.432 28.062,28.062C27.432,28.692 26.577,29.046 25.686,29.046L5.041,29.046C4.15,29.046 3.295,28.692 2.665,28.062C2.034,27.432 1.68,26.577 1.68,25.686L1.68,5.041C1.68,4.15 2.034,3.295 2.665,2.665C3.295,2.034 4.15,1.68 5.041,1.68L25.686,1.68ZM25.686,2.361L5.041,2.361C4.33,2.361 3.649,2.643 3.146,3.146C2.643,3.649 2.361,4.33 2.361,5.041L2.361,25.686C2.361,26.397 2.643,27.078 3.146,27.581C3.649,28.083 4.33,28.366 5.041,28.366L25.686,28.366C26.397,28.366 27.078,28.084 27.581,27.581C28.083,27.078 28.366,26.397 28.366,25.686L28.366,5.041C28.366,4.33 28.083,3.649 27.581,3.146C27.078,2.643 26.397,2.361 25.686,2.361Z" style="fill:rgb(163,163,163);"/>
            </g>
            <g transform="matrix(0.730664,0,0,1.38884,91.1193,130.691)">
                <path d="M25.686,1.68C26.577,1.68 27.432,2.034 28.062,2.665C28.692,3.295 29.046,4.15 29.046,5.041C29.046,10.302 29.046,20.425 29.046,25.686C29.046,26.577 28.692,27.432 28.062,28.062C27.432,28.692 26.577,29.046 25.686,29.046C20.425,29.046 10.302,29.046 5.041,29.046C4.15,29.046 3.295,28.692 2.665,28.062C2.034,27.432 1.68,26.577 1.68,25.686C1.68,20.425 1.68,10.302 1.68,5.041C1.68,4.15 2.034,3.295 2.665,2.665C3.295,2.034 4.15,1.68 5.041,1.68C10.302,1.68 20.425,1.68 25.686,1.68Z" style="fill:white;"/>
                <path d="M25.686,1.68C26.577,1.68 27.432,2.034 28.062,2.665C28.692,3.295 29.046,4.15 29.046,5.041L29.046,25.686C29.046,26.577 28.692,27.432 28.062,28.062C27.432,28.692 26.577,29.046 25.686,29.046L5.041,29.046C4.15,29.046 3.295,28.692 2.665,28.062C2.034,27.432 1.68,26.577 1.68,25.686L1.68,5.041C1.68,4.15 2.034,3.295 2.665,2.665C3.295,2.034 4.15,1.68 5.041,1.68L25.686,1.68ZM25.686,2.361L5.041,2.361C4.33,2.361 3.649,2.643 3.146,3.146C2.643,3.649 2.361,4.33 2.361,5.041L2.361,25.686C2.361,26.397 2.643,27.078 3.146,27.581C3.649,28.083 4.33,28.366 5.041,28.366L25.686,28.366C26.397,28.366 27.078,28.084 27.581,27.581C28.083,27.078 28.366,26.397 28.366,25.686L28.366,5.041C28.366,4.33 28.083,3.649 27.581,3.146C27.078,2.643 26.397,2.361 25.686,2.361Z" style="fill:rgb(163,163,163);"/>
            </g>
            <g transform="matrix(0.730664,0,0,1.38884,23.7664,2.66716)">
                <path d="M25.686,1.68C26.577,1.68 27.432,2.034 28.062,2.665C28.692,3.295 29.046,4.15 29.046,5.041C29.046,10.302 29.046,20.425 29.046,25.686C29.046,26.577 28.692,27.432 28.062,28.062C27.432,28.692 26.577,29.046 25.686,29.046C20.425,29.046 10.302,29.046 5.041,29.046C4.15,29.046 3.295,28.692 2.665,28.062C2.034,27.432 1.68,26.577 1.68,25.686C1.68,20.425 1.68,10.302 1.68,5.041C1.68,4.15 2.034,3.295 2.665,2.665C3.295,2.034 4.15,1.68 5.041,1.68C10.302,1.68 20.425,1.68 25.686,1.68Z" style="fill:white;"/>
                <path d="M25.686,1.68C26.577,1.68 27.432,2.034 28.062,2.665C28.692,3.295 29.046,4.15 29.046,5.041L29.046,25.686C29.046,26.577 28.692,27.432 28.062,28.062C27.432,28.692 26.577,29.046 25.686,29.046L5.041,29.046C4.15,29.046 3.295,28.692 2.665,28.062C2.034,27.432 1.68,26.577 1.68,25.686L1.68,5.041C1.68,4.15 2.034,3.295 2.665,2.665C3.295,2.034 4.15,1.68 5.041,1.68L25.686,1.68ZM25.686,2.361L5.041,2.361C4.33,2.361 3.649,2.643 3.146,3.146C2.643,3.649 2.361,4.33 2.361,5.041L2.361,25.686C2.361,26.397 2.643,27.078 3.146,27.581C3.649,28.083 4.33,28.366 5.041,28.366L25.686,28.366C26.397,28.366 27.078,28.084 27.581,27.581C28.083,27.078 28.366,26.397 28.366,25.686L28.366,5.041C28.366,4.33 28.083,3.649 27.581,3.146C27.078,2.643 26.397,2.361 25.686,2.361Z" style="fill:rgb(163,163,163);"/>
            </g>
            <g transform="matrix(0.730664,0,0,1.38884,23.7664,173.365)">
                <path d="M25.686,1.68C26.577,1.68 27.432,2.034 28.062,2.665C28.692,3.295 29.046,4.15 29.046,5.041C29.046,10.302 29.046,20.425 29.046,25.686C29.046,26.577 28.692,27.432 28.062,28.062C27.432,28.692 26.577,29.046 25.686,29.046C20.425,29.046 10.302,29.046 5.041,29.046C4.15,29.046 3.295,28.692 2.665,28.062C2.034,27.432 1.68,26.577 1.68,25.686C1.68,20.425 1.68,10.302 1.68,5.041C1.68,4.15 2.034,3.295 2.665,2.665C3.295,2.034 4.15,1.68 5.041,1.68C10.302,1.68 20.425,1.68 25.686,1.68Z" style="fill:white;"/>
                <path d="M25.686,1.68C26.577,1.68 27.432,2.034 28.062,2.665C28.692,3.295 29.046,4.15 29.046,5.041L29.046,25.686C29.046,26.577 28.692,27.432 28.062,28.062C27.432,28.692 26.577,29.046 25.686,29.046L5.041,29.046C4.15,29.046 3.295,28.692 2.665,28.062C2.034,27.432 1.68,26.577 1.68,25.686L1.68,5.041C1.68,4.15 2.034,3.295 2.665,2.665C3.295,2.034 4.15,1.68 5.041,1.68L25.686,1.68ZM25.686,2.361L5.041,2.361C4.33,2.361 3.649,2.643 3.146,3.146C2.643,3.649 2.361,4.33 2.361,5.041L2.361,25.686C2.361,26.397 2.643,27.078 3.146,27.581C3.649,28.083 4.33,28.366 5.041,28.366L25.686,28.366C26.397,28.366 27.078,28.084 27.581,27.581C28.083,27.078 28.366,26.397 28.366,25.686L28.366,5.041C28.366,4.33 28.083,3.649 27.581,3.146C27.078,2.643 26.397,2.361 25.686,2.361Z" style="fill:rgb(163,163,163);"/>
            </g>
            <g transform="matrix(0.730664,0,0,1.38884,23.7664,88.0162)">
                <path d="M25.686,1.68C26.577,1.68 27.432,2.034 28.062,2.665C28.692,3.295 29.046,4.15 29.046,5.041C29.046,10.302 29.046,20.425 29.046,25.686C29.046,26.577 28.692,27.432 28.062,28.062C27.432,28.692 26.577,29.046 25.686,29.046C20.425,29.046 10.302,29.046 5.041,29.046C4.15,29.046 3.295,28.692 2.665,28.062C2.034,27.432 1.68,26.577 1.68,25.686C1.68,20.425 1.68,10.302 1.68,5.041C1.68,4.15 2.034,3.295 2.665,2.665C3.295,2.034 4.15,1.68 5.041,1.68C10.302,1.68 20.425,1.68 25.686,1.68Z" style="fill:white;"/>
                <path d="M25.686,1.68C26.577,1.68 27.432,2.034 28.062,2.665C28.692,3.295 29.046,4.15 29.046,5.041L29.046,25.686C29.046,26.577 28.692,27.432 28.062,28.062C27.432,28.692 26.577,29.046 25.686,29.046L5.041,29.046C4.15,29.046 3.295,28.692 2.665,28.062C2.034,27.432 1.68,26.577 1.68,25.686L1.68,5.041C1.68,4.15 2.034,3.295 2.665,2.665C3.295,2.034 4.15,1.68 5.041,1.68L25.686,1.68ZM25.686,2.361L5.041,2.361C4.33,2.361 3.649,2.643 3.146,3.146C2.643,3.649 2.361,4.33 2.361,5.041L2.361,25.686C2.361,26.397 2.643,27.078 3.146,27.581C3.649,28.083 4.33,28.366 5.041,28.366L25.686,28.366C26.397,28.366 27.078,28.084 27.581,27.581C28.083,27.078 28.366,26.397 28.366,25.686L28.366,5.041C28.366,4.33 28.083,3.649 27.581,3.146C27.078,2.643 26.397,2.361 25.686,2.361Z" style="fill:rgb(163,163,163);"/>
            </g>
            <g transform="matrix(0.730664,0,0,1.38884,23.7664,45.3417)">
                <path d="M25.686,1.68C26.577,1.68 27.432,2.034 28.062,2.665C28.692,3.295 29.046,4.15 29.046,5.041C29.046,10.302 29.046,20.425 29.046,25.686C29.046,26.577 28.692,27.432 28.062,28.062C27.432,28.692 26.577,29.046 25.686,29.046C20.425,29.046 10.302,29.046 5.041,29.046C4.15,29.046 3.295,28.692 2.665,28.062C2.034,27.432 1.68,26.577 1.68,25.686C1.68,20.425 1.68,10.302 1.68,5.041C1.68,4.15 2.034,3.295 2.665,2.665C3.295,2.034 4.15,1.68 5.041,1.68C10.302,1.68 20.425,1.68 25.686,1.68Z" style="fill:white;"/>
                <path d="M25.686,1.68C26.577,1.68 27.432,2.034 28.062,2.665C28.692,3.295 29.046,4.15 29.046,5.041L29.046,25.686C29.046,26.577 28.692,27.432 28.062,28.062C27.432,28.692 26.577,29.046 25.686,29.046L5.041,29.046C4.15,29.046 3.295,28.692 2.665,28.062C2.034,27.432 1.68,26.577 1.68,25.686L1.68,5.041C1.68,4.15 2.034,3.295 2.665,2.665C3.295,2.034 4.15,1.68 5.041,1.68L25.686,1.68ZM25.686,2.361L5.041,2.361C4.33,2.361 3.649,2.643 3.146,3.146C2.643,3.649 2.361,4.33 2.361,5.041L2.361,25.686C2.361,26.397 2.643,27.078 3.146,27.581C3.649,28.083 4.33,28.366 5.041,28.366L25.686,28.366C26.397,28.366 27.078,28.084 27.581,27.581C28.083,27.078 28.366,26.397 28.366,25.686L28.366,5.041C28.366,4.33 28.083,3.649 27.581,3.146C27.078,2.643 26.397,2.361 25.686,2.361Z" style="fill:rgb(163,163,163);"/>
            </g>
            <g transform="matrix(0.730664,0,0,1.38884,23.7664,216.04)">
                <path d="M25.686,1.68C26.577,1.68 27.432,2.034 28.062,2.665C28.692,3.295 29.046,4.15 29.046,5.041C29.046,10.302 29.046,20.425 29.046,25.686C29.046,26.577 28.692,27.432 28.062,28.062C27.432,28.692 26.577,29.046 25.686,29.046C20.425,29.046 10.302,29.046 5.041,29.046C4.15,29.046 3.295,28.692 2.665,28.062C2.034,27.432 1.68,26.577 1.68,25.686C1.68,20.425 1.68,10.302 1.68,5.041C1.68,4.15 2.034,3.295 2.665,2.665C3.295,2.034 4.15,1.68 5.041,1.68C10.302,1.68 20.425,1.68 25.686,1.68Z" style="fill:white;"/>
                <path d="M25.686,1.68C26.577,1.68 27.432,2.034 28.062,2.665C28.692,3.295 29.046,4.15 29.046,5.041L29.046,25.686C29.046,26.577 28.692,27.432 28.062,28.062C27.432,28.692 26.577,29.046 25.686,29.046L5.041,29.046C4.15,29.046 3.295,28.692 2.665,28.062C2.034,27.432 1.68,26.577 1.68,25.686L1.68,5.041C1.68,4.15 2.034,3.295 2.665,2.665C3.295,2.034 4.15,1.68 5.041,1.68L25.686,1.68ZM25.686,2.361L5.041,2.361C4.33,2.361 3.649,2.643 3.146,3.146C2.643,3.649 2.361,4.33 2.361,5.041L2.361,25.686C2.361,26.397 2.643,27.078 3.146,27.581C3.649,28.083 4.33,28.366 5.041,28.366L25.686,28.366C26.397,28.366 27.078,28.084 27.581,27.581C28.083,27.078 28.366,26.397 28.366,25.686L28.366,5.041C28.366,4.33 28.083,3.649 27.581,3.146C27.078,2.643 26.397,2.361 25.686,2.361Z" style="fill:rgb(163,163,163);"/>
            </g>
            <g transform="matrix(0.730664,0,0,1.38884,23.7664,130.691)">
                <path d="M25.686,1.68C26.577,1.68 27.432,2.034 28.062,2.665C28.692,3.295 29.046,4.15 29.046,5.041C29.046,10.302 29.046,20.425 29.046,25.686C29.046,26.577 28.692,27.432 28.062,28.062C27.432,28.692 26.577,29.046 25.686,29.046C20.425,29.046 10.302,29.046 5.041,29.046C4.15,29.046 3.295,28.692 2.665,28.062C2.034,27.432 1.68,26.577 1.68,25.686C1.68,20.425 1.68,10.302 1.68,5.041C1.68,4.15 2.034,3.295 2.665,2.665C3.295,2.034 4.15,1.68 5.041,1.68C10.302,1.68 20.425,1.68 25.686,1.68Z" style="fill:white;"/>
                <path d="M25.686,1.68C26.577,1.68 27.432,2.034 28.062,2.665C28.692,3.295 29.046,4.15 29.046,5.041L29.046,25.686C29.046,26.577 28.692,27.432 28.062,28.062C27.432,28.692 26.577,29.046 25.686,29.046L5.041,29.046C4.15,29.046 3.295,28.692 2.665,28.062C2.034,27.432 1.68,26.577 1.68,25.686L1.68,5.041C1.68,4.15 2.034,3.295 2.665,2.665C3.295,2.034 4.15,1.68 5.041,1.68L25.686,1.68ZM25.686,2.361L5.041,2.361C4.33,2.361 3.649,2.643 3.146,3.146C2.643,3.649 2.361,4.33 2.361,5.041L2.361,25.686C2.361,26.397 2.643,27.078 3.146,27.581C3.649,28.083 4.33,28.366 5.041,28.366L25.686,28.366C26.397,28.366 27.078,28.084 27.581,27.581C28.083,27.078 28.366,26.397 28.366,25.686L28.366,5.041C28.366,4.33 28.083,3.649 27.581,3.146C27.078,2.643 26.397,2.361 25.686,2.361Z" style="fill:rgb(163,163,163);"/>
            </g>
            <g transform="matrix(0.730664,0,0,1.38884,68.6684,2.66716)">
                <path d="M25.686,1.68C26.577,1.68 27.432,2.034 28.062,2.665C28.692,3.295 29.046,4.15 29.046,5.041C29.046,10.302 29.046,20.425 29.046,25.686C29.046,26.577 28.692,27.432 28.062,28.062C27.432,28.692 26.577,29.046 25.686,29.046C20.425,29.046 10.302,29.046 5.041,29.046C4.15,29.046 3.295,28.692 2.665,28.062C2.034,27.432 1.68,26.577 1.68,25.686C1.68,20.425 1.68,10.302 1.68,5.041C1.68,4.15 2.034,3.295 2.665,2.665C3.295,2.034 4.15,1.68 5.041,1.68C10.302,1.68 20.425,1.68 25.686,1.68Z" style="fill:white;"/>
                <path d="M25.686,1.68C26.577,1.68 27.432,2.034 28.062,2.665C28.692,3.295 29.046,4.15 29.046,5.041L29.046,25.686C29.046,26.577 28.692,27.432 28.062,28.062C27.432,28.692 26.577,29.046 25.686,29.046L5.041,29.046C4.15,29.046 3.295,28.692 2.665,28.062C2.034,27.432 1.68,26.577 1.68,25.686L1.68,5.041C1.68,4.15 2.034,3.295 2.665,2.665C3.295,2.034 4.15,1.68 5.041,1.68L25.686,1.68ZM25.686,2.361L5.041,2.361C4.33,2.361 3.649,2.643 3.146,3.146C2.643,3.649 2.361,4.33 2.361,5.041L2.361,25.686C2.361,26.397 2.643,27.078 3.146,27.581C3.649,28.083 4.33,28.366 5.041,28.366L25.686,28.366C26.397,28.366 27.078,28.084 27.581,27.581C28.083,27.078 28.366,26.397 28.366,25.686L28.366,5.041C28.366,4.33 28.083,3.649 27.581,3.146C27.078,2.643 26.397,2.361 25.686,2.361Z" style="fill:rgb(163,163,163);"/>
            </g>
            <g transform="matrix(0.730664,0,0,1.38884,68.6684,173.365)">
                <path d="M25.686,1.68C26.577,1.68 27.432,2.034 28.062,2.665C28.692,3.295 29.046,4.15 29.046,5.041C29.046,10.302 29.046,20.425 29.046,25.686C29.046,26.577 28.692,27.432 28.062,28.062C27.432,28.692 26.577,29.046 25.686,29.046C20.425,29.046 10.302,29.046 5.041,29.046C4.15,29.046 3.295,28.692 2.665,28.062C2.034,27.432 1.68,26.577 1.68,25.686C1.68,20.425 1.68,10.302 1.68,5.041C1.68,4.15 2.034,3.295 2.665,2.665C3.295,2.034 4.15,1.68 5.041,1.68C10.302,1.68 20.425,1.68 25.686,1.68Z" style="fill:white;"/>
                <path d="M25.686,1.68C26.577,1.68 27.432,2.034 28.062,2.665C28.692,3.295 29.046,4.15 29.046,5.041L29.046,25.686C29.046,26.577 28.692,27.432 28.062,28.062C27.432,28.692 26.577,29.046 25.686,29.046L5.041,29.046C4.15,29.046 3.295,28.692 2.665,28.062C2.034,27.432 1.68,26.577 1.68,25.686L1.68,5.041C1.68,4.15 2.034,3.295 2.665,2.665C3.295,2.034 4.15,1.68 5.041,1.68L25.686,1.68ZM25.686,2.361L5.041,2.361C4.33,2.361 3.649,2.643 3.146,3.146C2.643,3.649 2.361,4.33 2.361,5.041L2.361,25.686C2.361,26.397 2.643,27.078 3.146,27.581C3.649,28.083 4.33,28.366 5.041,28.366L25.686,28.366C26.397,28.366 27.078,28.084 27.581,27.581C28.083,27.078 28.366,26.397 28.366,25.686L28.366,5.041C28.366,4.33 28.083,3.649 27.581,3.146C27.078,2.643 26.397,2.361 25.686,2.361Z" style="fill:rgb(163,163,163);"/>
            </g>
            <g transform="matrix(0.730664,0,0,1.38884,68.6684,88.0162)">
                <path d="M25.686,1.68C26.577,1.68 27.432,2.034 28.062,2.665C28.692,3.295 29.046,4.15 29.046,5.041C29.046,10.302 29.046,20.425 29.046,25.686C29.046,26.577 28.692,27.432 28.062,28.062C27.432,28.692 26.577,29.046 25.686,29.046C20.425,29.046 10.302,29.046 5.041,29.046C4.15,29.046 3.295,28.692 2.665,28.062C2.034,27.432 1.68,26.577 1.68,25.686C1.68,20.425 1.68,10.302 1.68,5.041C1.68,4.15 2.034,3.295 2.665,2.665C3.295,2.034 4.15,1.68 5.041,1.68C10.302,1.68 20.425,1.68 25.686,1.68Z" style="fill:white;"/>
                <path d="M25.686,1.68C26.577,1.68 27.432,2.034 28.062,2.665C28.692,3.295 29.046,4.15 29.046,5.041L29.046,25.686C29.046,26.577 28.692,27.432 28.062,28.062C27.432,28.692 26.577,29.046 25.686,29.046L5.041,29.046C4.15,29.046 3.295,28.692 2.665,28.062C2.034,27.432 1.68,26.577 1.68,25.686L1.68,5.041C1.68,4.15 2.034,3.295 2.665,2.665C3.295,2.034 4.15,1.68 5.041,1.68L25.686,1.68ZM25.686,2.361L5.041,2.361C4.33,2.361 3.649,2.643 3.146,3.146C2.643,3.649 2.361,4.33 2.361,5.041L2.361,25.686C2.361,26.397 2.643,27.078 3.146,27.581C3.649,28.083 4.33,28.366 5.041,28.366L25.686,28.366C26.397,28.366 27.078,28.084 27.581,27.581C28.083,27.078 28.366,26.397 28.366,25.686L28.366,5.041C28.366,4.33 28.083,3.649 27.581,3.146C27.078,2.643 26.397,2.361 25.686,2.361Z" style="fill:rgb(163,163,163);"/>
            </g>
            <g transform="matrix(0.730664,0,0,1.38884,68.6684,45.3417)">
                <path d="M25.686,1.68C26.577,1.68 27.432,2.034 28.062,2.665C28.692,3.295 29.046,4.15 29.046,5.041C29.046,10.302 29.046,20.425 29.046,25.686C29.046,26.577 28.692,27.432 28.062,28.062C27.432,28.692 26.577,29.046 25.686,29.046C20.425,29.046 10.302,29.046 5.041,29.046C4.15,29.046 3.295,28.692 2.665,28.062C2.034,27.432 1.68,26.577 1.68,25.686C1.68,20.425 1.68,10.302 1.68,5.041C1.68,4.15 2.034,3.295 2.665,2.665C3.295,2.034 4.15,1.68 5.041,1.68C10.302,1.68 20.425,1.68 25.686,1.68Z" style="fill:white;"/>
                <path d="M25.686,1.68C26.577,1.68 27.432,2.034 28.062,2.665C28.692,3.295 29.046,4.15 29.046,5.041L29.046,25.686C29.046,26.577 28.692,27.432 28.062,28.062C27.432,28.692 26.577,29.046 25.686,29.046L5.041,29.046C4.15,29.046 3.295,28.692 2.665,28.062C2.034,27.432 1.68,26.577 1.68,25.686L1.68,5.041C1.68,4.15 2.034,3.295 2.665,2.665C3.295,2.034 4.15,1.68 5.041,1.68L25.686,1.68ZM25.686,2.361L5.041,2.361C4.33,2.361 3.649,2.643 3.146,3.146C2.643,3.649 2.361,4.33 2.361,5.041L2.361,25.686C2.361,26.397 2.643,27.078 3.146,27.581C3.649,28.083 4.33,28.366 5.041,28.366L25.686,28.366C26.397,28.366 27.078,28.084 27.581,27.581C28.083,27.078 28.366,26.397 28.366,25.686L28.366,5.041C28.366,4.33 28.083,3.649 27.581,3.146C27.078,2.643 26.397,2.361 25.686,2.361Z" style="fill:rgb(163,163,163);"/>
            </g>
            <g transform="matrix(0.730664,0,0,1.38884,68.6684,216.04)">
                <path d="M25.686,1.68C26.577,1.68 27.432,2.034 28.062,2.665C28.692,3.295 29.046,4.15 29.046,5.041C29.046,10.302 29.046,20.425 29.046,25.686C29.046,26.577 28.692,27.432 28.062,28.062C27.432,28.692 26.577,29.046 25.686,29.046C20.425,29.046 10.302,29.046 5.041,29.046C4.15,29.046 3.295,28.692 2.665,28.062C2.034,27.432 1.68,26.577 1.68,25.686C1.68,20.425 1.68,10.302 1.68,5.041C1.68,4.15 2.034,3.295 2.665,2.665C3.295,2.034 4.15,1.68 5.041,1.68C10.302,1.68 20.425,1.68 25.686,1.68Z" style="fill:white;"/>
                <path d="M25.686,1.68C26.577,1.68 27.432,2.034 28.062,2.665C28.692,3.295 29.046,4.15 29.046,5.041L29.046,25.686C29.046,26.577 28.692,27.432 28.062,28.062C27.432,28.692 26.577,29.046 25.686,29.046L5.041,29.046C4.15,29.046 3.295,28.692 2.665,28.062C2.034,27.432 1.68,26.577 1.68,25.686L1.68,5.041C1.68,4.15 2.034,3.295 2.665,2.665C3.295,2.034 4.15,1.68 5.041,1.68L25.686,1.68ZM25.686,2.361L5.041,2.361C4.33,2.361 3.649,2.643 3.146,3.146C2.643,3.649 2.361,4.33 2.361,5.041L2.361,25.686C2.361,26.397 2.643,27.078 3.146,27.581C3.649,28.083 4.33,28.366 5.041,28.366L25.686,28.366C26.397,28.366 27.078,28.084 27.581,27.581C28.083,27.078 28.366,26.397 28.366,25.686L28.366,5.041C28.366,4.33 28.083,3.649 27.581,3.146C27.078,2.643 26.397,2.361 25.686,2.361Z" style="fill:rgb(163,163,163);"/>
            </g>
            <g transform="matrix(0.730664,0,0,1.38884,68.6684,130.691)">
                <path d="M25.686,1.68C26.577,1.68 27.432,2.034 28.062,2.665C28.692,3.295 29.046,4.15 29.046,5.041C29.046,10.302 29.046,20.425 29.046,25.686C29.046,26.577 28.692,27.432 28.062,28.062C27.432,28.692 26.577,29.046 25.686,29.046C20.425,29.046 10.302,29.046 5.041,29.046C4.15,29.046 3.295,28.692 2.665,28.062C2.034,27.432 1.68,26.577 1.68,25.686C1.68,20.425 1.68,10.302 1.68,5.041C1.68,4.15 2.034,3.295 2.665,2.665C3.295,2.034 4.15,1.68 5.041,1.68C10.302,1.68 20.425,1.68 25.686,1.68Z" style="fill:white;"/>
                <path d="M25.686,1.68C26.577,1.68 27.432,2.034 28.062,2.665C28.692,3.295 29.046,4.15 29.046,5.041L29.046,25.686C29.046,26.577 28.692,27.432 28.062,28.062C27.432,28.692 26.577,29.046 25.686,29.046L5.041,29.046C4.15,29.046 3.295,28.692 2.665,28.062C2.034,27.432 1.68,26.577 1.68,25.686L1.68,5.041C1.68,4.15 2.034,3.295 2.665,2.665C3.295,2.034 4.15,1.68 5.041,1.68L25.686,1.68ZM25.686,2.361L5.041,2.361C4.33,2.361 3.649,2.643 3.146,3.146C2.643,3.649 2.361,4.33 2.361,5.041L2.361,25.686C2.361,26.397 2.643,27.078 3.146,27.581C3.649,28.083 4.33,28.366 5.041,28.366L25.686,28.366C26.397,28.366 27.078,28.084 27.581,27.581C28.083,27.078 28.366,26.397 28.366,25.686L28.366,5.041C28.366,4.33 28.083,3.649 27.581,3.146C27.078,2.643 26.397,2.361 25.686,2.361Z" style="fill:rgb(163,163,163);"/>
            </g>
            <g transform="matrix(0.730664,0,0,1.38884,113.57,2.66716)">
                <path d="M25.686,1.68C26.577,1.68 27.432,2.034 28.062,2.665C28.692,3.295 29.046,4.15 29.046,5.041C29.046,10.302 29.046,20.425 29.046,25.686C29.046,26.577 28.692,27.432 28.062,28.062C27.432,28.692 26.577,29.046 25.686,29.046C20.425,29.046 10.302,29.046 5.041,29.046C4.15,29.046 3.295,28.692 2.665,28.062C2.034,27.432 1.68,26.577 1.68,25.686C1.68,20.425 1.68,10.302 1.68,5.041C1.68,4.15 2.034,3.295 2.665,2.665C3.295,2.034 4.15,1.68 5.041,1.68C10.302,1.68 20.425,1.68 25.686,1.68Z" style="fill:white;"/>
                <path d="M25.686,1.68C26.577,1.68 27.432,2.034 28.062,2.665C28.692,3.295 29.046,4.15 29.046,5.041L29.046,25.686C29.046,26.577 28.692,27.432 28.062,28.062C27.432,28.692 26.577,29.046 25.686,29.046L5.041,29.046C4.15,29.046 3.295,28.692 2.665,28.062C2.034,27.432 1.68,26.577 1.68,25.686L1.68,5.041C1.68,4.15 2.034,3.295 2.665,2.665C3.295,2.034 4.15,1.68 5.041,1.68L25.686,1.68ZM25.686,2.361L5.041,2.361C4.33,2.361 3.649,2.643 3.146,3.146C2.643,3.649 2.361,4.33 2.361,5.041L2.361,25.686C2.361,26.397 2.643,27.078 3.146,27.581C3.649,28.083 4.33,28.366 5.041,28.366L25.686,28.366C26.397,28.366 27.078,28.084 27.581,27.581C28.083,27.078 28.366,26.397 28.366,25.686L28.366,5.041C28.366,4.33 28.083,3.649 27.581,3.146C27.078,2.643 26.397,2.361 25.686,2.361Z" style="fill:rgb(163,163,163);"/>
            </g>
            <g transform="matrix(0.730664,0,0,1.38884,158.472,2.66716)">
                <path d="M25.686,1.68C26.577,1.68 27.432,2.034 28.062,2.665C28.692,3.295 29.046,4.15 29.046,5.041C29.046,10.302 29.046,20.425 29.046,25.686C29.046,26.577 28.692,27.432 28.062,28.062C27.432,28.692 26.577,29.046 25.686,29.046C20.425,29.046 10.302,29.046 5.041,29.046C4.15,29.046 3.295,28.692 2.665,28.062C2.034,27.432 1.68,26.577 1.68,25.686C1.68,20.425 1.68,10.302 1.68,5.041C1.68,4.15 2.034,3.295 2.665,2.665C3.295,2.034 4.15,1.68 5.041,1.68C10.302,1.68 20.425,1.68 25.686,1.68Z" style="fill:white;"/>
                <path d="M25.686,1.68C26.577,1.68 27.432,2.034 28.062,2.665C28.692,3.295 29.046,4.15 29.046,5.041L29.046,25.686C29.046,26.577 28.692,27.432 28.062,28.062C27.432,28.692 26.577,29.046 25.686,29.046L5.041,29.046C4.15,29.046 3.295,28.692 2.665,28.062C2.034,27.432 1.68,26.577 1.68,25.686L1.68,5.041C1.68,4.15 2.034,3.295 2.665,2.665C3.295,2.034 4.15,1.68 5.041,1.68L25.686,1.68ZM25.686,2.361L5.041,2.361C4.33,2.361 3.649,2.643 3.146,3.146C2.643,3.649 2.361,4.33 2.361,5.041L2.361,25.686C2.361,26.397 2.643,27.078 3.146,27.581C3.649,28.083 4.33,28.366 5.041,28.366L25.686,28.366C26.397,28.366 27.078,28.084 27.581,27.581C28.083,27.078 28.366,26.397 28.366,25.686L28.366,5.041C28.366,4.33 28.083,3.649 27.581,3.146C27.078,2.643 26.397,2.361 25.686,2.361Z" style="fill:rgb(163,163,163);"/>
            </g>
            <g transform="matrix(0.730664,0,0,1.38884,113.57,173.365)">
                <path d="M25.686,1.68C26.577,1.68 27.432,2.034 28.062,2.665C28.692,3.295 29.046,4.15 29.046,5.041C29.046,10.302 29.046,20.425 29.046,25.686C29.046,26.577 28.692,27.432 28.062,28.062C27.432,28.692 26.577,29.046 25.686,29.046C20.425,29.046 10.302,29.046 5.041,29.046C4.15,29.046 3.295,28.692 2.665,28.062C2.034,27.432 1.68,26.577 1.68,25.686C1.68,20.425 1.68,10.302 1.68,5.041C1.68,4.15 2.034,3.295 2.665,2.665C3.295,2.034 4.15,1.68 5.041,1.68C10.302,1.68 20.425,1.68 25.686,1.68Z" style="fill:white;"/>
                <path d="M25.686,1.68C26.577,1.68 27.432,2.034 28.062,2.665C28.692,3.295 29.046,4.15 29.046,5.041L29.046,25.686C29.046,26.577 28.692,27.432 28.062,28.062C27.432,28.692 26.577,29.046 25.686,29.046L5.041,29.046C4.15,29.046 3.295,28.692 2.665,28.062C2.034,27.432 1.68,26.577 1.68,25.686L1.68,5.041C1.68,4.15 2.034,3.295 2.665,2.665C3.295,2.034 4.15,1.68 5.041,1.68L25.686,1.68ZM25.686,2.361L5.041,2.361C4.33,2.361 3.649,2.643 3.146,3.146C2.643,3.649 2.361,4.33 2.361,5.041L2.361,25.686C2.361,26.397 2.643,27.078 3.146,27.581C3.649,28.083 4.33,28.366 5.041,28.366L25.686,28.366C26.397,28.366 27.078,28.084 27.581,27.581C28.083,27.078 28.366,26.397 28.366,25.686L28.366,5.041C28.366,4.33 28.083,3.649 27.581,3.146C27.078,2.643 26.397,2.361 25.686,2.361Z" style="fill:rgb(163,163,163);"/>
            </g>
            <g transform="matrix(0.730664,0,0,1.38884,158.472,173.365)">
                <path d="M25.686,1.68C26.577,1.68 27.432,2.034 28.062,2.665C28.692,3.295 29.046,4.15 29.046,5.041C29.046,10.302 29.046,20.425 29.046,25.686C29.046,26.577 28.692,27.432 28.062,28.062C27.432,28.692 26.577,29.046 25.686,29.046C20.425,29.046 10.302,29.046 5.041,29.046C4.15,29.046 3.295,28.692 2.665,28.062C2.034,27.432 1.68,26.577 1.68,25.686C1.68,20.425 1.68,10.302 1.68,5.041C1.68,4.15 2.034,3.295 2.665,2.665C3.295,2.034 4.15,1.68 5.041,1.68C10.302,1.68 20.425,1.68 25.686,1.68Z" style="fill:white;"/>
                <path d="M25.686,1.68C26.577,1.68 27.432,2.034 28.062,2.665C28.692,3.295 29.046,4.15 29.046,5.041L29.046,25.686C29.046,26.577 28.692,27.432 28.062,28.062C27.432,28.692 26.577,29.046 25.686,29.046L5.041,29.046C4.15,29.046 3.295,28.692 2.665,28.062C2.034,27.432 1.68,26.577 1.68,25.686L1.68,5.041C1.68,4.15 2.034,3.295 2.665,2.665C3.295,2.034 4.15,1.68 5.041,1.68L25.686,1.68ZM25.686,2.361L5.041,2.361C4.33,2.361 3.649,2.643 3.146,3.146C2.643,3.649 2.361,4.33 2.361,5.041L2.361,25.686C2.361,26.397 2.643,27.078 3.146,27.581C3.649,28.083 4.33,28.366 5.041,28.366L25.686,28.366C26.397,28.366 27.078,28.084 27.581,27.581C28.083,27.078 28.366,26.397 28.366,25.686L28.366,5.041C28.366,4.33 28.083,3.649 27.581,3.146C27.078,2.643 26.397,2.361 25.686,2.361Z" style="fill:rgb(163,163,163);"/>
            </g>
            <g transform="matrix(0.730664,0,0,1.38884,113.57,88.0162)">
                <path d="M25.686,1.68C26.577,1.68 27.432,2.034 28.062,2.665C28.692,3.295 29.046,4.15 29.046,5.041C29.046,10.302 29.046,20.425 29.046,25.686C29.046,26.577 28.692,27.432 28.062,28.062C27.432,28.692 26.577,29.046 25.686,29.046C20.425,29.046 10.302,29.046 5.041,29.046C4.15,29.046 3.295,28.692 2.665,28.062C2.034,27.432 1.68,26.577 1.68,25.686C1.68,20.425 1.68,10.302 1.68,5.041C1.68,4.15 2.034,3.295 2.665,2.665C3.295,2.034 4.15,1.68 5.041,1.68C10.302,1.68 20.425,1.68 25.686,1.68Z" style="fill:white;"/>
                <path d="M25.686,1.68C26.577,1.68 27.432,2.034 28.062,2.665C28.692,3.295 29.046,4.15 29.046,5.041L29.046,25.686C29.046,26.577 28.692,27.432 28.062,28.062C27.432,28.692 26.577,29.046 25.686,29.046L5.041,29.046C4.15,29.046 3.295,28.692 2.665,28.062C2.034,27.432 1.68,26.577 1.68,25.686L1.68,5.041C1.68,4.15 2.034,3.295 2.665,2.665C3.295,2.034 4.15,1.68 5.041,1.68L25.686,1.68ZM25.686,2.361L5.041,2.361C4.33,2.361 3.649,2.643 3.146,3.146C2.643,3.649 2.361,4.33 2.361,5.041L2.361,25.686C2.361,26.397 2.643,27.078 3.146,27.581C3.649,28.083 4.33,28.366 5.041,28.366L25.686,28.366C26.397,28.366 27.078,28.084 27.581,27.581C28.083,27.078 28.366,26.397 28.366,25.686L28.366,5.041C28.366,4.33 28.083,3.649 27.581,3.146C27.078,2.643 26.397,2.361 25.686,2.361Z" style="fill:rgb(163,163,163);"/>
            </g>
            <g transform="matrix(0.730664,0,0,1.38884,158.472,88.0162)">
                <path d="M25.686,1.68C26.577,1.68 27.432,2.034 28.062,2.665C28.692,3.295 29.046,4.15 29.046,5.041C29.046,10.302 29.046,20.425 29.046,25.686C29.046,26.577 28.692,27.432 28.062,28.062C27.432,28.692 26.577,29.046 25.686,29.046C20.425,29.046 10.302,29.046 5.041,29.046C4.15,29.046 3.295,28.692 2.665,28.062C2.034,27.432 1.68,26.577 1.68,25.686C1.68,20.425 1.68,10.302 1.68,5.041C1.68,4.15 2.034,3.295 2.665,2.665C3.295,2.034 4.15,1.68 5.041,1.68C10.302,1.68 20.425,1.68 25.686,1.68Z" style="fill:white;"/>
                <path d="M25.686,1.68C26.577,1.68 27.432,2.034 28.062,2.665C28.692,3.295 29.046,4.15 29.046,5.041L29.046,25.686C29.046,26.577 28.692,27.432 28.062,28.062C27.432,28.692 26.577,29.046 25.686,29.046L5.041,29.046C4.15,29.046 3.295,28.692 2.665,28.062C2.034,27.432 1.68,26.577 1.68,25.686L1.68,5.041C1.68,4.15 2.034,3.295 2.665,2.665C3.295,2.034 4.15,1.68 5.041,1.68L25.686,1.68ZM25.686,2.361L5.041,2.361C4.33,2.361 3.649,2.643 3.146,3.146C2.643,3.649 2.361,4.33 2.361,5.041L2.361,25.686C2.361,26.397 2.643,27.078 3.146,27.581C3.649,28.083 4.33,28.366 5.041,28.366L25.686,28.366C26.397,28.366 27.078,28.084 27.581,27.581C28.083,27.078 28.366,26.397 28.366,25.686L28.366,5.041C28.366,4.33 28.083,3.649 27.581,3.146C27.078,2.643 26.397,2.361 25.686,2.361Z" style="fill:rgb(163,163,163);"/>
            </g>
            <g transform="matrix(0.730664,0,0,1.38884,113.57,45.3417)">
                <path d="M25.686,1.68C26.577,1.68 27.432,2.034 28.062,2.665C28.692,3.295 29.046,4.15 29.046,5.041C29.046,10.302 29.046,20.425 29.046,25.686C29.046,26.577 28.692,27.432 28.062,28.062C27.432,28.692 26.577,29.046 25.686,29.046C20.425,29.046 10.302,29.046 5.041,29.046C4.15,29.046 3.295,28.692 2.665,28.062C2.034,27.432 1.68,26.577 1.68,25.686C1.68,20.425 1.68,10.302 1.68,5.041C1.68,4.15 2.034,3.295 2.665,2.665C3.295,2.034 4.15,1.68 5.041,1.68C10.302,1.68 20.425,1.68 25.686,1.68Z" style="fill:white;"/>
                <path d="M25.686,1.68C26.577,1.68 27.432,2.034 28.062,2.665C28.692,3.295 29.046,4.15 29.046,5.041L29.046,25.686C29.046,26.577 28.692,27.432 28.062,28.062C27.432,28.692 26.577,29.046 25.686,29.046L5.041,29.046C4.15,29.046 3.295,28.692 2.665,28.062C2.034,27.432 1.68,26.577 1.68,25.686L1.68,5.041C1.68,4.15 2.034,3.295 2.665,2.665C3.295,2.034 4.15,1.68 5.041,1.68L25.686,1.68ZM25.686,2.361L5.041,2.361C4.33,2.361 3.649,2.643 3.146,3.146C2.643,3.649 2.361,4.33 2.361,5.041L2.361,25.686C2.361,26.397 2.643,27.078 3.146,27.581C3.649,28.083 4.33,28.366 5.041,28.366L25.686,28.366C26.397,28.366 27.078,28.084 27.581,27.581C28.083,27.078 28.366,26.397 28.366,25.686L28.366,5.041C28.366,4.33 28.083,3.649 27.581,3.146C27.078,2.643 26.397,2.361 25.686,2.361Z" style="fill:rgb(163,163,163);"/>
            </g>
            <g transform="matrix(0.730664,0,0,1.38884,158.472,45.3417)">
                <path d="M25.686,1.68C26.577,1.68 27.432,2.034 28.062,2.665C28.692,3.295 29.046,4.15 29.046,5.041C29.046,10.302 29.046,20.425 29.046,25.686C29.046,26.577 28.692,27.432 28.062,28.062C27.432,28.692 26.577,29.046 25.686,29.046C20.425,29.046 10.302,29.046 5.041,29.046C4.15,29.046 3.295,28.692 2.665,28.062C2.034,27.432 1.68,26.577 1.68,25.686C1.68,20.425 1.68,10.302 1.68,5.041C1.68,4.15 2.034,3.295 2.665,2.665C3.295,2.034 4.15,1.68 5.041,1.68C10.302,1.68 20.425,1.68 25.686,1.68Z" style="fill:white;"/>
                <path d="M25.686,1.68C26.577,1.68 27.432,2.034 28.062,2.665C28.692,3.295 29.046,4.15 29.046,5.041L29.046,25.686C29.046,26.577 28.692,27.432 28.062,28.062C27.432,28.692 26.577,29.046 25.686,29.046L5.041,29.046C4.15,29.046 3.295,28.692 2.665,28.062C2.034,27.432 1.68,26.577 1.68,25.686L1.68,5.041C1.68,4.15 2.034,3.295 2.665,2.665C3.295,2.034 4.15,1.68 5.041,1.68L25.686,1.68ZM25.686,2.361L5.041,2.361C4.33,2.361 3.649,2.643 3.146,3.146C2.643,3.649 2.361,4.33 2.361,5.041L2.361,25.686C2.361,26.397 2.643,27.078 3.146,27.581C3.649,28.083 4.33,28.366 5.041,28.366L25.686,28.366C26.397,28.366 27.078,28.084 27.581,27.581C28.083,27.078 28.366,26.397 28.366,25.686L28.366,5.041C28.366,4.33 28.083,3.649 27.581,3.146C27.078,2.643 26.397,2.361 25.686,2.361Z" style="fill:rgb(163,163,163);"/>
            </g>
            <g transform="matrix(0.730664,0,0,1.38884,113.57,216.04)">
                <path d="M25.686,1.68C26.577,1.68 27.432,2.034 28.062,2.665C28.692,3.295 29.046,4.15 29.046,5.041C29.046,10.302 29.046,20.425 29.046,25.686C29.046,26.577 28.692,27.432 28.062,28.062C27.432,28.692 26.577,29.046 25.686,29.046C20.425,29.046 10.302,29.046 5.041,29.046C4.15,29.046 3.295,28.692 2.665,28.062C2.034,27.432 1.68,26.577 1.68,25.686C1.68,20.425 1.68,10.302 1.68,5.041C1.68,4.15 2.034,3.295 2.665,2.665C3.295,2.034 4.15,1.68 5.041,1.68C10.302,1.68 20.425,1.68 25.686,1.68Z" style="fill:white;"/>
                <path d="M25.686,1.68C26.577,1.68 27.432,2.034 28.062,2.665C28.692,3.295 29.046,4.15 29.046,5.041L29.046,25.686C29.046,26.577 28.692,27.432 28.062,28.062C27.432,28.692 26.577,29.046 25.686,29.046L5.041,29.046C4.15,29.046 3.295,28.692 2.665,28.062C2.034,27.432 1.68,26.577 1.68,25.686L1.68,5.041C1.68,4.15 2.034,3.295 2.665,2.665C3.295,2.034 4.15,1.68 5.041,1.68L25.686,1.68ZM25.686,2.361L5.041,2.361C4.33,2.361 3.649,2.643 3.146,3.146C2.643,3.649 2.361,4.33 2.361,5.041L2.361,25.686C2.361,26.397 2.643,27.078 3.146,27.581C3.649,28.083 4.33,28.366 5.041,28.366L25.686,28.366C26.397,28.366 27.078,28.084 27.581,27.581C28.083,27.078 28.366,26.397 28.366,25.686L28.366,5.041C28.366,4.33 28.083,3.649 27.581,3.146C27.078,2.643 26.397,2.361 25.686,2.361Z" style="fill:rgb(163,163,163);"/>
            </g>
            <g transform="matrix(0.730664,0,0,1.38884,158.472,216.04)">
                <path d="M25.686,1.68C26.577,1.68 27.432,2.034 28.062,2.665C28.692,3.295 29.046,4.15 29.046,5.041C29.046,10.302 29.046,20.425 29.046,25.686C29.046,26.577 28.692,27.432 28.062,28.062C27.432,28.692 26.577,29.046 25.686,29.046C20.425,29.046 10.302,29.046 5.041,29.046C4.15,29.046 3.295,28.692 2.665,28.062C2.034,27.432 1.68,26.577 1.68,25.686C1.68,20.425 1.68,10.302 1.68,5.041C1.68,4.15 2.034,3.295 2.665,2.665C3.295,2.034 4.15,1.68 5.041,1.68C10.302,1.68 20.425,1.68 25.686,1.68Z" style="fill:white;"/>
                <path d="M25.686,1.68C26.577,1.68 27.432,2.034 28.062,2.665C28.692,3.295 29.046,4.15 29.046,5.041L29.046,25.686C29.046,26.577 28.692,27.432 28.062,28.062C27.432,28.692 26.577,29.046 25.686,29.046L5.041,29.046C4.15,29.046 3.295,28.692 2.665,28.062C2.034,27.432 1.68,26.577 1.68,25.686L1.68,5.041C1.68,4.15 2.034,3.295 2.665,2.665C3.295,2.034 4.15,1.68 5.041,1.68L25.686,1.68ZM25.686,2.361L5.041,2.361C4.33,2.361 3.649,2.643 3.146,3.146C2.643,3.649 2.361,4.33 2.361,5.041L2.361,25.686C2.361,26.397 2.643,27.078 3.146,27.581C3.649,28.083 4.33,28.366 5.041,28.366L25.686,28.366C26.397,28.366 27.078,28.084 27.581,27.581C28.083,27.078 28.366,26.397 28.366,25.686L28.366,5.041C28.366,4.33 28.083,3.649 27.581,3.146C27.078,2.643 26.397,2.361 25.686,2.361Z" style="fill:rgb(163,163,163);"/>
            </g>
            <g transform="matrix(0.730664,0,0,1.38884,113.57,130.691)">
                <path d="M25.686,1.68C26.577,1.68 27.432,2.034 28.062,2.665C28.692,3.295 29.046,4.15 29.046,5.041C29.046,10.302 29.046,20.425 29.046,25.686C29.046,26.577 28.692,27.432 28.062,28.062C27.432,28.692 26.577,29.046 25.686,29.046C20.425,29.046 10.302,29.046 5.041,29.046C4.15,29.046 3.295,28.692 2.665,28.062C2.034,27.432 1.68,26.577 1.68,25.686C1.68,20.425 1.68,10.302 1.68,5.041C1.68,4.15 2.034,3.295 2.665,2.665C3.295,2.034 4.15,1.68 5.041,1.68C10.302,1.68 20.425,1.68 25.686,1.68Z" style="fill:white;"/>
                <path d="M25.686,1.68C26.577,1.68 27.432,2.034 28.062,2.665C28.692,3.295 29.046,4.15 29.046,5.041L29.046,25.686C29.046,26.577 28.692,27.432 28.062,28.062C27.432,28.692 26.577,29.046 25.686,29.046L5.041,29.046C4.15,29.046 3.295,28.692 2.665,28.062C2.034,27.432 1.68,26.577 1.68,25.686L1.68,5.041C1.68,4.15 2.034,3.295 2.665,2.665C3.295,2.034 4.15,1.68 5.041,1.68L25.686,1.68ZM25.686,2.361L5.041,2.361C4.33,2.361 3.649,2.643 3.146,3.146C2.643,3.649 2.361,4.33 2.361,5.041L2.361,25.686C2.361,26.397 2.643,27.078 3.146,27.581C3.649,28.083 4.33,28.366 5.041,28.366L25.686,28.366C26.397,28.366 27.078,28.084 27.581,27.581C28.083,27.078 28.366,26.397 28.366,25.686L28.366,5.041C28.366,4.33 28.083,3.649 27.581,3.146C27.078,2.643 26.397,2.361 25.686,2.361Z" style="fill:rgb(163,163,163);"/>
            </g>
            <g transform="matrix(0.730664,0,0,1.38884,158.472,130.691)">
                <path d="M25.686,1.68C26.577,1.68 27.432,2.034 28.062,2.665C28.692,3.295 29.046,4.15 29.046,5.041C29.046,10.302 29.046,20.425 29.046,25.686C29.046,26.577 28.692,27.432 28.062,28.062C27.432,28.692 26.577,29.046 25.686,29.046C20.425,29.046 10.302,29.046 5.041,29.046C4.15,29.046 3.295,28.692 2.665,28.062C2.034,27.432 1.68,26.577 1.68,25.686C1.68,20.425 1.68,10.302 1.68,5.041C1.68,4.15 2.034,3.295 2.665,2.665C3.295,2.034 4.15,1.68 5.041,1.68C10.302,1.68 20.425,1.68 25.686,1.68Z" style="fill:white;"/>
                <path d="M25.686,1.68C26.577,1.68 27.432,2.034 28.062,2.665C28.692,3.295 29.046,4.15 29.046,5.041L29.046,25.686C29.046,26.577 28.692,27.432 28.062,28.062C27.432,28.692 26.577,29.046 25.686,29.046L5.041,29.046C4.15,29.046 3.295,28.692 2.665,28.062C2.034,27.432 1.68,26.577 1.68,25.686L1.68,5.041C1.68,4.15 2.034,3.295 2.665,2.665C3.295,2.034 4.15,1.68 5.041,1.68L25.686,1.68ZM25.686,2.361L5.041,2.361C4.33,2.361 3.649,2.643 3.146,3.146C2.643,3.649 2.361,4.33 2.361,5.041L2.361,25.686C2.361,26.397 2.643,27.078 3.146,27.581C3.649,28.083 4.33,28.366 5.041,28.366L25.686,28.366C26.397,28.366 27.078,28.084 27.581,27.581C28.083,27.078 28.366,26.397 28.366,25.686L28.366,5.041C28.366,4.33 28.083,3.649 27.581,3.146C27.078,2.643 26.397,2.361 25.686,2.361Z" style="fill:rgb(163,163,163);"/>
            </g>
            <g transform="matrix(0.730664,0,0,1.38884,136.021,2.66716)">
                <path d="M25.686,1.68C26.577,1.68 27.432,2.034 28.062,2.665C28.692,3.295 29.046,4.15 29.046,5.041C29.046,10.302 29.046,20.425 29.046,25.686C29.046,26.577 28.692,27.432 28.062,28.062C27.432,28.692 26.577,29.046 25.686,29.046C20.425,29.046 10.302,29.046 5.041,29.046C4.15,29.046 3.295,28.692 2.665,28.062C2.034,27.432 1.68,26.577 1.68,25.686C1.68,20.425 1.68,10.302 1.68,5.041C1.68,4.15 2.034,3.295 2.665,2.665C3.295,2.034 4.15,1.68 5.041,1.68C10.302,1.68 20.425,1.68 25.686,1.68Z" style="fill:white;"/>
                <path d="M25.686,1.68C26.577,1.68 27.432,2.034 28.062,2.665C28.692,3.295 29.046,4.15 29.046,5.041L29.046,25.686C29.046,26.577 28.692,27.432 28.062,28.062C27.432,28.692 26.577,29.046 25.686,29.046L5.041,29.046C4.15,29.046 3.295,28.692 2.665,28.062C2.034,27.432 1.68,26.577 1.68,25.686L1.68,5.041C1.68,4.15 2.034,3.295 2.665,2.665C3.295,2.034 4.15,1.68 5.041,1.68L25.686,1.68ZM25.686,2.361L5.041,2.361C4.33,2.361 3.649,2.643 3.146,3.146C2.643,3.649 2.361,4.33 2.361,5.041L2.361,25.686C2.361,26.397 2.643,27.078 3.146,27.581C3.649,28.083 4.33,28.366 5.041,28.366L25.686,28.366C26.397,28.366 27.078,28.084 27.581,27.581C28.083,27.078 28.366,26.397 28.366,25.686L28.366,5.041C28.366,4.33 28.083,3.649 27.581,3.146C27.078,2.643 26.397,2.361 25.686,2.361Z" style="fill:rgb(163,163,163);"/>
            </g>
            <g transform="matrix(0.730664,0,0,1.38884,180.923,2.66716)">
                <path d="M25.686,1.68C26.577,1.68 27.432,2.034 28.062,2.665C28.692,3.295 29.046,4.15 29.046,5.041C29.046,10.302 29.046,20.425 29.046,25.686C29.046,26.577 28.692,27.432 28.062,28.062C27.432,28.692 26.577,29.046 25.686,29.046C20.425,29.046 10.302,29.046 5.041,29.046C4.15,29.046 3.295,28.692 2.665,28.062C2.034,27.432 1.68,26.577 1.68,25.686C1.68,20.425 1.68,10.302 1.68,5.041C1.68,4.15 2.034,3.295 2.665,2.665C3.295,2.034 4.15,1.68 5.041,1.68C10.302,1.68 20.425,1.68 25.686,1.68Z" style="fill:white;"/>
                <path d="M25.686,1.68C26.577,1.68 27.432,2.034 28.062,2.665C28.692,3.295 29.046,4.15 29.046,5.041L29.046,25.686C29.046,26.577 28.692,27.432 28.062,28.062C27.432,28.692 26.577,29.046 25.686,29.046L5.041,29.046C4.15,29.046 3.295,28.692 2.665,28.062C2.034,27.432 1.68,26.577 1.68,25.686L1.68,5.041C1.68,4.15 2.034,3.295 2.665,2.665C3.295,2.034 4.15,1.68 5.041,1.68L25.686,1.68ZM25.686,2.361L5.041,2.361C4.33,2.361 3.649,2.643 3.146,3.146C2.643,3.649 2.361,4.33 2.361,5.041L2.361,25.686C2.361,26.397 2.643,27.078 3.146,27.581C3.649,28.083 4.33,28.366 5.041,28.366L25.686,28.366C26.397,28.366 27.078,28.084 27.581,27.581C28.083,27.078 28.366,26.397 28.366,25.686L28.366,5.041C28.366,4.33 28.083,3.649 27.581,3.146C27.078,2.643 26.397,2.361 25.686,2.361Z" style="fill:rgb(163,163,163);"/>
            </g>
            <g transform="matrix(0.730664,0,0,1.38884,203.374,2.66716)">
                <path d="M25.686,1.68C26.577,1.68 27.432,2.034 28.062,2.665C28.692,3.295 29.046,4.15 29.046,5.041C29.046,10.302 29.046,20.425 29.046,25.686C29.046,26.577 28.692,27.432 28.062,28.062C27.432,28.692 26.577,29.046 25.686,29.046C20.425,29.046 10.302,29.046 5.041,29.046C4.15,29.046 3.295,28.692 2.665,28.062C2.034,27.432 1.68,26.577 1.68,25.686C1.68,20.425 1.68,10.302 1.68,5.041C1.68,4.15 2.034,3.295 2.665,2.665C3.295,2.034 4.15,1.68 5.041,1.68C10.302,1.68 20.425,1.68 25.686,1.68Z" style="fill:white;"/>
                <path d="M25.686,1.68C26.577,1.68 27.432,2.034 28.062,2.665C28.692,3.295 29.046,4.15 29.046,5.041L29.046,25.686C29.046,26.577 28.692,27.432 28.062,28.062C27.432,28.692 26.577,29.046 25.686,29.046L5.041,29.046C4.15,29.046 3.295,28.692 2.665,28.062C2.034,27.432 1.68,26.577 1.68,25.686L1.68,5.041C1.68,4.15 2.034,3.295 2.665,2.665C3.295,2.034 4.15,1.68 5.041,1.68L25.686,1.68ZM25.686,2.361L5.041,2.361C4.33,2.361 3.649,2.643 3.146,3.146C2.643,3.649 2.361,4.33 2.361,5.041L2.361,25.686C2.361,26.397 2.643,27.078 3.146,27.581C3.649,28.083 4.33,28.366 5.041,28.366L25.686,28.366C26.397,28.366 27.078,28.084 27.581,27.581C28.083,27.078 28.366,26.397 28.366,25.686L28.366,5.041C28.366,4.33 28.083,3.649 27.581,3.146C27.078,2.643 26.397,2.361 25.686,2.361Z" style="fill:rgb(163,163,163);"/>
            </g>
            <g transform="matrix(0.730664,0,0,1.38884,136.021,173.365)">
                <path d="M25.686,1.68C26.577,1.68 27.432,2.034 28.062,2.665C28.692,3.295 29.046,4.15 29.046,5.041C29.046,10.302 29.046,20.425 29.046,25.686C29.046,26.577 28.692,27.432 28.062,28.062C27.432,28.692 26.577,29.046 25.686,29.046C20.425,29.046 10.302,29.046 5.041,29.046C4.15,29.046 3.295,28.692 2.665,28.062C2.034,27.432 1.68,26.577 1.68,25.686C1.68,20.425 1.68,10.302 1.68,5.041C1.68,4.15 2.034,3.295 2.665,2.665C3.295,2.034 4.15,1.68 5.041,1.68C10.302,1.68 20.425,1.68 25.686,1.68Z" style="fill:white;"/>
                <path d="M25.686,1.68C26.577,1.68 27.432,2.034 28.062,2.665C28.692,3.295 29.046,4.15 29.046,5.041L29.046,25.686C29.046,26.577 28.692,27.432 28.062,28.062C27.432,28.692 26.577,29.046 25.686,29.046L5.041,29.046C4.15,29.046 3.295,28.692 2.665,28.062C2.034,27.432 1.68,26.577 1.68,25.686L1.68,5.041C1.68,4.15 2.034,3.295 2.665,2.665C3.295,2.034 4.15,1.68 5.041,1.68L25.686,1.68ZM25.686,2.361L5.041,2.361C4.33,2.361 3.649,2.643 3.146,3.146C2.643,3.649 2.361,4.33 2.361,5.041L2.361,25.686C2.361,26.397 2.643,27.078 3.146,27.581C3.649,28.083 4.33,28.366 5.041,28.366L25.686,28.366C26.397,28.366 27.078,28.084 27.581,27.581C28.083,27.078 28.366,26.397 28.366,25.686L28.366,5.041C28.366,4.33 28.083,3.649 27.581,3.146C27.078,2.643 26.397,2.361 25.686,2.361Z" style="fill:rgb(163,163,163);"/>
            </g>
            <g transform="matrix(0.730664,0,0,1.38884,180.923,173.365)">
                <path d="M25.686,1.68C26.577,1.68 27.432,2.034 28.062,2.665C28.692,3.295 29.046,4.15 29.046,5.041C29.046,10.302 29.046,20.425 29.046,25.686C29.046,26.577 28.692,27.432 28.062,28.062C27.432,28.692 26.577,29.046 25.686,29.046C20.425,29.046 10.302,29.046 5.041,29.046C4.15,29.046 3.295,28.692 2.665,28.062C2.034,27.432 1.68,26.577 1.68,25.686C1.68,20.425 1.68,10.302 1.68,5.041C1.68,4.15 2.034,3.295 2.665,2.665C3.295,2.034 4.15,1.68 5.041,1.68C10.302,1.68 20.425,1.68 25.686,1.68Z" style="fill:white;"/>
                <path d="M25.686,1.68C26.577,1.68 27.432,2.034 28.062,2.665C28.692,3.295 29.046,4.15 29.046,5.041L29.046,25.686C29.046,26.577 28.692,27.432 28.062,28.062C27.432,28.692 26.577,29.046 25.686,29.046L5.041,29.046C4.15,29.046 3.295,28.692 2.665,28.062C2.034,27.432 1.68,26.577 1.68,25.686L1.68,5.041C1.68,4.15 2.034,3.295 2.665,2.665C3.295,2.034 4.15,1.68 5.041,1.68L25.686,1.68ZM25.686,2.361L5.041,2.361C4.33,2.361 3.649,2.643 3.146,3.146C2.643,3.649 2.361,4.33 2.361,5.041L2.361,25.686C2.361,26.397 2.643,27.078 3.146,27.581C3.649,28.083 4.33,28.366 5.041,28.366L25.686,28.366C26.397,28.366 27.078,28.084 27.581,27.581C28.083,27.078 28.366,26.397 28.366,25.686L28.366,5.041C28.366,4.33 28.083,3.649 27.581,3.146C27.078,2.643 26.397,2.361 25.686,2.361Z" style="fill:rgb(163,163,163);"/>
            </g>
            <g transform="matrix(0.730664,0,0,1.38884,203.374,173.365)">
                <path d="M25.686,1.68C26.577,1.68 27.432,2.034 28.062,2.665C28.692,3.295 29.046,4.15 29.046,5.041C29.046,10.302 29.046,20.425 29.046,25.686C29.046,26.577 28.692,27.432 28.062,28.062C27.432,28.692 26.577,29.046 25.686,29.046C20.425,29.046 10.302,29.046 5.041,29.046C4.15,29.046 3.295,28.692 2.665,28.062C2.034,27.432 1.68,26.577 1.68,25.686C1.68,20.425 1.68,10.302 1.68,5.041C1.68,4.15 2.034,3.295 2.665,2.665C3.295,2.034 4.15,1.68 5.041,1.68C10.302,1.68 20.425,1.68 25.686,1.68Z" style="fill:white;"/>
                <path d="M25.686,1.68C26.577,1.68 27.432,2.034 28.062,2.665C28.692,3.295 29.046,4.15 29.046,5.041L29.046,25.686C29.046,26.577 28.692,27.432 28.062,28.062C27.432,28.692 26.577,29.046 25.686,29.046L5.041,29.046C4.15,29.046 3.295,28.692 2.665,28.062C2.034,27.432 1.68,26.577 1.68,25.686L1.68,5.041C1.68,4.15 2.034,3.295 2.665,2.665C3.295,2.034 4.15,1.68 5.041,1.68L25.686,1.68ZM25.686,2.361L5.041,2.361C4.33,2.361 3.649,2.643 3.146,3.146C2.643,3.649 2.361,4.33 2.361,5.041L2.361,25.686C2.361,26.397 2.643,27.078 3.146,27.581C3.649,28.083 4.33,28.366 5.041,28.366L25.686,28.366C26.397,28.366 27.078,28.084 27.581,27.581C28.083,27.078 28.366,26.397 28.366,25.686L28.366,5.041C28.366,4.33 28.083,3.649 27.581,3.146C27.078,2.643 26.397,2.361 25.686,2.361Z" style="fill:rgb(163,163,163);"/>
            </g>
            <g transform="matrix(0.730664,0,0,1.38884,136.021,88.0162)">
                <path d="M25.686,1.68C26.577,1.68 27.432,2.034 28.062,2.665C28.692,3.295 29.046,4.15 29.046,5.041C29.046,10.302 29.046,20.425 29.046,25.686C29.046,26.577 28.692,27.432 28.062,28.062C27.432,28.692 26.577,29.046 25.686,29.046C20.425,29.046 10.302,29.046 5.041,29.046C4.15,29.046 3.295,28.692 2.665,28.062C2.034,27.432 1.68,26.577 1.68,25.686C1.68,20.425 1.68,10.302 1.68,5.041C1.68,4.15 2.034,3.295 2.665,2.665C3.295,2.034 4.15,1.68 5.041,1.68C10.302,1.68 20.425,1.68 25.686,1.68Z" style="fill:white;"/>
                <path d="M25.686,1.68C26.577,1.68 27.432,2.034 28.062,2.665C28.692,3.295 29.046,4.15 29.046,5.041L29.046,25.686C29.046,26.577 28.692,27.432 28.062,28.062C27.432,28.692 26.577,29.046 25.686,29.046L5.041,29.046C4.15,29.046 3.295,28.692 2.665,28.062C2.034,27.432 1.68,26.577 1.68,25.686L1.68,5.041C1.68,4.15 2.034,3.295 2.665,2.665C3.295,2.034 4.15,1.68 5.041,1.68L25.686,1.68ZM25.686,2.361L5.041,2.361C4.33,2.361 3.649,2.643 3.146,3.146C2.643,3.649 2.361,4.33 2.361,5.041L2.361,25.686C2.361,26.397 2.643,27.078 3.146,27.581C3.649,28.083 4.33,28.366 5.041,28.366L25.686,28.366C26.397,28.366 27.078,28.084 27.581,27.581C28.083,27.078 28.366,26.397 28.366,25.686L28.366,5.041C28.366,4.33 28.083,3.649 27.581,3.146C27.078,2.643 26.397,2.361 25.686,2.361Z" style="fill:rgb(163,163,163);"/>
            </g>
            <g transform="matrix(0.730664,0,0,1.38884,180.923,88.0162)">
                <path d="M25.686,1.68C26.577,1.68 27.432,2.034 28.062,2.665C28.692,3.295 29.046,4.15 29.046,5.041C29.046,10.302 29.046,20.425 29.046,25.686C29.046,26.577 28.692,27.432 28.062,28.062C27.432,28.692 26.577,29.046 25.686,29.046C20.425,29.046 10.302,29.046 5.041,29.046C4.15,29.046 3.295,28.692 2.665,28.062C2.034,27.432 1.68,26.577 1.68,25.686C1.68,20.425 1.68,10.302 1.68,5.041C1.68,4.15 2.034,3.295 2.665,2.665C3.295,2.034 4.15,1.68 5.041,1.68C10.302,1.68 20.425,1.68 25.686,1.68Z" style="fill:white;"/>
                <path d="M25.686,1.68C26.577,1.68 27.432,2.034 28.062,2.665C28.692,3.295 29.046,4.15 29.046,5.041L29.046,25.686C29.046,26.577 28.692,27.432 28.062,28.062C27.432,28.692 26.577,29.046 25.686,29.046L5.041,29.046C4.15,29.046 3.295,28.692 2.665,28.062C2.034,27.432 1.68,26.577 1.68,25.686L1.68,5.041C1.68,4.15 2.034,3.295 2.665,2.665C3.295,2.034 4.15,1.68 5.041,1.68L25.686,1.68ZM25.686,2.361L5.041,2.361C4.33,2.361 3.649,2.643 3.146,3.146C2.643,3.649 2.361,4.33 2.361,5.041L2.361,25.686C2.361,26.397 2.643,27.078 3.146,27.581C3.649,28.083 4.33,28.366 5.041,28.366L25.686,28.366C26.397,28.366 27.078,28.084 27.581,27.581C28.083,27.078 28.366,26.397 28.366,25.686L28.366,5.041C28.366,4.33 28.083,3.649 27.581,3.146C27.078,2.643 26.397,2.361 25.686,2.361Z" style="fill:rgb(163,163,163);"/>
            </g>
            <g transform="matrix(0.730664,0,0,1.38884,203.374,88.0162)">
                <path d="M25.686,1.68C26.577,1.68 27.432,2.034 28.062,2.665C28.692,3.295 29.046,4.15 29.046,5.041C29.046,10.302 29.046,20.425 29.046,25.686C29.046,26.577 28.692,27.432 28.062,28.062C27.432,28.692 26.577,29.046 25.686,29.046C20.425,29.046 10.302,29.046 5.041,29.046C4.15,29.046 3.295,28.692 2.665,28.062C2.034,27.432 1.68,26.577 1.68,25.686C1.68,20.425 1.68,10.302 1.68,5.041C1.68,4.15 2.034,3.295 2.665,2.665C3.295,2.034 4.15,1.68 5.041,1.68C10.302,1.68 20.425,1.68 25.686,1.68Z" style="fill:white;"/>
                <path d="M25.686,1.68C26.577,1.68 27.432,2.034 28.062,2.665C28.692,3.295 29.046,4.15 29.046,5.041L29.046,25.686C29.046,26.577 28.692,27.432 28.062,28.062C27.432,28.692 26.577,29.046 25.686,29.046L5.041,29.046C4.15,29.046 3.295,28.692 2.665,28.062C2.034,27.432 1.68,26.577 1.68,25.686L1.68,5.041C1.68,4.15 2.034,3.295 2.665,2.665C3.295,2.034 4.15,1.68 5.041,1.68L25.686,1.68ZM25.686,2.361L5.041,2.361C4.33,2.361 3.649,2.643 3.146,3.146C2.643,3.649 2.361,4.33 2.361,5.041L2.361,25.686C2.361,26.397 2.643,27.078 3.146,27.581C3.649,28.083 4.33,28.366 5.041,28.366L25.686,28.366C26.397,28.366 27.078,28.084 27.581,27.581C28.083,27.078 28.366,26.397 28.366,25.686L28.366,5.041C28.366,4.33 28.083,3.649 27.581,3.146C27.078,2.643 26.397,2.361 25.686,2.361Z" style="fill:rgb(163,163,163);"/>
            </g>
            <g transform="matrix(0.730664,0,0,1.38884,136.021,45.3417)">
                <path d="M25.686,1.68C26.577,1.68 27.432,2.034 28.062,2.665C28.692,3.295 29.046,4.15 29.046,5.041C29.046,10.302 29.046,20.425 29.046,25.686C29.046,26.577 28.692,27.432 28.062,28.062C27.432,28.692 26.577,29.046 25.686,29.046C20.425,29.046 10.302,29.046 5.041,29.046C4.15,29.046 3.295,28.692 2.665,28.062C2.034,27.432 1.68,26.577 1.68,25.686C1.68,20.425 1.68,10.302 1.68,5.041C1.68,4.15 2.034,3.295 2.665,2.665C3.295,2.034 4.15,1.68 5.041,1.68C10.302,1.68 20.425,1.68 25.686,1.68Z" style="fill:white;"/>
                <path d="M25.686,1.68C26.577,1.68 27.432,2.034 28.062,2.665C28.692,3.295 29.046,4.15 29.046,5.041L29.046,25.686C29.046,26.577 28.692,27.432 28.062,28.062C27.432,28.692 26.577,29.046 25.686,29.046L5.041,29.046C4.15,29.046 3.295,28.692 2.665,28.062C2.034,27.432 1.68,26.577 1.68,25.686L1.68,5.041C1.68,4.15 2.034,3.295 2.665,2.665C3.295,2.034 4.15,1.68 5.041,1.68L25.686,1.68ZM25.686,2.361L5.041,2.361C4.33,2.361 3.649,2.643 3.146,3.146C2.643,3.649 2.361,4.33 2.361,5.041L2.361,25.686C2.361,26.397 2.643,27.078 3.146,27.581C3.649,28.083 4.33,28.366 5.041,28.366L25.686,28.366C26.397,28.366 27.078,28.084 27.581,27.581C28.083,27.078 28.366,26.397 28.366,25.686L28.366,5.041C28.366,4.33 28.083,3.649 27.581,3.146C27.078,2.643 26.397,2.361 25.686,2.361Z" style="fill:rgb(163,163,163);"/>
            </g>
            <g transform="matrix(0.730664,0,0,1.38884,180.923,45.3417)">
                <path d="M25.686,1.68C26.577,1.68 27.432,2.034 28.062,2.665C28.692,3.295 29.046,4.15 29.046,5.041C29.046,10.302 29.046,20.425 29.046,25.686C29.046,26.577 28.692,27.432 28.062,28.062C27.432,28.692 26.577,29.046 25.686,29.046C20.425,29.046 10.302,29.046 5.041,29.046C4.15,29.046 3.295,28.692 2.665,28.062C2.034,27.432 1.68,26.577 1.68,25.686C1.68,20.425 1.68,10.302 1.68,5.041C1.68,4.15 2.034,3.295 2.665,2.665C3.295,2.034 4.15,1.68 5.041,1.68C10.302,1.68 20.425,1.68 25.686,1.68Z" style="fill:white;"/>
                <path d="M25.686,1.68C26.577,1.68 27.432,2.034 28.062,2.665C28.692,3.295 29.046,4.15 29.046,5.041L29.046,25.686C29.046,26.577 28.692,27.432 28.062,28.062C27.432,28.692 26.577,29.046 25.686,29.046L5.041,29.046C4.15,29.046 3.295,28.692 2.665,28.062C2.034,27.432 1.68,26.577 1.68,25.686L1.68,5.041C1.68,4.15 2.034,3.295 2.665,2.665C3.295,2.034 4.15,1.68 5.041,1.68L25.686,1.68ZM25.686,2.361L5.041,2.361C4.33,2.361 3.649,2.643 3.146,3.146C2.643,3.649 2.361,4.33 2.361,5.041L2.361,25.686C2.361,26.397 2.643,27.078 3.146,27.581C3.649,28.083 4.33,28.366 5.041,28.366L25.686,28.366C26.397,28.366 27.078,28.084 27.581,27.581C28.083,27.078 28.366,26.397 28.366,25.686L28.366,5.041C28.366,4.33 28.083,3.649 27.581,3.146C27.078,2.643 26.397,2.361 25.686,2.361Z" style="fill:rgb(163,163,163);"/>
            </g>
            <g transform="matrix(0.730664,0,0,1.38884,203.374,45.3417)">
                <path d="M25.686,1.68C26.577,1.68 27.432,2.034 28.062,2.665C28.692,3.295 29.046,4.15 29.046,5.041C29.046,10.302 29.046,20.425 29.046,25.686C29.046,26.577 28.692,27.432 28.062,28.062C27.432,28.692 26.577,29.046 25.686,29.046C20.425,29.046 10.302,29.046 5.041,29.046C4.15,29.046 3.295,28.692 2.665,28.062C2.034,27.432 1.68,26.577 1.68,25.686C1.68,20.425 1.68,10.302 1.68,5.041C1.68,4.15 2.034,3.295 2.665,2.665C3.295,2.034 4.15,1.68 5.041,1.68C10.302,1.68 20.425,1.68 25.686,1.68Z" style="fill:white;"/>
                <path d="M25.686,1.68C26.577,1.68 27.432,2.034 28.062,2.665C28.692,3.295 29.046,4.15 29.046,5.041L29.046,25.686C29.046,26.577 28.692,27.432 28.062,28.062C27.432,28.692 26.577,29.046 25.686,29.046L5.041,29.046C4.15,29.046 3.295,28.692 2.665,28.062C2.034,27.432 1.68,26.577 1.68,25.686L1.68,5.041C1.68,4.15 2.034,3.295 2.665,2.665C3.295,2.034 4.15,1.68 5.041,1.68L25.686,1.68ZM25.686,2.361L5.041,2.361C4.33,2.361 3.649,2.643 3.146,3.146C2.643,3.649 2.361,4.33 2.361,5.041L2.361,25.686C2.361,26.397 2.643,27.078 3.146,27.581C3.649,28.083 4.33,28.366 5.041,28.366L25.686,28.366C26.397,28.366 27.078,28.084 27.581,27.581C28.083,27.078 28.366,26.397 28.366,25.686L28.366,5.041C28.366,4.33 28.083,3.649 27.581,3.146C27.078,2.643 26.397,2.361 25.686,2.361Z" style="fill:rgb(163,163,163);"/>
            </g>
            <g transform="matrix(0.730664,0,0,1.38884,136.021,216.04)">
                <path d="M25.686,1.68C26.577,1.68 27.432,2.034 28.062,2.665C28.692,3.295 29.046,4.15 29.046,5.041C29.046,10.302 29.046,20.425 29.046,25.686C29.046,26.577 28.692,27.432 28.062,28.062C27.432,28.692 26.577,29.046 25.686,29.046C20.425,29.046 10.302,29.046 5.041,29.046C4.15,29.046 3.295,28.692 2.665,28.062C2.034,27.432 1.68,26.577 1.68,25.686C1.68,20.425 1.68,10.302 1.68,5.041C1.68,4.15 2.034,3.295 2.665,2.665C3.295,2.034 4.15,1.68 5.041,1.68C10.302,1.68 20.425,1.68 25.686,1.68Z" style="fill:white;"/>
                <path d="M25.686,1.68C26.577,1.68 27.432,2.034 28.062,2.665C28.692,3.295 29.046,4.15 29.046,5.041L29.046,25.686C29.046,26.577 28.692,27.432 28.062,28.062C27.432,28.692 26.577,29.046 25.686,29.046L5.041,29.046C4.15,29.046 3.295,28.692 2.665,28.062C2.034,27.432 1.68,26.577 1.68,25.686L1.68,5.041C1.68,4.15 2.034,3.295 2.665,2.665C3.295,2.034 4.15,1.68 5.041,1.68L25.686,1.68ZM25.686,2.361L5.041,2.361C4.33,2.361 3.649,2.643 3.146,3.146C2.643,3.649 2.361,4.33 2.361,5.041L2.361,25.686C2.361,26.397 2.643,27.078 3.146,27.581C3.649,28.083 4.33,28.366 5.041,28.366L25.686,28.366C26.397,28.366 27.078,28.084 27.581,27.581C28.083,27.078 28.366,26.397 28.366,25.686L28.366,5.041C28.366,4.33 28.083,3.649 27.581,3.146C27.078,2.643 26.397,2.361 25.686,2.361Z" style="fill:rgb(163,163,163);"/>
            </g>
            <g transform="matrix(0.730664,0,0,1.38884,180.923,216.04)">
                <path d="M25.686,1.68C26.577,1.68 27.432,2.034 28.062,2.665C28.692,3.295 29.046,4.15 29.046,5.041C29.046,10.302 29.046,20.425 29.046,25.686C29.046,26.577 28.692,27.432 28.062,28.062C27.432,28.692 26.577,29.046 25.686,29.046C20.425,29.046 10.302,29.046 5.041,29.046C4.15,29.046 3.295,28.692 2.665,28.062C2.034,27.432 1.68,26.577 1.68,25.686C1.68,20.425 1.68,10.302 1.68,5.041C1.68,4.15 2.034,3.295 2.665,2.665C3.295,2.034 4.15,1.68 5.041,1.68C10.302,1.68 20.425,1.68 25.686,1.68Z" style="fill:white;"/>
                <path d="M25.686,1.68C26.577,1.68 27.432,2.034 28.062,2.665C28.692,3.295 29.046,4.15 29.046,5.041L29.046,25.686C29.046,26.577 28.692,27.432 28.062,28.062C27.432,28.692 26.577,29.046 25.686,29.046L5.041,29.046C4.15,29.046 3.295,28.692 2.665,28.062C2.034,27.432 1.68,26.577 1.68,25.686L1.68,5.041C1.68,4.15 2.034,3.295 2.665,2.665C3.295,2.034 4.15,1.68 5.041,1.68L25.686,1.68ZM25.686,2.361L5.041,2.361C4.33,2.361 3.649,2.643 3.146,3.146C2.643,3.649 2.361,4.33 2.361,5.041L2.361,25.686C2.361,26.397 2.643,27.078 3.146,27.581C3.649,28.083 4.33,28.366 5.041,28.366L25.686,28.366C26.397,28.366 27.078,28.084 27.581,27.581C28.083,27.078 28.366,26.397 28.366,25.686L28.366,5.041C28.366,4.33 28.083,3.649 27.581,3.146C27.078,2.643 26.397,2.361 25.686,2.361Z" style="fill:rgb(163,163,163);"/>
            </g>
            <g transform="matrix(0.730664,0,0,1.38884,203.374,216.04)">
                <path d="M25.686,1.68C26.577,1.68 27.432,2.034 28.062,2.665C28.692,3.295 29.046,4.15 29.046,5.041C29.046,10.302 29.046,20.425 29.046,25.686C29.046,26.577 28.692,27.432 28.062,28.062C27.432,28.692 26.577,29.046 25.686,29.046C20.425,29.046 10.302,29.046 5.041,29.046C4.15,29.046 3.295,28.692 2.665,28.062C2.034,27.432 1.68,26.577 1.68,25.686C1.68,20.425 1.68,10.302 1.68,5.041C1.68,4.15 2.034,3.295 2.665,2.665C3.295,2.034 4.15,1.68 5.041,1.68C10.302,1.68 20.425,1.68 25.686,1.68Z" style="fill:white;"/>
                <path d="M25.686,1.68C26.577,1.68 27.432,2.034 28.062,2.665C28.692,3.295 29.046,4.15 29.046,5.041L29.046,25.686C29.046,26.577 28.692,27.432 28.062,28.062C27.432,28.692 26.577,29.046 25.686,29.046L5.041,29.046C4.15,29.046 3.295,28.692 2.665,28.062C2.034,27.432 1.68,26.577 1.68,25.686L1.68,5.041C1.68,4.15 2.034,3.295 2.665,2.665C3.295,2.034 4.15,1.68 5.041,1.68L25.686,1.68ZM25.686,2.361L5.041,2.361C4.33,2.361 3.649,2.643 3.146,3.146C2.643,3.649 2.361,4.33 2.361,5.041L2.361,25.686C2.361,26.397 2.643,27.078 3.146,27.581C3.649,28.083 4.33,28.366 5.041,28.366L25.686,28.366C26.397,28.366 27.078,28.084 27.581,27.581C28.083,27.078 28.366,26.397 28.366,25.686L28.366,5.041C28.366,4.33 28.083,3.649 27.581,3.146C27.078,2.643 26.397,2.361 25.686,2.361Z" style="fill:rgb(163,163,163);"/>
            </g>
            <g transform="matrix(0.730664,0,0,1.38884,136.021,130.691)">
                <path d="M25.686,1.68C26.577,1.68 27.432,2.034 28.062,2.665C28.692,3.295 29.046,4.15 29.046,5.041C29.046,10.302 29.046,20.425 29.046,25.686C29.046,26.577 28.692,27.432 28.062,28.062C27.432,28.692 26.577,29.046 25.686,29.046C20.425,29.046 10.302,29.046 5.041,29.046C4.15,29.046 3.295,28.692 2.665,28.062C2.034,27.432 1.68,26.577 1.68,25.686C1.68,20.425 1.68,10.302 1.68,5.041C1.68,4.15 2.034,3.295 2.665,2.665C3.295,2.034 4.15,1.68 5.041,1.68C10.302,1.68 20.425,1.68 25.686,1.68Z" style="fill:white;"/>
                <path d="M25.686,1.68C26.577,1.68 27.432,2.034 28.062,2.665C28.692,3.295 29.046,4.15 29.046,5.041L29.046,25.686C29.046,26.577 28.692,27.432 28.062,28.062C27.432,28.692 26.577,29.046 25.686,29.046L5.041,29.046C4.15,29.046 3.295,28.692 2.665,28.062C2.034,27.432 1.68,26.577 1.68,25.686L1.68,5.041C1.68,4.15 2.034,3.295 2.665,2.665C3.295,2.034 4.15,1.68 5.041,1.68L25.686,1.68ZM25.686,2.361L5.041,2.361C4.33,2.361 3.649,2.643 3.146,3.146C2.643,3.649 2.361,4.33 2.361,5.041L2.361,25.686C2.361,26.397 2.643,27.078 3.146,27.581C3.649,28.083 4.33,28.366 5.041,28.366L25.686,28.366C26.397,28.366 27.078,28.084 27.581,27.581C28.083,27.078 28.366,26.397 28.366,25.686L28.366,5.041C28.366,4.33 28.083,3.649 27.581,3.146C27.078,2.643 26.397,2.361 25.686,2.361Z" style="fill:rgb(163,163,163);"/>
            </g>
            <g transform="matrix(0.730664,0,0,1.38884,180.923,130.691)">
                <path d="M25.686,1.68C26.577,1.68 27.432,2.034 28.062,2.665C28.692,3.295 29.046,4.15 29.046,5.041C29.046,10.302 29.046,20.425 29.046,25.686C29.046,26.577 28.692,27.432 28.062,28.062C27.432,28.692 26.577,29.046 25.686,29.046C20.425,29.046 10.302,29.046 5.041,29.046C4.15,29.046 3.295,28.692 2.665,28.062C2.034,27.432 1.68,26.577 1.68,25.686C1.68,20.425 1.68,10.302 1.68,5.041C1.68,4.15 2.034,3.295 2.665,2.665C3.295,2.034 4.15,1.68 5.041,1.68C10.302,1.68 20.425,1.68 25.686,1.68Z" style="fill:white;"/>
                <path d="M25.686,1.68C26.577,1.68 27.432,2.034 28.062,2.665C28.692,3.295 29.046,4.15 29.046,5.041L29.046,25.686C29.046,26.577 28.692,27.432 28.062,28.062C27.432,28.692 26.577,29.046 25.686,29.046L5.041,29.046C4.15,29.046 3.295,28.692 2.665,28.062C2.034,27.432 1.68,26.577 1.68,25.686L1.68,5.041C1.68,4.15 2.034,3.295 2.665,2.665C3.295,2.034 4.15,1.68 5.041,1.68L25.686,1.68ZM25.686,2.361L5.041,2.361C4.33,2.361 3.649,2.643 3.146,3.146C2.643,3.649 2.361,4.33 2.361,5.041L2.361,25.686C2.361,26.397 2.643,27.078 3.146,27.581C3.649,28.083 4.33,28.366 5.041,28.366L25.686,28.366C26.397,28.366 27.078,28.084 27.581,27.581C28.083,27.078 28.366,26.397 28.366,25.686L28.366,5.041C28.366,4.33 28.083,3.649 27.581,3.146C27.078,2.643 26.397,2.361 25.686,2.361Z" style="fill:rgb(163,163,163);"/>
            </g>
            <g transform="matrix(0.730664,0,0,1.38884,203.374,130.691)">
                <path d="M25.686,1.68C26.577,1.68 27.432,2.034 28.062,2.665C28.692,3.295 29.046,4.15 29.046,5.041C29.046,10.302 29.046,20.425 29.046,25.686C29.046,26.577 28.692,27.432 28.062,28.062C27.432,28.692 26.577,29.046 25.686,29.046C20.425,29.046 10.302,29.046 5.041,29.046C4.15,29.046 3.295,28.692 2.665,28.062C2.034,27.432 1.68,26.577 1.68,25.686C1.68,20.425 1.68,10.302 1.68,5.041C1.68,4.15 2.034,3.295 2.665,2.665C3.295,2.034 4.15,1.68 5.041,1.68C10.302,1.68 20.425,1.68 25.686,1.68Z" style="fill:white;"/>
                <path d="M25.686,1.68C26.577,1.68 27.432,2.034 28.062,2.665C28.692,3.295 29.046,4.15 29.046,5.041L29.046,25.686C29.046,26.577 28.692,27.432 28.062,28.062C27.432,28.692 26.577,29.046 25.686,29.046L5.041,29.046C4.15,29.046 3.295,28.692 2.665,28.062C2.034,27.432 1.68,26.577 1.68,25.686L1.68,5.041C1.68,4.15 2.034,3.295 2.665,2.665C3.295,2.034 4.15,1.68 5.041,1.68L25.686,1.68ZM25.686,2.361L5.041,2.361C4.33,2.361 3.649,2.643 3.146,3.146C2.643,3.649 2.361,4.33 2.361,5.041L2.361,25.686C2.361,26.397 2.643,27.078 3.146,27.581C3.649,28.083 4.33,28.366 5.041,28.366L25.686,28.366C26.397,28.366 27.078,28.084 27.581,27.581C28.083,27.078 28.366,26.397 28.366,25.686L28.366,5.041C28.366,4.33 28.083,3.649 27.581,3.146C27.078,2.643 26.397,2.361 25.686,2.361Z" style="fill:rgb(163,163,163);"/>
            </g>
            <g transform="matrix(0.613893,0,0,1.16688,1.42109e-14,-305.648)">
                <path d="M166.759,319.657L166.759,392.222" style="fill:none;stroke:rgb(112,112,112);stroke-width:2.67px;"/>
            </g>
            <g transform="matrix(0.613893,0,0,1.16688,1.42109e-14,-305.648)">
                <path d="M20.242,282.508L56.709,282.508L57,355.65L93.571,355.65" style="fill:none;stroke:rgb(112,112,112);stroke-width:2.67px;"/>
            </g>
            <g transform="matrix(0.613893,0,0,1.16688,1.42109e-14,-305.648)">
                <path d="M130.235,391.808L93.512,391.808L93.512,355.65" style="fill:none;stroke:rgb(112,112,112);stroke-width:2.67px;"/>
            </g>
            <g transform="matrix(0.613893,0,0,1.16688,1.42109e-14,-305.648)">
                <path d="M93.512,355.65L93.512,319.079L166.759,319.079" style="fill:none;stroke:rgb(112,112,112);stroke-width:2.67px;"/>
            </g>
            <g transform="matrix(0.613893,0,0,1.16688,1.42109e-14,-305.648)">
                <path d="M203.283,391.975L238.593,391.975L238.593,428.793L276.429,428.793L276.429,465.365" style="fill:none;stroke:rgb(112,112,112);stroke-width:2.67px;"/>
            </g>
            <g transform="matrix(0.613893,0,0,1.16688,1.42109e-14,-305.648)">
                <path d="M275.941,282.31L275.941,319.657L239.856,319.657" style="fill:none;stroke:rgb(112,112,112);stroke-width:2.67px;"/>
            </g>
            <g transform="matrix(0.631105,0,0,1.1835,-5.3923,-310.961)">
                <path d="M313.288,355.307L276.959,355.307L276.959,319.657" style="fill:none;stroke:rgb(112,112,112);stroke-width:2.61px;"/>
            </g>
            <g transform="matrix(0.613893,0,0,1.16688,1.42109e-14,-305.648)">
                <path d="M130.235,391.808L203.283,391.808" style="fill:none;stroke:rgb(112,112,112);stroke-width:2.67px;"/>
            </g>
            <g transform="matrix(0.613893,0,0,1.16688,1.42109e-14,-305.648)">
                <path d="M166.75,319.317L240.359,319.317" style="fill:none;stroke:rgb(112,112,112);stroke-width:2.67px;"/>
            </g>
            <g transform="matrix(0.613893,0,0,1.16688,1.42109e-14,-305.648)">
                <path d="M240.63,319.861L240.63,355.714L203.554,355.714L203.554,392.222" style="fill:none;stroke:rgb(112,112,112);stroke-width:2.67px;"/>
            </g>
            <g transform="matrix(0.613893,0,0,1.16688,22.5387,-2657.35)">
                <circle cx="56.857" cy="2371.02" r="4.009" style="fill:rgb(163,163,163);"/>
                <path d="M56.857,2366.01C59.621,2366.01 61.866,2368.26 61.866,2371.02C61.866,2373.79 59.621,2376.03 56.857,2376.03C54.093,2376.03 51.849,2373.79 51.849,2371.02C51.849,2368.26 54.093,2366.01 56.857,2366.01ZM56.857,2367.01C54.645,2367.01 52.849,2368.81 52.849,2371.02C52.849,2373.23 54.645,2375.03 56.857,2375.03C59.069,2375.03 60.866,2373.23 60.866,2371.02C60.866,2368.81 59.069,2367.01 56.857,2367.01Z" style="fill:rgb(112,112,112);"/>
            </g>
            <g transform="matrix(0.613893,0,0,1.16688,67.4406,-2700.02)">
                <circle cx="56.857" cy="2371.02" r="4.009" style="fill:rgb(163,163,163);"/>
                <path d="M56.857,2366.01C59.621,2366.01 61.866,2368.26 61.866,2371.02C61.866,2373.79 59.621,2376.03 56.857,2376.03C54.093,2376.03 51.849,2373.79 51.849,2371.02C51.849,2368.26 54.093,2366.01 56.857,2366.01ZM56.857,2367.01C54.645,2367.01 52.849,2368.81 52.849,2371.02C52.849,2373.23 54.645,2375.03 56.857,2375.03C59.069,2375.03 60.866,2373.23 60.866,2371.02C60.866,2368.81 59.069,2367.01 56.857,2367.01Z" style="fill:rgb(112,112,112);"/>
            </g>
            <g transform="matrix(0.613893,0,0,1.16688,89.8916,-2614.67)">
                <circle cx="56.857" cy="2371.02" r="4.009" style="fill:rgb(163,163,163);"/>
                <path d="M56.857,2366.01C59.621,2366.01 61.866,2368.26 61.866,2371.02C61.866,2373.79 59.621,2376.03 56.857,2376.03C54.093,2376.03 51.849,2373.79 51.849,2371.02C51.849,2368.26 54.093,2366.01 56.857,2366.01ZM56.857,2367.01C54.645,2367.01 52.849,2368.81 52.849,2371.02C52.849,2373.23 54.645,2375.03 56.857,2375.03C59.069,2375.03 60.866,2373.23 60.866,2371.02C60.866,2368.81 59.069,2367.01 56.857,2367.01Z" style="fill:rgb(112,112,112);"/>
            </g>
            <g transform="matrix(0.613893,0,0,1.16688,44.9896,-2614.67)">
                <circle cx="56.857" cy="2371.02" r="4.009" style="fill:rgb(163,163,163);"/>
                <path d="M56.857,2366.01C59.621,2366.01 61.866,2368.26 61.866,2371.02C61.866,2373.79 59.621,2376.03 56.857,2376.03C54.093,2376.03 51.849,2373.79 51.849,2371.02C51.849,2368.26 54.093,2366.01 56.857,2366.01ZM56.857,2367.01C54.645,2367.01 52.849,2368.81 52.849,2371.02C52.849,2373.23 54.645,2375.03 56.857,2375.03C59.069,2375.03 60.866,2373.23 60.866,2371.02C60.866,2368.81 59.069,2367.01 56.857,2367.01Z" style="fill:rgb(112,112,112);"/>
            </g>
            <g transform="matrix(0.613893,0,0,1.16688,112.343,-2700.02)">
                <circle cx="56.857" cy="2371.02" r="4.009" style="fill:rgb(163,163,163);"/>
                <path d="M56.857,2366.01C59.621,2366.01 61.866,2368.26 61.866,2371.02C61.866,2373.79 59.621,2376.03 56.857,2376.03C54.093,2376.03 51.849,2373.79 51.849,2371.02C51.849,2368.26 54.093,2366.01 56.857,2366.01ZM56.857,2367.01C54.645,2367.01 52.849,2368.81 52.849,2371.02C52.849,2373.23 54.645,2375.03 56.857,2375.03C59.069,2375.03 60.866,2373.23 60.866,2371.02C60.866,2368.81 59.069,2367.01 56.857,2367.01Z" style="fill:rgb(112,112,112);"/>
            </g>
            <g transform="matrix(0.613893,0,0,1.16688,134.793,-2742.7)">
                <circle cx="56.857" cy="2371.02" r="4.009" style="fill:rgb(163,163,163);"/>
                <path d="M56.857,2366.01C59.621,2366.01 61.866,2368.26 61.866,2371.02C61.866,2373.79 59.621,2376.03 56.857,2376.03C54.093,2376.03 51.849,2373.79 51.849,2371.02C51.849,2368.26 54.093,2366.01 56.857,2366.01ZM56.857,2367.01C54.645,2367.01 52.849,2368.81 52.849,2371.02C52.849,2373.23 54.645,2375.03 56.857,2375.03C59.069,2375.03 60.866,2373.23 60.866,2371.02C60.866,2368.81 59.069,2367.01 56.857,2367.01Z" style="fill:rgb(112,112,112);"/>
            </g>
            <g transform="matrix(0.613893,0,0,1.16688,134.793,-2529.32)">
                <circle cx="56.857" cy="2371.02" r="4.009" style="fill:rgb(163,163,163);"/>
                <path d="M56.857,2366.01C59.621,2366.01 61.866,2368.26 61.866,2371.02C61.866,2373.79 59.621,2376.03 56.857,2376.03C54.093,2376.03 51.849,2373.79 51.849,2371.02C51.849,2368.26 54.093,2366.01 56.857,2366.01ZM56.857,2367.01C54.645,2367.01 52.849,2368.81 52.849,2371.02C52.849,2373.23 54.645,2375.03 56.857,2375.03C59.069,2375.03 60.866,2373.23 60.866,2371.02C60.866,2368.81 59.069,2367.01 56.857,2367.01Z" style="fill:rgb(112,112,112);"/>
            </g>
            <g transform="matrix(0.613893,0,0,1.16688,157.244,-2657.35)">
                <circle cx="56.857" cy="2371.02" r="4.009" style="fill:rgb(163,163,163);"/>
                <path d="M56.857,2366.01C59.621,2366.01 61.866,2368.26 61.866,2371.02C61.866,2373.79 59.621,2376.03 56.857,2376.03C54.093,2376.03 51.849,2373.79 51.849,2371.02C51.849,2368.26 54.093,2366.01 56.857,2366.01ZM56.857,2367.01C54.645,2367.01 52.849,2368.81 52.849,2371.02C52.849,2373.23 54.645,2375.03 56.857,2375.03C59.069,2375.03 60.866,2373.23 60.866,2371.02C60.866,2368.81 59.069,2367.01 56.857,2367.01Z" style="fill:rgb(112,112,112);"/>
            </g>
        </g>
    </g>
</svg>
