<?xml version="1.0" encoding="UTF-8" standalone="no"?>
<!DOCTYPE svg PUBLIC "-//W3C//DTD SVG 1.1//EN" "http://www.w3.org/Graphics/SVG/1.1/DTD/svg11.dtd">
<svg width="100%" height="100%" viewBox="0 0 370 224" version="1.1" xmlns="http://www.w3.org/2000/svg" xmlns:xlink="http://www.w3.org/1999/xlink" xml:space="preserve" xmlns:serif="http://www.serif.com/" style="fill-rule:evenodd;clip-rule:evenodd;stroke-linecap:round;stroke-miterlimit:10;">
    <g transform="matrix(1,0,0,1,0,-263.041)">
        <g id="IslandsConnections" transform="matrix(1.62895,0,0,0.856985,-2.31487e-14,263.041)">
            <rect x="0" y="0" width="227.141" height="261.381" style="fill:none;"/>
            <clipPath id="_clip1">
                <rect x="0" y="0" width="227.141" height="261.381"/>
            </clipPath>
            <g clip-path="url(#_clip1)">
                <g transform="matrix(0.613893,0,0,1.16688,1.42109e-14,0)">
                    <rect x="0" y="0" width="370" height="224" style="fill:rgb(250,250,250);"/>
                </g>
                <g transform="matrix(1.02913,0,0,1.02913,-7.96542,11.1177)">
                    <g transform="matrix(0.452238,0,0,0.859608,34.4292,19)">
                        <path d="M23.77,1.68C26.684,1.68 29.046,4.043 29.046,6.956L29.046,23.77C29.046,26.684 26.684,29.046 23.77,29.046C18.93,29.046 11.797,29.046 6.956,29.046C4.043,29.046 1.68,26.684 1.68,23.77C1.68,18.93 1.68,11.797 1.68,6.956C1.68,4.043 4.043,1.68 6.956,1.68C11.797,1.68 18.93,1.68 23.77,1.68Z" style="fill:white;"/>
                        <path d="M23.77,1.68C26.684,1.68 29.046,4.043 29.046,6.956L29.046,23.77C29.046,26.684 26.684,29.046 23.77,29.046L6.956,29.046C4.043,29.046 1.68,26.684 1.68,23.77L1.68,6.956C1.68,4.043 4.043,1.68 6.956,1.68L23.77,1.68ZM23.77,3.439L6.956,3.439C5.014,3.439 3.439,5.014 3.439,6.956L3.439,23.77C3.439,25.713 5.014,27.288 6.956,27.288L23.77,27.288C25.713,27.288 27.288,25.713 27.288,23.77L27.288,6.956C27.288,5.014 25.713,3.439 23.77,3.439Z" style="fill:rgb(163,163,163);"/>
                    </g>
                    <g transform="matrix(0.2285,3.01388e-15,-7.23157e-16,0.333104,-0.895302,-4.09821)">
                        <g transform="matrix(2.61058,-2.36201e-14,1.07727e-14,3.40389,37.7911,-20.128)">
                            <path d="M54.389,18.728L56.389,16.728L58.389,18.728" style="fill:none;stroke:rgb(204,204,204);stroke-width:1.33px;"/>
                            <path d="M56.389,26.53L56.389,16.728" style="fill:none;stroke:rgb(204,204,204);stroke-width:1.33px;stroke-linejoin:round;stroke-miterlimit:1.5;"/>
                        </g>
                    </g>
                    <g transform="matrix(0.161574,0.307117,-0.123917,0.23554,26.9838,-54.0683)">
                        <g transform="matrix(1.84596,-2.40692,1.84596,2.40692,10.8863,169.491)">
                            <path d="M71.894,19.599L74.723,19.599L74.723,22.427" style="fill:none;stroke:rgb(204,204,204);stroke-width:1.33px;"/>
                            <path d="M67.792,26.53C67.792,26.53 72.869,21.452 74.723,19.599" style="fill:none;stroke:rgb(204,204,204);stroke-width:1.33px;stroke-linejoin:round;stroke-miterlimit:1.5;"/>
                        </g>
                    </g>
                    <g transform="matrix(-0.161574,0.307117,-0.123917,-0.23554,86.1522,3.68104)">
                        <g transform="matrix(-1.84596,-2.40692,1.84596,-2.40692,219.071,347.136)">
                            <path d="M73.693,52.408L73.693,55.236L70.865,55.236" style="fill:none;stroke:rgb(204,204,204);stroke-width:1.33px;"/>
                            <path d="M66.763,48.306C66.763,48.306 71.84,53.383 73.693,55.236" style="fill:none;stroke:rgb(204,204,204);stroke-width:1.33px;stroke-linejoin:round;stroke-miterlimit:1.5;"/>
                        </g>
                    </g>
                    <g transform="matrix(-6.58334e-16,0.434329,-0.175245,-2.28212e-17,60.7839,-48.1444)">
                        <g transform="matrix(-1.78853e-16,-3.40389,2.61058,-9.80701e-15,85.975,302.684)">
                            <path d="M76.108,35.932L78.108,37.932L76.108,39.932" style="fill:none;stroke:rgb(204,204,204);stroke-width:1.33px;"/>
                            <path d="M68.307,37.932L78.108,37.932" style="fill:none;stroke:rgb(204,204,204);stroke-width:1.33px;stroke-linejoin:round;stroke-miterlimit:1.5;"/>
                        </g>
                    </g>
                </g>
                <g transform="matrix(1.02913,0,0,1.02913,-7.96542,55.55)">
                    <g transform="matrix(0.452238,0,0,0.859608,34.4292,19)">
                        <path d="M23.77,1.68C26.684,1.68 29.046,4.043 29.046,6.956L29.046,23.77C29.046,26.684 26.684,29.046 23.77,29.046C18.93,29.046 11.797,29.046 6.956,29.046C4.043,29.046 1.68,26.684 1.68,23.77C1.68,18.93 1.68,11.797 1.68,6.956C1.68,4.043 4.043,1.68 6.956,1.68C11.797,1.68 18.93,1.68 23.77,1.68Z" style="fill:white;"/>
                        <path d="M23.77,1.68C26.684,1.68 29.046,4.043 29.046,6.956L29.046,23.77C29.046,26.684 26.684,29.046 23.77,29.046L6.956,29.046C4.043,29.046 1.68,26.684 1.68,23.77L1.68,6.956C1.68,4.043 4.043,1.68 6.956,1.68L23.77,1.68ZM23.77,3.439L6.956,3.439C5.014,3.439 3.439,5.014 3.439,6.956L3.439,23.77C3.439,25.713 5.014,27.288 6.956,27.288L23.77,27.288C25.713,27.288 27.288,25.713 27.288,23.77L27.288,6.956C27.288,5.014 25.713,3.439 23.77,3.439Z" style="fill:rgb(163,163,163);"/>
                    </g>
                    <g transform="matrix(0.2285,3.01388e-15,-7.23157e-16,0.333104,-0.895302,-4.09821)">
                        <g transform="matrix(2.61058,-2.36201e-14,1.07727e-14,3.40389,37.7911,-149.741)">
                            <path d="M54.389,56.806L56.389,54.806L58.389,56.806" style="fill:none;stroke:rgb(51,51,51);stroke-width:1.33px;"/>
                            <path d="M56.389,64.607L56.389,54.806" style="fill:none;stroke:rgb(51,51,51);stroke-width:1.33px;stroke-linejoin:round;stroke-miterlimit:1.5;"/>
                        </g>
                    </g>
                    <g transform="matrix(0.161574,0.307117,-0.123917,0.23554,26.9838,-54.0683)">
                        <g transform="matrix(1.84596,-2.40692,1.84596,2.40692,-59.4038,77.8409)">
                            <path d="M71.894,57.677L74.723,57.677L74.723,60.505" style="fill:none;stroke:rgb(204,204,204);stroke-width:1.33px;"/>
                            <path d="M67.792,64.607C67.792,64.607 72.869,59.53 74.723,57.677" style="fill:none;stroke:rgb(204,204,204);stroke-width:1.33px;stroke-linejoin:round;stroke-miterlimit:1.5;"/>
                        </g>
                    </g>
                    <g transform="matrix(-0.161574,0.307117,-0.123917,-0.23554,86.1522,3.68104)">
                        <g transform="matrix(-1.84596,-2.40692,1.84596,-2.40692,148.781,438.787)">
                            <path d="M73.693,90.486L73.693,93.314L70.865,93.314" style="fill:none;stroke:rgb(51,51,51);stroke-width:1.33px;"/>
                            <path d="M66.763,86.384C66.763,86.384 71.84,91.461 73.693,93.314" style="fill:none;stroke:rgb(51,51,51);stroke-width:1.33px;stroke-linejoin:round;stroke-miterlimit:1.5;"/>
                        </g>
                    </g>
                    <g transform="matrix(-6.58334e-16,0.434329,-0.175245,-2.28212e-17,60.7839,-48.1444)">
                        <g transform="matrix(-1.78853e-16,-3.40389,2.61058,-9.80701e-15,-13.4302,302.684)">
                            <path d="M76.108,74.01L78.108,76.01L76.108,78.01" style="fill:none;stroke:rgb(204,204,204);stroke-width:1.33px;"/>
                            <path d="M68.307,76.01L78.108,76.01" style="fill:none;stroke:rgb(204,204,204);stroke-width:1.33px;stroke-linejoin:round;stroke-miterlimit:1.5;"/>
                        </g>
                    </g>
                </g>
                <g transform="matrix(1.02913,0,0,1.02913,-7.96542,144.415)">
                    <g transform="matrix(0.452238,0,0,0.859608,34.4292,19)">
                        <path d="M23.77,1.68C26.684,1.68 29.046,4.043 29.046,6.956L29.046,23.77C29.046,26.684 26.684,29.046 23.77,29.046C18.93,29.046 11.797,29.046 6.956,29.046C4.043,29.046 1.68,26.684 1.68,23.77C1.68,18.93 1.68,11.797 1.68,6.956C1.68,4.043 4.043,1.68 6.956,1.68C11.797,1.68 18.93,1.68 23.77,1.68Z" style="fill:white;"/>
                        <path d="M23.77,1.68C26.684,1.68 29.046,4.043 29.046,6.956L29.046,23.77C29.046,26.684 26.684,29.046 23.77,29.046L6.956,29.046C4.043,29.046 1.68,26.684 1.68,23.77L1.68,6.956C1.68,4.043 4.043,1.68 6.956,1.68L23.77,1.68ZM23.77,3.439L6.956,3.439C5.014,3.439 3.439,5.014 3.439,6.956L3.439,23.77C3.439,25.713 5.014,27.288 6.956,27.288L23.77,27.288C25.713,27.288 27.288,25.713 27.288,23.77L27.288,6.956C27.288,5.014 25.713,3.439 23.77,3.439Z" style="fill:rgb(163,163,163);"/>
                    </g>
                    <g transform="matrix(0.2285,3.01388e-15,-7.23157e-16,0.333104,-0.895302,-4.09821)">
                        <g transform="matrix(2.61058,-2.36201e-14,1.07727e-14,3.40389,37.7911,-408.967)">
                            <path d="M54.389,132.962L56.389,130.962L58.389,132.962" style="fill:none;stroke:rgb(204,204,204);stroke-width:1.33px;"/>
                            <path d="M56.389,140.763L56.389,130.962" style="fill:none;stroke:rgb(204,204,204);stroke-width:1.33px;stroke-linejoin:round;stroke-miterlimit:1.5;"/>
                        </g>
                    </g>
                    <g transform="matrix(0.161574,0.307117,-0.123917,0.23554,26.9838,-54.0683)">
                        <g transform="matrix(1.84596,-2.40692,1.84596,2.40692,-199.984,-105.46)">
                            <path d="M71.894,133.833L74.723,133.833L74.723,136.661" style="fill:none;stroke:rgb(204,204,204);stroke-width:1.33px;"/>
                            <path d="M67.792,140.763C67.792,140.763 72.869,135.686 74.723,133.833" style="fill:none;stroke:rgb(204,204,204);stroke-width:1.33px;stroke-linejoin:round;stroke-miterlimit:1.5;"/>
                        </g>
                    </g>
                    <g transform="matrix(-0.161574,0.307117,-0.123917,-0.23554,86.1522,3.68104)">
                        <g transform="matrix(-1.84596,-2.40692,1.84596,-2.40692,8.20085,622.087)">
                            <path d="M73.693,166.641L73.693,169.47L70.865,169.47" style="fill:none;stroke:rgb(204,204,204);stroke-width:1.33px;"/>
                            <path d="M66.763,162.539C66.763,162.539 71.84,167.617 73.693,169.47" style="fill:none;stroke:rgb(204,204,204);stroke-width:1.33px;stroke-linejoin:round;stroke-miterlimit:1.5;"/>
                        </g>
                    </g>
                    <g transform="matrix(-6.58334e-16,0.434329,-0.175245,-2.28212e-17,60.7839,-48.1444)">
                        <g transform="matrix(-1.78853e-16,-3.40389,2.61058,-9.80701e-15,-212.241,302.684)">
                            <path d="M76.108,150.166L78.108,152.166L76.108,154.166" style="fill:none;stroke:rgb(51,51,51);stroke-width:1.33px;"/>
                            <path d="M68.307,152.166L78.108,152.166" style="fill:none;stroke:rgb(51,51,51);stroke-width:1.33px;stroke-linejoin:round;stroke-miterlimit:1.5;"/>
                        </g>
                    </g>
                </g>
                <g transform="matrix(1.02913,0,0,1.02913,-7.96542,188.847)">
                    <g transform="matrix(0.452238,0,0,0.859608,34.4292,19)">
                        <path d="M23.77,1.68C26.684,1.68 29.046,4.043 29.046,6.956L29.046,23.77C29.046,26.684 26.684,29.046 23.77,29.046C18.93,29.046 11.797,29.046 6.956,29.046C4.043,29.046 1.68,26.684 1.68,23.77C1.68,18.93 1.68,11.797 1.68,6.956C1.68,4.043 4.043,1.68 6.956,1.68C11.797,1.68 18.93,1.68 23.77,1.68Z" style="fill:white;"/>
                        <path d="M23.77,1.68C26.684,1.68 29.046,4.043 29.046,6.956L29.046,23.77C29.046,26.684 26.684,29.046 23.77,29.046L6.956,29.046C4.043,29.046 1.68,26.684 1.68,23.77L1.68,6.956C1.68,4.043 4.043,1.68 6.956,1.68L23.77,1.68ZM23.77,3.439L6.956,3.439C5.014,3.439 3.439,5.014 3.439,6.956L3.439,23.77C3.439,25.713 5.014,27.288 6.956,27.288L23.77,27.288C25.713,27.288 27.288,25.713 27.288,23.77L27.288,6.956C27.288,5.014 25.713,3.439 23.77,3.439Z" style="fill:rgb(163,163,163);"/>
                    </g>
                    <g transform="matrix(0.2285,3.01388e-15,-7.23157e-16,0.333104,-0.895302,-4.09821)">
                        <g transform="matrix(2.61058,-2.36201e-14,1.07727e-14,3.40389,37.7911,-538.58)">
                            <path d="M54.389,171.04L56.389,169.04L58.389,171.04" style="fill:none;stroke:rgb(51,51,51);stroke-width:1.33px;"/>
                            <path d="M56.389,178.841L56.389,169.04" style="fill:none;stroke:rgb(51,51,51);stroke-width:1.33px;stroke-linejoin:round;stroke-miterlimit:1.5;"/>
                        </g>
                    </g>
                    <g transform="matrix(0.161574,0.307117,-0.123917,0.23554,26.9838,-54.0683)">
                        <g transform="matrix(1.84596,-2.40692,1.84596,2.40692,-270.274,-197.11)">
                            <path d="M71.894,171.911L74.723,171.911L74.723,174.739" style="fill:none;stroke:rgb(204,204,204);stroke-width:1.33px;"/>
                            <path d="M67.792,178.841C67.792,178.841 72.869,173.764 74.723,171.911" style="fill:none;stroke:rgb(204,204,204);stroke-width:1.33px;stroke-linejoin:round;stroke-miterlimit:1.5;"/>
                        </g>
                    </g>
                    <g transform="matrix(-0.161574,0.307117,-0.123917,-0.23554,86.1522,3.68104)">
                        <g transform="matrix(-1.84596,-2.40692,1.84596,-2.40692,-62.0893,713.737)">
                            <path d="M73.693,204.719L73.693,207.548L70.865,207.548" style="fill:none;stroke:rgb(204,204,204);stroke-width:1.33px;"/>
                            <path d="M66.763,200.617C66.763,200.617 71.84,205.695 73.693,207.548" style="fill:none;stroke:rgb(204,204,204);stroke-width:1.33px;stroke-linejoin:round;stroke-miterlimit:1.5;"/>
                        </g>
                    </g>
                    <g transform="matrix(-6.58334e-16,0.434329,-0.175245,-2.28212e-17,60.7839,-48.1444)">
                        <g transform="matrix(-1.78853e-16,-3.40389,2.61058,-9.80701e-15,-311.646,302.684)">
                            <path d="M76.108,188.244L78.108,190.244L76.108,192.244" style="fill:none;stroke:rgb(51,51,51);stroke-width:1.33px;"/>
                            <path d="M68.307,190.244L78.108,190.244" style="fill:none;stroke:rgb(51,51,51);stroke-width:1.33px;stroke-linejoin:round;stroke-miterlimit:1.5;"/>
                        </g>
                    </g>
                </g>
                <g transform="matrix(1.02913,0,0,1.02913,13.515,99.9824)">
                    <g transform="matrix(0.452238,0,0,0.859608,34.4292,19)">
                        <path d="M23.77,1.68C26.684,1.68 29.046,4.043 29.046,6.956L29.046,23.77C29.046,26.684 26.684,29.046 23.77,29.046C18.93,29.046 11.797,29.046 6.956,29.046C4.043,29.046 1.68,26.684 1.68,23.77C1.68,18.93 1.68,11.797 1.68,6.956C1.68,4.043 4.043,1.68 6.956,1.68C11.797,1.68 18.93,1.68 23.77,1.68Z" style="fill:white;"/>
                        <path d="M23.77,1.68C26.684,1.68 29.046,4.043 29.046,6.956L29.046,23.77C29.046,26.684 26.684,29.046 23.77,29.046L6.956,29.046C4.043,29.046 1.68,26.684 1.68,23.77L1.68,6.956C1.68,4.043 4.043,1.68 6.956,1.68L23.77,1.68ZM23.77,3.439L6.956,3.439C5.014,3.439 3.439,5.014 3.439,6.956L3.439,23.77C3.439,25.713 5.014,27.288 6.956,27.288L23.77,27.288C25.713,27.288 27.288,25.713 27.288,23.77L27.288,6.956C27.288,5.014 25.713,3.439 23.77,3.439Z" style="fill:rgb(163,163,163);"/>
                    </g>
                    <g transform="matrix(0.2285,3.01388e-15,-7.23157e-16,0.333104,-0.895302,-4.09821)">
                        <g transform="matrix(2.61058,-2.36201e-14,1.07727e-14,3.40389,-53.5543,-279.354)">
                            <path d="M89.38,94.884L91.38,92.884L93.38,94.884" style="fill:none;stroke:rgb(204,204,204);stroke-width:1.33px;"/>
                            <path d="M91.38,102.685L91.38,92.884" style="fill:none;stroke:rgb(204,204,204);stroke-width:1.33px;stroke-linejoin:round;stroke-miterlimit:1.5;"/>
                        </g>
                    </g>
                    <g transform="matrix(0.161574,0.307117,-0.123917,0.23554,26.9838,-54.0683)">
                        <g transform="matrix(1.84596,-2.40692,1.84596,2.40692,-194.285,70.4098)">
                            <path d="M106.885,95.755L109.713,95.755L109.713,98.583" style="fill:none;stroke:rgb(204,204,204);stroke-width:1.33px;"/>
                            <path d="M102.783,102.685C102.783,102.685 107.86,97.608 109.713,95.755" style="fill:none;stroke:rgb(204,204,204);stroke-width:1.33px;stroke-linejoin:round;stroke-miterlimit:1.5;"/>
                        </g>
                    </g>
                    <g transform="matrix(-0.161574,0.307117,-0.123917,-0.23554,86.1522,3.68104)">
                        <g transform="matrix(-1.84596,-2.40692,1.84596,-2.40692,143.082,614.656)">
                            <path d="M108.684,128.564L108.684,131.392L105.856,131.392" style="fill:none;stroke:rgb(204,204,204);stroke-width:1.33px;"/>
                            <path d="M101.753,124.462C101.753,124.462 106.831,129.539 108.684,131.392" style="fill:none;stroke:rgb(204,204,204);stroke-width:1.33px;stroke-linejoin:round;stroke-miterlimit:1.5;"/>
                        </g>
                    </g>
                    <g transform="matrix(-6.58334e-16,0.434329,-0.175245,-2.28212e-17,60.7839,-48.1444)">
                        <g transform="matrix(-1.78853e-16,-3.40389,2.61058,-9.80701e-15,-112.835,421.788)">
                            <path d="M111.098,112.088L113.098,114.088L111.098,116.088" style="fill:none;stroke:rgb(204,204,204);stroke-width:1.33px;"/>
                            <path d="M103.297,114.088L113.098,114.088" style="fill:none;stroke:rgb(204,204,204);stroke-width:1.33px;stroke-linejoin:round;stroke-miterlimit:1.5;"/>
                        </g>
                    </g>
                </g>
                <g transform="matrix(1.02913,0,0,1.02913,13.515,144.415)">
                    <g transform="matrix(0.452238,0,0,0.859608,34.4292,19)">
                        <path d="M23.77,1.68C26.684,1.68 29.046,4.043 29.046,6.956L29.046,23.77C29.046,26.684 26.684,29.046 23.77,29.046C18.93,29.046 11.797,29.046 6.956,29.046C4.043,29.046 1.68,26.684 1.68,23.77C1.68,18.93 1.68,11.797 1.68,6.956C1.68,4.043 4.043,1.68 6.956,1.68C11.797,1.68 18.93,1.68 23.77,1.68Z" style="fill:white;"/>
                        <path d="M23.77,1.68C26.684,1.68 29.046,4.043 29.046,6.956L29.046,23.77C29.046,26.684 26.684,29.046 23.77,29.046L6.956,29.046C4.043,29.046 1.68,26.684 1.68,23.77L1.68,6.956C1.68,4.043 4.043,1.68 6.956,1.68L23.77,1.68ZM23.77,3.439L6.956,3.439C5.014,3.439 3.439,5.014 3.439,6.956L3.439,23.77C3.439,25.713 5.014,27.288 6.956,27.288L23.77,27.288C25.713,27.288 27.288,25.713 27.288,23.77L27.288,6.956C27.288,5.014 25.713,3.439 23.77,3.439Z" style="fill:rgb(163,163,163);"/>
                    </g>
                    <g transform="matrix(0.2285,3.01388e-15,-7.23157e-16,0.333104,-0.895302,-4.09821)">
                        <g transform="matrix(2.61058,-2.36201e-14,1.07727e-14,3.40389,-53.5543,-408.967)">
                            <path d="M89.38,132.962L91.38,130.962L93.38,132.962" style="fill:none;stroke:rgb(51,51,51);stroke-width:1.33px;"/>
                            <path d="M91.38,140.763L91.38,130.962" style="fill:none;stroke:rgb(51,51,51);stroke-width:1.33px;stroke-linejoin:round;stroke-miterlimit:1.5;"/>
                        </g>
                    </g>
                    <g transform="matrix(0.161574,0.307117,-0.123917,0.23554,26.9838,-54.0683)">
                        <g transform="matrix(1.84596,-2.40692,1.84596,2.40692,-264.575,-21.2404)">
                            <path d="M106.885,133.833L109.713,133.833L109.713,136.661" style="fill:none;stroke:rgb(204,204,204);stroke-width:1.33px;"/>
                            <path d="M102.783,140.763C102.783,140.763 107.86,135.686 109.713,133.833" style="fill:none;stroke:rgb(204,204,204);stroke-width:1.33px;stroke-linejoin:round;stroke-miterlimit:1.5;"/>
                        </g>
                    </g>
                    <g transform="matrix(-0.161574,0.307117,-0.123917,-0.23554,86.1522,3.68104)">
                        <g transform="matrix(-1.84596,-2.40692,1.84596,-2.40692,72.7918,706.306)">
                            <path d="M108.684,166.641L108.684,169.47L105.856,169.47" style="fill:none;stroke:rgb(204,204,204);stroke-width:1.33px;"/>
                            <path d="M101.753,162.539C101.753,162.539 106.831,167.617 108.684,169.47" style="fill:none;stroke:rgb(204,204,204);stroke-width:1.33px;stroke-linejoin:round;stroke-miterlimit:1.5;"/>
                        </g>
                    </g>
                    <g transform="matrix(-6.58334e-16,0.434329,-0.175245,-2.28212e-17,60.7839,-48.1444)">
                        <g transform="matrix(-1.78853e-16,-3.40389,2.61058,-9.80701e-15,-212.241,421.788)">
                            <path d="M111.098,150.166L113.098,152.166L111.098,154.166" style="fill:none;stroke:rgb(51,51,51);stroke-width:1.33px;"/>
                            <path d="M103.297,152.166L113.098,152.166" style="fill:none;stroke:rgb(51,51,51);stroke-width:1.33px;stroke-linejoin:round;stroke-miterlimit:1.5;"/>
                        </g>
                    </g>
                </g>
                <g transform="matrix(1.02913,0,0,1.02913,13.515,188.847)">
                    <g transform="matrix(0.452238,0,0,0.859608,34.4292,19)">
                        <path d="M23.77,1.68C26.684,1.68 29.046,4.043 29.046,6.956L29.046,23.77C29.046,26.684 26.684,29.046 23.77,29.046C18.93,29.046 11.797,29.046 6.956,29.046C4.043,29.046 1.68,26.684 1.68,23.77C1.68,18.93 1.68,11.797 1.68,6.956C1.68,4.043 4.043,1.68 6.956,1.68C11.797,1.68 18.93,1.68 23.77,1.68Z" style="fill:white;"/>
                        <path d="M23.77,1.68C26.684,1.68 29.046,4.043 29.046,6.956L29.046,23.77C29.046,26.684 26.684,29.046 23.77,29.046L6.956,29.046C4.043,29.046 1.68,26.684 1.68,23.77L1.68,6.956C1.68,4.043 4.043,1.68 6.956,1.68L23.77,1.68ZM23.77,3.439L6.956,3.439C5.014,3.439 3.439,5.014 3.439,6.956L3.439,23.77C3.439,25.713 5.014,27.288 6.956,27.288L23.77,27.288C25.713,27.288 27.288,25.713 27.288,23.77L27.288,6.956C27.288,5.014 25.713,3.439 23.77,3.439Z" style="fill:rgb(163,163,163);"/>
                    </g>
                    <g transform="matrix(0.2285,3.01388e-15,-7.23157e-16,0.333104,-0.895302,-4.09821)">
                        <g transform="matrix(2.61058,-2.36201e-14,1.07727e-14,3.40389,-53.5543,-538.58)">
                            <path d="M89.38,171.04L91.38,169.04L93.38,171.04" style="fill:none;stroke:rgb(51,51,51);stroke-width:1.33px;"/>
                            <path d="M91.38,178.841L91.38,169.04" style="fill:none;stroke:rgb(51,51,51);stroke-width:1.33px;stroke-linejoin:round;stroke-miterlimit:1.5;"/>
                        </g>
                    </g>
                    <g transform="matrix(0.161574,0.307117,-0.123917,0.23554,26.9838,-54.0683)">
                        <g transform="matrix(1.84596,-2.40692,1.84596,2.40692,-334.865,-112.891)">
                            <path d="M106.885,171.911L109.713,171.911L109.713,174.739" style="fill:none;stroke:rgb(204,204,204);stroke-width:1.33px;"/>
                            <path d="M102.783,178.841C102.783,178.841 107.86,173.764 109.713,171.911" style="fill:none;stroke:rgb(204,204,204);stroke-width:1.33px;stroke-linejoin:round;stroke-miterlimit:1.5;"/>
                        </g>
                    </g>
                    <g transform="matrix(-0.161574,0.307117,-0.123917,-0.23554,86.1522,3.68104)">
                        <g transform="matrix(-1.84596,-2.40692,1.84596,-2.40692,2.50165,797.956)">
                            <path d="M108.684,204.719L108.684,207.548L105.856,207.548" style="fill:none;stroke:rgb(204,204,204);stroke-width:1.33px;"/>
                            <path d="M101.753,200.617C101.753,200.617 106.831,205.695 108.684,207.548" style="fill:none;stroke:rgb(204,204,204);stroke-width:1.33px;stroke-linejoin:round;stroke-miterlimit:1.5;"/>
                        </g>
                    </g>
                    <g transform="matrix(-6.58334e-16,0.434329,-0.175245,-2.28212e-17,60.7839,-48.1444)">
                        <g transform="matrix(-1.78853e-16,-3.40389,2.61058,-9.80701e-15,-311.646,421.788)">
                            <path d="M111.098,188.244L113.098,190.244L111.098,192.244" style="fill:none;stroke:rgb(204,204,204);stroke-width:1.33px;"/>
                            <path d="M103.297,190.244L113.098,190.244" style="fill:none;stroke:rgb(204,204,204);stroke-width:1.33px;stroke-linejoin:round;stroke-miterlimit:1.5;"/>
                        </g>
                    </g>
                </g>
                <g transform="matrix(1.02913,0,0,1.02913,34.9954,55.55)">
                    <g transform="matrix(0.452238,0,0,0.859608,34.4292,19)">
                        <path d="M23.77,1.68C26.684,1.68 29.046,4.043 29.046,6.956L29.046,23.77C29.046,26.684 26.684,29.046 23.77,29.046C18.93,29.046 11.797,29.046 6.956,29.046C4.043,29.046 1.68,26.684 1.68,23.77C1.68,18.93 1.68,11.797 1.68,6.956C1.68,4.043 4.043,1.68 6.956,1.68C11.797,1.68 18.93,1.68 23.77,1.68Z" style="fill:white;"/>
                        <path d="M23.77,1.68C26.684,1.68 29.046,4.043 29.046,6.956L29.046,23.77C29.046,26.684 26.684,29.046 23.77,29.046L6.956,29.046C4.043,29.046 1.68,26.684 1.68,23.77L1.68,6.956C1.68,4.043 4.043,1.68 6.956,1.68L23.77,1.68ZM23.77,3.439L6.956,3.439C5.014,3.439 3.439,5.014 3.439,6.956L3.439,23.77C3.439,25.713 5.014,27.288 6.956,27.288L23.77,27.288C25.713,27.288 27.288,25.713 27.288,23.77L27.288,6.956C27.288,5.014 25.713,3.439 23.77,3.439Z" style="fill:rgb(163,163,163);"/>
                    </g>
                    <g transform="matrix(0.2285,3.01388e-15,-7.23157e-16,0.333104,-0.895302,-4.09821)">
                        <g transform="matrix(2.61058,-2.36201e-14,1.07727e-14,3.40389,-144.9,-149.741)">
                            <path d="M124.37,56.806L126.37,54.806L128.37,56.806" style="fill:none;stroke:rgb(204,204,204);stroke-width:1.33px;"/>
                            <path d="M126.37,64.607L126.37,54.806" style="fill:none;stroke:rgb(204,204,204);stroke-width:1.33px;stroke-linejoin:round;stroke-miterlimit:1.5;"/>
                        </g>
                    </g>
                    <g transform="matrix(0.161574,0.307117,-0.123917,0.23554,26.9838,-54.0683)">
                        <g transform="matrix(1.84596,-2.40692,1.84596,2.40692,-188.586,246.279)">
                            <path d="M141.875,57.677L144.704,57.677L144.704,60.505" style="fill:none;stroke:rgb(204,204,204);stroke-width:1.33px;"/>
                            <path d="M137.773,64.607C137.773,64.607 142.85,59.53 144.704,57.677" style="fill:none;stroke:rgb(204,204,204);stroke-width:1.33px;stroke-linejoin:round;stroke-miterlimit:1.5;"/>
                        </g>
                    </g>
                    <g transform="matrix(-0.161574,0.307117,-0.123917,-0.23554,86.1522,3.68104)">
                        <g transform="matrix(-1.84596,-2.40692,1.84596,-2.40692,277.963,607.225)">
                            <path d="M143.674,90.486L143.674,93.314L140.846,93.314" style="fill:none;stroke:rgb(204,204,204);stroke-width:1.33px;"/>
                            <path d="M136.744,86.384C136.744,86.384 141.821,91.461 143.674,93.314" style="fill:none;stroke:rgb(204,204,204);stroke-width:1.33px;stroke-linejoin:round;stroke-miterlimit:1.5;"/>
                        </g>
                    </g>
                    <g transform="matrix(-6.58334e-16,0.434329,-0.175245,-2.28212e-17,60.7839,-48.1444)">
                        <g transform="matrix(-1.78853e-16,-3.40389,2.61058,-9.80701e-15,-13.4302,540.892)">
                            <path d="M146.089,74.01L148.089,76.01L146.089,78.01" style="fill:none;stroke:rgb(51,51,51);stroke-width:1.33px;"/>
                            <path d="M138.288,76.01L148.089,76.01" style="fill:none;stroke:rgb(51,51,51);stroke-width:1.33px;stroke-linejoin:round;stroke-miterlimit:1.5;"/>
                        </g>
                    </g>
                </g>
                <g transform="matrix(1.02913,0,0,1.02913,34.9954,144.415)">
                    <g transform="matrix(0.452238,0,0,0.859608,34.4292,19)">
                        <path d="M23.77,1.68C26.684,1.68 29.046,4.043 29.046,6.956L29.046,23.77C29.046,26.684 26.684,29.046 23.77,29.046C18.93,29.046 11.797,29.046 6.956,29.046C4.043,29.046 1.68,26.684 1.68,23.77C1.68,18.93 1.68,11.797 1.68,6.956C1.68,4.043 4.043,1.68 6.956,1.68C11.797,1.68 18.93,1.68 23.77,1.68Z" style="fill:white;"/>
                        <path d="M23.77,1.68C26.684,1.68 29.046,4.043 29.046,6.956L29.046,23.77C29.046,26.684 26.684,29.046 23.77,29.046L6.956,29.046C4.043,29.046 1.68,26.684 1.68,23.77L1.68,6.956C1.68,4.043 4.043,1.68 6.956,1.68L23.77,1.68ZM23.77,3.439L6.956,3.439C5.014,3.439 3.439,5.014 3.439,6.956L3.439,23.77C3.439,25.713 5.014,27.288 6.956,27.288L23.77,27.288C25.713,27.288 27.288,25.713 27.288,23.77L27.288,6.956C27.288,5.014 25.713,3.439 23.77,3.439Z" style="fill:rgb(163,163,163);"/>
                    </g>
                    <g transform="matrix(0.2285,3.01388e-15,-7.23157e-16,0.333104,-0.895302,-4.09821)">
                        <g transform="matrix(2.61058,-2.36201e-14,1.07727e-14,3.40389,-144.9,-408.967)">
                            <path d="M124.37,132.962L126.37,130.962L128.37,132.962" style="fill:none;stroke:rgb(204,204,204);stroke-width:1.33px;"/>
                            <path d="M126.37,140.763L126.37,130.962" style="fill:none;stroke:rgb(204,204,204);stroke-width:1.33px;stroke-linejoin:round;stroke-miterlimit:1.5;"/>
                        </g>
                    </g>
                    <g transform="matrix(0.161574,0.307117,-0.123917,0.23554,26.9838,-54.0683)">
                        <g transform="matrix(1.84596,-2.40692,1.84596,2.40692,-329.166,62.9787)">
                            <path d="M141.875,133.833L144.704,133.833L144.704,136.661" style="fill:none;stroke:rgb(204,204,204);stroke-width:1.33px;"/>
                            <path d="M137.773,140.763C137.773,140.763 142.85,135.686 144.704,133.833" style="fill:none;stroke:rgb(204,204,204);stroke-width:1.33px;stroke-linejoin:round;stroke-miterlimit:1.5;"/>
                        </g>
                    </g>
                    <g transform="matrix(-0.161574,0.307117,-0.123917,-0.23554,86.1522,3.68104)">
                        <g transform="matrix(-1.84596,-2.40692,1.84596,-2.40692,137.383,790.525)">
                            <path d="M143.674,166.641L143.674,169.47L140.846,169.47" style="fill:none;stroke:rgb(204,204,204);stroke-width:1.33px;"/>
                            <path d="M136.744,162.539C136.744,162.539 141.821,167.617 143.674,169.47" style="fill:none;stroke:rgb(204,204,204);stroke-width:1.33px;stroke-linejoin:round;stroke-miterlimit:1.5;"/>
                        </g>
                    </g>
                    <g transform="matrix(-6.58334e-16,0.434329,-0.175245,-2.28212e-17,60.7839,-48.1444)">
                        <g transform="matrix(-1.78853e-16,-3.40389,2.61058,-9.80701e-15,-212.241,540.892)">
                            <path d="M146.089,150.166L148.089,152.166L146.089,154.166" style="fill:none;stroke:rgb(51,51,51);stroke-width:1.33px;"/>
                            <path d="M138.288,152.166L148.089,152.166" style="fill:none;stroke:rgb(51,51,51);stroke-width:1.33px;stroke-linejoin:round;stroke-miterlimit:1.5;"/>
                        </g>
                    </g>
                </g>
                <g transform="matrix(1.02913,0,0,1.02913,56.4759,11.1177)">
                    <g transform="matrix(0.452238,0,0,0.859608,34.4292,19)">
                        <path d="M23.77,1.68C26.684,1.68 29.046,4.043 29.046,6.956L29.046,23.77C29.046,26.684 26.684,29.046 23.77,29.046C18.93,29.046 11.797,29.046 6.956,29.046C4.043,29.046 1.68,26.684 1.68,23.77C1.68,18.93 1.68,11.797 1.68,6.956C1.68,4.043 4.043,1.68 6.956,1.68C11.797,1.68 18.93,1.68 23.77,1.68Z" style="fill:white;"/>
                        <path d="M23.77,1.68C26.684,1.68 29.046,4.043 29.046,6.956L29.046,23.77C29.046,26.684 26.684,29.046 23.77,29.046L6.956,29.046C4.043,29.046 1.68,26.684 1.68,23.77L1.68,6.956C1.68,4.043 4.043,1.68 6.956,1.68L23.77,1.68ZM23.77,3.439L6.956,3.439C5.014,3.439 3.439,5.014 3.439,6.956L3.439,23.77C3.439,25.713 5.014,27.288 6.956,27.288L23.77,27.288C25.713,27.288 27.288,25.713 27.288,23.77L27.288,6.956C27.288,5.014 25.713,3.439 23.77,3.439Z" style="fill:rgb(163,163,163);"/>
                    </g>
                    <g transform="matrix(0.2285,3.01388e-15,-7.23157e-16,0.333104,-0.895302,-4.09821)">
                        <g transform="matrix(2.61058,-2.36201e-14,1.07727e-14,3.40389,-236.245,-20.128)">
                            <path d="M159.361,18.728L161.361,16.728L163.361,18.728" style="fill:none;stroke:rgb(204,204,204);stroke-width:1.33px;"/>
                            <path d="M161.361,26.53L161.361,16.728" style="fill:none;stroke:rgb(204,204,204);stroke-width:1.33px;stroke-linejoin:round;stroke-miterlimit:1.5;"/>
                        </g>
                    </g>
                    <g transform="matrix(0.161574,0.307117,-0.123917,0.23554,26.9838,-54.0683)">
                        <g transform="matrix(1.84596,-2.40692,1.84596,2.40692,-182.886,422.149)">
                            <path d="M176.866,19.599L179.694,19.599L179.694,22.427" style="fill:none;stroke:rgb(204,204,204);stroke-width:1.33px;"/>
                            <path d="M172.764,26.53C172.764,26.53 177.841,21.452 179.694,19.599" style="fill:none;stroke:rgb(204,204,204);stroke-width:1.33px;stroke-linejoin:round;stroke-miterlimit:1.5;"/>
                        </g>
                    </g>
                    <g transform="matrix(-0.161574,0.307117,-0.123917,-0.23554,86.1522,3.68104)">
                        <g transform="matrix(-1.84596,-2.40692,1.84596,-2.40692,412.844,599.794)">
                            <path d="M178.665,52.408L178.665,55.236L175.837,55.236" style="fill:none;stroke:rgb(204,204,204);stroke-width:1.33px;"/>
                            <path d="M171.734,48.306C171.734,48.306 176.812,53.383 178.665,55.236" style="fill:none;stroke:rgb(204,204,204);stroke-width:1.33px;stroke-linejoin:round;stroke-miterlimit:1.5;"/>
                        </g>
                    </g>
                    <g transform="matrix(-6.58334e-16,0.434329,-0.175245,-2.28212e-17,60.7839,-48.1444)">
                        <g transform="matrix(-1.78853e-16,-3.40389,2.61058,-9.80701e-15,85.975,659.996)">
                            <path d="M181.079,35.932L183.079,37.932L181.079,39.932" style="fill:none;stroke:rgb(51,51,51);stroke-width:1.33px;"/>
                            <path d="M173.278,37.932L183.079,37.932" style="fill:none;stroke:rgb(51,51,51);stroke-width:1.33px;stroke-linejoin:round;stroke-miterlimit:1.5;"/>
                        </g>
                    </g>
                </g>
                <g transform="matrix(1.02913,0,0,1.02913,56.4759,55.55)">
                    <g transform="matrix(0.452238,0,0,0.859608,34.4292,19)">
                        <path d="M23.77,1.68C26.684,1.68 29.046,4.043 29.046,6.956L29.046,23.77C29.046,26.684 26.684,29.046 23.77,29.046C18.93,29.046 11.797,29.046 6.956,29.046C4.043,29.046 1.68,26.684 1.68,23.77C1.68,18.93 1.68,11.797 1.68,6.956C1.68,4.043 4.043,1.68 6.956,1.68C11.797,1.68 18.93,1.68 23.77,1.68Z" style="fill:white;"/>
                        <path d="M23.77,1.68C26.684,1.68 29.046,4.043 29.046,6.956L29.046,23.77C29.046,26.684 26.684,29.046 23.77,29.046L6.956,29.046C4.043,29.046 1.68,26.684 1.68,23.77L1.68,6.956C1.68,4.043 4.043,1.68 6.956,1.68L23.77,1.68ZM23.77,3.439L6.956,3.439C5.014,3.439 3.439,5.014 3.439,6.956L3.439,23.77C3.439,25.713 5.014,27.288 6.956,27.288L23.77,27.288C25.713,27.288 27.288,25.713 27.288,23.77L27.288,6.956C27.288,5.014 25.713,3.439 23.77,3.439Z" style="fill:rgb(163,163,163);"/>
                    </g>
                    <g transform="matrix(0.2285,3.01388e-15,-7.23157e-16,0.333104,-0.895302,-4.09821)">
                        <g transform="matrix(2.61058,-2.36201e-14,1.07727e-14,3.40389,-236.245,-149.741)">
                            <path d="M159.361,56.806L161.361,54.806L163.361,56.806" style="fill:none;stroke:rgb(51,51,51);stroke-width:1.33px;"/>
                            <path d="M161.361,64.607L161.361,54.806" style="fill:none;stroke:rgb(51,51,51);stroke-width:1.33px;stroke-linejoin:round;stroke-miterlimit:1.5;"/>
                        </g>
                    </g>
                    <g transform="matrix(0.161574,0.307117,-0.123917,0.23554,26.9838,-54.0683)">
                        <g transform="matrix(1.84596,-2.40692,1.84596,2.40692,-253.177,330.498)">
                            <path d="M176.866,57.677L179.694,57.677L179.694,60.505" style="fill:none;stroke:rgb(204,204,204);stroke-width:1.33px;"/>
                            <path d="M172.764,64.607C172.764,64.607 177.841,59.53 179.694,57.677" style="fill:none;stroke:rgb(204,204,204);stroke-width:1.33px;stroke-linejoin:round;stroke-miterlimit:1.5;"/>
                        </g>
                    </g>
                    <g transform="matrix(-0.161574,0.307117,-0.123917,-0.23554,86.1522,3.68104)">
                        <g transform="matrix(-1.84596,-2.40692,1.84596,-2.40692,342.554,691.444)">
                            <path d="M178.665,90.486L178.665,93.314L175.837,93.314" style="fill:none;stroke:rgb(204,204,204);stroke-width:1.33px;"/>
                            <path d="M171.734,86.384C171.734,86.384 176.812,91.461 178.665,93.314" style="fill:none;stroke:rgb(204,204,204);stroke-width:1.33px;stroke-linejoin:round;stroke-miterlimit:1.5;"/>
                        </g>
                    </g>
                    <g transform="matrix(-6.58334e-16,0.434329,-0.175245,-2.28212e-17,60.7839,-48.1444)">
                        <g transform="matrix(-1.78853e-16,-3.40389,2.61058,-9.80701e-15,-13.4302,659.996)">
                            <path d="M181.079,74.01L183.079,76.01L181.079,78.01" style="fill:none;stroke:rgb(204,204,204);stroke-width:1.33px;"/>
                            <path d="M173.278,76.01L183.079,76.01" style="fill:none;stroke:rgb(204,204,204);stroke-width:1.33px;stroke-linejoin:round;stroke-miterlimit:1.5;"/>
                        </g>
                    </g>
                </g>
                <g transform="matrix(1.02913,0,0,1.02913,56.4759,99.9824)">
                    <g transform="matrix(0.452238,0,0,0.859608,34.4292,19)">
                        <path d="M23.77,1.68C26.684,1.68 29.046,4.043 29.046,6.956L29.046,23.77C29.046,26.684 26.684,29.046 23.77,29.046C18.93,29.046 11.797,29.046 6.956,29.046C4.043,29.046 1.68,26.684 1.68,23.77C1.68,18.93 1.68,11.797 1.68,6.956C1.68,4.043 4.043,1.68 6.956,1.68C11.797,1.68 18.93,1.68 23.77,1.68Z" style="fill:white;"/>
                        <path d="M23.77,1.68C26.684,1.68 29.046,4.043 29.046,6.956L29.046,23.77C29.046,26.684 26.684,29.046 23.77,29.046L6.956,29.046C4.043,29.046 1.68,26.684 1.68,23.77L1.68,6.956C1.68,4.043 4.043,1.68 6.956,1.68L23.77,1.68ZM23.77,3.439L6.956,3.439C5.014,3.439 3.439,5.014 3.439,6.956L3.439,23.77C3.439,25.713 5.014,27.288 6.956,27.288L23.77,27.288C25.713,27.288 27.288,25.713 27.288,23.77L27.288,6.956C27.288,5.014 25.713,3.439 23.77,3.439Z" style="fill:rgb(163,163,163);"/>
                    </g>
                    <g transform="matrix(0.2285,3.01388e-15,-7.23157e-16,0.333104,-0.895302,-4.09821)">
                        <g transform="matrix(2.61058,-2.36201e-14,1.07727e-14,3.40389,-236.245,-279.354)">
                            <path d="M159.361,94.884L161.361,92.884L163.361,94.884" style="fill:none;stroke:rgb(51,51,51);stroke-width:1.33px;"/>
                            <path d="M161.361,102.685L161.361,92.884" style="fill:none;stroke:rgb(51,51,51);stroke-width:1.33px;stroke-linejoin:round;stroke-miterlimit:1.5;"/>
                        </g>
                    </g>
                    <g transform="matrix(0.161574,0.307117,-0.123917,0.23554,26.9838,-54.0683)">
                        <g transform="matrix(1.84596,-2.40692,1.84596,2.40692,-323.467,238.848)">
                            <path d="M176.866,95.755L179.694,95.755L179.694,98.583" style="fill:none;stroke:rgb(204,204,204);stroke-width:1.33px;"/>
                            <path d="M172.764,102.685C172.764,102.685 177.841,97.608 179.694,95.755" style="fill:none;stroke:rgb(204,204,204);stroke-width:1.33px;stroke-linejoin:round;stroke-miterlimit:1.5;"/>
                        </g>
                    </g>
                    <g transform="matrix(-0.161574,0.307117,-0.123917,-0.23554,86.1522,3.68104)">
                        <g transform="matrix(-1.84596,-2.40692,1.84596,-2.40692,272.264,783.094)">
                            <path d="M178.665,128.564L178.665,131.392L175.837,131.392" style="fill:none;stroke:rgb(204,204,204);stroke-width:1.33px;"/>
                            <path d="M171.734,124.462C171.734,124.462 176.812,129.539 178.665,131.392" style="fill:none;stroke:rgb(204,204,204);stroke-width:1.33px;stroke-linejoin:round;stroke-miterlimit:1.5;"/>
                        </g>
                    </g>
                    <g transform="matrix(-6.58334e-16,0.434329,-0.175245,-2.28212e-17,60.7839,-48.1444)">
                        <g transform="matrix(-1.78853e-16,-3.40389,2.61058,-9.80701e-15,-112.835,659.996)">
                            <path d="M181.079,112.088L183.079,114.088L181.079,116.088" style="fill:none;stroke:rgb(51,51,51);stroke-width:1.33px;"/>
                            <path d="M173.278,114.088L183.079,114.088" style="fill:none;stroke:rgb(51,51,51);stroke-width:1.33px;stroke-linejoin:round;stroke-miterlimit:1.5;"/>
                        </g>
                    </g>
                </g>
                <g transform="matrix(1.02913,0,0,1.02913,56.4759,144.415)">
                    <g transform="matrix(0.452238,0,0,0.859608,34.4292,19)">
                        <path d="M23.77,1.68C26.684,1.68 29.046,4.043 29.046,6.956L29.046,23.77C29.046,26.684 26.684,29.046 23.77,29.046C18.93,29.046 11.797,29.046 6.956,29.046C4.043,29.046 1.68,26.684 1.68,23.77C1.68,18.93 1.68,11.797 1.68,6.956C1.68,4.043 4.043,1.68 6.956,1.68C11.797,1.68 18.93,1.68 23.77,1.68Z" style="fill:white;"/>
                        <path d="M23.77,1.68C26.684,1.68 29.046,4.043 29.046,6.956L29.046,23.77C29.046,26.684 26.684,29.046 23.77,29.046L6.956,29.046C4.043,29.046 1.68,26.684 1.68,23.77L1.68,6.956C1.68,4.043 4.043,1.68 6.956,1.68L23.77,1.68ZM23.77,3.439L6.956,3.439C5.014,3.439 3.439,5.014 3.439,6.956L3.439,23.77C3.439,25.713 5.014,27.288 6.956,27.288L23.77,27.288C25.713,27.288 27.288,25.713 27.288,23.77L27.288,6.956C27.288,5.014 25.713,3.439 23.77,3.439Z" style="fill:rgb(163,163,163);"/>
                    </g>
                    <g transform="matrix(0.2285,3.01388e-15,-7.23157e-16,0.333104,-0.895302,-4.09821)">
                        <g transform="matrix(2.61058,-2.36201e-14,1.07727e-14,3.40389,-236.245,-408.967)">
                            <path d="M159.361,132.962L161.361,130.962L163.361,132.962" style="fill:none;stroke:rgb(51,51,51);stroke-width:1.33px;"/>
                            <path d="M161.361,140.763L161.361,130.962" style="fill:none;stroke:rgb(51,51,51);stroke-width:1.33px;stroke-linejoin:round;stroke-miterlimit:1.5;"/>
                        </g>
                    </g>
                    <g transform="matrix(0.161574,0.307117,-0.123917,0.23554,26.9838,-54.0683)">
                        <g transform="matrix(1.84596,-2.40692,1.84596,2.40692,-393.757,147.198)">
                            <path d="M176.866,133.833L179.694,133.833L179.694,136.661" style="fill:none;stroke:rgb(204,204,204);stroke-width:1.33px;"/>
                            <path d="M172.764,140.763C172.764,140.763 177.841,135.686 179.694,133.833" style="fill:none;stroke:rgb(204,204,204);stroke-width:1.33px;stroke-linejoin:round;stroke-miterlimit:1.5;"/>
                        </g>
                    </g>
                    <g transform="matrix(-0.161574,0.307117,-0.123917,-0.23554,86.1522,3.68104)">
                        <g transform="matrix(-1.84596,-2.40692,1.84596,-2.40692,201.974,874.744)">
                            <path d="M178.665,166.641L178.665,169.47L175.837,169.47" style="fill:none;stroke:rgb(204,204,204);stroke-width:1.33px;"/>
                            <path d="M171.734,162.539C171.734,162.539 176.812,167.617 178.665,169.47" style="fill:none;stroke:rgb(204,204,204);stroke-width:1.33px;stroke-linejoin:round;stroke-miterlimit:1.5;"/>
                        </g>
                    </g>
                    <g transform="matrix(-6.58334e-16,0.434329,-0.175245,-2.28212e-17,60.7839,-48.1444)">
                        <g transform="matrix(-1.78853e-16,-3.40389,2.61058,-9.80701e-15,-212.241,659.996)">
                            <path d="M181.079,150.166L183.079,152.166L181.079,154.166" style="fill:none;stroke:rgb(204,204,204);stroke-width:1.33px;"/>
                            <path d="M173.278,152.166L183.079,152.166" style="fill:none;stroke:rgb(204,204,204);stroke-width:1.33px;stroke-linejoin:round;stroke-miterlimit:1.5;"/>
                        </g>
                    </g>
                </g>
                <g transform="matrix(1.02913,0,0,1.02913,56.4759,188.847)">
                    <g transform="matrix(0.452238,0,0,0.859608,34.4292,19)">
                        <path d="M23.77,1.68C26.684,1.68 29.046,4.043 29.046,6.956L29.046,23.77C29.046,26.684 26.684,29.046 23.77,29.046C18.93,29.046 11.797,29.046 6.956,29.046C4.043,29.046 1.68,26.684 1.68,23.77C1.68,18.93 1.68,11.797 1.68,6.956C1.68,4.043 4.043,1.68 6.956,1.68C11.797,1.68 18.93,1.68 23.77,1.68Z" style="fill:white;"/>
                        <path d="M23.77,1.68C26.684,1.68 29.046,4.043 29.046,6.956L29.046,23.77C29.046,26.684 26.684,29.046 23.77,29.046L6.956,29.046C4.043,29.046 1.68,26.684 1.68,23.77L1.68,6.956C1.68,4.043 4.043,1.68 6.956,1.68L23.77,1.68ZM23.77,3.439L6.956,3.439C5.014,3.439 3.439,5.014 3.439,6.956L3.439,23.77C3.439,25.713 5.014,27.288 6.956,27.288L23.77,27.288C25.713,27.288 27.288,25.713 27.288,23.77L27.288,6.956C27.288,5.014 25.713,3.439 23.77,3.439Z" style="fill:rgb(163,163,163);"/>
                    </g>
                    <g transform="matrix(0.2285,3.01388e-15,-7.23157e-16,0.333104,-0.895302,-4.09821)">
                        <g transform="matrix(2.61058,-2.36201e-14,1.07727e-14,3.40389,-236.245,-538.58)">
                            <path d="M159.361,171.04L161.361,169.04L163.361,171.04" style="fill:none;stroke:rgb(51,51,51);stroke-width:1.33px;"/>
                            <path d="M161.361,178.841L161.361,169.04" style="fill:none;stroke:rgb(51,51,51);stroke-width:1.33px;stroke-linejoin:round;stroke-miterlimit:1.5;"/>
                        </g>
                    </g>
                    <g transform="matrix(0.161574,0.307117,-0.123917,0.23554,26.9838,-54.0683)">
                        <g transform="matrix(1.84596,-2.40692,1.84596,2.40692,-464.047,55.5476)">
                            <path d="M176.866,171.911L179.694,171.911L179.694,174.739" style="fill:none;stroke:rgb(204,204,204);stroke-width:1.33px;"/>
                            <path d="M172.764,178.841C172.764,178.841 177.841,173.764 179.694,171.911" style="fill:none;stroke:rgb(204,204,204);stroke-width:1.33px;stroke-linejoin:round;stroke-miterlimit:1.5;"/>
                        </g>
                    </g>
                    <g transform="matrix(-0.161574,0.307117,-0.123917,-0.23554,86.1522,3.68104)">
                        <g transform="matrix(-1.84596,-2.40692,1.84596,-2.40692,131.683,966.395)">
                            <path d="M178.665,204.719L178.665,207.548L175.837,207.548" style="fill:none;stroke:rgb(204,204,204);stroke-width:1.33px;"/>
                            <path d="M171.734,200.617C171.734,200.617 176.812,205.695 178.665,207.548" style="fill:none;stroke:rgb(204,204,204);stroke-width:1.33px;stroke-linejoin:round;stroke-miterlimit:1.5;"/>
                        </g>
                    </g>
                    <g transform="matrix(-6.58334e-16,0.434329,-0.175245,-2.28212e-17,60.7839,-48.1444)">
                        <g transform="matrix(-1.78853e-16,-3.40389,2.61058,-9.80701e-15,-311.646,659.996)">
                            <path d="M181.079,188.244L183.079,190.244L181.079,192.244" style="fill:none;stroke:rgb(204,204,204);stroke-width:1.33px;"/>
                            <path d="M173.278,190.244L183.079,190.244" style="fill:none;stroke:rgb(204,204,204);stroke-width:1.33px;stroke-linejoin:round;stroke-miterlimit:1.5;"/>
                        </g>
                    </g>
                </g>
                <g transform="matrix(1.02913,0,0,1.02913,77.9563,11.1177)">
                    <g transform="matrix(0.452238,0,0,0.859608,34.4292,19)">
                        <path d="M23.77,1.68C26.684,1.68 29.046,4.043 29.046,6.956L29.046,23.77C29.046,26.684 26.684,29.046 23.77,29.046C18.93,29.046 11.797,29.046 6.956,29.046C4.043,29.046 1.68,26.684 1.68,23.77C1.68,18.93 1.68,11.797 1.68,6.956C1.68,4.043 4.043,1.68 6.956,1.68C11.797,1.68 18.93,1.68 23.77,1.68Z" style="fill:white;"/>
                        <path d="M23.77,1.68C26.684,1.68 29.046,4.043 29.046,6.956L29.046,23.77C29.046,26.684 26.684,29.046 23.77,29.046L6.956,29.046C4.043,29.046 1.68,26.684 1.68,23.77L1.68,6.956C1.68,4.043 4.043,1.68 6.956,1.68L23.77,1.68ZM23.77,3.439L6.956,3.439C5.014,3.439 3.439,5.014 3.439,6.956L3.439,23.77C3.439,25.713 5.014,27.288 6.956,27.288L23.77,27.288C25.713,27.288 27.288,25.713 27.288,23.77L27.288,6.956C27.288,5.014 25.713,3.439 23.77,3.439Z" style="fill:rgb(163,163,163);"/>
                    </g>
                    <g transform="matrix(0.2285,3.01388e-15,-7.23157e-16,0.333104,-0.895302,-4.09821)">
                        <g transform="matrix(2.61058,-2.36201e-14,1.07727e-14,3.40389,-327.59,-20.128)">
                            <path d="M194.351,18.728L196.351,16.728L198.351,18.728" style="fill:none;stroke:rgb(204,204,204);stroke-width:1.33px;"/>
                            <path d="M196.351,26.53L196.351,16.728" style="fill:none;stroke:rgb(204,204,204);stroke-width:1.33px;stroke-linejoin:round;stroke-miterlimit:1.5;"/>
                        </g>
                    </g>
                    <g transform="matrix(0.161574,0.307117,-0.123917,0.23554,26.9838,-54.0683)">
                        <g transform="matrix(1.84596,-2.40692,1.84596,2.40692,-247.477,506.368)">
                            <path d="M211.856,19.599L214.685,19.599L214.685,22.427" style="fill:none;stroke:rgb(204,204,204);stroke-width:1.33px;"/>
                            <path d="M207.754,26.53C207.754,26.53 212.831,21.452 214.685,19.599" style="fill:none;stroke:rgb(204,204,204);stroke-width:1.33px;stroke-linejoin:round;stroke-miterlimit:1.5;"/>
                        </g>
                    </g>
                    <g transform="matrix(-0.161574,0.307117,-0.123917,-0.23554,86.1522,3.68104)">
                        <g transform="matrix(-1.84596,-2.40692,1.84596,-2.40692,477.435,684.013)">
                            <path d="M213.655,52.408L213.655,55.236L210.827,55.236" style="fill:none;stroke:rgb(51,51,51);stroke-width:1.33px;"/>
                            <path d="M206.725,48.306C206.725,48.306 211.802,53.383 213.655,55.236" style="fill:none;stroke:rgb(51,51,51);stroke-width:1.33px;stroke-linejoin:round;stroke-miterlimit:1.5;"/>
                        </g>
                    </g>
                    <g transform="matrix(-6.58334e-16,0.434329,-0.175245,-2.28212e-17,60.7839,-48.1444)">
                        <g transform="matrix(-1.78853e-16,-3.40389,2.61058,-9.80701e-15,85.975,779.1)">
                            <path d="M216.07,35.932L218.07,37.932L216.07,39.932" style="fill:none;stroke:rgb(51,51,51);stroke-width:1.33px;"/>
                            <path d="M208.269,37.932L218.07,37.932" style="fill:none;stroke:rgb(51,51,51);stroke-width:1.33px;stroke-linejoin:round;stroke-miterlimit:1.5;"/>
                        </g>
                    </g>
                </g>
                <g transform="matrix(1.02913,0,0,1.02913,77.9563,99.9824)">
                    <g transform="matrix(0.452238,0,0,0.859608,34.4292,19)">
                        <path d="M23.77,1.68C26.684,1.68 29.046,4.043 29.046,6.956L29.046,23.77C29.046,26.684 26.684,29.046 23.77,29.046C18.93,29.046 11.797,29.046 6.956,29.046C4.043,29.046 1.68,26.684 1.68,23.77C1.68,18.93 1.68,11.797 1.68,6.956C1.68,4.043 4.043,1.68 6.956,1.68C11.797,1.68 18.93,1.68 23.77,1.68Z" style="fill:white;"/>
                        <path d="M23.77,1.68C26.684,1.68 29.046,4.043 29.046,6.956L29.046,23.77C29.046,26.684 26.684,29.046 23.77,29.046L6.956,29.046C4.043,29.046 1.68,26.684 1.68,23.77L1.68,6.956C1.68,4.043 4.043,1.68 6.956,1.68L23.77,1.68ZM23.77,3.439L6.956,3.439C5.014,3.439 3.439,5.014 3.439,6.956L3.439,23.77C3.439,25.713 5.014,27.288 6.956,27.288L23.77,27.288C25.713,27.288 27.288,25.713 27.288,23.77L27.288,6.956C27.288,5.014 25.713,3.439 23.77,3.439Z" style="fill:rgb(163,163,163);"/>
                    </g>
                    <g transform="matrix(0.2285,3.01388e-15,-7.23157e-16,0.333104,-0.895302,-4.09821)">
                        <g transform="matrix(2.61058,-2.36201e-14,1.07727e-14,3.40389,-327.59,-279.354)">
                            <path d="M194.351,94.884L196.351,92.884L198.351,94.884" style="fill:none;stroke:rgb(204,204,204);stroke-width:1.33px;"/>
                            <path d="M196.351,102.685L196.351,92.884" style="fill:none;stroke:rgb(204,204,204);stroke-width:1.33px;stroke-linejoin:round;stroke-miterlimit:1.5;"/>
                        </g>
                    </g>
                    <g transform="matrix(0.161574,0.307117,-0.123917,0.23554,26.9838,-54.0683)">
                        <g transform="matrix(1.84596,-2.40692,1.84596,2.40692,-388.058,323.067)">
                            <path d="M211.856,95.755L214.685,95.755L214.685,98.583" style="fill:none;stroke:rgb(204,204,204);stroke-width:1.33px;"/>
                            <path d="M207.754,102.685C207.754,102.685 212.831,97.608 214.685,95.755" style="fill:none;stroke:rgb(204,204,204);stroke-width:1.33px;stroke-linejoin:round;stroke-miterlimit:1.5;"/>
                        </g>
                    </g>
                    <g transform="matrix(-0.161574,0.307117,-0.123917,-0.23554,86.1522,3.68104)">
                        <g transform="matrix(-1.84596,-2.40692,1.84596,-2.40692,336.855,867.313)">
                            <path d="M213.655,128.564L213.655,131.392L210.827,131.392" style="fill:none;stroke:rgb(204,204,204);stroke-width:1.33px;"/>
                            <path d="M206.725,124.462C206.725,124.462 211.802,129.539 213.655,131.392" style="fill:none;stroke:rgb(204,204,204);stroke-width:1.33px;stroke-linejoin:round;stroke-miterlimit:1.5;"/>
                        </g>
                    </g>
                    <g transform="matrix(-6.58334e-16,0.434329,-0.175245,-2.28212e-17,60.7839,-48.1444)">
                        <g transform="matrix(-1.78853e-16,-3.40389,2.61058,-9.80701e-15,-112.835,779.1)">
                            <path d="M216.07,112.088L218.07,114.088L216.07,116.088" style="fill:none;stroke:rgb(51,51,51);stroke-width:1.33px;"/>
                            <path d="M208.269,114.088L218.07,114.088" style="fill:none;stroke:rgb(51,51,51);stroke-width:1.33px;stroke-linejoin:round;stroke-miterlimit:1.5;"/>
                        </g>
                    </g>
                </g>
                <g transform="matrix(1.02913,0,0,1.02913,99.4367,55.55)">
                    <g transform="matrix(0.452238,0,0,0.859608,34.4292,19)">
                        <path d="M23.77,1.68C26.684,1.68 29.046,4.043 29.046,6.956L29.046,23.77C29.046,26.684 26.684,29.046 23.77,29.046C18.93,29.046 11.797,29.046 6.956,29.046C4.043,29.046 1.68,26.684 1.68,23.77C1.68,18.93 1.68,11.797 1.68,6.956C1.68,4.043 4.043,1.68 6.956,1.68C11.797,1.68 18.93,1.68 23.77,1.68Z" style="fill:white;"/>
                        <path d="M23.77,1.68C26.684,1.68 29.046,4.043 29.046,6.956L29.046,23.77C29.046,26.684 26.684,29.046 23.77,29.046L6.956,29.046C4.043,29.046 1.68,26.684 1.68,23.77L1.68,6.956C1.68,4.043 4.043,1.68 6.956,1.68L23.77,1.68ZM23.77,3.439L6.956,3.439C5.014,3.439 3.439,5.014 3.439,6.956L3.439,23.77C3.439,25.713 5.014,27.288 6.956,27.288L23.77,27.288C25.713,27.288 27.288,25.713 27.288,23.77L27.288,6.956C27.288,5.014 25.713,3.439 23.77,3.439Z" style="fill:rgb(163,163,163);"/>
                    </g>
                    <g transform="matrix(0.2285,3.01388e-15,-7.23157e-16,0.333104,-0.895302,-4.09821)">
                        <g transform="matrix(2.61058,-2.36201e-14,1.07727e-14,3.40389,-418.936,-149.741)">
                            <path d="M229.342,56.806L231.342,54.806L233.342,56.806" style="fill:none;stroke:rgb(204,204,204);stroke-width:1.33px;"/>
                            <path d="M231.342,64.607L231.342,54.806" style="fill:none;stroke:rgb(204,204,204);stroke-width:1.33px;stroke-linejoin:round;stroke-miterlimit:1.5;"/>
                        </g>
                    </g>
                    <g transform="matrix(0.161574,0.307117,-0.123917,0.23554,26.9838,-54.0683)">
                        <g transform="matrix(1.84596,-2.40692,1.84596,2.40692,-382.358,498.937)">
                            <path d="M246.847,57.677L249.675,57.677L249.675,60.505" style="fill:none;stroke:rgb(204,204,204);stroke-width:1.33px;"/>
                            <path d="M242.745,64.607C242.745,64.607 247.822,59.53 249.675,57.677" style="fill:none;stroke:rgb(204,204,204);stroke-width:1.33px;stroke-linejoin:round;stroke-miterlimit:1.5;"/>
                        </g>
                    </g>
                    <g transform="matrix(-0.161574,0.307117,-0.123917,-0.23554,86.1522,3.68104)">
                        <g transform="matrix(-1.84596,-2.40692,1.84596,-2.40692,471.736,859.882)">
                            <path d="M248.646,90.486L248.646,93.314L245.817,93.314" style="fill:none;stroke:rgb(204,204,204);stroke-width:1.33px;"/>
                            <path d="M241.715,86.384C241.715,86.384 246.793,91.461 248.646,93.314" style="fill:none;stroke:rgb(204,204,204);stroke-width:1.33px;stroke-linejoin:round;stroke-miterlimit:1.5;"/>
                        </g>
                    </g>
                    <g transform="matrix(-6.58334e-16,0.434329,-0.175245,-2.28212e-17,60.7839,-48.1444)">
                        <g transform="matrix(-1.78853e-16,-3.40389,2.61058,-9.80701e-15,-13.4302,898.203)">
                            <path d="M251.06,74.01L253.06,76.01L251.06,78.01" style="fill:none;stroke:rgb(204,204,204);stroke-width:1.33px;"/>
                            <path d="M243.259,76.01L253.06,76.01" style="fill:none;stroke:rgb(204,204,204);stroke-width:1.33px;stroke-linejoin:round;stroke-miterlimit:1.5;"/>
                        </g>
                    </g>
                </g>
                <g transform="matrix(1.02913,0,0,1.02913,99.4367,99.9824)">
                    <g transform="matrix(0.452238,0,0,0.859608,34.4292,19)">
                        <path d="M23.77,1.68C26.684,1.68 29.046,4.043 29.046,6.956L29.046,23.77C29.046,26.684 26.684,29.046 23.77,29.046C18.93,29.046 11.797,29.046 6.956,29.046C4.043,29.046 1.68,26.684 1.68,23.77C1.68,18.93 1.68,11.797 1.68,6.956C1.68,4.043 4.043,1.68 6.956,1.68C11.797,1.68 18.93,1.68 23.77,1.68Z" style="fill:white;"/>
                        <path d="M23.77,1.68C26.684,1.68 29.046,4.043 29.046,6.956L29.046,23.77C29.046,26.684 26.684,29.046 23.77,29.046L6.956,29.046C4.043,29.046 1.68,26.684 1.68,23.77L1.68,6.956C1.68,4.043 4.043,1.68 6.956,1.68L23.77,1.68ZM23.77,3.439L6.956,3.439C5.014,3.439 3.439,5.014 3.439,6.956L3.439,23.77C3.439,25.713 5.014,27.288 6.956,27.288L23.77,27.288C25.713,27.288 27.288,25.713 27.288,23.77L27.288,6.956C27.288,5.014 25.713,3.439 23.77,3.439Z" style="fill:rgb(163,163,163);"/>
                    </g>
                    <g transform="matrix(0.2285,3.01388e-15,-7.23157e-16,0.333104,-0.895302,-4.09821)">
                        <g transform="matrix(2.61058,-2.36201e-14,1.07727e-14,3.40389,-418.936,-279.354)">
                            <path d="M229.342,94.884L231.342,92.884L233.342,94.884" style="fill:none;stroke:rgb(51,51,51);stroke-width:1.33px;"/>
                            <path d="M231.342,102.685L231.342,92.884" style="fill:none;stroke:rgb(51,51,51);stroke-width:1.33px;stroke-linejoin:round;stroke-miterlimit:1.5;"/>
                        </g>
                    </g>
                    <g transform="matrix(0.161574,0.307117,-0.123917,0.23554,26.9838,-54.0683)">
                        <g transform="matrix(1.84596,-2.40692,1.84596,2.40692,-452.649,407.286)">
                            <path d="M246.847,95.755L249.675,95.755L249.675,98.583" style="fill:none;stroke:rgb(204,204,204);stroke-width:1.33px;"/>
                            <path d="M242.745,102.685C242.745,102.685 247.822,97.608 249.675,95.755" style="fill:none;stroke:rgb(204,204,204);stroke-width:1.33px;stroke-linejoin:round;stroke-miterlimit:1.5;"/>
                        </g>
                    </g>
                    <g transform="matrix(-0.161574,0.307117,-0.123917,-0.23554,86.1522,3.68104)">
                        <g transform="matrix(-1.84596,-2.40692,1.84596,-2.40692,401.446,951.532)">
                            <path d="M248.646,128.564L248.646,131.392L245.817,131.392" style="fill:none;stroke:rgb(204,204,204);stroke-width:1.33px;"/>
                            <path d="M241.715,124.462C241.715,124.462 246.793,129.539 248.646,131.392" style="fill:none;stroke:rgb(204,204,204);stroke-width:1.33px;stroke-linejoin:round;stroke-miterlimit:1.5;"/>
                        </g>
                    </g>
                    <g transform="matrix(-6.58334e-16,0.434329,-0.175245,-2.28212e-17,60.7839,-48.1444)">
                        <g transform="matrix(-1.78853e-16,-3.40389,2.61058,-9.80701e-15,-112.835,898.203)">
                            <path d="M251.06,112.088L253.06,114.088L251.06,116.088" style="fill:none;stroke:rgb(51,51,51);stroke-width:1.33px;"/>
                            <path d="M243.259,114.088L253.06,114.088" style="fill:none;stroke:rgb(51,51,51);stroke-width:1.33px;stroke-linejoin:round;stroke-miterlimit:1.5;"/>
                        </g>
                    </g>
                </g>
                <g transform="matrix(1.02913,0,0,1.02913,99.4367,144.415)">
                    <g transform="matrix(0.452238,0,0,0.859608,34.4292,19)">
                        <path d="M23.77,1.68C26.684,1.68 29.046,4.043 29.046,6.956L29.046,23.77C29.046,26.684 26.684,29.046 23.77,29.046C18.93,29.046 11.797,29.046 6.956,29.046C4.043,29.046 1.68,26.684 1.68,23.77C1.68,18.93 1.68,11.797 1.68,6.956C1.68,4.043 4.043,1.68 6.956,1.68C11.797,1.68 18.93,1.68 23.77,1.68Z" style="fill:white;"/>
                        <path d="M23.77,1.68C26.684,1.68 29.046,4.043 29.046,6.956L29.046,23.77C29.046,26.684 26.684,29.046 23.77,29.046L6.956,29.046C4.043,29.046 1.68,26.684 1.68,23.77L1.68,6.956C1.68,4.043 4.043,1.68 6.956,1.68L23.77,1.68ZM23.77,3.439L6.956,3.439C5.014,3.439 3.439,5.014 3.439,6.956L3.439,23.77C3.439,25.713 5.014,27.288 6.956,27.288L23.77,27.288C25.713,27.288 27.288,25.713 27.288,23.77L27.288,6.956C27.288,5.014 25.713,3.439 23.77,3.439Z" style="fill:rgb(163,163,163);"/>
                    </g>
                    <g transform="matrix(0.2285,3.01388e-15,-7.23157e-16,0.333104,-0.895302,-4.09821)">
                        <g transform="matrix(2.61058,-2.36201e-14,1.07727e-14,3.40389,-418.936,-408.967)">
                            <path d="M229.342,132.962L231.342,130.962L233.342,132.962" style="fill:none;stroke:rgb(51,51,51);stroke-width:1.33px;"/>
                            <path d="M231.342,140.763L231.342,130.962" style="fill:none;stroke:rgb(51,51,51);stroke-width:1.33px;stroke-linejoin:round;stroke-miterlimit:1.5;"/>
                        </g>
                    </g>
                    <g transform="matrix(0.161574,0.307117,-0.123917,0.23554,26.9838,-54.0683)">
                        <g transform="matrix(1.84596,-2.40692,1.84596,2.40692,-522.939,315.636)">
                            <path d="M246.847,133.833L249.675,133.833L249.675,136.661" style="fill:none;stroke:rgb(204,204,204);stroke-width:1.33px;"/>
                            <path d="M242.745,140.763C242.745,140.763 247.822,135.686 249.675,133.833" style="fill:none;stroke:rgb(204,204,204);stroke-width:1.33px;stroke-linejoin:round;stroke-miterlimit:1.5;"/>
                        </g>
                    </g>
                    <g transform="matrix(-0.161574,0.307117,-0.123917,-0.23554,86.1522,3.68104)">
                        <g transform="matrix(-1.84596,-2.40692,1.84596,-2.40692,331.155,1043.18)">
                            <path d="M248.646,166.641L248.646,169.47L245.817,169.47" style="fill:none;stroke:rgb(204,204,204);stroke-width:1.33px;"/>
                            <path d="M241.715,162.539C241.715,162.539 246.793,167.617 248.646,169.47" style="fill:none;stroke:rgb(204,204,204);stroke-width:1.33px;stroke-linejoin:round;stroke-miterlimit:1.5;"/>
                        </g>
                    </g>
                    <g transform="matrix(-6.58334e-16,0.434329,-0.175245,-2.28212e-17,60.7839,-48.1444)">
                        <g transform="matrix(-1.78853e-16,-3.40389,2.61058,-9.80701e-15,-212.241,898.203)">
                            <path d="M251.06,150.166L253.06,152.166L251.06,154.166" style="fill:none;stroke:rgb(204,204,204);stroke-width:1.33px;"/>
                            <path d="M243.259,152.166L253.06,152.166" style="fill:none;stroke:rgb(204,204,204);stroke-width:1.33px;stroke-linejoin:round;stroke-miterlimit:1.5;"/>
                        </g>
                    </g>
                </g>
                <g transform="matrix(1.02913,0,0,1.02913,99.4367,188.847)">
                    <g transform="matrix(0.452238,0,0,0.859608,34.4292,19)">
                        <path d="M23.77,1.68C26.684,1.68 29.046,4.043 29.046,6.956L29.046,23.77C29.046,26.684 26.684,29.046 23.77,29.046C18.93,29.046 11.797,29.046 6.956,29.046C4.043,29.046 1.68,26.684 1.68,23.77C1.68,18.93 1.68,11.797 1.68,6.956C1.68,4.043 4.043,1.68 6.956,1.68C11.797,1.68 18.93,1.68 23.77,1.68Z" style="fill:white;"/>
                        <path d="M23.77,1.68C26.684,1.68 29.046,4.043 29.046,6.956L29.046,23.77C29.046,26.684 26.684,29.046 23.77,29.046L6.956,29.046C4.043,29.046 1.68,26.684 1.68,23.77L1.68,6.956C1.68,4.043 4.043,1.68 6.956,1.68L23.77,1.68ZM23.77,3.439L6.956,3.439C5.014,3.439 3.439,5.014 3.439,6.956L3.439,23.77C3.439,25.713 5.014,27.288 6.956,27.288L23.77,27.288C25.713,27.288 27.288,25.713 27.288,23.77L27.288,6.956C27.288,5.014 25.713,3.439 23.77,3.439Z" style="fill:rgb(163,163,163);"/>
                    </g>
                    <g transform="matrix(0.2285,3.01388e-15,-7.23157e-16,0.333104,-0.895302,-4.09821)">
                        <g transform="matrix(2.61058,-2.36201e-14,1.07727e-14,3.40389,-418.936,-538.58)">
                            <path d="M229.342,171.04L231.342,169.04L233.342,171.04" style="fill:none;stroke:rgb(51,51,51);stroke-width:1.33px;"/>
                            <path d="M231.342,178.841L231.342,169.04" style="fill:none;stroke:rgb(51,51,51);stroke-width:1.33px;stroke-linejoin:round;stroke-miterlimit:1.5;"/>
                        </g>
                    </g>
                    <g transform="matrix(0.161574,0.307117,-0.123917,0.23554,26.9838,-54.0683)">
                        <g transform="matrix(1.84596,-2.40692,1.84596,2.40692,-593.229,223.986)">
                            <path d="M246.847,171.911L249.675,171.911L249.675,174.739" style="fill:none;stroke:rgb(204,204,204);stroke-width:1.33px;"/>
                            <path d="M242.745,178.841C242.745,178.841 247.822,173.764 249.675,171.911" style="fill:none;stroke:rgb(204,204,204);stroke-width:1.33px;stroke-linejoin:round;stroke-miterlimit:1.5;"/>
                        </g>
                    </g>
                    <g transform="matrix(-0.161574,0.307117,-0.123917,-0.23554,86.1522,3.68104)">
                        <g transform="matrix(-1.84596,-2.40692,1.84596,-2.40692,260.865,1134.83)">
                            <path d="M248.646,204.719L248.646,207.548L245.817,207.548" style="fill:none;stroke:rgb(204,204,204);stroke-width:1.33px;"/>
                            <path d="M241.715,200.617C241.715,200.617 246.793,205.695 248.646,207.548" style="fill:none;stroke:rgb(204,204,204);stroke-width:1.33px;stroke-linejoin:round;stroke-miterlimit:1.5;"/>
                        </g>
                    </g>
                    <g transform="matrix(-6.58334e-16,0.434329,-0.175245,-2.28212e-17,60.7839,-48.1444)">
                        <g transform="matrix(-1.78853e-16,-3.40389,2.61058,-9.80701e-15,-311.646,898.203)">
                            <path d="M251.06,188.244L253.06,190.244L251.06,192.244" style="fill:none;stroke:rgb(51,51,51);stroke-width:1.33px;"/>
                            <path d="M243.259,190.244L253.06,190.244" style="fill:none;stroke:rgb(51,51,51);stroke-width:1.33px;stroke-linejoin:round;stroke-miterlimit:1.5;"/>
                        </g>
                    </g>
                </g>
                <g transform="matrix(1.02913,0,0,1.02913,120.917,55.55)">
                    <g transform="matrix(0.452238,0,0,0.859608,34.4292,19)">
                        <path d="M23.77,1.68C26.684,1.68 29.046,4.043 29.046,6.956L29.046,23.77C29.046,26.684 26.684,29.046 23.77,29.046C18.93,29.046 11.797,29.046 6.956,29.046C4.043,29.046 1.68,26.684 1.68,23.77C1.68,18.93 1.68,11.797 1.68,6.956C1.68,4.043 4.043,1.68 6.956,1.68C11.797,1.68 18.93,1.68 23.77,1.68Z" style="fill:white;"/>
                        <path d="M23.77,1.68C26.684,1.68 29.046,4.043 29.046,6.956L29.046,23.77C29.046,26.684 26.684,29.046 23.77,29.046L6.956,29.046C4.043,29.046 1.68,26.684 1.68,23.77L1.68,6.956C1.68,4.043 4.043,1.68 6.956,1.68L23.77,1.68ZM23.77,3.439L6.956,3.439C5.014,3.439 3.439,5.014 3.439,6.956L3.439,23.77C3.439,25.713 5.014,27.288 6.956,27.288L23.77,27.288C25.713,27.288 27.288,25.713 27.288,23.77L27.288,6.956C27.288,5.014 25.713,3.439 23.77,3.439Z" style="fill:rgb(163,163,163);"/>
                    </g>
                    <g transform="matrix(0.2285,3.01388e-15,-7.23157e-16,0.333104,-0.895302,-4.09821)">
                        <g transform="matrix(2.61058,-2.36201e-14,1.07727e-14,3.40389,-510.281,-149.741)">
                            <path d="M264.332,56.806L266.332,54.806L268.332,56.806" style="fill:none;stroke:rgb(204,204,204);stroke-width:1.33px;"/>
                            <path d="M266.332,64.607L266.332,54.806" style="fill:none;stroke:rgb(204,204,204);stroke-width:1.33px;stroke-linejoin:round;stroke-miterlimit:1.5;"/>
                        </g>
                    </g>
                    <g transform="matrix(0.161574,0.307117,-0.123917,0.23554,26.9838,-54.0683)">
                        <g transform="matrix(1.84596,-2.40692,1.84596,2.40692,-446.949,583.156)">
                            <path d="M281.837,57.677L284.666,57.677L284.666,60.505" style="fill:none;stroke:rgb(51,51,51);stroke-width:1.33px;"/>
                            <path d="M277.735,64.607C277.735,64.607 282.812,59.53 284.666,57.677" style="fill:none;stroke:rgb(51,51,51);stroke-width:1.33px;stroke-linejoin:round;stroke-miterlimit:1.5;"/>
                        </g>
                    </g>
                    <g transform="matrix(-0.161574,0.307117,-0.123917,-0.23554,86.1522,3.68104)">
                        <g transform="matrix(-1.84596,-2.40692,1.84596,-2.40692,536.327,944.101)">
                            <path d="M283.636,90.486L283.636,93.314L280.808,93.314" style="fill:none;stroke:rgb(204,204,204);stroke-width:1.33px;"/>
                            <path d="M276.706,86.384C276.706,86.384 281.783,91.461 283.636,93.314" style="fill:none;stroke:rgb(204,204,204);stroke-width:1.33px;stroke-linejoin:round;stroke-miterlimit:1.5;"/>
                        </g>
                    </g>
                    <g transform="matrix(-6.58334e-16,0.434329,-0.175245,-2.28212e-17,60.7839,-48.1444)">
                        <g transform="matrix(-1.78853e-16,-3.40389,2.61058,-9.80701e-15,-13.4302,1017.31)">
                            <path d="M286.051,74.01L288.051,76.01L286.051,78.01" style="fill:none;stroke:rgb(204,204,204);stroke-width:1.33px;"/>
                            <path d="M278.25,76.01L288.051,76.01" style="fill:none;stroke:rgb(204,204,204);stroke-width:1.33px;stroke-linejoin:round;stroke-miterlimit:1.5;"/>
                        </g>
                    </g>
                </g>
                <g transform="matrix(1.02913,0,0,1.02913,120.917,99.9824)">
                    <g transform="matrix(0.452238,0,0,0.859608,34.4292,19)">
                        <path d="M23.77,1.68C26.684,1.68 29.046,4.043 29.046,6.956L29.046,23.77C29.046,26.684 26.684,29.046 23.77,29.046C18.93,29.046 11.797,29.046 6.956,29.046C4.043,29.046 1.68,26.684 1.68,23.77C1.68,18.93 1.68,11.797 1.68,6.956C1.68,4.043 4.043,1.68 6.956,1.68C11.797,1.68 18.93,1.68 23.77,1.68Z" style="fill:white;"/>
                        <path d="M23.77,1.68C26.684,1.68 29.046,4.043 29.046,6.956L29.046,23.77C29.046,26.684 26.684,29.046 23.77,29.046L6.956,29.046C4.043,29.046 1.68,26.684 1.68,23.77L1.68,6.956C1.68,4.043 4.043,1.68 6.956,1.68L23.77,1.68ZM23.77,3.439L6.956,3.439C5.014,3.439 3.439,5.014 3.439,6.956L3.439,23.77C3.439,25.713 5.014,27.288 6.956,27.288L23.77,27.288C25.713,27.288 27.288,25.713 27.288,23.77L27.288,6.956C27.288,5.014 25.713,3.439 23.77,3.439Z" style="fill:rgb(163,163,163);"/>
                    </g>
                    <g transform="matrix(0.2285,3.01388e-15,-7.23157e-16,0.333104,-0.895302,-4.09821)">
                        <g transform="matrix(2.61058,-2.36201e-14,1.07727e-14,3.40389,-510.281,-279.354)">
                            <path d="M264.332,94.884L266.332,92.884L268.332,94.884" style="fill:none;stroke:rgb(204,204,204);stroke-width:1.33px;"/>
                            <path d="M266.332,102.685L266.332,92.884" style="fill:none;stroke:rgb(204,204,204);stroke-width:1.33px;stroke-linejoin:round;stroke-miterlimit:1.5;"/>
                        </g>
                    </g>
                    <g transform="matrix(0.161574,0.307117,-0.123917,0.23554,26.9838,-54.0683)">
                        <g transform="matrix(1.84596,-2.40692,1.84596,2.40692,-517.239,491.505)">
                            <path d="M281.837,95.755L284.666,95.755L284.666,98.583" style="fill:none;stroke:rgb(204,204,204);stroke-width:1.33px;"/>
                            <path d="M277.735,102.685C277.735,102.685 282.812,97.608 284.666,95.755" style="fill:none;stroke:rgb(204,204,204);stroke-width:1.33px;stroke-linejoin:round;stroke-miterlimit:1.5;"/>
                        </g>
                    </g>
                    <g transform="matrix(-0.161574,0.307117,-0.123917,-0.23554,86.1522,3.68104)">
                        <g transform="matrix(-1.84596,-2.40692,1.84596,-2.40692,466.037,1035.75)">
                            <path d="M283.636,128.564L283.636,131.392L280.808,131.392" style="fill:none;stroke:rgb(204,204,204);stroke-width:1.33px;"/>
                            <path d="M276.706,124.462C276.706,124.462 281.783,129.539 283.636,131.392" style="fill:none;stroke:rgb(204,204,204);stroke-width:1.33px;stroke-linejoin:round;stroke-miterlimit:1.5;"/>
                        </g>
                    </g>
                    <g transform="matrix(-6.58334e-16,0.434329,-0.175245,-2.28212e-17,60.7839,-48.1444)">
                        <g transform="matrix(-1.78853e-16,-3.40389,2.61058,-9.80701e-15,-112.835,1017.31)">
                            <path d="M286.051,112.088L288.051,114.088L286.051,116.088" style="fill:none;stroke:rgb(51,51,51);stroke-width:1.33px;"/>
                            <path d="M278.25,114.088L288.051,114.088" style="fill:none;stroke:rgb(51,51,51);stroke-width:1.33px;stroke-linejoin:round;stroke-miterlimit:1.5;"/>
                        </g>
                    </g>
                </g>
                <g transform="matrix(1.02913,0,0,1.02913,120.917,188.847)">
                    <g transform="matrix(0.452238,0,0,0.859608,34.4292,19)">
                        <path d="M23.77,1.68C26.684,1.68 29.046,4.043 29.046,6.956L29.046,23.77C29.046,26.684 26.684,29.046 23.77,29.046C18.93,29.046 11.797,29.046 6.956,29.046C4.043,29.046 1.68,26.684 1.68,23.77C1.68,18.93 1.68,11.797 1.68,6.956C1.68,4.043 4.043,1.68 6.956,1.68C11.797,1.68 18.93,1.68 23.77,1.68Z" style="fill:white;"/>
                        <path d="M23.77,1.68C26.684,1.68 29.046,4.043 29.046,6.956L29.046,23.77C29.046,26.684 26.684,29.046 23.77,29.046L6.956,29.046C4.043,29.046 1.68,26.684 1.68,23.77L1.68,6.956C1.68,4.043 4.043,1.68 6.956,1.68L23.77,1.68ZM23.77,3.439L6.956,3.439C5.014,3.439 3.439,5.014 3.439,6.956L3.439,23.77C3.439,25.713 5.014,27.288 6.956,27.288L23.77,27.288C25.713,27.288 27.288,25.713 27.288,23.77L27.288,6.956C27.288,5.014 25.713,3.439 23.77,3.439Z" style="fill:rgb(163,163,163);"/>
                    </g>
                    <g transform="matrix(0.2285,3.01388e-15,-7.23157e-16,0.333104,-0.895302,-4.09821)">
                        <g transform="matrix(2.61058,-2.36201e-14,1.07727e-14,3.40389,-510.281,-538.58)">
                            <path d="M264.332,171.04L266.332,169.04L268.332,171.04" style="fill:none;stroke:rgb(204,204,204);stroke-width:1.33px;"/>
                            <path d="M266.332,178.841L266.332,169.04" style="fill:none;stroke:rgb(204,204,204);stroke-width:1.33px;stroke-linejoin:round;stroke-miterlimit:1.5;"/>
                        </g>
                    </g>
                    <g transform="matrix(0.161574,0.307117,-0.123917,0.23554,26.9838,-54.0683)">
                        <g transform="matrix(1.84596,-2.40692,1.84596,2.40692,-657.82,308.205)">
                            <path d="M281.837,171.911L284.666,171.911L284.666,174.739" style="fill:none;stroke:rgb(204,204,204);stroke-width:1.33px;"/>
                            <path d="M277.735,178.841C277.735,178.841 282.812,173.764 284.666,171.911" style="fill:none;stroke:rgb(204,204,204);stroke-width:1.33px;stroke-linejoin:round;stroke-miterlimit:1.5;"/>
                        </g>
                    </g>
                    <g transform="matrix(-0.161574,0.307117,-0.123917,-0.23554,86.1522,3.68104)">
                        <g transform="matrix(-1.84596,-2.40692,1.84596,-2.40692,325.456,1219.05)">
                            <path d="M283.636,204.719L283.636,207.548L280.808,207.548" style="fill:none;stroke:rgb(204,204,204);stroke-width:1.33px;"/>
                            <path d="M276.706,200.617C276.706,200.617 281.783,205.695 283.636,207.548" style="fill:none;stroke:rgb(204,204,204);stroke-width:1.33px;stroke-linejoin:round;stroke-miterlimit:1.5;"/>
                        </g>
                    </g>
                    <g transform="matrix(-6.58334e-16,0.434329,-0.175245,-2.28212e-17,60.7839,-48.1444)">
                        <g transform="matrix(-1.78853e-16,-3.40389,2.61058,-9.80701e-15,-311.646,1017.31)">
                            <path d="M286.051,188.244L288.051,190.244L286.051,192.244" style="fill:none;stroke:rgb(51,51,51);stroke-width:1.33px;"/>
                            <path d="M278.25,190.244L288.051,190.244" style="fill:none;stroke:rgb(51,51,51);stroke-width:1.33px;stroke-linejoin:round;stroke-miterlimit:1.5;"/>
                        </g>
                    </g>
                </g>
                <g transform="matrix(1.02913,0,0,1.02913,142.398,11.1177)">
                    <g transform="matrix(0.452238,0,0,0.859608,34.4292,19)">
                        <path d="M23.77,1.68C26.684,1.68 29.046,4.043 29.046,6.956L29.046,23.77C29.046,26.684 26.684,29.046 23.77,29.046C18.93,29.046 11.797,29.046 6.956,29.046C4.043,29.046 1.68,26.684 1.68,23.77C1.68,18.93 1.68,11.797 1.68,6.956C1.68,4.043 4.043,1.68 6.956,1.68C11.797,1.68 18.93,1.68 23.77,1.68Z" style="fill:white;"/>
                        <path d="M23.77,1.68C26.684,1.68 29.046,4.043 29.046,6.956L29.046,23.77C29.046,26.684 26.684,29.046 23.77,29.046L6.956,29.046C4.043,29.046 1.68,26.684 1.68,23.77L1.68,6.956C1.68,4.043 4.043,1.68 6.956,1.68L23.77,1.68ZM23.77,3.439L6.956,3.439C5.014,3.439 3.439,5.014 3.439,6.956L3.439,23.77C3.439,25.713 5.014,27.288 6.956,27.288L23.77,27.288C25.713,27.288 27.288,25.713 27.288,23.77L27.288,6.956C27.288,5.014 25.713,3.439 23.77,3.439Z" style="fill:rgb(163,163,163);"/>
                    </g>
                    <g transform="matrix(0.2285,3.01388e-15,-7.23157e-16,0.333104,-0.895302,-4.09821)">
                        <g transform="matrix(2.61058,-2.36201e-14,1.07727e-14,3.40389,-601.626,-20.128)">
                            <path d="M299.323,18.728L301.323,16.728L303.323,18.728" style="fill:none;stroke:rgb(204,204,204);stroke-width:1.33px;"/>
                            <path d="M301.323,26.53L301.323,16.728" style="fill:none;stroke:rgb(204,204,204);stroke-width:1.33px;stroke-linejoin:round;stroke-miterlimit:1.5;"/>
                        </g>
                    </g>
                    <g transform="matrix(0.161574,0.307117,-0.123917,0.23554,26.9838,-54.0683)">
                        <g transform="matrix(1.84596,-2.40692,1.84596,2.40692,-441.25,759.025)">
                            <path d="M316.828,19.599L319.656,19.599L319.656,22.427" style="fill:none;stroke:rgb(204,204,204);stroke-width:1.33px;"/>
                            <path d="M312.726,26.53C312.726,26.53 317.803,21.452 319.656,19.599" style="fill:none;stroke:rgb(204,204,204);stroke-width:1.33px;stroke-linejoin:round;stroke-miterlimit:1.5;"/>
                        </g>
                    </g>
                    <g transform="matrix(-0.161574,0.307117,-0.123917,-0.23554,86.1522,3.68104)">
                        <g transform="matrix(-1.84596,-2.40692,1.84596,-2.40692,671.208,936.67)">
                            <path d="M318.627,52.408L318.627,55.236L315.798,55.236" style="fill:none;stroke:rgb(204,204,204);stroke-width:1.33px;"/>
                            <path d="M311.696,48.306C311.696,48.306 316.774,53.383 318.627,55.236" style="fill:none;stroke:rgb(204,204,204);stroke-width:1.33px;stroke-linejoin:round;stroke-miterlimit:1.5;"/>
                        </g>
                    </g>
                    <g transform="matrix(-6.58334e-16,0.434329,-0.175245,-2.28212e-17,60.7839,-48.1444)">
                        <g transform="matrix(-1.78853e-16,-3.40389,2.61058,-9.80701e-15,85.975,1136.41)">
                            <path d="M321.041,35.932L323.041,37.932L321.041,39.932" style="fill:none;stroke:rgb(204,204,204);stroke-width:1.33px;"/>
                            <path d="M313.24,37.932L323.041,37.932" style="fill:none;stroke:rgb(204,204,204);stroke-width:1.33px;stroke-linejoin:round;stroke-miterlimit:1.5;"/>
                        </g>
                    </g>
                </g>
                <g transform="matrix(1.02913,0,0,1.02913,142.398,99.9824)">
                    <g transform="matrix(0.452238,0,0,0.859608,34.4292,19)">
                        <path d="M23.77,1.68C26.684,1.68 29.046,4.043 29.046,6.956L29.046,23.77C29.046,26.684 26.684,29.046 23.77,29.046C18.93,29.046 11.797,29.046 6.956,29.046C4.043,29.046 1.68,26.684 1.68,23.77C1.68,18.93 1.68,11.797 1.68,6.956C1.68,4.043 4.043,1.68 6.956,1.68C11.797,1.68 18.93,1.68 23.77,1.68Z" style="fill:white;"/>
                        <path d="M23.77,1.68C26.684,1.68 29.046,4.043 29.046,6.956L29.046,23.77C29.046,26.684 26.684,29.046 23.77,29.046L6.956,29.046C4.043,29.046 1.68,26.684 1.68,23.77L1.68,6.956C1.68,4.043 4.043,1.68 6.956,1.68L23.77,1.68ZM23.77,3.439L6.956,3.439C5.014,3.439 3.439,5.014 3.439,6.956L3.439,23.77C3.439,25.713 5.014,27.288 6.956,27.288L23.77,27.288C25.713,27.288 27.288,25.713 27.288,23.77L27.288,6.956C27.288,5.014 25.713,3.439 23.77,3.439Z" style="fill:rgb(163,163,163);"/>
                    </g>
                    <g transform="matrix(0.2285,3.01388e-15,-7.23157e-16,0.333104,-0.895302,-4.09821)">
                        <g transform="matrix(2.61058,-2.36201e-14,1.07727e-14,3.40389,-601.626,-279.354)">
                            <path d="M299.323,94.884L301.323,92.884L303.323,94.884" style="fill:none;stroke:rgb(204,204,204);stroke-width:1.33px;"/>
                            <path d="M301.323,102.685L301.323,92.884" style="fill:none;stroke:rgb(204,204,204);stroke-width:1.33px;stroke-linejoin:round;stroke-miterlimit:1.5;"/>
                        </g>
                    </g>
                    <g transform="matrix(0.161574,0.307117,-0.123917,0.23554,26.9838,-54.0683)">
                        <g transform="matrix(1.84596,-2.40692,1.84596,2.40692,-581.83,575.725)">
                            <path d="M316.828,95.755L319.656,95.755L319.656,98.583" style="fill:none;stroke:rgb(204,204,204);stroke-width:1.33px;"/>
                            <path d="M312.726,102.685C312.726,102.685 317.803,97.608 319.656,95.755" style="fill:none;stroke:rgb(204,204,204);stroke-width:1.33px;stroke-linejoin:round;stroke-miterlimit:1.5;"/>
                        </g>
                    </g>
                    <g transform="matrix(-0.161574,0.307117,-0.123917,-0.23554,86.1522,3.68104)">
                        <g transform="matrix(-1.84596,-2.40692,1.84596,-2.40692,530.627,1119.97)">
                            <path d="M318.627,128.564L318.627,131.392L315.798,131.392" style="fill:none;stroke:rgb(204,204,204);stroke-width:1.33px;"/>
                            <path d="M311.696,124.462C311.696,124.462 316.774,129.539 318.627,131.392" style="fill:none;stroke:rgb(204,204,204);stroke-width:1.33px;stroke-linejoin:round;stroke-miterlimit:1.5;"/>
                        </g>
                    </g>
                    <g transform="matrix(-6.58334e-16,0.434329,-0.175245,-2.28212e-17,60.7839,-48.1444)">
                        <g transform="matrix(-1.78853e-16,-3.40389,2.61058,-9.80701e-15,-112.835,1136.41)">
                            <path d="M321.041,112.088L323.041,114.088L321.041,116.088" style="fill:none;stroke:rgb(51,51,51);stroke-width:1.33px;"/>
                            <path d="M313.24,114.088L323.041,114.088" style="fill:none;stroke:rgb(51,51,51);stroke-width:1.33px;stroke-linejoin:round;stroke-miterlimit:1.5;"/>
                        </g>
                    </g>
                </g>
                <g transform="matrix(1.02913,0,0,1.02913,142.398,144.415)">
                    <g transform="matrix(0.452238,0,0,0.859608,34.4292,19)">
                        <path d="M23.77,1.68C26.684,1.68 29.046,4.043 29.046,6.956L29.046,23.77C29.046,26.684 26.684,29.046 23.77,29.046C18.93,29.046 11.797,29.046 6.956,29.046C4.043,29.046 1.68,26.684 1.68,23.77C1.68,18.93 1.68,11.797 1.68,6.956C1.68,4.043 4.043,1.68 6.956,1.68C11.797,1.68 18.93,1.68 23.77,1.68Z" style="fill:white;"/>
                        <path d="M23.77,1.68C26.684,1.68 29.046,4.043 29.046,6.956L29.046,23.77C29.046,26.684 26.684,29.046 23.77,29.046L6.956,29.046C4.043,29.046 1.68,26.684 1.68,23.77L1.68,6.956C1.68,4.043 4.043,1.68 6.956,1.68L23.77,1.68ZM23.77,3.439L6.956,3.439C5.014,3.439 3.439,5.014 3.439,6.956L3.439,23.77C3.439,25.713 5.014,27.288 6.956,27.288L23.77,27.288C25.713,27.288 27.288,25.713 27.288,23.77L27.288,6.956C27.288,5.014 25.713,3.439 23.77,3.439Z" style="fill:rgb(163,163,163);"/>
                    </g>
                    <g transform="matrix(0.2285,3.01388e-15,-7.23157e-16,0.333104,-0.895302,-4.09821)">
                        <g transform="matrix(2.61058,-2.36201e-14,1.07727e-14,3.40389,-601.626,-408.967)">
                            <path d="M299.323,132.962L301.323,130.962L303.323,132.962" style="fill:none;stroke:rgb(51,51,51);stroke-width:1.33px;"/>
                            <path d="M301.323,140.763L301.323,130.962" style="fill:none;stroke:rgb(51,51,51);stroke-width:1.33px;stroke-linejoin:round;stroke-miterlimit:1.5;"/>
                        </g>
                    </g>
                    <g transform="matrix(0.161574,0.307117,-0.123917,0.23554,26.9838,-54.0683)">
                        <g transform="matrix(1.84596,-2.40692,1.84596,2.40692,-652.121,484.074)">
                            <path d="M316.828,133.833L319.656,133.833L319.656,136.661" style="fill:none;stroke:rgb(204,204,204);stroke-width:1.33px;"/>
                            <path d="M312.726,140.763C312.726,140.763 317.803,135.686 319.656,133.833" style="fill:none;stroke:rgb(204,204,204);stroke-width:1.33px;stroke-linejoin:round;stroke-miterlimit:1.5;"/>
                        </g>
                    </g>
                    <g transform="matrix(-0.161574,0.307117,-0.123917,-0.23554,86.1522,3.68104)">
                        <g transform="matrix(-1.84596,-2.40692,1.84596,-2.40692,460.337,1211.62)">
                            <path d="M318.627,166.641L318.627,169.47L315.798,169.47" style="fill:none;stroke:rgb(204,204,204);stroke-width:1.33px;"/>
                            <path d="M311.696,162.539C311.696,162.539 316.774,167.617 318.627,169.47" style="fill:none;stroke:rgb(204,204,204);stroke-width:1.33px;stroke-linejoin:round;stroke-miterlimit:1.5;"/>
                        </g>
                    </g>
                    <g transform="matrix(-6.58334e-16,0.434329,-0.175245,-2.28212e-17,60.7839,-48.1444)">
                        <g transform="matrix(-1.78853e-16,-3.40389,2.61058,-9.80701e-15,-212.241,1136.41)">
                            <path d="M321.041,150.166L323.041,152.166L321.041,154.166" style="fill:none;stroke:rgb(204,204,204);stroke-width:1.33px;"/>
                            <path d="M313.24,152.166L323.041,152.166" style="fill:none;stroke:rgb(204,204,204);stroke-width:1.33px;stroke-linejoin:round;stroke-miterlimit:1.5;"/>
                        </g>
                    </g>
                </g>
                <g transform="matrix(1.02913,0,0,1.02913,142.398,188.847)">
                    <g transform="matrix(0.452238,0,0,0.859608,34.4292,19)">
                        <path d="M23.77,1.68C26.684,1.68 29.046,4.043 29.046,6.956L29.046,23.77C29.046,26.684 26.684,29.046 23.77,29.046C18.93,29.046 11.797,29.046 6.956,29.046C4.043,29.046 1.68,26.684 1.68,23.77C1.68,18.93 1.68,11.797 1.68,6.956C1.68,4.043 4.043,1.68 6.956,1.68C11.797,1.68 18.93,1.68 23.77,1.68Z" style="fill:white;"/>
                        <path d="M23.77,1.68C26.684,1.68 29.046,4.043 29.046,6.956L29.046,23.77C29.046,26.684 26.684,29.046 23.77,29.046L6.956,29.046C4.043,29.046 1.68,26.684 1.68,23.77L1.68,6.956C1.68,4.043 4.043,1.68 6.956,1.68L23.77,1.68ZM23.77,3.439L6.956,3.439C5.014,3.439 3.439,5.014 3.439,6.956L3.439,23.77C3.439,25.713 5.014,27.288 6.956,27.288L23.77,27.288C25.713,27.288 27.288,25.713 27.288,23.77L27.288,6.956C27.288,5.014 25.713,3.439 23.77,3.439Z" style="fill:rgb(163,163,163);"/>
                    </g>
                    <g transform="matrix(0.2285,3.01388e-15,-7.23157e-16,0.333104,-0.895302,-4.09821)">
                        <g transform="matrix(2.61058,-2.36201e-14,1.07727e-14,3.40389,-601.626,-538.58)">
                            <path d="M299.323,171.04L301.323,169.04L303.323,171.04" style="fill:none;stroke:rgb(51,51,51);stroke-width:1.33px;"/>
                            <path d="M301.323,178.841L301.323,169.04" style="fill:none;stroke:rgb(51,51,51);stroke-width:1.33px;stroke-linejoin:round;stroke-miterlimit:1.5;"/>
                        </g>
                    </g>
                    <g transform="matrix(0.161574,0.307117,-0.123917,0.23554,26.9838,-54.0683)">
                        <g transform="matrix(1.84596,-2.40692,1.84596,2.40692,-722.411,392.424)">
                            <path d="M316.828,171.911L319.656,171.911L319.656,174.739" style="fill:none;stroke:rgb(204,204,204);stroke-width:1.33px;"/>
                            <path d="M312.726,178.841C312.726,178.841 317.803,173.764 319.656,171.911" style="fill:none;stroke:rgb(204,204,204);stroke-width:1.33px;stroke-linejoin:round;stroke-miterlimit:1.5;"/>
                        </g>
                    </g>
                    <g transform="matrix(-0.161574,0.307117,-0.123917,-0.23554,86.1522,3.68104)">
                        <g transform="matrix(-1.84596,-2.40692,1.84596,-2.40692,390.047,1303.27)">
                            <path d="M318.627,204.719L318.627,207.548L315.798,207.548" style="fill:none;stroke:rgb(204,204,204);stroke-width:1.33px;"/>
                            <path d="M311.696,200.617C311.696,200.617 316.774,205.695 318.627,207.548" style="fill:none;stroke:rgb(204,204,204);stroke-width:1.33px;stroke-linejoin:round;stroke-miterlimit:1.5;"/>
                        </g>
                    </g>
                    <g transform="matrix(-6.58334e-16,0.434329,-0.175245,-2.28212e-17,60.7839,-48.1444)">
                        <g transform="matrix(-1.78853e-16,-3.40389,2.61058,-9.80701e-15,-311.646,1136.41)">
                            <path d="M321.041,188.244L323.041,190.244L321.041,192.244" style="fill:none;stroke:rgb(204,204,204);stroke-width:1.33px;"/>
                            <path d="M313.24,190.244L323.041,190.244" style="fill:none;stroke:rgb(204,204,204);stroke-width:1.33px;stroke-linejoin:round;stroke-miterlimit:1.5;"/>
                        </g>
                    </g>
                </g>
            </g>
        </g>
    </g>
</svg>
