<?xml version="1.0" encoding="UTF-8" standalone="no"?>
<!DOCTYPE svg PUBLIC "-//W3C//DTD SVG 1.1//EN" "http://www.w3.org/Graphics/SVG/1.1/DTD/svg11.dtd">
<svg width="100%" height="100%" viewBox="0 0 422 244" version="1.1" xmlns="http://www.w3.org/2000/svg" xmlns:xlink="http://www.w3.org/1999/xlink" xml:space="preserve" xmlns:serif="http://www.serif.com/" style="fill-rule:evenodd;clip-rule:evenodd;stroke-linecap:round;stroke-miterlimit:10;">
    <g id="Data-Flow" serif:id="Data Flow" transform="matrix(1.85382,0,0,0.93126,-2.63443e-14,0)">
        <rect x="0" y="0" width="227.141" height="261.381" style="fill:none;"/>
        <clipPath id="_clip1">
            <rect x="0" y="0" width="227.141" height="261.381"/>
        </clipPath>
        <g clip-path="url(#_clip1)">
            <g transform="matrix(0.613893,0,0,1.26654,-3.56672e-14,-1.64543)">
                <rect x="0" y="0" width="370" height="224" style="fill:rgb(250,250,250);"/>
            </g>
            <g transform="matrix(1.91675,0,0,3.11407,20.4654,82.848)">
                <path d="M24.544,1.68C25.738,1.68 26.883,2.262 27.728,3.296C28.572,4.331 29.046,5.734 29.046,7.198C29.046,11.951 29.046,18.776 29.046,23.529C29.046,26.576 27.03,29.046 24.544,29.046C19.467,29.046 11.26,29.046 6.183,29.046C4.989,29.046 3.844,28.465 2.999,27.43C2.155,26.396 1.68,24.992 1.68,23.529C1.68,18.776 1.68,11.951 1.68,7.198C1.68,4.15 3.696,1.68 6.183,1.68C11.26,1.68 19.467,1.68 24.544,1.68Z" style="fill:white;"/>
                <path d="M24.544,1.68C25.738,1.68 26.883,2.262 27.728,3.296C28.572,4.331 29.046,5.734 29.046,7.198L29.046,23.529C29.046,26.576 27.03,29.046 24.544,29.046L6.183,29.046C4.989,29.046 3.844,28.465 2.999,27.43C2.155,26.396 1.68,24.992 1.68,23.529L1.68,7.198C1.68,4.15 3.696,1.68 6.183,1.68L24.544,1.68ZM24.544,2.14L6.183,2.14C3.904,2.14 2.056,4.404 2.056,7.198L2.056,23.529C2.056,24.871 2.49,26.157 3.265,27.105C4.039,28.054 5.088,28.587 6.183,28.587L24.544,28.587C26.823,28.587 28.671,26.322 28.671,23.529L28.671,7.198C28.671,5.856 28.236,4.57 27.462,3.621C26.688,2.673 25.638,2.14 24.544,2.14Z" style="fill:rgb(163,163,163);"/>
            </g>
            <g transform="matrix(1.91675,0,0,3.11407,84.1225,82.848)">
                <path d="M24.544,1.68C25.738,1.68 26.883,2.262 27.728,3.296C28.572,4.331 29.046,5.734 29.046,7.198C29.046,11.951 29.046,18.776 29.046,23.529C29.046,26.576 27.03,29.046 24.544,29.046C19.467,29.046 11.26,29.046 6.183,29.046C4.989,29.046 3.844,28.465 2.999,27.43C2.155,26.396 1.68,24.992 1.68,23.529C1.68,18.776 1.68,11.951 1.68,7.198C1.68,4.15 3.696,1.68 6.183,1.68C11.26,1.68 19.467,1.68 24.544,1.68Z" style="fill:white;"/>
                <path d="M24.544,1.68C25.738,1.68 26.883,2.262 27.728,3.296C28.572,4.331 29.046,5.734 29.046,7.198L29.046,23.529C29.046,26.576 27.03,29.046 24.544,29.046L6.183,29.046C4.989,29.046 3.844,28.465 2.999,27.43C2.155,26.396 1.68,24.992 1.68,23.529L1.68,7.198C1.68,4.15 3.696,1.68 6.183,1.68L24.544,1.68ZM24.544,2.14L6.183,2.14C3.904,2.14 2.056,4.404 2.056,7.198L2.056,23.529C2.056,24.871 2.49,26.157 3.265,27.105C4.039,28.054 5.088,28.587 6.183,28.587L24.544,28.587C26.823,28.587 28.671,26.322 28.671,23.529L28.671,7.198C28.671,5.856 28.236,4.57 27.462,3.621C26.688,2.673 25.638,2.14 24.544,2.14Z" style="fill:rgb(163,163,163);"/>
            </g>
            <g id="Bit-1" serif:id="Bit 1" transform="matrix(0.539427,0,0,1.07381,77.5408,-541.829)">
                <path d="M46.794,618.824C48.169,618.824 49.488,619.37 50.46,620.342C51.432,621.315 51.978,622.633 51.978,624.008L51.978,624.012C51.978,625.387 51.432,626.705 50.46,627.678C49.488,628.65 48.169,629.196 46.794,629.196L46.79,629.196C45.415,629.196 44.097,628.65 43.125,627.678C42.152,626.705 41.606,625.387 41.606,624.012L41.606,624.008C41.606,622.633 42.152,621.315 43.125,620.342C44.097,619.37 45.415,618.824 46.79,618.824L46.794,618.824Z" style="fill:white;"/>
                <path d="M46.794,618.824C48.169,618.824 49.488,619.37 50.46,620.342C51.432,621.315 51.978,622.633 51.978,624.008L51.978,624.012C51.978,625.387 51.432,626.705 50.46,627.678C49.488,628.65 48.169,629.196 46.794,629.196L46.79,629.196C45.415,629.196 44.097,628.65 43.125,627.678C42.152,626.705 41.606,625.387 41.606,624.012L41.606,624.008C41.606,622.633 42.152,621.315 43.125,620.342C44.097,619.37 45.415,618.824 46.79,618.824L46.794,618.824ZM46.794,620.157L46.79,620.157C45.769,620.157 44.789,620.563 44.067,621.285C43.345,622.007 42.94,622.987 42.94,624.008L42.94,624.012C42.94,625.033 43.345,626.013 44.067,626.735C44.789,627.457 45.769,627.863 46.79,627.863L46.794,627.863C47.815,627.863 48.795,627.457 49.517,626.735C50.239,626.013 50.645,625.033 50.645,624.012L50.645,624.008C50.645,622.987 50.239,622.007 49.517,621.285C48.795,620.563 47.815,620.157 46.794,620.157Z" style="fill:rgb(163,163,163);"/>
            </g>
            <g id="Bit-5" serif:id="Bit 5" transform="matrix(0.539427,0,0,1.07381,77.5408,-527.368)">
                <path d="M46.794,618.824C48.169,618.824 49.488,619.37 50.46,620.342C51.432,621.315 51.978,622.633 51.978,624.008L51.978,624.012C51.978,625.387 51.432,626.705 50.46,627.678C49.488,628.65 48.169,629.196 46.794,629.196L46.79,629.196C45.415,629.196 44.097,628.65 43.125,627.678C42.152,626.705 41.606,625.387 41.606,624.012L41.606,624.008C41.606,622.633 42.152,621.315 43.125,620.342C44.097,619.37 45.415,618.824 46.79,618.824L46.794,618.824Z" style="fill:white;"/>
                <path d="M46.794,618.824C48.169,618.824 49.488,619.37 50.46,620.342C51.432,621.315 51.978,622.633 51.978,624.008L51.978,624.012C51.978,625.387 51.432,626.705 50.46,627.678C49.488,628.65 48.169,629.196 46.794,629.196L46.79,629.196C45.415,629.196 44.097,628.65 43.125,627.678C42.152,626.705 41.606,625.387 41.606,624.012L41.606,624.008C41.606,622.633 42.152,621.315 43.125,620.342C44.097,619.37 45.415,618.824 46.79,618.824L46.794,618.824ZM46.794,620.157L46.79,620.157C45.769,620.157 44.789,620.563 44.067,621.285C43.345,622.007 42.94,622.987 42.94,624.008L42.94,624.012C42.94,625.033 43.345,626.013 44.067,626.735C44.789,627.457 45.769,627.863 46.79,627.863L46.794,627.863C47.815,627.863 48.795,627.457 49.517,626.735C50.239,626.013 50.645,625.033 50.645,624.012L50.645,624.008C50.645,622.987 50.239,622.007 49.517,621.285C48.795,620.563 47.815,620.157 46.794,620.157Z" style="fill:rgb(163,163,163);"/>
            </g>
            <g id="Bit-2" serif:id="Bit 2" transform="matrix(0.539427,0,0,1.07381,84.8048,-541.829)">
                <path d="M46.794,618.824C48.169,618.824 49.488,619.37 50.46,620.342C51.432,621.315 51.978,622.633 51.978,624.008L51.978,624.012C51.978,625.387 51.432,626.705 50.46,627.678C49.488,628.65 48.169,629.196 46.794,629.196L46.79,629.196C45.415,629.196 44.097,628.65 43.125,627.678C42.152,626.705 41.606,625.387 41.606,624.012L41.606,624.008C41.606,622.633 42.152,621.315 43.125,620.342C44.097,619.37 45.415,618.824 46.79,618.824L46.794,618.824Z" style="fill:white;"/>
                <path d="M46.794,618.824C48.169,618.824 49.488,619.37 50.46,620.342C51.432,621.315 51.978,622.633 51.978,624.008L51.978,624.012C51.978,625.387 51.432,626.705 50.46,627.678C49.488,628.65 48.169,629.196 46.794,629.196L46.79,629.196C45.415,629.196 44.097,628.65 43.125,627.678C42.152,626.705 41.606,625.387 41.606,624.012L41.606,624.008C41.606,622.633 42.152,621.315 43.125,620.342C44.097,619.37 45.415,618.824 46.79,618.824L46.794,618.824ZM46.794,620.157L46.79,620.157C45.769,620.157 44.789,620.563 44.067,621.285C43.345,622.007 42.94,622.987 42.94,624.008L42.94,624.012C42.94,625.033 43.345,626.013 44.067,626.735C44.789,627.457 45.769,627.863 46.79,627.863L46.794,627.863C47.815,627.863 48.795,627.457 49.517,626.735C50.239,626.013 50.645,625.033 50.645,624.012L50.645,624.008C50.645,622.987 50.239,622.007 49.517,621.285C48.795,620.563 47.815,620.157 46.794,620.157Z" style="fill:rgb(163,163,163);"/>
            </g>
            <g id="Bit-6" serif:id="Bit 6" transform="matrix(0.539427,0,0,1.07381,84.8048,-527.368)">
                <path d="M46.794,618.824C48.169,618.824 49.488,619.37 50.46,620.342C51.432,621.315 51.978,622.633 51.978,624.008L51.978,624.012C51.978,625.387 51.432,626.705 50.46,627.678C49.488,628.65 48.169,629.196 46.794,629.196L46.79,629.196C45.415,629.196 44.097,628.65 43.125,627.678C42.152,626.705 41.606,625.387 41.606,624.012L41.606,624.008C41.606,622.633 42.152,621.315 43.125,620.342C44.097,619.37 45.415,618.824 46.79,618.824L46.794,618.824Z" style="fill:white;"/>
                <path d="M46.794,618.824C48.169,618.824 49.488,619.37 50.46,620.342C51.432,621.315 51.978,622.633 51.978,624.008L51.978,624.012C51.978,625.387 51.432,626.705 50.46,627.678C49.488,628.65 48.169,629.196 46.794,629.196L46.79,629.196C45.415,629.196 44.097,628.65 43.125,627.678C42.152,626.705 41.606,625.387 41.606,624.012L41.606,624.008C41.606,622.633 42.152,621.315 43.125,620.342C44.097,619.37 45.415,618.824 46.79,618.824L46.794,618.824ZM46.794,620.157L46.79,620.157C45.769,620.157 44.789,620.563 44.067,621.285C43.345,622.007 42.94,622.987 42.94,624.008L42.94,624.012C42.94,625.033 43.345,626.013 44.067,626.735C44.789,627.457 45.769,627.863 46.79,627.863L46.794,627.863C47.815,627.863 48.795,627.457 49.517,626.735C50.239,626.013 50.645,625.033 50.645,624.012L50.645,624.008C50.645,622.987 50.239,622.007 49.517,621.285C48.795,620.563 47.815,620.157 46.794,620.157Z" style="fill:rgb(163,163,163);"/>
            </g>
            <g id="Bit-3" serif:id="Bit 3" transform="matrix(0.539427,0,0,1.07381,92.0688,-541.829)">
                <path d="M46.794,618.824C48.169,618.824 49.488,619.37 50.46,620.342C51.432,621.315 51.978,622.633 51.978,624.008L51.978,624.012C51.978,625.387 51.432,626.705 50.46,627.678C49.488,628.65 48.169,629.196 46.794,629.196L46.79,629.196C45.415,629.196 44.097,628.65 43.125,627.678C42.152,626.705 41.606,625.387 41.606,624.012L41.606,624.008C41.606,622.633 42.152,621.315 43.125,620.342C44.097,619.37 45.415,618.824 46.79,618.824L46.794,618.824Z" style="fill:rgb(112,112,112);"/>
                <path d="M46.794,618.824C48.169,618.824 49.488,619.37 50.46,620.342C51.432,621.315 51.978,622.633 51.978,624.008L51.978,624.012C51.978,625.387 51.432,626.705 50.46,627.678C49.488,628.65 48.169,629.196 46.794,629.196L46.79,629.196C45.415,629.196 44.097,628.65 43.125,627.678C42.152,626.705 41.606,625.387 41.606,624.012L41.606,624.008C41.606,622.633 42.152,621.315 43.125,620.342C44.097,619.37 45.415,618.824 46.79,618.824L46.794,618.824ZM46.794,620.157L46.79,620.157C45.769,620.157 44.789,620.563 44.067,621.285C43.345,622.007 42.94,622.987 42.94,624.008L42.94,624.012C42.94,625.033 43.345,626.013 44.067,626.735C44.789,627.457 45.769,627.863 46.79,627.863L46.794,627.863C47.815,627.863 48.795,627.457 49.517,626.735C50.239,626.013 50.645,625.033 50.645,624.012L50.645,624.008C50.645,622.987 50.239,622.007 49.517,621.285C48.795,620.563 47.815,620.157 46.794,620.157Z" style="fill:rgb(163,163,163);"/>
            </g>
            <g id="Bit-7" serif:id="Bit 7" transform="matrix(0.539427,0,0,1.07381,92.0688,-527.368)">
                <path d="M46.794,618.824C48.169,618.824 49.488,619.37 50.46,620.342C51.432,621.315 51.978,622.633 51.978,624.008L51.978,624.012C51.978,625.387 51.432,626.705 50.46,627.678C49.488,628.65 48.169,629.196 46.794,629.196L46.79,629.196C45.415,629.196 44.097,628.65 43.125,627.678C42.152,626.705 41.606,625.387 41.606,624.012L41.606,624.008C41.606,622.633 42.152,621.315 43.125,620.342C44.097,619.37 45.415,618.824 46.79,618.824L46.794,618.824Z" style="fill:white;"/>
                <path d="M46.794,618.824C48.169,618.824 49.488,619.37 50.46,620.342C51.432,621.315 51.978,622.633 51.978,624.008L51.978,624.012C51.978,625.387 51.432,626.705 50.46,627.678C49.488,628.65 48.169,629.196 46.794,629.196L46.79,629.196C45.415,629.196 44.097,628.65 43.125,627.678C42.152,626.705 41.606,625.387 41.606,624.012L41.606,624.008C41.606,622.633 42.152,621.315 43.125,620.342C44.097,619.37 45.415,618.824 46.79,618.824L46.794,618.824ZM46.794,620.157L46.79,620.157C45.769,620.157 44.789,620.563 44.067,621.285C43.345,622.007 42.94,622.987 42.94,624.008L42.94,624.012C42.94,625.033 43.345,626.013 44.067,626.735C44.789,627.457 45.769,627.863 46.79,627.863L46.794,627.863C47.815,627.863 48.795,627.457 49.517,626.735C50.239,626.013 50.645,625.033 50.645,624.012L50.645,624.008C50.645,622.987 50.239,622.007 49.517,621.285C48.795,620.563 47.815,620.157 46.794,620.157Z" style="fill:rgb(163,163,163);"/>
            </g>
            <g transform="matrix(0.878699,0,0,1.01259,13.7762,-1.64543)">
                <g id="Bit-4" serif:id="Bit 4" transform="matrix(0.613893,0,0,1.06046,97.1227,-533.467)">
                    <path d="M46.794,618.824C48.169,618.824 49.488,619.37 50.46,620.342C51.432,621.315 51.978,622.633 51.978,624.008L51.978,624.012C51.978,625.387 51.432,626.705 50.46,627.678C49.488,628.65 48.169,629.196 46.794,629.196L46.79,629.196C45.415,629.196 44.097,628.65 43.125,627.678C42.152,626.705 41.606,625.387 41.606,624.012L41.606,624.008C41.606,622.633 42.152,621.315 43.125,620.342C44.097,619.37 45.415,618.824 46.79,618.824L46.794,618.824Z" style="fill:white;"/>
                    <path d="M46.794,618.824C48.169,618.824 49.488,619.37 50.46,620.342C51.432,621.315 51.978,622.633 51.978,624.008L51.978,624.012C51.978,625.387 51.432,626.705 50.46,627.678C49.488,628.65 48.169,629.196 46.794,629.196L46.79,629.196C45.415,629.196 44.097,628.65 43.125,627.678C42.152,626.705 41.606,625.387 41.606,624.012L41.606,624.008C41.606,622.633 42.152,621.315 43.125,620.342C44.097,619.37 45.415,618.824 46.79,618.824L46.794,618.824ZM46.794,620.157L46.79,620.157C45.769,620.157 44.789,620.563 44.067,621.285C43.345,622.007 42.94,622.987 42.94,624.008L42.94,624.012C42.94,625.033 43.345,626.013 44.067,626.735C44.789,627.457 45.769,627.863 46.79,627.863L46.794,627.863C47.815,627.863 48.795,627.457 49.517,626.735C50.239,626.013 50.645,625.033 50.645,624.012L50.645,624.008C50.645,622.987 50.239,622.007 49.517,621.285C48.795,620.563 47.815,620.157 46.794,620.157Z" style="fill:rgb(163,163,163);"/>
                </g>
                <g id="Bit8" transform="matrix(0.613893,0,0,1.06046,97.1227,-519.186)">
                    <path d="M46.794,618.824C48.169,618.824 49.488,619.37 50.46,620.342C51.432,621.315 51.978,622.633 51.978,624.008L51.978,624.012C51.978,625.387 51.432,626.705 50.46,627.678C49.488,628.65 48.169,629.196 46.794,629.196L46.79,629.196C45.415,629.196 44.097,628.65 43.125,627.678C42.152,626.705 41.606,625.387 41.606,624.012L41.606,624.008C41.606,622.633 42.152,621.315 43.125,620.342C44.097,619.37 45.415,618.824 46.79,618.824L46.794,618.824Z" style="fill:white;"/>
                    <path d="M46.794,618.824C48.169,618.824 49.488,619.37 50.46,620.342C51.432,621.315 51.978,622.633 51.978,624.008L51.978,624.012C51.978,625.387 51.432,626.705 50.46,627.678C49.488,628.65 48.169,629.196 46.794,629.196L46.79,629.196C45.415,629.196 44.097,628.65 43.125,627.678C42.152,626.705 41.606,625.387 41.606,624.012L41.606,624.008C41.606,622.633 42.152,621.315 43.125,620.342C44.097,619.37 45.415,618.824 46.79,618.824L46.794,618.824ZM46.794,620.157L46.79,620.157C45.769,620.157 44.789,620.563 44.067,621.285C43.345,622.007 42.94,622.987 42.94,624.008L42.94,624.012C42.94,625.033 43.345,626.013 44.067,626.735C44.789,627.457 45.769,627.863 46.79,627.863L46.794,627.863C47.815,627.863 48.795,627.457 49.517,626.735C50.239,626.013 50.645,625.033 50.645,624.012L50.645,624.008C50.645,622.987 50.239,622.007 49.517,621.285C48.795,620.563 47.815,620.157 46.794,620.157Z" style="fill:rgb(163,163,163);"/>
                </g>
            </g>
            <g transform="matrix(1.91675,0,0,3.11407,148.035,82.848)">
                <path d="M24.544,1.68C25.738,1.68 26.883,2.262 27.728,3.296C28.572,4.331 29.046,5.734 29.046,7.198C29.046,11.951 29.046,18.776 29.046,23.529C29.046,26.576 27.03,29.046 24.544,29.046C19.467,29.046 11.26,29.046 6.183,29.046C4.989,29.046 3.844,28.465 2.999,27.43C2.155,26.396 1.68,24.992 1.68,23.529C1.68,18.776 1.68,11.951 1.68,7.198C1.68,4.15 3.696,1.68 6.183,1.68C11.26,1.68 19.467,1.68 24.544,1.68Z" style="fill:white;"/>
                <path d="M24.544,1.68C25.738,1.68 26.883,2.262 27.728,3.296C28.572,4.331 29.046,5.734 29.046,7.198L29.046,23.529C29.046,26.576 27.03,29.046 24.544,29.046L6.183,29.046C4.989,29.046 3.844,28.465 2.999,27.43C2.155,26.396 1.68,24.992 1.68,23.529L1.68,7.198C1.68,4.15 3.696,1.68 6.183,1.68L24.544,1.68ZM24.544,2.14L6.183,2.14C3.904,2.14 2.056,4.404 2.056,7.198L2.056,23.529C2.056,24.871 2.49,26.157 3.265,27.105C4.039,28.054 5.088,28.587 6.183,28.587L24.544,28.587C26.823,28.587 28.671,26.322 28.671,23.529L28.671,7.198C28.671,5.856 28.236,4.57 27.462,3.621C26.688,2.673 25.638,2.14 24.544,2.14Z" style="fill:rgb(163,163,163);"/>
            </g>
            <g transform="matrix(0.539427,0,0,1.07381,-56.264,-16.1273)">
                <g transform="matrix(13.6864,0,0,13.6864,331.498,112)">
                </g>
                <text x="297.789px" y="112px" style="font-family:'SNPro-Bold', 'SN Pro';font-weight:700;font-size:13.686px;fill:rgb(112,112,112);">Unity</text>
            </g>
            <g transform="matrix(0.539427,0,0,1.07381,-121.981,-16.1273)">
                <g transform="matrix(13.6864,0,0,13.6864,340.942,112)">
                </g>
                <text x="296.009px" y="112px" style="font-family:'SNPro-Bold', 'SN Pro';font-weight:700;font-size:13.686px;fill:rgb(112,112,112);">E<tspan x="303.906px " y="112px ">S</tspan>P 32</text>
            </g>
            <g transform="matrix(0.539427,0,0,1.07381,6.71064,-16.1273)">
                <g transform="matrix(13.6864,0,0,13.6864,345.582,112)">
                </g>
                <text x="287.51px" y="112px" style="font-family:'SNPro-Bold', 'SN Pro';font-weight:700;font-size:13.686px;fill:rgb(112,112,112);">Spe<tspan x="311.667px 319.003px 326.339px " y="112px 112px 112px ">ake</tspan>rs</text>
            </g>
            <g transform="matrix(1.9956,0,0,1.25564,85.2289,188.372)">
                <path d="M24.721,1.68C27.11,1.68 29.046,7.806 29.046,15.363L29.046,15.363C29.046,22.92 27.11,29.046 24.721,29.046C19.601,29.046 11.125,29.046 6.005,29.046C4.858,29.046 3.758,27.605 2.947,25.039C2.136,22.473 1.68,18.994 1.68,15.365C1.68,15.364 1.68,15.363 1.68,15.362C1.68,7.806 3.616,1.68 6.005,1.68C11.125,1.68 19.601,1.68 24.721,1.68Z" style="fill:white;"/>
                <path d="M24.721,1.68C27.11,1.68 29.046,7.806 29.046,15.363C29.046,22.92 27.11,29.046 24.721,29.046L6.005,29.046C4.858,29.046 3.758,27.605 2.947,25.039C2.136,22.473 1.68,18.994 1.68,15.365L1.68,15.362C1.68,7.806 3.616,1.68 6.005,1.68L24.721,1.68ZM24.721,2.821L6.005,2.821C3.816,2.821 2.041,8.435 2.041,15.362L2.041,15.365C2.041,18.691 2.458,21.881 3.202,24.233C3.945,26.585 4.953,27.906 6.005,27.906L24.721,27.906C26.911,27.906 28.686,22.291 28.686,15.363C28.686,8.436 26.911,2.821 24.721,2.821Z" style="fill:rgb(163,163,163);"/>
            </g>
            <g transform="matrix(0.878699,0,0,1.01259,13.7762,-1.64543)">
                <g transform="matrix(2.27108,0,0,1.24003,6.23405,35.6662)">
                    <path d="M24.721,1.68C27.11,1.68 29.046,7.806 29.046,15.363L29.046,15.363C29.046,22.92 27.11,29.046 24.721,29.046C19.601,29.046 11.125,29.046 6.005,29.046C4.858,29.046 3.758,27.605 2.947,25.039C2.136,22.473 1.68,18.994 1.68,15.365C1.68,15.364 1.68,15.363 1.68,15.362C1.68,7.806 3.616,1.68 6.005,1.68C11.125,1.68 19.601,1.68 24.721,1.68Z" style="fill:white;"/>
                    <path d="M24.721,1.68C27.11,1.68 29.046,7.806 29.046,15.363C29.046,22.92 27.11,29.046 24.721,29.046L6.005,29.046C4.858,29.046 3.758,27.605 2.947,25.039C2.136,22.473 1.68,18.994 1.68,15.365L1.68,15.362C1.68,7.806 3.616,1.68 6.005,1.68L24.721,1.68ZM24.721,2.821L6.005,2.821C3.816,2.821 2.041,8.435 2.041,15.362L2.041,15.365C2.041,18.691 2.458,21.881 3.202,24.233C3.945,26.585 4.953,27.906 6.005,27.906L24.721,27.906C26.911,27.906 28.686,22.291 28.686,15.363C28.686,8.436 26.911,2.821 24.721,2.821Z" style="fill:rgb(163,163,163);"/>
                </g>
                <g transform="matrix(0.613893,0,0,1.06046,-154.158,-58.9311)">
                    <g transform="matrix(13.6864,0,0,13.6864,341.852,112)">
                    </g>
                    <text x="291.24px" y="112px" style="font-family:'SNPro-Bold', 'SN Pro';font-weight:700;font-size:13.686px;fill:rgb(112,112,112);">Sensors</text>
                </g>
            </g>
            <g transform="matrix(0.878699,0,0,1.01259,77.4333,-1.64543)">
                <g transform="matrix(2.27108,0,0,1.24003,6.23405,35.6662)">
                    <path d="M24.721,1.68C27.11,1.68 29.046,7.806 29.046,15.363L29.046,15.363C29.046,22.92 27.11,29.046 24.721,29.046C19.601,29.046 11.125,29.046 6.005,29.046C4.858,29.046 3.758,27.605 2.947,25.039C2.136,22.473 1.68,18.994 1.68,15.365C1.68,15.364 1.68,15.363 1.68,15.362C1.68,7.806 3.616,1.68 6.005,1.68C11.125,1.68 19.601,1.68 24.721,1.68Z" style="fill:white;"/>
                    <path d="M24.721,1.68C27.11,1.68 29.046,7.806 29.046,15.363C29.046,22.92 27.11,29.046 24.721,29.046L6.005,29.046C4.858,29.046 3.758,27.605 2.947,25.039C2.136,22.473 1.68,18.994 1.68,15.365L1.68,15.362C1.68,7.806 3.616,1.68 6.005,1.68L24.721,1.68ZM24.721,2.821L6.005,2.821C3.816,2.821 2.041,8.435 2.041,15.362L2.041,15.365C2.041,18.691 2.458,21.881 3.202,24.233C3.945,26.585 4.953,27.906 6.005,27.906L24.721,27.906C26.911,27.906 28.686,22.291 28.686,15.363C28.686,8.436 26.911,2.821 24.721,2.821Z" style="fill:rgb(163,163,163);"/>
                </g>
                <g transform="matrix(0.613893,0,0,1.06046,-154.158,-58.9311)">
                    <g transform="matrix(13.6864,0,0,13.6864,323.403,112)">
                    </g>
                    <text x="309.689px" y="112px" style="font-family:'SNPro-Bold', 'SN Pro';font-weight:700;font-size:13.686px;fill:rgb(112,112,112);">UI</text>
                </g>
            </g>
            <g transform="matrix(0.539427,0,0,1.07381,-55.7075,92.5835)">
                <g transform="matrix(13.6864,0,0,13.6864,353.205,112)">
                </g>
                <text x="279.887px" y="112px" style="font-family:'SNPro-Bold', 'SN Pro';font-weight:700;font-size:13.686px;fill:rgb(112,112,112);">Audio Bank</text>
            </g>
            <g transform="matrix(-1.07861,-3.9347e-15,3.43246e-16,-0.366424,248.713,98.525)">
                <g transform="matrix(-0.500114,5.37028e-15,-9.3258e-16,-2.93052,230.587,268.882)">
                    <path d="M94.154,75.871L91.154,78.871L88.154,75.871" style="fill:none;stroke:rgb(112,112,112);stroke-width:2px;"/>
                    <path d="M91.154,67.806L91.154,78.871" style="fill:none;stroke:rgb(112,112,112);stroke-width:2px;stroke-linejoin:round;stroke-miterlimit:1.5;stroke-dasharray:2,4,0,0,0,0;"/>
                </g>
            </g>
            <g transform="matrix(0.878699,6.99156e-16,2.06891e-16,0.791729,16.9362,16.0561)">
                <g transform="matrix(1.22751,-3.88578e-15,-4.996e-16,-0.462816,-120.711,104.163)">
                    <g transform="matrix(0.500114,-3.0276e-15,-1.45289e-15,-2.93052,82.6363,268.882)">
                        <path d="M207.681,75.871L204.681,78.871L201.681,75.871" style="fill:none;stroke:rgb(112,112,112);stroke-width:2px;"/>
                        <path d="M204.681,67.806L204.681,78.871" style="fill:none;stroke:rgb(112,112,112);stroke-width:2px;stroke-linejoin:round;stroke-miterlimit:1.5;stroke-dasharray:2,4,0,0,0,0;"/>
                    </g>
                </g>
                <g transform="matrix(-1.22751,-3.38786e-15,-4.19433e-16,0.462816,340.659,56.1322)">
                    <g transform="matrix(-0.500114,-4.83223e-15,-7.41191e-16,2.93052,293.223,-165.102)">
                        <path d="M213.397,72.22L216.397,69.22L219.397,72.22" style="fill:none;stroke:rgb(112,112,112);stroke-width:2px;"/>
                        <path d="M216.397,80.285L216.397,69.22" style="fill:none;stroke:rgb(112,112,112);stroke-width:2px;stroke-linejoin:round;stroke-miterlimit:1.5;stroke-dasharray:2,4,0,0,0,0;"/>
                    </g>
                </g>
            </g>
            <g transform="matrix(-1.4928e-10,2.14714,-0.238427,-6.56887e-11,94.1134,-266.53)">
                <g transform="matrix(-6.92161e-11,-2.26244,0.500114,-3.13122e-10,124.133,394.726)">
                    <path d="M155.202,118.707L158.202,121.707L155.202,124.707" style="fill:none;stroke:rgb(112,112,112);stroke-width:2px;"/>
                    <path d="M143.451,121.707C143.451,121.707 154.262,121.707 158.202,121.707" style="fill:none;stroke:rgb(112,112,112);stroke-width:2px;stroke-linejoin:round;stroke-miterlimit:1.5;stroke-dasharray:2,4,0,0,0,0;"/>
                </g>
            </g>
            <g transform="matrix(-1.4928e-10,2.14714,-0.250771,-6.90894e-11,158.667,-264.382)">
                <g transform="matrix(-6.92161e-11,-2.15108,0.500114,-2.97709e-10,123.132,632.716)">
                    <path d="M274.103,120.707L277.103,123.707L274.103,126.707" style="fill:none;stroke:rgb(112,112,112);stroke-width:2px;"/>
                    <path d="M261.516,123.707C261.516,123.707 273.022,123.707 277.103,123.707" style="fill:none;stroke:rgb(112,112,112);stroke-width:2px;stroke-linejoin:round;stroke-miterlimit:1.5;stroke-dasharray:2,4,0,0,0,0;"/>
                </g>
            </g>
            <g transform="matrix(1.07861,-4.53588e-15,1.48752e-16,0.345784,-84.4782,163.927)">
                <g transform="matrix(0.500114,6.56032e-15,-4.28275e-16,3.10545,78.3214,-474.074)">
                    <path d="M210.309,167.894L213.309,164.894L216.309,167.894" style="fill:none;stroke:rgb(112,112,112);stroke-width:2px;"/>
                    <path d="M213.309,175.257L213.309,164.894" style="fill:none;stroke:rgb(112,112,112);stroke-width:2px;stroke-linejoin:round;stroke-miterlimit:1.5;stroke-dasharray:2,4,0,0,0,0;"/>
                </g>
            </g>
            <g transform="matrix(0.878699,0,0,1.01259,13.7762,-1.64543)">
                <g id="Bit-11" serif:id="Bit 1" transform="matrix(0.613893,0,0,1.06046,1.42109e-14,-531.826)">
                    <rect x="41.606" y="618.824" width="10.372" height="10.372" style="fill:white;"/>
                    <path d="M51.978,618.824L51.978,629.196L41.606,629.196L41.606,618.824L51.978,618.824ZM50.645,620.157L42.94,620.157L42.94,627.863L50.645,627.863L50.645,620.157Z" style="fill:rgb(163,163,163);"/>
                </g>
                <g id="Bit-51" serif:id="Bit 5" transform="matrix(0.613893,0,0,1.06046,1.42109e-14,-517.546)">
                    <rect x="41.606" y="618.824" width="10.372" height="10.372" style="fill:white;"/>
                    <path d="M51.978,618.824L51.978,629.196L41.606,629.196L41.606,618.824L51.978,618.824ZM50.645,620.157L42.94,620.157L42.94,627.863L50.645,627.863L50.645,620.157Z" style="fill:rgb(163,163,163);"/>
                </g>
                <g id="Bit-21" serif:id="Bit 2" transform="matrix(0.613893,0,0,1.06046,8.2668,-531.826)">
                    <rect x="41.606" y="618.824" width="10.372" height="10.372" style="fill:white;"/>
                    <path d="M51.978,618.824L51.978,629.196L41.606,629.196L41.606,618.824L51.978,618.824ZM50.645,620.157L42.94,620.157L42.94,627.863L50.645,627.863L50.645,620.157Z" style="fill:rgb(163,163,163);"/>
                </g>
                <g id="Bit-61" serif:id="Bit 6" transform="matrix(0.613893,0,0,1.06046,8.2668,-517.546)">
                    <rect x="41.606" y="618.824" width="10.372" height="10.372" style="fill:white;"/>
                    <path d="M51.978,618.824L51.978,629.196L41.606,629.196L41.606,618.824L51.978,618.824ZM50.645,620.157L42.94,620.157L42.94,627.863L50.645,627.863L50.645,620.157Z" style="fill:rgb(163,163,163);"/>
                </g>
                <g id="Bit-31" serif:id="Bit 3" transform="matrix(0.613893,0,0,1.06046,16.5336,-531.826)">
                    <rect x="41.606" y="618.824" width="10.372" height="10.372" style="fill:rgb(112,112,112);"/>
                    <path d="M51.978,618.824L51.978,629.196L41.606,629.196L41.606,618.824L51.978,618.824ZM50.645,620.157L42.94,620.157L42.94,627.863L50.645,627.863L50.645,620.157Z" style="fill:rgb(163,163,163);"/>
                </g>
                <g id="Bit-71" serif:id="Bit 7" transform="matrix(0.613893,0,0,1.06046,16.5336,-517.546)">
                    <rect x="41.606" y="618.824" width="10.372" height="10.372" style="fill:white;"/>
                    <path d="M51.978,618.824L51.978,629.196L41.606,629.196L41.606,618.824L51.978,618.824ZM50.645,620.157L42.94,620.157L42.94,627.863L50.645,627.863L50.645,620.157Z" style="fill:rgb(163,163,163);"/>
                </g>
                <g id="Bit-41" serif:id="Bit 4" transform="matrix(0.613893,0,0,1.06046,24.5557,-531.826)">
                    <rect x="41.606" y="618.824" width="10.372" height="10.372" style="fill:white;"/>
                    <path d="M51.978,618.824L51.978,629.196L41.606,629.196L41.606,618.824L51.978,618.824ZM50.645,620.157L42.94,620.157L42.94,627.863L50.645,627.863L50.645,620.157Z" style="fill:rgb(163,163,163);"/>
                </g>
                <g id="Bit81" serif:id="Bit8" transform="matrix(0.613893,0,0,1.06046,24.5557,-517.546)">
                    <rect x="41.606" y="618.824" width="10.372" height="10.372" style="fill:white;"/>
                    <path d="M51.978,618.824L51.978,629.196L41.606,629.196L41.606,618.824L51.978,618.824ZM50.645,620.157L42.94,620.157L42.94,627.863L50.645,627.863L50.645,620.157Z" style="fill:rgb(163,163,163);"/>
                </g>
            </g>
            <g transform="matrix(0.74921,0,0,1.49142,168.492,117.582)">
                <path d="M22.904,12C22.904,14.912 21.763,17.557 19.903,19.513C19.739,19.678 19.517,19.771 19.284,19.772C19.052,19.773 18.828,19.681 18.664,19.516C18.655,19.507 18.645,19.5 18.634,19.496C18.625,19.492 18.62,19.484 18.613,19.477C18.271,19.135 18.269,18.58 18.609,18.235L18.61,18.234C20.154,16.612 21.096,14.416 21.096,12C21.096,9.584 20.154,7.388 18.618,5.759L18.616,5.758C18.28,5.417 18.282,4.869 18.621,4.53C18.632,4.52 18.64,4.506 18.644,4.492C18.647,4.485 18.654,4.482 18.658,4.478C18.824,4.312 19.05,4.219 19.285,4.219C19.519,4.22 19.744,4.314 19.909,4.481C21.763,6.443 22.904,9.088 22.904,12ZM2,15.904C1.501,15.904 1.096,15.499 1.096,15L1.096,9C1.096,8.501 1.501,8.096 2,8.096L4.886,8.096C5.556,8.096 6.205,7.859 6.718,7.428L10.005,4.661C10.343,4.376 10.816,4.313 11.217,4.5C11.617,4.686 11.873,5.088 11.873,5.53L11.873,18.47C11.873,18.912 11.617,19.314 11.217,19.5C10.816,19.687 10.343,19.624 10.005,19.339L6.718,16.572C6.205,16.141 5.556,15.904 4.886,15.904L2,15.904ZM5.622,9.904L3,9.904C2.947,9.904 2.904,9.947 2.904,10L2.904,14C2.904,14.053 2.947,14.096 3,14.096L5.622,14.096C6.234,14.096 6.828,14.308 7.302,14.696L9.939,16.854C9.968,16.877 10.008,16.882 10.041,16.866C10.075,16.85 10.096,16.817 10.096,16.78L10.096,7.221C10.096,7.183 10.075,7.15 10.041,7.134C10.008,7.118 9.968,7.123 9.939,7.146L7.302,9.304C6.828,9.692 6.234,9.904 5.622,9.904ZM17.904,12C17.904,13.527 17.324,14.918 16.388,15.98C16.223,16.151 15.998,16.248 15.761,16.251C15.524,16.253 15.295,16.16 15.127,15.992C15.121,15.986 15.111,15.982 15.111,15.97C15.11,15.945 15.1,15.922 15.083,15.904C14.757,15.579 14.749,15.053 15.065,14.718L15.066,14.716C15.707,13.993 16.096,13.042 16.096,12C16.096,10.957 15.706,10.005 15.043,9.302C14.717,8.955 14.725,8.412 15.061,8.074C15.071,8.064 15.079,8.051 15.096,8.047C15.113,8.043 15.128,8.034 15.141,8.022C15.305,7.858 15.528,7.767 15.76,7.769C15.992,7.771 16.213,7.867 16.374,8.034C17.325,9.082 17.904,10.473 17.904,12Z" style="fill:rgb(112,112,112);fill-rule:nonzero;"/>
            </g>
        </g>
    </g>
</svg>
