<?xml version="1.0" encoding="UTF-8" standalone="no"?>
<!DOCTYPE svg PUBLIC "-//W3C//DTD SVG 1.1//EN" "http://www.w3.org/Graphics/SVG/1.1/DTD/svg11.dtd">
<svg width="100%" height="100%" viewBox="0 0 422 244" version="1.1" xmlns="http://www.w3.org/2000/svg" xmlns:xlink="http://www.w3.org/1999/xlink" xml:space="preserve" xmlns:serif="http://www.serif.com/" style="fill-rule:evenodd;clip-rule:evenodd;stroke-linecap:round;stroke-miterlimit:10;">
    <g transform="matrix(1,0,0,1,0,-296)">
        <g id="Data-Flow" serif:id="Data Flow" transform="matrix(1.85382,0,0,0.93126,-2.63443e-14,296)">
            <rect x="0" y="0" width="227.141" height="261.381" style="fill:none;"/>
            <clipPath id="_clip1">
                <rect x="0" y="0" width="227.141" height="261.381"/>
            </clipPath>
            <g clip-path="url(#_clip1)">
                <g transform="matrix(0.613893,0,0,1.26654,-3.56672e-14,-1.64543)">
                    <rect x="0" y="0" width="370" height="224" style="fill:rgb(250,250,250);"/>
                </g>
                <g transform="matrix(1.91675,0,0,3.11407,84.1225,82.848)">
                    <path d="M24.544,1.68C25.738,1.68 26.883,2.262 27.728,3.296C28.572,4.331 29.046,5.734 29.046,7.198C29.046,11.951 29.046,18.776 29.046,23.529C29.046,26.576 27.03,29.046 24.544,29.046C19.467,29.046 11.26,29.046 6.183,29.046C4.989,29.046 3.844,28.465 2.999,27.43C2.155,26.396 1.68,24.992 1.68,23.529C1.68,18.776 1.68,11.951 1.68,7.198C1.68,4.15 3.696,1.68 6.183,1.68C11.26,1.68 19.467,1.68 24.544,1.68Z" style="fill:white;"/>
                    <path d="M24.544,1.68C25.738,1.68 26.883,2.262 27.728,3.296C28.572,4.331 29.046,5.734 29.046,7.198L29.046,23.529C29.046,26.576 27.03,29.046 24.544,29.046L6.183,29.046C4.989,29.046 3.844,28.465 2.999,27.43C2.155,26.396 1.68,24.992 1.68,23.529L1.68,7.198C1.68,4.15 3.696,1.68 6.183,1.68L24.544,1.68ZM24.544,2.14L6.183,2.14C3.904,2.14 2.056,4.404 2.056,7.198L2.056,23.529C2.056,24.871 2.49,26.157 3.265,27.105C4.039,28.054 5.088,28.587 6.183,28.587L24.544,28.587C26.823,28.587 28.671,26.322 28.671,23.529L28.671,7.198C28.671,5.856 28.236,4.57 27.462,3.621C26.688,2.673 25.638,2.14 24.544,2.14Z" style="fill:rgb(163,163,163);"/>
                </g>
                <g transform="matrix(0.539427,0,0,1.07381,-56.264,-16.1273)">
                    <g transform="matrix(10.6667,0,0,10.6667,352.27,112)">
                    </g>
                    <text x="277.017px" y="112px" style="font-family:'SNPro-Bold', 'SN Pro';font-weight:700;font-size:10.667px;fill:rgb(112,112,112);">Audio Manager</text>
                </g>
                <g transform="matrix(1.9956,0,0,1.25564,85.2289,188.372)">
                    <path d="M24.721,1.68C27.11,1.68 29.046,7.806 29.046,15.363L29.046,15.363C29.046,22.92 27.11,29.046 24.721,29.046C19.601,29.046 11.125,29.046 6.005,29.046C4.858,29.046 3.758,27.605 2.947,25.039C2.136,22.473 1.68,18.994 1.68,15.365C1.68,15.364 1.68,15.363 1.68,15.362C1.68,7.806 3.616,1.68 6.005,1.68C11.125,1.68 19.601,1.68 24.721,1.68Z" style="fill:white;"/>
                    <path d="M24.721,1.68C27.11,1.68 29.046,7.806 29.046,15.363C29.046,22.92 27.11,29.046 24.721,29.046L6.005,29.046C4.858,29.046 3.758,27.605 2.947,25.039C2.136,22.473 1.68,18.994 1.68,15.365L1.68,15.362C1.68,7.806 3.616,1.68 6.005,1.68L24.721,1.68ZM24.721,2.821L6.005,2.821C3.816,2.821 2.041,8.435 2.041,15.362L2.041,15.365C2.041,18.691 2.458,21.881 3.202,24.233C3.945,26.585 4.953,27.906 6.005,27.906L24.721,27.906C26.911,27.906 28.686,22.291 28.686,15.363C28.686,8.436 26.911,2.821 24.721,2.821Z" style="fill:rgb(163,163,163);"/>
                </g>
                <g transform="matrix(0.878699,0,0,1.01259,13.7762,-1.64543)">
                    <g transform="matrix(2.27108,0,0,1.24003,6.23405,35.6662)">
                        <path d="M24.721,1.68C27.11,1.68 29.046,7.806 29.046,15.363L29.046,15.363C29.046,22.92 27.11,29.046 24.721,29.046C19.601,29.046 11.125,29.046 6.005,29.046C4.858,29.046 3.758,27.605 2.947,25.039C2.136,22.473 1.68,18.994 1.68,15.365C1.68,15.364 1.68,15.363 1.68,15.362C1.68,7.806 3.616,1.68 6.005,1.68C11.125,1.68 19.601,1.68 24.721,1.68Z" style="fill:white;"/>
                        <path d="M24.721,1.68C27.11,1.68 29.046,7.806 29.046,15.363C29.046,22.92 27.11,29.046 24.721,29.046L6.005,29.046C4.858,29.046 3.758,27.605 2.947,25.039C2.136,22.473 1.68,18.994 1.68,15.365L1.68,15.362C1.68,7.806 3.616,1.68 6.005,1.68L24.721,1.68ZM24.721,2.821L6.005,2.821C3.816,2.821 2.041,8.435 2.041,15.362L2.041,15.365C2.041,18.691 2.458,21.881 3.202,24.233C3.945,26.585 4.953,27.906 6.005,27.906L24.721,27.906C26.911,27.906 28.686,22.291 28.686,15.363C28.686,8.436 26.911,2.821 24.721,2.821Z" style="fill:rgb(163,163,163);"/>
                    </g>
                    <g transform="matrix(0.613893,0,0,1.06046,-154.158,-58.9311)">
                        <g transform="matrix(13.6864,0,0,13.6864,339.012,112)">
                        </g>
                        <text x="294.08px" y="112px" style="font-family:'SNPro-Bold', 'SN Pro';font-weight:700;font-size:13.686px;fill:rgb(112,112,112);">E<tspan x="301.977px " y="112px ">S</tspan>P 32</text>
                    </g>
                </g>
                <g transform="matrix(0.878699,0,0,1.01259,141.346,-1.64543)">
                    <g transform="matrix(2.27108,0,0,1.24003,6.23405,35.6662)">
                        <path d="M24.721,1.68C27.11,1.68 29.046,7.806 29.046,15.363L29.046,15.363C29.046,22.92 27.11,29.046 24.721,29.046C19.601,29.046 11.125,29.046 6.005,29.046C4.858,29.046 3.758,27.605 2.947,25.039C2.136,22.473 1.68,18.994 1.68,15.365C1.68,15.364 1.68,15.363 1.68,15.362C1.68,7.806 3.616,1.68 6.005,1.68C11.125,1.68 19.601,1.68 24.721,1.68Z" style="fill:white;"/>
                        <path d="M24.721,1.68C27.11,1.68 29.046,7.806 29.046,15.363C29.046,22.92 27.11,29.046 24.721,29.046L6.005,29.046C4.858,29.046 3.758,27.605 2.947,25.039C2.136,22.473 1.68,18.994 1.68,15.365L1.68,15.362C1.68,7.806 3.616,1.68 6.005,1.68L24.721,1.68ZM24.721,2.821L6.005,2.821C3.816,2.821 2.041,8.435 2.041,15.362L2.041,15.365C2.041,18.691 2.458,21.881 3.202,24.233C3.945,26.585 4.953,27.906 6.005,27.906L24.721,27.906C26.911,27.906 28.686,22.291 28.686,15.363C28.686,8.436 26.911,2.821 24.721,2.821Z" style="fill:rgb(163,163,163);"/>
                    </g>
                    <g transform="matrix(0.613893,0,0,1.06046,-154.158,-58.9311)">
                        <g transform="matrix(13.6864,0,0,13.6864,346.677,112)">
                        </g>
                        <text x="286.415px" y="112px" style="font-family:'SNPro-Bold', 'SN Pro';font-weight:700;font-size:13.686px;fill:rgb(112,112,112);">K<tspan x="294.997px " y="112px ">e</tspan>yboar<tspan x="338.369px " y="112px ">d</tspan></text>
                    </g>
                </g>
                <g transform="matrix(1.9956,0,0,0.767915,146.823,118.893)">
                    <path d="M26.402,1.68C27.862,1.68 29.046,7.806 29.046,15.362C29.046,15.363 29.046,15.364 29.046,15.365C29.046,22.921 27.862,29.046 26.402,29.046C21.17,29.046 9.556,29.046 4.325,29.046C3.624,29.046 2.951,27.605 2.455,25.039C1.959,22.473 1.68,18.993 1.68,15.365C1.68,15.364 1.68,15.363 1.68,15.362C1.68,7.806 2.864,1.68 4.325,1.68C9.556,1.68 21.17,1.68 26.402,1.68Z" style="fill:white;"/>
                    <path d="M26.402,1.68C27.862,1.68 29.046,7.806 29.046,15.362L29.046,15.365C29.046,22.921 27.862,29.046 26.402,29.046L4.325,29.046C3.624,29.046 2.951,27.605 2.455,25.039C1.959,22.473 1.68,18.993 1.68,15.365L1.68,15.362C1.68,7.806 2.864,1.68 4.325,1.68L26.402,1.68ZM26.402,3.545L4.325,3.545C3.063,3.545 2.041,8.835 2.041,15.362L2.041,15.365C2.041,18.499 2.281,21.505 2.71,23.721C3.138,25.937 3.719,27.182 4.325,27.182L26.402,27.182C27.663,27.182 28.686,21.891 28.686,15.365L28.686,15.362C28.686,8.836 27.663,3.545 26.402,3.545Z" style="fill:rgb(163,163,163);"/>
                </g>
                <g transform="matrix(0.539427,0,0,1.07381,5.88703,13.9464)">
                    <g transform="matrix(9.33333,0,0,9.33333,357.085,112)">
                    </g>
                    <text x="276.007px" y="112px" style="font-family:'SNPro-Bold', 'SN Pro';font-weight:700;font-size:9.333px;fill:rgb(112,112,112);">ESP 3<tspan x="301.225px " y="112px ">2</tspan> &quot;Emulat<tspan x="343.683px " y="112px ">o</tspan>r&quot;</text>
                </g>
                <g transform="matrix(0.539427,0,0,1.07381,-55.7075,92.5835)">
                    <g transform="matrix(13.6864,0,0,13.6864,345.582,112)">
                    </g>
                    <text x="287.51px" y="112px" style="font-family:'SNPro-Bold', 'SN Pro';font-weight:700;font-size:13.686px;fill:rgb(112,112,112);">Spe<tspan x="311.667px 319.003px 326.339px " y="112px 112px 112px ">ake</tspan>rs</text>
                </g>
                <g transform="matrix(-3.64079,-1.32814e-14,1.15861e-15,-1.23685,851.007,159.608)">
                    <g transform="matrix(-0.148162,1.59098e-15,-2.76283e-16,-0.868186,233.742,129.044)">
                        <path d="M331.979,105.516L328.979,108.516L325.979,105.516" style="fill:none;stroke:rgb(112,112,112);stroke-width:2px;"/>
                        <path d="M328.979,67.806L328.979,108.516" style="fill:none;stroke:rgb(112,112,112);stroke-width:2px;stroke-linejoin:round;stroke-miterlimit:1.5;stroke-dasharray:2,4,0,0,0,0;"/>
                    </g>
                </g>
                <g transform="matrix(-1.4928e-10,2.14714,-0.238427,-6.56887e-11,94.1134,-266.53)">
                    <g transform="matrix(-6.92161e-11,-2.26244,0.500114,-3.13122e-10,124.133,394.726)">
                        <path d="M155.202,118.707L158.202,121.707L155.202,124.707" style="fill:none;stroke:rgb(112,112,112);stroke-width:2px;"/>
                        <path d="M92.53,67.806L92.53,103.061C92.53,108.006 94.495,112.749 97.991,116.246C101.488,119.743 106.231,121.707 111.176,121.707C128.402,121.707 152.206,121.707 158.202,121.707" style="fill:none;stroke:rgb(112,112,112);stroke-width:2px;stroke-linejoin:round;stroke-miterlimit:1.5;stroke-dasharray:2,4,0,0,0,0;"/>
                    </g>
                </g>
                <g transform="matrix(1.22068e-10,1.75574,0.205058,-5.64952e-11,134.178,-194.121)">
                    <g transform="matrix(8.46461e-11,2.6306,0.611602,-3.64076e-10,110.564,-654.341)">
                        <path d="M265.93,124.707L262.93,121.707L265.93,118.707" style="fill:none;stroke:rgb(112,112,112);stroke-width:2px;"/>
                        <path d="M275.418,121.707C275.418,121.707 266.468,121.707 262.93,121.707" style="fill:none;stroke:rgb(112,112,112);stroke-width:2px;stroke-linejoin:round;stroke-miterlimit:1.5;stroke-dasharray:2,4,0,0,0,0;"/>
                    </g>
                </g>
                <g transform="matrix(1.07861,4.53588e-15,1.48752e-16,-0.345784,-84.4782,199.813)">
                    <g transform="matrix(0.500114,6.56032e-15,4.28275e-16,-3.10545,78.3214,577.854)">
                        <path d="M216.309,170.842L213.309,173.842L210.309,170.842" style="fill:none;stroke:rgb(112,112,112);stroke-width:2px;"/>
                        <path d="M213.309,163.48L213.309,173.842" style="fill:none;stroke:rgb(112,112,112);stroke-width:2px;stroke-linejoin:round;stroke-miterlimit:1.5;stroke-dasharray:2,4,0,0,0,0;"/>
                    </g>
                </g>
                <g transform="matrix(0.74921,0,0,1.49142,104.58,122.317)">
                    <path d="M22.904,12C22.904,14.912 21.763,17.557 19.903,19.513C19.739,19.678 19.517,19.771 19.284,19.772C19.052,19.773 18.828,19.681 18.664,19.516C18.655,19.507 18.645,19.5 18.634,19.496C18.625,19.492 18.62,19.484 18.613,19.477C18.271,19.135 18.269,18.58 18.609,18.235L18.61,18.234C20.154,16.612 21.096,14.416 21.096,12C21.096,9.584 20.154,7.388 18.618,5.759L18.616,5.758C18.28,5.417 18.282,4.869 18.621,4.53C18.632,4.52 18.64,4.506 18.644,4.492C18.647,4.485 18.654,4.482 18.658,4.478C18.824,4.312 19.05,4.219 19.285,4.219C19.519,4.22 19.744,4.314 19.909,4.481C21.763,6.443 22.904,9.088 22.904,12ZM2,15.904C1.501,15.904 1.096,15.499 1.096,15L1.096,9C1.096,8.501 1.501,8.096 2,8.096L4.886,8.096C5.556,8.096 6.205,7.859 6.718,7.428L10.005,4.661C10.343,4.376 10.816,4.313 11.217,4.5C11.617,4.686 11.873,5.088 11.873,5.53L11.873,18.47C11.873,18.912 11.617,19.314 11.217,19.5C10.816,19.687 10.343,19.624 10.005,19.339L6.718,16.572C6.205,16.141 5.556,15.904 4.886,15.904L2,15.904ZM5.622,9.904L3,9.904C2.947,9.904 2.904,9.947 2.904,10L2.904,14C2.904,14.053 2.947,14.096 3,14.096L5.622,14.096C6.234,14.096 6.828,14.308 7.302,14.696L9.939,16.854C9.968,16.877 10.008,16.882 10.041,16.866C10.075,16.85 10.096,16.817 10.096,16.78L10.096,7.221C10.096,7.183 10.075,7.15 10.041,7.134C10.008,7.118 9.968,7.123 9.939,7.146L7.302,9.304C6.828,9.692 6.234,9.904 5.622,9.904ZM17.904,12C17.904,13.527 17.324,14.918 16.388,15.98C16.223,16.151 15.998,16.248 15.761,16.251C15.524,16.253 15.295,16.16 15.127,15.992C15.121,15.986 15.111,15.982 15.111,15.97C15.11,15.945 15.1,15.922 15.083,15.904C14.757,15.579 14.749,15.053 15.065,14.718L15.066,14.716C15.707,13.993 16.096,13.042 16.096,12C16.096,10.957 15.706,10.005 15.043,9.302C14.717,8.955 14.725,8.412 15.061,8.074C15.071,8.064 15.079,8.051 15.096,8.047C15.113,8.043 15.128,8.034 15.141,8.022C15.305,7.858 15.528,7.767 15.76,7.769C15.992,7.771 16.213,7.867 16.374,8.034C17.325,9.082 17.904,10.473 17.904,12Z" style="fill:rgb(112,112,112);fill-rule:nonzero;"/>
                </g>
            </g>
        </g>
    </g>
</svg>
