<?xml version="1.0" encoding="UTF-8" standalone="no"?>
<!DOCTYPE svg PUBLIC "-//W3C//DTD SVG 1.1//EN" "http://www.w3.org/Graphics/SVG/1.1/DTD/svg11.dtd">
<svg width="100%" height="100%" viewBox="0 0 370 186" version="1.1" xmlns="http://www.w3.org/2000/svg" xmlns:xlink="http://www.w3.org/1999/xlink" xml:space="preserve" xmlns:serif="http://www.serif.com/" style="fill-rule:evenodd;clip-rule:evenodd;stroke-linecap:round;stroke-linejoin:round;stroke-miterlimit:1.5;">
    <g id="BoardToPcCommunication" transform="matrix(1.62895,0,0,0.71136,3.36947e-14,0)">
        <rect x="0" y="0" width="227.141" height="261.381" style="fill:none;"/>
        <clipPath id="_clip1">
            <rect x="0" y="0" width="227.141" height="261.381"/>
        </clipPath>
        <g clip-path="url(#_clip1)">
            <g transform="matrix(0.613893,0,0,1.16688,0.783543,-3.55271e-15)">
                <rect x="0" y="0" width="370" height="224" style="fill:rgb(250,250,250);"/>
            </g>
            <g transform="matrix(2.27108,0,0,5.20057,20.1358,50.7924)">
                <path d="M24.721,1.68C25.869,1.68 26.969,2.136 27.78,2.947C28.591,3.758 29.046,4.858 29.046,6.005C29.046,11.125 29.046,19.601 29.046,24.721C29.046,27.11 27.11,29.046 24.721,29.046C19.601,29.046 11.125,29.046 6.005,29.046C4.858,29.046 3.758,28.591 2.947,27.78C2.136,26.969 1.68,25.869 1.68,24.721C1.68,19.601 1.68,11.125 1.68,6.005C1.68,3.617 3.617,1.68 6.005,1.68C11.125,1.68 19.601,1.68 24.721,1.68Z" style="fill:white;"/>
                <path d="M24.721,1.68C25.869,1.68 26.969,2.136 27.78,2.947C28.591,3.758 29.046,4.858 29.046,6.005L29.046,24.721C29.046,27.11 27.11,29.046 24.721,29.046L6.005,29.046C4.858,29.046 3.758,28.591 2.947,27.78C2.136,26.969 1.68,25.869 1.68,24.721L1.68,6.005C1.68,3.617 3.617,1.68 6.005,1.68L24.721,1.68ZM24.721,2.041L6.005,2.041C3.816,2.041 2.041,3.816 2.041,6.005L2.041,24.721C2.041,25.773 2.458,26.781 3.202,27.525C3.945,28.268 4.954,28.686 6.005,28.686L24.721,28.686C26.911,28.686 28.686,26.911 28.686,24.721L28.686,6.005C28.686,4.954 28.268,3.945 27.525,3.202C26.781,2.458 25.773,2.041 24.721,2.041Z" style="fill:rgb(163,163,163);"/>
            </g>
            <g transform="matrix(2.27108,0,0,4.07671,137.222,68.0586)">
                <path d="M24.721,1.68C27.11,1.68 29.046,4.151 29.046,7.198L29.046,23.529C29.046,26.576 27.11,29.046 24.721,29.046C19.601,29.046 11.125,29.046 6.005,29.046C3.617,29.046 1.68,26.576 1.68,23.529C1.68,18.776 1.68,11.951 1.68,7.198C1.68,4.15 3.617,1.68 6.005,1.68C11.125,1.68 19.601,1.68 24.721,1.68Z" style="fill:white;"/>
                <path d="M24.721,1.68C27.11,1.68 29.046,4.151 29.046,7.198L29.046,23.529C29.046,26.576 27.11,29.046 24.721,29.046L6.005,29.046C3.617,29.046 1.68,26.576 1.68,23.529L1.68,7.198C1.68,4.15 3.617,1.68 6.005,1.68L24.721,1.68ZM24.721,2.14L6.005,2.14C3.816,2.14 2.041,4.404 2.041,7.198L2.041,23.529C2.041,26.322 3.816,28.587 6.005,28.587L24.721,28.587C26.911,28.587 28.686,26.322 28.686,23.529L28.686,7.198C28.686,4.404 26.911,2.14 24.721,2.14Z" style="fill:rgb(163,163,163);"/>
            </g>
            <g transform="matrix(0.604416,0,0,1.08496,2.65726,9.15803)">
                <path d="M280.363,61.38L280.363,162.62" style="fill:none;stroke:rgb(163,163,163);stroke-width:1.51px;"/>
            </g>
            <g transform="matrix(1,0,0,1.20471,-3.23705e-15,-3.2706)">
                <g>
                    <g transform="matrix(0.868065,0,0,1.65001,-62.3222,-37.5291)">
                        <circle cx="245.197" cy="77.68" r="2.684" style="fill:white;"/>
                        <path d="M245.197,74.995C246.679,74.995 247.881,76.198 247.881,77.68C247.881,79.161 246.679,80.364 245.197,80.364C243.715,80.364 242.513,79.161 242.513,77.68C242.513,76.198 243.715,74.995 245.197,74.995ZM245.197,75.938C244.236,75.938 243.456,76.718 243.456,77.68C243.456,78.641 244.236,79.421 245.197,79.421C246.158,79.421 246.938,78.641 246.938,77.68C246.938,76.718 246.158,75.938 245.197,75.938Z" style="fill:rgb(163,163,163);"/>
                    </g>
                    <g transform="matrix(0.868065,0,0,1.65001,-62.3222,-26.0279)">
                        <circle cx="245.197" cy="77.68" r="2.684" style="fill:white;"/>
                        <path d="M245.197,74.995C246.679,74.995 247.881,76.198 247.881,77.68C247.881,79.161 246.679,80.364 245.197,80.364C243.715,80.364 242.513,79.161 242.513,77.68C242.513,76.198 243.715,74.995 245.197,74.995ZM245.197,75.938C244.236,75.938 243.456,76.718 243.456,77.68C243.456,78.641 244.236,79.421 245.197,79.421C246.158,79.421 246.938,78.641 246.938,77.68C246.938,76.718 246.158,75.938 245.197,75.938Z" style="fill:rgb(163,163,163);"/>
                    </g>
                    <g transform="matrix(0.868065,0,0,1.65001,-62.3222,-14.5267)">
                        <circle cx="245.197" cy="77.68" r="2.684" style="fill:white;"/>
                        <path d="M245.197,74.995C246.679,74.995 247.881,76.198 247.881,77.68C247.881,79.161 246.679,80.364 245.197,80.364C243.715,80.364 242.513,79.161 242.513,77.68C242.513,76.198 243.715,74.995 245.197,74.995ZM245.197,75.938C244.236,75.938 243.456,76.718 243.456,77.68C243.456,78.641 244.236,79.421 245.197,79.421C246.158,79.421 246.938,78.641 246.938,77.68C246.938,76.718 246.158,75.938 245.197,75.938Z" style="fill:rgb(163,163,163);"/>
                    </g>
                    <g transform="matrix(0.868065,0,0,1.65001,-56.2714,-37.5291)">
                        <circle cx="245.197" cy="77.68" r="2.684" style="fill:white;"/>
                        <path d="M245.197,74.995C246.679,74.995 247.881,76.198 247.881,77.68C247.881,79.161 246.679,80.364 245.197,80.364C243.715,80.364 242.513,79.161 242.513,77.68C242.513,76.198 243.715,74.995 245.197,74.995ZM245.197,75.938C244.236,75.938 243.456,76.718 243.456,77.68C243.456,78.641 244.236,79.421 245.197,79.421C246.158,79.421 246.938,78.641 246.938,77.68C246.938,76.718 246.158,75.938 245.197,75.938Z" style="fill:rgb(163,163,163);"/>
                    </g>
                    <g transform="matrix(0.868065,0,0,1.65001,-56.2714,-14.5267)">
                        <circle cx="245.197" cy="77.68" r="2.684" style="fill:white;"/>
                        <path d="M245.197,74.995C246.679,74.995 247.881,76.198 247.881,77.68C247.881,79.161 246.679,80.364 245.197,80.364C243.715,80.364 242.513,79.161 242.513,77.68C242.513,76.198 243.715,74.995 245.197,74.995ZM245.197,75.938C244.236,75.938 243.456,76.718 243.456,77.68C243.456,78.641 244.236,79.421 245.197,79.421C246.158,79.421 246.938,78.641 246.938,77.68C246.938,76.718 246.158,75.938 245.197,75.938Z" style="fill:rgb(163,163,163);"/>
                    </g>
                    <g transform="matrix(0.868065,0,0,1.65001,-50.2207,-37.5291)">
                        <circle cx="245.197" cy="77.68" r="2.684" style="fill:rgb(112,112,112);"/>
                        <path d="M245.197,74.995C246.679,74.995 247.881,76.198 247.881,77.68C247.881,79.161 246.679,80.364 245.197,80.364C243.715,80.364 242.513,79.161 242.513,77.68C242.513,76.198 243.715,74.995 245.197,74.995ZM245.197,75.938C244.236,75.938 243.456,76.718 243.456,77.68C243.456,78.641 244.236,79.421 245.197,79.421C246.158,79.421 246.938,78.641 246.938,77.68C246.938,76.718 246.158,75.938 245.197,75.938Z" style="fill:rgb(163,163,163);"/>
                    </g>
                    <g transform="matrix(0.868065,0,0,1.65001,-50.2207,-26.0279)">
                        <circle cx="245.197" cy="77.68" r="2.684" style="fill:white;"/>
                        <path d="M245.197,74.995C246.679,74.995 247.881,76.198 247.881,77.68C247.881,79.161 246.679,80.364 245.197,80.364C243.715,80.364 242.513,79.161 242.513,77.68C242.513,76.198 243.715,74.995 245.197,74.995ZM245.197,75.938C244.236,75.938 243.456,76.718 243.456,77.68C243.456,78.641 244.236,79.421 245.197,79.421C246.158,79.421 246.938,78.641 246.938,77.68C246.938,76.718 246.158,75.938 245.197,75.938Z" style="fill:rgb(163,163,163);"/>
                    </g>
                    <g transform="matrix(0.868065,0,0,1.65001,-50.2207,-14.5267)">
                        <circle cx="245.197" cy="77.68" r="2.684" style="fill:white;"/>
                        <path d="M245.197,74.995C246.679,74.995 247.881,76.198 247.881,77.68C247.881,79.161 246.679,80.364 245.197,80.364C243.715,80.364 242.513,79.161 242.513,77.68C242.513,76.198 243.715,74.995 245.197,74.995ZM245.197,75.938C244.236,75.938 243.456,76.718 243.456,77.68C243.456,78.641 244.236,79.421 245.197,79.421C246.158,79.421 246.938,78.641 246.938,77.68C246.938,76.718 246.158,75.938 245.197,75.938Z" style="fill:rgb(163,163,163);"/>
                    </g>
                    <g transform="matrix(0.613893,0,0,1.16688,179.32,88.1465)">
                        <path d="M18.653,19.464L18.64,19.451C18.312,19.123 18.31,18.592 18.636,18.261L18.637,18.26C20.187,16.631 21.133,14.426 21.133,12C21.133,9.574 20.188,7.369 18.645,5.734L18.643,5.732C18.321,5.405 18.323,4.881 18.647,4.557C18.66,4.544 18.67,4.529 18.677,4.512L18.684,4.504C18.843,4.345 19.059,4.256 19.284,4.257C19.509,4.257 19.724,4.347 19.882,4.507C21.729,6.462 22.867,9.098 22.867,12C22.867,14.902 21.729,17.538 19.876,19.487C19.72,19.645 19.507,19.734 19.284,19.735C19.062,19.735 18.848,19.647 18.69,19.49C18.68,19.479 18.667,19.47 18.653,19.464ZM15.147,15.958C15.144,15.928 15.131,15.9 15.109,15.878C14.798,15.566 14.79,15.064 15.092,14.743L15.094,14.74C15.741,14.011 16.133,13.051 16.133,12C16.133,10.947 15.74,9.986 15.07,9.276C14.758,8.944 14.766,8.424 15.088,8.101L15.108,8.082C15.13,8.076 15.151,8.065 15.167,8.048C15.324,7.891 15.538,7.804 15.76,7.806C15.982,7.809 16.193,7.9 16.347,8.06C17.291,9.101 17.867,10.483 17.867,12C17.867,13.517 17.291,14.899 16.36,15.955C16.203,16.118 15.987,16.211 15.76,16.213C15.533,16.216 15.315,16.126 15.154,15.965L15.147,15.958ZM2,15.867C1.521,15.867 1.133,15.479 1.133,15L1.133,9C1.133,8.521 1.521,8.133 2,8.133L4.886,8.133C5.565,8.133 6.222,7.894 6.742,7.456L10.029,4.689C10.356,4.414 10.813,4.353 11.201,4.534C11.588,4.714 11.836,5.103 11.836,5.53L11.836,18.47C11.836,18.897 11.588,19.286 11.201,19.466C10.813,19.647 10.356,19.586 10.029,19.311L6.742,16.544C6.222,16.107 5.565,15.867 4.886,15.867L2,15.867ZM5.622,9.867L3,9.867C2.926,9.867 2.867,9.926 2.867,10L2.867,14C2.867,14.074 2.926,14.133 3,14.133L5.622,14.133C6.225,14.133 6.811,14.342 7.278,14.725L9.916,16.883C9.955,16.915 10.011,16.922 10.057,16.9C10.104,16.878 10.133,16.831 10.133,16.78L10.133,7.221C10.133,7.169 10.104,7.122 10.057,7.1C10.011,7.078 9.955,7.085 9.916,7.117L7.278,9.276C6.811,9.658 6.225,9.867 5.622,9.867Z" style="fill:rgb(163,163,163);fill-rule:nonzero;"/>
                    </g>
                </g>
                <g transform="matrix(0.613893,0,0,1.16688,-6.69552,5.33149)">
                    <g transform="matrix(13.6864,0,0,13.6864,335.2,112)">
                    </g>
                    <text x="297.891px" y="112px" style="font-family:'SNPro-Bold', 'SN Pro';font-weight:700;font-size:13.686px;fill:rgb(112,112,112);">Audio</text>
                </g>
                <g transform="matrix(0.613893,0,0,1.16688,-36.7038,5.33149)">
                    <g transform="matrix(13.6864,0,0,13.6864,331.396,112)">
                    </g>
                    <text x="297.891px" y="112px" style="font-family:'SNPro-Bold', 'SN Pro';font-weight:700;font-size:13.686px;fill:rgb(112,112,112);">Sta<tspan x="318.845px " y="112px ">t</tspan>e</text>
                </g>
            </g>
            <g transform="matrix(7.51631e-17,2.81087,-1.22751,1.72116e-16,177.266,-389.321)">
                <g transform="matrix(3.06231e-17,-0.500114,0.500114,3.06231e-17,138.505,144.411)">
                    <path d="M217.149,89.968L220.149,92.968L217.149,95.968" style="fill:none;stroke:rgb(112,112,112);stroke-width:2px;stroke-linejoin:miter;stroke-miterlimit:10;"/>
                    <path d="M148.437,92.968L220.149,92.968" style="fill:none;stroke:rgb(112,112,112);stroke-width:2px;stroke-dasharray:2,4,0,0,0,0;"/>
                </g>
            </g>
            <g transform="matrix(0.613893,0,0,1.90279,1.09738e-14,-67.1719)">
                <path d="M68.821,81.22C73.364,77.359 78.166,77.391 83.228,81.317" style="fill:none;stroke:rgb(112,112,112);stroke-width:2.24px;"/>
            </g>
            <g transform="matrix(0.613893,0,0,1.40576,19.004,-25.6593)">
                <path d="M68.821,81.22C73.364,77.359 78.166,77.391 83.228,81.317" style="fill:none;stroke:rgb(112,112,112);stroke-width:2.67px;"/>
            </g>
            <g transform="matrix(-0.728013,-0.632554,0.328749,-1.98399,94.3342,387.321)">
                <path d="M68.821,81.22C73.364,77.359 78.166,77.391 83.228,81.317" style="fill:none;stroke:rgb(112,112,112);stroke-width:1.91px;"/>
            </g>
            <g transform="matrix(0.613893,0,0,1.67299,2.51847e-14,39.7814)">
                <path d="M68.821,81.22C73.364,77.359 78.166,77.391 83.228,81.317" style="fill:none;stroke:rgb(112,112,112);stroke-width:2.43px;"/>
            </g>
            <g transform="matrix(0.0155943,1.55135,-0.806261,0.0424979,100.364,30.8756)">
                <path d="M68.821,81.22C73.364,77.359 78.166,77.391 83.228,81.317" style="fill:none;stroke:rgb(112,112,112);stroke-width:2.2px;"/>
            </g>
            <g transform="matrix(3.75901e-17,-1.40576,0.730596,1.02441e-16,17.165,215.82)">
                <path d="M68.821,81.22C73.364,77.359 78.166,77.391 83.228,81.317" style="fill:none;stroke:rgb(112,112,112);stroke-width:2.43px;"/>
            </g>
            <g transform="matrix(3.75901e-17,-1.40576,0.730596,1.02441e-16,-22.2265,215.82)">
                <path d="M68.821,81.22C73.364,77.359 78.166,77.391 83.228,81.317" style="fill:none;stroke:rgb(112,112,112);stroke-width:2.43px;"/>
            </g>
            <g transform="matrix(-2.29229,2.52014,-1.17474,-5.603,325.396,370.44)">
                <path d="M68.821,81.22C73.364,77.359 78.166,77.391 83.228,81.317" style="fill:none;stroke:rgb(112,112,112);stroke-width:0.62px;"/>
            </g>
            <g transform="matrix(1.27175,-2.55906,0.937055,2.44187,-108.33,149.651)">
                <path d="M68.821,81.22C73.364,77.359 78.166,77.391 83.228,81.317" style="fill:none;stroke:rgb(112,112,112);stroke-width:1.05px;"/>
            </g>
            <g transform="matrix(3.75901e-17,-1.40576,0.730596,1.02441e-16,16.8573,259.064)">
                <path d="M68.821,81.22C73.364,77.359 78.166,77.391 83.228,81.317" style="fill:none;stroke:rgb(112,112,112);stroke-width:2.43px;"/>
            </g>
            <g transform="matrix(0.402912,0,0,0.92263,30.9935,73.3586)">
                <path d="M15.367,1.68C22.922,1.68 29.046,7.805 29.046,15.36C29.046,15.361 29.046,15.363 29.046,15.364C29.046,22.921 22.921,29.046 15.364,29.046C15.364,29.046 15.363,29.046 15.363,29.046C7.806,29.046 1.68,22.921 1.68,15.364C1.68,15.364 1.68,15.363 1.68,15.363C1.68,7.806 7.806,1.68 15.363,1.68C15.364,1.68 15.366,1.68 15.367,1.68Z" style="fill:white;"/>
                <path d="M15.367,1.68C22.922,1.68 29.046,7.805 29.046,15.36L29.046,15.364C29.046,22.921 22.92,29.046 15.363,29.046C7.807,29.046 1.68,22.92 1.68,15.363C1.68,7.807 7.806,1.68 15.363,1.68L15.367,1.68ZM15.367,3.712L15.363,3.712C8.928,3.712 3.712,8.929 3.712,15.363C3.712,21.798 8.929,27.015 15.363,27.015C21.798,27.015 27.015,21.799 27.015,15.364L27.015,15.36C27.015,8.927 21.8,3.712 15.367,3.712Z" style="fill:rgb(163,163,163);"/>
            </g>
            <g transform="matrix(0.402912,0,0,0.92263,30.9935,159.673)">
                <path d="M15.367,1.68C22.922,1.68 29.046,7.805 29.046,15.36C29.046,15.361 29.046,15.363 29.046,15.364C29.046,22.921 22.921,29.046 15.364,29.046C15.364,29.046 15.363,29.046 15.363,29.046C7.806,29.046 1.68,22.921 1.68,15.364C1.68,15.364 1.68,15.363 1.68,15.363C1.68,7.806 7.806,1.68 15.363,1.68C15.364,1.68 15.366,1.68 15.367,1.68Z" style="fill:white;"/>
                <path d="M15.367,1.68C22.922,1.68 29.046,7.805 29.046,15.36L29.046,15.364C29.046,22.921 22.92,29.046 15.363,29.046C7.807,29.046 1.68,22.92 1.68,15.363C1.68,7.807 7.806,1.68 15.363,1.68L15.367,1.68ZM15.367,3.712L15.363,3.712C8.928,3.712 3.712,8.929 3.712,15.363C3.712,21.798 8.929,27.015 15.363,27.015C21.798,27.015 27.015,21.799 27.015,15.364L27.015,15.36C27.015,8.927 21.8,3.712 15.367,3.712Z" style="fill:rgb(163,163,163);"/>
            </g>
            <g transform="matrix(0.402912,0,0,0.92263,30.9935,116.516)">
                <path d="M15.367,1.68C22.922,1.68 29.046,7.805 29.046,15.36C29.046,15.361 29.046,15.363 29.046,15.364C29.046,22.921 22.921,29.046 15.364,29.046C15.364,29.046 15.363,29.046 15.363,29.046C7.806,29.046 1.68,22.921 1.68,15.364C1.68,15.364 1.68,15.363 1.68,15.363C1.68,7.806 7.806,1.68 15.363,1.68C15.364,1.68 15.366,1.68 15.367,1.68Z" style="fill:white;"/>
                <path d="M15.367,1.68C22.922,1.68 29.046,7.805 29.046,15.36L29.046,15.364C29.046,22.921 22.92,29.046 15.363,29.046C7.807,29.046 1.68,22.92 1.68,15.363C1.68,7.807 7.806,1.68 15.363,1.68L15.367,1.68ZM15.367,3.712L15.363,3.712C8.928,3.712 3.712,8.929 3.712,15.363C3.712,21.798 8.929,27.015 15.363,27.015C21.798,27.015 27.015,21.799 27.015,15.364L27.015,15.36C27.015,8.927 21.8,3.712 15.367,3.712Z" style="fill:rgb(163,163,163);"/>
            </g>
            <g transform="matrix(0.402912,0,0,0.92263,68.6872,73.3586)">
                <path d="M15.367,1.68C22.922,1.68 29.046,7.805 29.046,15.36C29.046,15.361 29.046,15.363 29.046,15.364C29.046,22.921 22.921,29.046 15.364,29.046C15.364,29.046 15.363,29.046 15.363,29.046C7.806,29.046 1.68,22.921 1.68,15.364C1.68,15.364 1.68,15.363 1.68,15.363C1.68,7.806 7.806,1.68 15.363,1.68C15.364,1.68 15.366,1.68 15.367,1.68Z" style="fill:rgb(112,112,112);"/>
                <path d="M15.367,1.68C22.922,1.68 29.046,7.805 29.046,15.36L29.046,15.364C29.046,22.921 22.92,29.046 15.363,29.046C7.807,29.046 1.68,22.92 1.68,15.363C1.68,7.807 7.806,1.68 15.363,1.68L15.367,1.68ZM15.367,3.712L15.363,3.712C8.928,3.712 3.712,8.929 3.712,15.363C3.712,21.798 8.929,27.015 15.363,27.015C21.798,27.015 27.015,21.799 27.015,15.364L27.015,15.36C27.015,8.927 21.8,3.712 15.367,3.712Z" style="fill:rgb(163,163,163);"/>
            </g>
            <g transform="matrix(0.402912,0,0,0.92263,68.6872,159.673)">
                <path d="M15.367,1.68C22.922,1.68 29.046,7.805 29.046,15.36C29.046,15.361 29.046,15.363 29.046,15.364C29.046,22.921 22.921,29.046 15.364,29.046C15.364,29.046 15.363,29.046 15.363,29.046C7.806,29.046 1.68,22.921 1.68,15.364C1.68,15.364 1.68,15.363 1.68,15.363C1.68,7.806 7.806,1.68 15.363,1.68C15.364,1.68 15.366,1.68 15.367,1.68Z" style="fill:white;"/>
                <path d="M15.367,1.68C22.922,1.68 29.046,7.805 29.046,15.36L29.046,15.364C29.046,22.921 22.92,29.046 15.363,29.046C7.807,29.046 1.68,22.92 1.68,15.363C1.68,7.807 7.806,1.68 15.363,1.68L15.367,1.68ZM15.367,3.712L15.363,3.712C8.928,3.712 3.712,8.929 3.712,15.363C3.712,21.798 8.929,27.015 15.363,27.015C21.798,27.015 27.015,21.799 27.015,15.364L27.015,15.36C27.015,8.927 21.8,3.712 15.367,3.712Z" style="fill:rgb(163,163,163);"/>
            </g>
            <g transform="matrix(0.402912,0,0,0.92263,68.6872,116.516)">
                <path d="M15.367,1.68C22.922,1.68 29.046,7.805 29.046,15.36C29.046,15.361 29.046,15.363 29.046,15.364C29.046,22.921 22.921,29.046 15.364,29.046C15.364,29.046 15.363,29.046 15.363,29.046C7.806,29.046 1.68,22.921 1.68,15.364C1.68,15.364 1.68,15.363 1.68,15.363C1.68,7.806 7.806,1.68 15.363,1.68C15.364,1.68 15.366,1.68 15.367,1.68Z" style="fill:white;"/>
                <path d="M15.367,1.68C22.922,1.68 29.046,7.805 29.046,15.36L29.046,15.364C29.046,22.921 22.92,29.046 15.363,29.046C7.807,29.046 1.68,22.92 1.68,15.363C1.68,7.807 7.806,1.68 15.363,1.68L15.367,1.68ZM15.367,3.712L15.363,3.712C8.928,3.712 3.712,8.929 3.712,15.363C3.712,21.798 8.929,27.015 15.363,27.015C21.798,27.015 27.015,21.799 27.015,15.364L27.015,15.36C27.015,8.927 21.8,3.712 15.367,3.712Z" style="fill:rgb(163,163,163);"/>
            </g>
            <g transform="matrix(0.402912,0,0,0.92263,49.8403,73.3586)">
                <path d="M15.367,1.68C22.922,1.68 29.046,7.805 29.046,15.36C29.046,15.361 29.046,15.363 29.046,15.364C29.046,22.921 22.921,29.046 15.364,29.046C15.364,29.046 15.363,29.046 15.363,29.046C7.806,29.046 1.68,22.921 1.68,15.364C1.68,15.364 1.68,15.363 1.68,15.363C1.68,7.806 7.806,1.68 15.363,1.68C15.364,1.68 15.366,1.68 15.367,1.68Z" style="fill:white;"/>
                <path d="M15.367,1.68C22.922,1.68 29.046,7.805 29.046,15.36L29.046,15.364C29.046,22.921 22.92,29.046 15.363,29.046C7.807,29.046 1.68,22.92 1.68,15.363C1.68,7.807 7.806,1.68 15.363,1.68L15.367,1.68ZM15.367,3.712L15.363,3.712C8.928,3.712 3.712,8.929 3.712,15.363C3.712,21.798 8.929,27.015 15.363,27.015C21.798,27.015 27.015,21.799 27.015,15.364L27.015,15.36C27.015,8.927 21.8,3.712 15.367,3.712Z" style="fill:rgb(163,163,163);"/>
            </g>
            <g transform="matrix(0.17952,0,0,0.411084,72.1192,81.2176)">
                <path d="M15.368,1.68C18.996,1.68 22.475,3.121 25.04,5.687C27.605,8.252 29.046,11.731 29.046,15.359C29.046,15.362 29.046,15.365 29.046,15.368C29.046,18.996 27.605,22.475 25.04,25.04C22.475,27.605 18.996,29.046 15.368,29.046C15.365,29.046 15.362,29.046 15.359,29.046C11.731,29.046 8.252,27.605 5.687,25.04C3.121,22.475 1.68,18.996 1.68,15.368C1.68,15.365 1.68,15.362 1.68,15.359C1.68,11.731 3.121,8.252 5.687,5.687C8.252,3.121 11.731,1.68 15.359,1.68C15.362,1.68 15.365,1.68 15.368,1.68Z" style="fill:rgb(242,242,242);"/>
            </g>
            <g transform="matrix(0.402912,0,0,0.92263,49.8403,159.673)">
                <path d="M15.367,1.68C22.922,1.68 29.046,7.805 29.046,15.36C29.046,15.361 29.046,15.363 29.046,15.364C29.046,22.921 22.921,29.046 15.364,29.046C15.364,29.046 15.363,29.046 15.363,29.046C7.806,29.046 1.68,22.921 1.68,15.364C1.68,15.364 1.68,15.363 1.68,15.363C1.68,7.806 7.806,1.68 15.363,1.68C15.364,1.68 15.366,1.68 15.367,1.68Z" style="fill:white;"/>
                <path d="M15.367,1.68C22.922,1.68 29.046,7.805 29.046,15.36L29.046,15.364C29.046,22.921 22.92,29.046 15.363,29.046C7.807,29.046 1.68,22.92 1.68,15.363C1.68,7.807 7.806,1.68 15.363,1.68L15.367,1.68ZM15.367,3.712L15.363,3.712C8.928,3.712 3.712,8.929 3.712,15.363C3.712,21.798 8.929,27.015 15.363,27.015C21.798,27.015 27.015,21.799 27.015,15.364L27.015,15.36C27.015,8.927 21.8,3.712 15.367,3.712Z" style="fill:rgb(163,163,163);"/>
            </g>
        </g>
    </g>
</svg>
