<?xml version="1.0" encoding="UTF-8" standalone="no"?>
<!DOCTYPE svg PUBLIC "-//W3C//DTD SVG 1.1//EN" "http://www.w3.org/Graphics/SVG/1.1/DTD/svg11.dtd">
<svg width="100%" height="100%" viewBox="0 0 370 247" version="1.1" xmlns="http://www.w3.org/2000/svg" xmlns:xlink="http://www.w3.org/1999/xlink" xml:space="preserve" xmlns:serif="http://www.serif.com/" style="fill-rule:evenodd;clip-rule:evenodd;stroke-linecap:round;stroke-linejoin:round;stroke-miterlimit:1.5;">
    <g transform="matrix(1,0,0,1,0,-212.414)">
        <g id="ESP32Circuit" transform="matrix(1.62895,0,0,0.942985,-2.31487e-14,212.414)">
            <rect x="0" y="0" width="227.141" height="261.381" style="fill:none;"/>
            <clipPath id="_clip1">
                <rect x="0" y="0" width="227.141" height="261.381"/>
            </clipPath>
            <g clip-path="url(#_clip1)">
                <g transform="matrix(0.613893,0,0,1.25079,8.99943e-15,-3.04655e-14)">
                    <rect x="0" y="0" width="370" height="224" style="fill:rgb(250,250,250);"/>
                </g>
                <g transform="matrix(6.61016,0,0,6.96913,12.0158,10.5457)">
                    <path d="M27.56,1.68C28.381,1.68 29.046,2.77 29.046,4.115L29.046,26.612C29.046,27.956 28.381,29.046 27.56,29.046C22.795,29.046 7.931,29.046 3.166,29.046C2.772,29.046 2.394,28.79 2.116,28.333C1.837,27.877 1.68,27.257 1.68,26.612C1.68,21.419 1.68,9.308 1.68,4.115C1.68,2.77 2.346,1.68 3.166,1.68C7.931,1.68 22.795,1.68 27.56,1.68Z" style="fill:white;"/>
                    <path d="M27.56,1.68C28.381,1.68 29.046,2.77 29.046,4.115L29.046,26.612C29.046,27.956 28.381,29.046 27.56,29.046L3.166,29.046C2.772,29.046 2.394,28.79 2.116,28.333C1.837,27.877 1.68,27.257 1.68,26.612L1.68,4.115C1.68,2.77 2.346,1.68 3.166,1.68L27.56,1.68ZM27.56,1.883L3.166,1.883C2.414,1.883 1.804,2.882 1.804,4.115L1.804,26.612C1.804,27.204 1.948,27.771 2.203,28.19C2.459,28.608 2.805,28.844 3.166,28.844L27.56,28.844C28.313,28.844 28.923,27.844 28.923,26.612L28.923,4.115C28.923,2.882 28.313,1.883 27.56,1.883Z" style="fill:rgb(163,163,163);"/>
                </g>
                <g transform="matrix(1,0,0,1.07191,-3.23705e-15,0)">
                    <g transform="matrix(0.613893,0,0,0.98932,1.42109e-14,0)">
                        <path d="M91.311,170.314L134.902,170.314L156.378,191.79" style="fill:none;stroke:rgb(204,204,204);stroke-width:1px;"/>
                    </g>
                    <g transform="matrix(0.613893,0,0,0.98932,1.42109e-14,0)">
                        <path d="M205.14,183.298L205.14,191.79" style="fill:none;stroke:rgb(204,204,204);stroke-width:1px;"/>
                    </g>
                    <g transform="matrix(0.613893,0,0,0.98932,1.42109e-14,0)">
                        <path d="M280.353,170.968L280.353,176.446C280.353,178.307 279.613,180.092 278.297,181.408C275.378,184.327 270.063,189.642 267.144,192.561C265.828,193.877 264.043,194.616 262.182,194.616C251.219,194.616 212.995,194.616 212.995,194.616" style="fill:none;stroke:rgb(204,204,204);stroke-width:1px;"/>
                    </g>
                    <g transform="matrix(0.613893,0,0,0.98932,1.42109e-14,0)">
                        <path d="M194.289,150.993L194.289,190.915" style="fill:none;stroke:rgb(204,204,204);stroke-width:1px;"/>
                    </g>
                    <g transform="matrix(0.613893,0,0,0.98932,1.42109e-14,0)">
                        <path d="M235.225,118.196L235.225,167.595C235.225,169.456 234.485,171.241 233.169,172.557C227.689,178.037 213.142,192.584 213.142,192.584" style="fill:none;stroke:rgb(204,204,204);stroke-width:1px;"/>
                    </g>
                    <g transform="matrix(0.613893,0,0,0.98932,1.42109e-14,0)">
                        <path d="M178.507,112.895L178.507,193.307" style="fill:none;stroke:rgb(204,204,204);stroke-width:1px;"/>
                    </g>
                    <g transform="matrix(0.613893,0,0,0.98932,1.42109e-14,0)">
                        <path d="M117.806,97.69C117.806,97.69 137.643,117.527 144.171,124.055C145.487,125.371 146.226,127.156 146.226,129.017C146.226,137.672 146.226,163.207 146.226,171.862C146.226,173.723 146.965,175.508 148.281,176.824C153.331,181.873 165.935,194.478 165.935,194.478" style="fill:none;stroke:rgb(204,204,204);stroke-width:1px;"/>
                    </g>
                    <g transform="matrix(0.613893,0,0,0.98932,1.42109e-14,0)">
                        <path d="M90.035,58.909L97.854,58.909C99.715,58.909 101.5,59.648 102.816,60.964C110.632,68.78 138.459,96.607 146.275,104.423C147.591,105.739 148.33,107.524 148.33,109.385C148.33,120.461 148.33,159.958 148.33,171.034C148.33,172.895 149.07,174.68 150.386,175.996C155.694,181.304 169.448,195.059 169.448,195.059" style="fill:none;stroke:rgb(204,204,204);stroke-width:1px;"/>
                    </g>
                    <g transform="matrix(0.613893,0,0,0.98932,1.42109e-14,0)">
                        <path d="M151.493,76.417L151.493,171.034C151.493,172.895 152.232,174.68 153.548,175.996C158.312,180.76 169.705,192.153 169.705,192.153" style="fill:none;stroke:rgb(204,204,204);stroke-width:1px;"/>
                    </g>
                    <g transform="matrix(0.613893,0,0,0.98932,1.42109e-14,0)">
                        <path d="M157.231,43.866C157.231,43.866 160.666,47.301 162.977,49.612C164.293,50.928 165.033,52.713 165.033,54.574L165.033,181.029C165.033,182.89 165.772,184.675 167.088,185.991C169.233,188.136 172.487,191.39 173.977,192.881" style="fill:none;stroke:rgb(204,204,204);stroke-width:1px;"/>
                    </g>
                    <g transform="matrix(0.613893,0,0,0.98932,1.42109e-14,0)">
                        <path d="M132.246,140.481L132.246,161.219C132.246,163.08 132.986,164.865 134.302,166.181C140.711,172.591 159.911,191.79 159.911,191.79" style="fill:none;stroke:rgb(204,204,204);stroke-width:1px;"/>
                    </g>
                    <g transform="matrix(0.613893,0,0,0.98932,1.42109e-14,0)">
                        <path d="M214.12,68.526C214.12,68.526 197.427,85.219 191.503,91.144C190.187,92.46 189.447,94.245 189.447,96.106C189.447,99.833 189.447,106.261 189.447,109.989C189.447,111.85 188.708,113.634 187.392,114.95C185.909,116.434 183.915,118.428 182.432,119.911C181.116,121.227 180.376,123.011 180.376,124.873C180.376,138.173 180.376,192.584 180.376,192.584" style="fill:none;stroke:rgb(204,204,204);stroke-width:1px;"/>
                    </g>
                    <g transform="matrix(0.613893,0,0,0.98932,1.42109e-14,0)">
                        <path d="M275.539,49.891C275.539,49.891 217.687,107.744 205.968,119.462C204.652,120.778 202.867,121.518 201.006,121.518C199.082,121.518 196.568,121.518 194.643,121.518C192.782,121.518 190.997,122.257 189.681,123.573C188.057,125.197 185.802,127.453 184.178,129.077C182.862,130.393 182.122,132.178 182.122,134.039C182.122,146.127 182.122,191.79 182.122,191.79" style="fill:none;stroke:rgb(204,204,204);stroke-width:1px;"/>
                    </g>
                </g>
                <g transform="matrix(1.47229,0,0,1.53081,90.9509,199.886)">
                    <path d="M25.711,1.68C27.553,1.68 29.046,4.162 29.046,7.222L29.046,23.504C29.046,26.565 27.553,29.046 25.711,29.046C20.448,29.046 10.278,29.046 5.016,29.046C4.131,29.046 3.283,28.463 2.657,27.423C2.032,26.384 1.68,24.974 1.68,23.504C1.68,18.761 1.68,11.966 1.68,7.222C1.68,5.753 2.032,4.343 2.657,3.304C3.283,2.264 4.131,1.68 5.016,1.68C10.278,1.68 20.448,1.68 25.711,1.68Z" style="fill:white;"/>
                    <path d="M25.711,1.68C27.553,1.68 29.046,4.162 29.046,7.222L29.046,23.504C29.046,26.565 27.553,29.046 25.711,29.046L5.016,29.046C4.131,29.046 3.283,28.463 2.657,27.423C2.032,26.384 1.68,24.974 1.68,23.504L1.68,7.222C1.68,5.753 2.032,4.343 2.657,3.304C3.283,2.264 4.131,1.68 5.016,1.68L25.711,1.68ZM25.711,2.604L5.016,2.604C4.279,2.604 3.572,3.091 3.05,3.957C2.529,4.823 2.236,5.997 2.236,7.222L2.236,23.504C2.236,24.729 2.529,25.904 3.05,26.77C3.572,27.636 4.279,28.123 5.016,28.123L25.711,28.123C27.246,28.123 28.49,26.055 28.49,23.504L28.49,7.222C28.49,4.672 27.246,2.604 25.711,2.604Z" style="fill:rgb(163,163,163);"/>
                </g>
                <g transform="matrix(0.613893,0,0,1.06046,-80.7762,109.756)">
                    <g transform="matrix(13.6864,0,0,13.6864,337.13,112)">
                    </g>
                    <text x="295.961px" y="112px" style="font-family:'SNPro-Bold', 'SN Pro';font-weight:700;font-size:13.686px;fill:rgb(112,112,112);">E<tspan x="303.859px " y="112px ">S</tspan>P32</text>
                </g>
                <g transform="matrix(0.402912,0,0,0.696005,50.1533,169.98)">
                    <path d="M15.367,1.68C22.922,1.68 29.046,7.805 29.046,15.36C29.046,15.361 29.046,15.363 29.046,15.364C29.046,22.921 22.921,29.046 15.364,29.046C15.364,29.046 15.363,29.046 15.363,29.046C7.806,29.046 1.68,22.921 1.68,15.364C1.68,15.364 1.68,15.363 1.68,15.363C1.68,7.806 7.806,1.68 15.363,1.68C15.364,1.68 15.366,1.68 15.367,1.68Z" style="fill:white;"/>
                    <path d="M15.367,1.68C22.922,1.68 29.046,7.805 29.046,15.36L29.046,15.364C29.046,22.921 22.92,29.046 15.363,29.046C7.807,29.046 1.68,22.92 1.68,15.363C1.68,7.807 7.806,1.68 15.363,1.68L15.367,1.68ZM15.367,3.712L15.363,3.712C8.928,3.712 3.712,8.929 3.712,15.363C3.712,21.798 8.929,27.015 15.363,27.015C21.798,27.015 27.015,21.799 27.015,15.364L27.015,15.36C27.015,8.927 21.8,3.712 15.367,3.712Z" style="fill:rgb(163,163,163);"/>
                </g>
                <g transform="matrix(0.613893,0,0,1.06046,-138.149,65.8278)">
                    <g transform="matrix(10.6667,0,0,10.6667,318.749,112)">
                    </g>
                    <text x="314.343px" y="112px" style="font-family:'SNPro-Bold', 'SN Pro';font-weight:700;font-size:10.667px;fill:rgb(112,112,112);">1</text>
                </g>
                <g transform="matrix(0.402912,0,0,0.696005,119.744,174.164)">
                    <path d="M15.367,1.68C22.922,1.68 29.046,7.805 29.046,15.36C29.046,15.361 29.046,15.363 29.046,15.364C29.046,22.921 22.921,29.046 15.364,29.046C15.364,29.046 15.363,29.046 15.363,29.046C7.806,29.046 1.68,22.921 1.68,15.364C1.68,15.364 1.68,15.363 1.68,15.363C1.68,7.806 7.806,1.68 15.363,1.68C15.364,1.68 15.366,1.68 15.367,1.68Z" style="fill:white;"/>
                    <path d="M15.367,1.68C22.922,1.68 29.046,7.805 29.046,15.36L29.046,15.364C29.046,22.921 22.92,29.046 15.363,29.046C7.807,29.046 1.68,22.92 1.68,15.363C1.68,7.807 7.806,1.68 15.363,1.68L15.367,1.68ZM15.367,3.712L15.363,3.712C8.928,3.712 3.712,8.929 3.712,15.363C3.712,21.798 8.929,27.015 15.363,27.015C21.798,27.015 27.015,21.799 27.015,15.364L27.015,15.36C27.015,8.927 21.8,3.712 15.367,3.712Z" style="fill:rgb(163,163,163);"/>
                </g>
                <g transform="matrix(0.613893,0,0,1.06046,-68.4795,69.532)">
                    <g transform="matrix(10.6667,0,0,10.6667,319.645,112)">
                    </g>
                    <text x="313.447px" y="112px" style="font-family:'SNPro-Bold', 'SN Pro';font-weight:700;font-size:10.667px;fill:rgb(112,112,112);">2</text>
                </g>
                <g transform="matrix(0.402912,0,0,0.696005,165.917,161.089)">
                    <path d="M15.367,1.68C22.922,1.68 29.046,7.805 29.046,15.36C29.046,15.361 29.046,15.363 29.046,15.364C29.046,22.921 22.921,29.046 15.364,29.046C15.364,29.046 15.363,29.046 15.363,29.046C7.806,29.046 1.68,22.921 1.68,15.364C1.68,15.364 1.68,15.363 1.68,15.363C1.68,7.806 7.806,1.68 15.363,1.68C15.364,1.68 15.366,1.68 15.367,1.68Z" style="fill:white;"/>
                    <path d="M15.367,1.68C22.922,1.68 29.046,7.805 29.046,15.36L29.046,15.364C29.046,22.921 22.92,29.046 15.363,29.046C7.807,29.046 1.68,22.92 1.68,15.363C1.68,7.807 7.806,1.68 15.363,1.68L15.367,1.68ZM15.367,3.712L15.363,3.712C8.928,3.712 3.712,8.929 3.712,15.363C3.712,21.798 8.929,27.015 15.363,27.015C21.798,27.015 27.015,21.799 27.015,15.364L27.015,15.36C27.015,8.927 21.8,3.712 15.367,3.712Z" style="fill:rgb(163,163,163);"/>
                </g>
                <g transform="matrix(0.613893,0,0,1.06046,-22.0289,56.7993)">
                    <g transform="matrix(10.6667,0,0,10.6667,319.661,112)">
                    </g>
                    <text x="313.431px" y="112px" style="font-family:'SNPro-Bold', 'SN Pro';font-weight:700;font-size:10.667px;fill:rgb(112,112,112);">3</text>
                </g>
                <g transform="matrix(0.402912,0,0,0.696005,75.0849,138.076)">
                    <path d="M15.367,1.68C22.922,1.68 29.046,7.805 29.046,15.36C29.046,15.361 29.046,15.363 29.046,15.364C29.046,22.921 22.921,29.046 15.364,29.046C15.364,29.046 15.363,29.046 15.363,29.046C7.806,29.046 1.68,22.921 1.68,15.364C1.68,15.364 1.68,15.363 1.68,15.363C1.68,7.806 7.806,1.68 15.363,1.68C15.364,1.68 15.366,1.68 15.367,1.68Z" style="fill:white;"/>
                    <path d="M15.367,1.68C22.922,1.68 29.046,7.805 29.046,15.36L29.046,15.364C29.046,22.921 22.92,29.046 15.363,29.046C7.807,29.046 1.68,22.92 1.68,15.363C1.68,7.807 7.806,1.68 15.363,1.68L15.367,1.68ZM15.367,3.712L15.363,3.712C8.928,3.712 3.712,8.929 3.712,15.363C3.712,21.798 8.929,27.015 15.363,27.015C21.798,27.015 27.015,21.799 27.015,15.364L27.015,15.36C27.015,8.927 21.8,3.712 15.367,3.712Z" style="fill:rgb(163,163,163);"/>
                </g>
                <g transform="matrix(0.613893,0,0,1.06046,-113.337,33.9921)">
                    <g transform="matrix(10.6667,0,0,10.6667,319.682,112)">
                    </g>
                    <text x="313.41px" y="112px" style="font-family:'SNPro-Bold', 'SN Pro';font-weight:700;font-size:10.667px;fill:rgb(112,112,112);">4</text>
                </g>
                <g transform="matrix(0.402912,0,0,0.696005,113.083,139.906)">
                    <path d="M15.367,1.68C22.922,1.68 29.046,7.805 29.046,15.36C29.046,15.361 29.046,15.363 29.046,15.364C29.046,22.921 22.921,29.046 15.364,29.046C15.364,29.046 15.363,29.046 15.363,29.046C7.806,29.046 1.68,22.921 1.68,15.364C1.68,15.364 1.68,15.363 1.68,15.363C1.68,7.806 7.806,1.68 15.363,1.68C15.364,1.68 15.366,1.68 15.367,1.68Z" style="fill:white;"/>
                    <path d="M15.367,1.68C22.922,1.68 29.046,7.805 29.046,15.36L29.046,15.364C29.046,22.921 22.92,29.046 15.363,29.046C7.807,29.046 1.68,22.92 1.68,15.363C1.68,7.807 7.806,1.68 15.363,1.68L15.367,1.68ZM15.367,3.712L15.363,3.712C8.928,3.712 3.712,8.929 3.712,15.363C3.712,21.798 8.929,27.015 15.363,27.015C21.798,27.015 27.015,21.799 27.015,15.364L27.015,15.36C27.015,8.927 21.8,3.712 15.367,3.712Z" style="fill:rgb(163,163,163);"/>
                </g>
                <g transform="matrix(0.613893,0,0,1.06046,-75.0611,35.4113)">
                    <g transform="matrix(10.6667,0,0,10.6667,319.746,112)">
                    </g>
                    <text x="313.346px" y="112px" style="font-family:'SNPro-Bold', 'SN Pro';font-weight:700;font-size:10.667px;fill:rgb(112,112,112);">5</text>
                </g>
                <g transform="matrix(0.402912,0,0,0.696005,66.3045,92.3116)">
                    <path d="M15.367,1.68C22.922,1.68 29.046,7.805 29.046,15.36C29.046,15.361 29.046,15.363 29.046,15.364C29.046,22.921 22.921,29.046 15.364,29.046C15.364,29.046 15.363,29.046 15.363,29.046C7.806,29.046 1.68,22.921 1.68,15.364C1.68,15.364 1.68,15.363 1.68,15.363C1.68,7.806 7.806,1.68 15.363,1.68C15.364,1.68 15.366,1.68 15.367,1.68Z" style="fill:white;"/>
                    <path d="M15.367,1.68C22.922,1.68 29.046,7.805 29.046,15.36L29.046,15.364C29.046,22.921 22.92,29.046 15.363,29.046C7.807,29.046 1.68,22.92 1.68,15.363C1.68,7.807 7.806,1.68 15.363,1.68L15.367,1.68ZM15.367,3.712L15.363,3.712C8.928,3.712 3.712,8.929 3.712,15.363C3.712,21.798 8.929,27.015 15.363,27.015C21.798,27.015 27.015,21.799 27.015,15.364L27.015,15.36C27.015,8.927 21.8,3.712 15.367,3.712Z" style="fill:rgb(163,163,163);"/>
                </g>
                <g transform="matrix(0.613893,0,0,1.06046,-122.038,-12.0464)">
                    <g transform="matrix(10.6667,0,0,10.6667,319.746,112)">
                    </g>
                    <text x="313.346px" y="112px" style="font-family:'SNPro-Bold', 'SN Pro';font-weight:700;font-size:10.667px;fill:rgb(112,112,112);">6</text>
                </g>
                <g transform="matrix(0.402912,0,0,0.696005,103.394,101.203)">
                    <path d="M15.367,1.68C22.922,1.68 29.046,7.805 29.046,15.36C29.046,15.361 29.046,15.363 29.046,15.364C29.046,22.921 22.921,29.046 15.364,29.046C15.364,29.046 15.363,29.046 15.363,29.046C7.806,29.046 1.68,22.921 1.68,15.364C1.68,15.364 1.68,15.363 1.68,15.363C1.68,7.806 7.806,1.68 15.363,1.68C15.364,1.68 15.366,1.68 15.367,1.68Z" style="fill:white;"/>
                    <path d="M15.367,1.68C22.922,1.68 29.046,7.805 29.046,15.36L29.046,15.364C29.046,22.921 22.92,29.046 15.363,29.046C7.807,29.046 1.68,22.92 1.68,15.363C1.68,7.807 7.806,1.68 15.363,1.68L15.367,1.68ZM15.367,3.712L15.363,3.712C8.928,3.712 3.712,8.929 3.712,15.363C3.712,21.798 8.929,27.015 15.363,27.015C21.798,27.015 27.015,21.799 27.015,15.364L27.015,15.36C27.015,8.927 21.8,3.712 15.367,3.712Z" style="fill:rgb(163,163,163);"/>
                </g>
                <g transform="matrix(0.613893,0,0,1.06046,-84.6307,-2.74372)">
                    <g transform="matrix(10.6667,0,0,10.6667,319.447,112)">
                    </g>
                    <text x="313.645px" y="112px" style="font-family:'SNPro-Bold', 'SN Pro';font-weight:700;font-size:10.667px;fill:rgb(112,112,112);">7</text>
                </g>
                <g transform="matrix(0.402912,0,0,0.696005,138.213,105.126)">
                    <path d="M15.367,1.68C22.922,1.68 29.046,7.805 29.046,15.36C29.046,15.361 29.046,15.363 29.046,15.364C29.046,22.921 22.921,29.046 15.364,29.046C15.364,29.046 15.363,29.046 15.363,29.046C7.806,29.046 1.68,22.921 1.68,15.364C1.68,15.364 1.68,15.363 1.68,15.363C1.68,7.806 7.806,1.68 15.363,1.68C15.364,1.68 15.366,1.68 15.367,1.68Z" style="fill:white;"/>
                    <path d="M15.367,1.68C22.922,1.68 29.046,7.805 29.046,15.36L29.046,15.364C29.046,22.921 22.92,29.046 15.363,29.046C7.807,29.046 1.68,22.92 1.68,15.363C1.68,7.807 7.806,1.68 15.363,1.68L15.367,1.68ZM15.367,3.712L15.363,3.712C8.928,3.712 3.712,8.929 3.712,15.363C3.712,21.798 8.929,27.015 15.363,27.015C21.798,27.015 27.015,21.799 27.015,15.364L27.015,15.36C27.015,8.927 21.8,3.712 15.367,3.712Z" style="fill:rgb(163,163,163);"/>
                </g>
                <g transform="matrix(0.613893,0,0,1.06046,-49.7326,0.836167)">
                    <g transform="matrix(10.6667,0,0,10.6667,319.746,112)">
                    </g>
                    <text x="313.346px" y="112px" style="font-family:'SNPro-Bold', 'SN Pro';font-weight:700;font-size:10.667px;fill:rgb(112,112,112);">8</text>
                </g>
                <g transform="matrix(0.402912,0,0,0.696005,48.8951,51.7776)">
                    <path d="M15.367,1.68C22.922,1.68 29.046,7.805 29.046,15.36C29.046,15.361 29.046,15.363 29.046,15.364C29.046,22.921 22.921,29.046 15.364,29.046C15.364,29.046 15.363,29.046 15.363,29.046C7.806,29.046 1.68,22.921 1.68,15.364C1.68,15.364 1.68,15.363 1.68,15.363C1.68,7.806 7.806,1.68 15.363,1.68C15.364,1.68 15.366,1.68 15.367,1.68Z" style="fill:white;"/>
                    <path d="M15.367,1.68C22.922,1.68 29.046,7.805 29.046,15.36L29.046,15.364C29.046,22.921 22.92,29.046 15.363,29.046C7.807,29.046 1.68,22.92 1.68,15.363C1.68,7.807 7.806,1.68 15.363,1.68L15.367,1.68ZM15.367,3.712L15.363,3.712C8.928,3.712 3.712,8.929 3.712,15.363C3.712,21.798 8.929,27.015 15.363,27.015C21.798,27.015 27.015,21.799 27.015,15.364L27.015,15.36C27.015,8.927 21.8,3.712 15.367,3.712Z" style="fill:rgb(163,163,163);"/>
                </g>
                <g transform="matrix(0.613893,0,0,1.06046,-139.05,-52.5119)">
                    <g transform="matrix(10.6667,0,0,10.6667,319.714,112)">
                    </g>
                    <text x="313.378px" y="112px" style="font-family:'SNPro-Bold', 'SN Pro';font-weight:700;font-size:10.667px;fill:rgb(112,112,112);">9</text>
                </g>
                <g transform="matrix(0.402912,0,0,0.696005,87.3471,70.3448)">
                    <path d="M15.367,1.68C22.922,1.68 29.046,7.805 29.046,15.36C29.046,15.361 29.046,15.363 29.046,15.364C29.046,22.921 22.921,29.046 15.364,29.046C15.364,29.046 15.363,29.046 15.363,29.046C7.806,29.046 1.68,22.921 1.68,15.364C1.68,15.364 1.68,15.363 1.68,15.363C1.68,7.806 7.806,1.68 15.363,1.68C15.364,1.68 15.366,1.68 15.367,1.68Z" style="fill:white;"/>
                    <path d="M15.367,1.68C22.922,1.68 29.046,7.805 29.046,15.36L29.046,15.364C29.046,22.921 22.92,29.046 15.363,29.046C7.807,29.046 1.68,22.92 1.68,15.363C1.68,7.807 7.806,1.68 15.363,1.68L15.367,1.68ZM15.367,3.712L15.363,3.712C8.928,3.712 3.712,8.929 3.712,15.363C3.712,21.798 8.929,27.015 15.363,27.015C21.798,27.015 27.015,21.799 27.015,15.364L27.015,15.36C27.015,8.927 21.8,3.712 15.367,3.712Z" style="fill:rgb(163,163,163);"/>
                </g>
                <g transform="matrix(0.613893,0,0,1.06046,-100.916,-33.8761)">
                    <g transform="matrix(10.6667,0,0,10.6667,321.949,112)">
                    </g>
                    <text x="311.143px" y="112px" style="font-family:'SNPro-Bold', 'SN Pro';font-weight:700;font-size:10.667px;fill:rgb(112,112,112);">10</text>
                </g>
                <g transform="matrix(0.402912,0,0,0.696005,125.042,61.9764)">
                    <path d="M15.367,1.68C22.922,1.68 29.046,7.805 29.046,15.36C29.046,15.361 29.046,15.363 29.046,15.364C29.046,22.921 22.921,29.046 15.364,29.046C15.364,29.046 15.363,29.046 15.363,29.046C7.806,29.046 1.68,22.921 1.68,15.364C1.68,15.364 1.68,15.363 1.68,15.363C1.68,7.806 7.806,1.68 15.363,1.68C15.364,1.68 15.366,1.68 15.367,1.68Z" style="fill:white;"/>
                    <path d="M15.367,1.68C22.922,1.68 29.046,7.805 29.046,15.36L29.046,15.364C29.046,22.921 22.92,29.046 15.363,29.046C7.807,29.046 1.68,22.92 1.68,15.363C1.68,7.807 7.806,1.68 15.363,1.68L15.367,1.68ZM15.367,3.712L15.363,3.712C8.928,3.712 3.712,8.929 3.712,15.363C3.712,21.798 8.929,27.015 15.363,27.015C21.798,27.015 27.015,21.799 27.015,15.364L27.015,15.36C27.015,8.927 21.8,3.712 15.367,3.712Z" style="fill:rgb(163,163,163);"/>
                </g>
                <g transform="matrix(0.613893,0,0,1.06046,-63.3794,-42.3815)">
                    <g transform="matrix(10.6667,0,0,10.6667,320.951,112)">
                    </g>
                    <text x="312.141px" y="112px" style="font-family:'SNPro-Bold', 'SN Pro';font-weight:700;font-size:10.667px;fill:rgb(112,112,112);">11</text>
                </g>
                <g transform="matrix(0.402912,0,0,0.696005,163.005,42.2541)">
                    <path d="M15.367,1.68C22.922,1.68 29.046,7.805 29.046,15.36C29.046,15.361 29.046,15.363 29.046,15.364C29.046,22.921 22.921,29.046 15.364,29.046C15.364,29.046 15.363,29.046 15.363,29.046C7.806,29.046 1.68,22.921 1.68,15.364C1.68,15.364 1.68,15.363 1.68,15.363C1.68,7.806 7.806,1.68 15.363,1.68C15.364,1.68 15.366,1.68 15.367,1.68Z" style="fill:white;"/>
                    <path d="M15.367,1.68C22.922,1.68 29.046,7.805 29.046,15.36L29.046,15.364C29.046,22.921 22.92,29.046 15.363,29.046C7.807,29.046 1.68,22.92 1.68,15.363C1.68,7.807 7.806,1.68 15.363,1.68L15.367,1.68ZM15.367,3.712L15.363,3.712C8.928,3.712 3.712,8.929 3.712,15.363C3.712,21.798 8.929,27.015 15.363,27.015C21.798,27.015 27.015,21.799 27.015,15.364L27.015,15.36C27.015,8.927 21.8,3.712 15.367,3.712Z" style="fill:rgb(163,163,163);"/>
                </g>
                <g transform="matrix(0.613893,0,0,1.06046,-25.1476,-62.0634)">
                    <g transform="matrix(10.6667,0,0,10.6667,321.847,112)">
                    </g>
                    <text x="311.245px" y="112px" style="font-family:'SNPro-Bold', 'SN Pro';font-weight:700;font-size:10.667px;fill:rgb(112,112,112);">12</text>
                </g>
                <g transform="matrix(0.402912,0,0,0.696005,91.0686,35.8254)">
                    <path d="M15.367,1.68C22.922,1.68 29.046,7.805 29.046,15.36C29.046,15.361 29.046,15.363 29.046,15.364C29.046,22.921 22.921,29.046 15.364,29.046C15.364,29.046 15.363,29.046 15.363,29.046C7.806,29.046 1.68,22.921 1.68,15.364C1.68,15.364 1.68,15.363 1.68,15.363C1.68,7.806 7.806,1.68 15.363,1.68C15.364,1.68 15.366,1.68 15.367,1.68Z" style="fill:white;"/>
                    <path d="M15.367,1.68C22.922,1.68 29.046,7.805 29.046,15.36L29.046,15.364C29.046,22.921 22.92,29.046 15.363,29.046C7.807,29.046 1.68,22.92 1.68,15.363C1.68,7.807 7.806,1.68 15.363,1.68L15.367,1.68ZM15.367,3.712L15.363,3.712C8.928,3.712 3.712,8.929 3.712,15.363C3.712,21.798 8.929,27.015 15.363,27.015C21.798,27.015 27.015,21.799 27.015,15.364L27.015,15.36C27.015,8.927 21.8,3.712 15.367,3.712Z" style="fill:rgb(163,163,163);"/>
                </g>
                <g transform="matrix(0.613893,0,0,1.06046,-97.0355,-68.5325)">
                    <g transform="matrix(10.6667,0,0,10.6667,321.863,112)">
                    </g>
                    <text x="311.229px" y="112px" style="font-family:'SNPro-Bold', 'SN Pro';font-weight:700;font-size:10.667px;fill:rgb(112,112,112);">13</text>
                </g>
            </g>
        </g>
    </g>
</svg>
